M48
;DRILL file {KiCad (5.0.2)-1} date 6/28/2019 12:16:41 PM
;FORMAT={-:-/ absolute / metric / decimal}
FMAT,2
METRIC,TZ
T1C0.200
T2C0.381
T3C0.600
T4C0.800
T5C0.850
%
G90
G05
T1
X154.832Y-92.268
X154.832Y-93.448
X156.012Y-92.268
X156.012Y-93.448
T2
X140.922Y-95.558
X143.622Y-81.258
X146.222Y-92.558
X146.322Y-95.858
X151.022Y-84.358
X151.622Y-77.258
X152.922Y-76.958
X153.015Y-94.354
X153.022Y-96.158
X153.622Y-85.958
X153.838Y-76.856
X153.922Y-71.558
X154.722Y-84.858
X155.222Y-73.358
X155.922Y-88.058
X156.822Y-86.658
X158.022Y-94.558
X158.073Y-67.054
X158.222Y-71.758
X158.222Y-92.158
X158.286Y-72.958
X158.322Y-67.958
X158.322Y-90.487
X158.422Y-69.058
X158.477Y-70.203
X158.822Y-74.858
X161.622Y-74.358
X162.446Y-70.158
T4
X139.722Y-78.858
X139.722Y-80.858
X139.722Y-82.858
X139.722Y-84.858
T5
X157.722Y-79.458
X157.722Y-84.458
T3
X160.072Y-78.458G85X160.772Y-78.458
G05
X160.772Y-85.458G85X160.072Y-85.458
G05
T0
M30
