G04 #@! TF.GenerationSoftware,KiCad,Pcbnew,(5.0.2)-1*
G04 #@! TF.CreationDate,2019-06-28T12:16:38-04:00*
G04 #@! TF.ProjectId,BlueNRG-SPBTLE-1S ACM,426c7565-4e52-4472-9d53-5042544c452d,rev?*
G04 #@! TF.SameCoordinates,Original*
G04 #@! TF.FileFunction,Copper,L1,Top*
G04 #@! TF.FilePolarity,Positive*
%FSLAX46Y46*%
G04 Gerber Fmt 4.6, Leading zero omitted, Abs format (unit mm)*
G04 Created by KiCad (PCBNEW (5.0.2)-1) date 6/28/2019 12:16:38 PM*
%MOMM*%
%LPD*%
G01*
G04 APERTURE LIST*
G04 #@! TA.AperFunction,SMDPad,CuDef*
%ADD10R,1.200000X1.000000*%
G04 #@! TD*
G04 #@! TA.AperFunction,SMDPad,CuDef*
%ADD11R,1.000000X1.200000*%
G04 #@! TD*
G04 #@! TA.AperFunction,ComponentPad*
%ADD12R,1.350000X1.350000*%
G04 #@! TD*
G04 #@! TA.AperFunction,ComponentPad*
%ADD13O,1.350000X1.350000*%
G04 #@! TD*
G04 #@! TA.AperFunction,Conductor*
%ADD14C,0.100000*%
G04 #@! TD*
G04 #@! TA.AperFunction,SMDPad,CuDef*
%ADD15C,0.950000*%
G04 #@! TD*
G04 #@! TA.AperFunction,SMDPad,CuDef*
%ADD16C,1.150000*%
G04 #@! TD*
G04 #@! TA.AperFunction,SMDPad,CuDef*
%ADD17R,1.900000X1.500000*%
G04 #@! TD*
G04 #@! TA.AperFunction,ComponentPad*
%ADD18C,1.450000*%
G04 #@! TD*
G04 #@! TA.AperFunction,SMDPad,CuDef*
%ADD19R,1.350000X0.400000*%
G04 #@! TD*
G04 #@! TA.AperFunction,ComponentPad*
%ADD20O,1.900000X1.200000*%
G04 #@! TD*
G04 #@! TA.AperFunction,SMDPad,CuDef*
%ADD21R,1.900000X1.200000*%
G04 #@! TD*
G04 #@! TA.AperFunction,SMDPad,CuDef*
%ADD22R,1.600000X1.400000*%
G04 #@! TD*
G04 #@! TA.AperFunction,SMDPad,CuDef*
%ADD23R,0.200000X0.450000*%
G04 #@! TD*
G04 #@! TA.AperFunction,SMDPad,CuDef*
%ADD24R,0.450000X0.200000*%
G04 #@! TD*
G04 #@! TA.AperFunction,SMDPad,CuDef*
%ADD25R,1.060000X0.650000*%
G04 #@! TD*
G04 #@! TA.AperFunction,SMDPad,CuDef*
%ADD26C,1.680000*%
G04 #@! TD*
G04 #@! TA.AperFunction,ViaPad*
%ADD27C,0.500000*%
G04 #@! TD*
G04 #@! TA.AperFunction,SMDPad,CuDef*
%ADD28C,0.250000*%
G04 #@! TD*
G04 #@! TA.AperFunction,ViaPad*
%ADD29C,0.762000*%
G04 #@! TD*
G04 #@! TA.AperFunction,Conductor*
%ADD30C,0.160000*%
G04 #@! TD*
G04 #@! TA.AperFunction,Conductor*
%ADD31C,0.254000*%
G04 #@! TD*
G04 APERTURE END LIST*
D10*
G04 #@! TO.P,U2,5*
G04 #@! TO.N,Vdd*
X143510000Y-74184000D03*
G04 #@! TO.P,U2,4*
G04 #@! TO.N,Net-(U2-Pad4)*
X143510000Y-72914000D03*
G04 #@! TO.P,U2,3*
G04 #@! TO.N,Net-(U2-Pad3)*
X143510000Y-71644000D03*
G04 #@! TO.P,U2,2*
G04 #@! TO.N,Net-(U2-Pad2)*
X143510000Y-70374000D03*
G04 #@! TO.P,U2,1*
G04 #@! TO.N,Net-(U2-Pad1)*
X143510000Y-69104000D03*
D11*
G04 #@! TO.P,U2,6*
G04 #@! TO.N,Net-(U2-Pad6)*
X144970000Y-75184000D03*
G04 #@! TO.P,U2,7*
G04 #@! TO.N,Net-(R1-Pad1)*
X146240000Y-75184000D03*
G04 #@! TO.P,U2,8*
G04 #@! TO.N,GND*
X147510000Y-75184000D03*
G04 #@! TO.P,U2,9*
G04 #@! TO.N,Net-(U2-Pad9)*
X148780000Y-75184000D03*
G04 #@! TO.P,U2,10*
G04 #@! TO.N,Net-(U2-Pad10)*
X150050000Y-75184000D03*
G04 #@! TO.P,U2,11*
G04 #@! TO.N,Net-(U2-Pad11)*
X151320000Y-75184000D03*
G04 #@! TO.P,U2,12*
G04 #@! TO.N,JTCK-SWCTK*
X152590000Y-75184000D03*
G04 #@! TO.P,U2,13*
G04 #@! TO.N,JTMS-SWTDIO*
X153860000Y-75184000D03*
G04 #@! TO.P,U2,14*
G04 #@! TO.N,Net-(U2-Pad14)*
X155130000Y-75184000D03*
D10*
G04 #@! TO.P,U2,15*
G04 #@! TO.N,SPI_CLK*
X157010000Y-74184000D03*
G04 #@! TO.P,U2,16*
G04 #@! TO.N,SPI_OUT*
X157010000Y-72914000D03*
G04 #@! TO.P,U2,17*
G04 #@! TO.N,SPI_IN*
X157010000Y-71644000D03*
G04 #@! TO.P,U2,18*
G04 #@! TO.N,SPI_CS*
X157010000Y-70374000D03*
G04 #@! TO.P,U2,19*
G04 #@! TO.N,Net-(C5-Pad1)*
X157010000Y-69104000D03*
G04 #@! TO.P,U2,20*
G04 #@! TO.N,DIO12-INT*
X157010000Y-67834000D03*
D11*
G04 #@! TO.P,U2,21*
G04 #@! TO.N,Net-(U2-Pad21)*
X155130000Y-63684000D03*
G04 #@! TO.P,U2,22*
G04 #@! TO.N,Net-(U2-Pad22)*
X153860000Y-63684000D03*
G04 #@! TO.P,U2,23*
G04 #@! TO.N,Net-(U2-Pad23)*
X152590000Y-63684000D03*
G04 #@! TD*
D12*
G04 #@! TO.P,J1,1*
G04 #@! TO.N,Vdd*
X139722000Y-78858000D03*
D13*
G04 #@! TO.P,J1,2*
G04 #@! TO.N,GND*
X139722000Y-80858000D03*
G04 #@! TO.P,J1,3*
G04 #@! TO.N,JTMS-SWTDIO*
X139722000Y-82858000D03*
G04 #@! TO.P,J1,4*
G04 #@! TO.N,JTCK-SWCTK*
X139722000Y-84858000D03*
G04 #@! TD*
D14*
G04 #@! TO.N,Vdd*
G04 #@! TO.C,C1*
G36*
X141482779Y-72284144D02*
X141505834Y-72287563D01*
X141528443Y-72293227D01*
X141550387Y-72301079D01*
X141571457Y-72311044D01*
X141591448Y-72323026D01*
X141610168Y-72336910D01*
X141627438Y-72352562D01*
X141643090Y-72369832D01*
X141656974Y-72388552D01*
X141668956Y-72408543D01*
X141678921Y-72429613D01*
X141686773Y-72451557D01*
X141692437Y-72474166D01*
X141695856Y-72497221D01*
X141697000Y-72520500D01*
X141697000Y-72995500D01*
X141695856Y-73018779D01*
X141692437Y-73041834D01*
X141686773Y-73064443D01*
X141678921Y-73086387D01*
X141668956Y-73107457D01*
X141656974Y-73127448D01*
X141643090Y-73146168D01*
X141627438Y-73163438D01*
X141610168Y-73179090D01*
X141591448Y-73192974D01*
X141571457Y-73204956D01*
X141550387Y-73214921D01*
X141528443Y-73222773D01*
X141505834Y-73228437D01*
X141482779Y-73231856D01*
X141459500Y-73233000D01*
X140884500Y-73233000D01*
X140861221Y-73231856D01*
X140838166Y-73228437D01*
X140815557Y-73222773D01*
X140793613Y-73214921D01*
X140772543Y-73204956D01*
X140752552Y-73192974D01*
X140733832Y-73179090D01*
X140716562Y-73163438D01*
X140700910Y-73146168D01*
X140687026Y-73127448D01*
X140675044Y-73107457D01*
X140665079Y-73086387D01*
X140657227Y-73064443D01*
X140651563Y-73041834D01*
X140648144Y-73018779D01*
X140647000Y-72995500D01*
X140647000Y-72520500D01*
X140648144Y-72497221D01*
X140651563Y-72474166D01*
X140657227Y-72451557D01*
X140665079Y-72429613D01*
X140675044Y-72408543D01*
X140687026Y-72388552D01*
X140700910Y-72369832D01*
X140716562Y-72352562D01*
X140733832Y-72336910D01*
X140752552Y-72323026D01*
X140772543Y-72311044D01*
X140793613Y-72301079D01*
X140815557Y-72293227D01*
X140838166Y-72287563D01*
X140861221Y-72284144D01*
X140884500Y-72283000D01*
X141459500Y-72283000D01*
X141482779Y-72284144D01*
X141482779Y-72284144D01*
G37*
D15*
G04 #@! TD*
G04 #@! TO.P,C1,1*
G04 #@! TO.N,Vdd*
X141172000Y-72758000D03*
D14*
G04 #@! TO.N,GND*
G04 #@! TO.C,C1*
G36*
X139732779Y-72284144D02*
X139755834Y-72287563D01*
X139778443Y-72293227D01*
X139800387Y-72301079D01*
X139821457Y-72311044D01*
X139841448Y-72323026D01*
X139860168Y-72336910D01*
X139877438Y-72352562D01*
X139893090Y-72369832D01*
X139906974Y-72388552D01*
X139918956Y-72408543D01*
X139928921Y-72429613D01*
X139936773Y-72451557D01*
X139942437Y-72474166D01*
X139945856Y-72497221D01*
X139947000Y-72520500D01*
X139947000Y-72995500D01*
X139945856Y-73018779D01*
X139942437Y-73041834D01*
X139936773Y-73064443D01*
X139928921Y-73086387D01*
X139918956Y-73107457D01*
X139906974Y-73127448D01*
X139893090Y-73146168D01*
X139877438Y-73163438D01*
X139860168Y-73179090D01*
X139841448Y-73192974D01*
X139821457Y-73204956D01*
X139800387Y-73214921D01*
X139778443Y-73222773D01*
X139755834Y-73228437D01*
X139732779Y-73231856D01*
X139709500Y-73233000D01*
X139134500Y-73233000D01*
X139111221Y-73231856D01*
X139088166Y-73228437D01*
X139065557Y-73222773D01*
X139043613Y-73214921D01*
X139022543Y-73204956D01*
X139002552Y-73192974D01*
X138983832Y-73179090D01*
X138966562Y-73163438D01*
X138950910Y-73146168D01*
X138937026Y-73127448D01*
X138925044Y-73107457D01*
X138915079Y-73086387D01*
X138907227Y-73064443D01*
X138901563Y-73041834D01*
X138898144Y-73018779D01*
X138897000Y-72995500D01*
X138897000Y-72520500D01*
X138898144Y-72497221D01*
X138901563Y-72474166D01*
X138907227Y-72451557D01*
X138915079Y-72429613D01*
X138925044Y-72408543D01*
X138937026Y-72388552D01*
X138950910Y-72369832D01*
X138966562Y-72352562D01*
X138983832Y-72336910D01*
X139002552Y-72323026D01*
X139022543Y-72311044D01*
X139043613Y-72301079D01*
X139065557Y-72293227D01*
X139088166Y-72287563D01*
X139111221Y-72284144D01*
X139134500Y-72283000D01*
X139709500Y-72283000D01*
X139732779Y-72284144D01*
X139732779Y-72284144D01*
G37*
D15*
G04 #@! TD*
G04 #@! TO.P,C1,2*
G04 #@! TO.N,GND*
X139422000Y-72758000D03*
D14*
G04 #@! TO.N,Vdd*
G04 #@! TO.C,C2*
G36*
X161632779Y-68884144D02*
X161655834Y-68887563D01*
X161678443Y-68893227D01*
X161700387Y-68901079D01*
X161721457Y-68911044D01*
X161741448Y-68923026D01*
X161760168Y-68936910D01*
X161777438Y-68952562D01*
X161793090Y-68969832D01*
X161806974Y-68988552D01*
X161818956Y-69008543D01*
X161828921Y-69029613D01*
X161836773Y-69051557D01*
X161842437Y-69074166D01*
X161845856Y-69097221D01*
X161847000Y-69120500D01*
X161847000Y-69595500D01*
X161845856Y-69618779D01*
X161842437Y-69641834D01*
X161836773Y-69664443D01*
X161828921Y-69686387D01*
X161818956Y-69707457D01*
X161806974Y-69727448D01*
X161793090Y-69746168D01*
X161777438Y-69763438D01*
X161760168Y-69779090D01*
X161741448Y-69792974D01*
X161721457Y-69804956D01*
X161700387Y-69814921D01*
X161678443Y-69822773D01*
X161655834Y-69828437D01*
X161632779Y-69831856D01*
X161609500Y-69833000D01*
X161034500Y-69833000D01*
X161011221Y-69831856D01*
X160988166Y-69828437D01*
X160965557Y-69822773D01*
X160943613Y-69814921D01*
X160922543Y-69804956D01*
X160902552Y-69792974D01*
X160883832Y-69779090D01*
X160866562Y-69763438D01*
X160850910Y-69746168D01*
X160837026Y-69727448D01*
X160825044Y-69707457D01*
X160815079Y-69686387D01*
X160807227Y-69664443D01*
X160801563Y-69641834D01*
X160798144Y-69618779D01*
X160797000Y-69595500D01*
X160797000Y-69120500D01*
X160798144Y-69097221D01*
X160801563Y-69074166D01*
X160807227Y-69051557D01*
X160815079Y-69029613D01*
X160825044Y-69008543D01*
X160837026Y-68988552D01*
X160850910Y-68969832D01*
X160866562Y-68952562D01*
X160883832Y-68936910D01*
X160902552Y-68923026D01*
X160922543Y-68911044D01*
X160943613Y-68901079D01*
X160965557Y-68893227D01*
X160988166Y-68887563D01*
X161011221Y-68884144D01*
X161034500Y-68883000D01*
X161609500Y-68883000D01*
X161632779Y-68884144D01*
X161632779Y-68884144D01*
G37*
D15*
G04 #@! TD*
G04 #@! TO.P,C2,2*
G04 #@! TO.N,Vdd*
X161322000Y-69358000D03*
D14*
G04 #@! TO.N,GND*
G04 #@! TO.C,C2*
G36*
X159882779Y-68884144D02*
X159905834Y-68887563D01*
X159928443Y-68893227D01*
X159950387Y-68901079D01*
X159971457Y-68911044D01*
X159991448Y-68923026D01*
X160010168Y-68936910D01*
X160027438Y-68952562D01*
X160043090Y-68969832D01*
X160056974Y-68988552D01*
X160068956Y-69008543D01*
X160078921Y-69029613D01*
X160086773Y-69051557D01*
X160092437Y-69074166D01*
X160095856Y-69097221D01*
X160097000Y-69120500D01*
X160097000Y-69595500D01*
X160095856Y-69618779D01*
X160092437Y-69641834D01*
X160086773Y-69664443D01*
X160078921Y-69686387D01*
X160068956Y-69707457D01*
X160056974Y-69727448D01*
X160043090Y-69746168D01*
X160027438Y-69763438D01*
X160010168Y-69779090D01*
X159991448Y-69792974D01*
X159971457Y-69804956D01*
X159950387Y-69814921D01*
X159928443Y-69822773D01*
X159905834Y-69828437D01*
X159882779Y-69831856D01*
X159859500Y-69833000D01*
X159284500Y-69833000D01*
X159261221Y-69831856D01*
X159238166Y-69828437D01*
X159215557Y-69822773D01*
X159193613Y-69814921D01*
X159172543Y-69804956D01*
X159152552Y-69792974D01*
X159133832Y-69779090D01*
X159116562Y-69763438D01*
X159100910Y-69746168D01*
X159087026Y-69727448D01*
X159075044Y-69707457D01*
X159065079Y-69686387D01*
X159057227Y-69664443D01*
X159051563Y-69641834D01*
X159048144Y-69618779D01*
X159047000Y-69595500D01*
X159047000Y-69120500D01*
X159048144Y-69097221D01*
X159051563Y-69074166D01*
X159057227Y-69051557D01*
X159065079Y-69029613D01*
X159075044Y-69008543D01*
X159087026Y-68988552D01*
X159100910Y-68969832D01*
X159116562Y-68952562D01*
X159133832Y-68936910D01*
X159152552Y-68923026D01*
X159172543Y-68911044D01*
X159193613Y-68901079D01*
X159215557Y-68893227D01*
X159238166Y-68887563D01*
X159261221Y-68884144D01*
X159284500Y-68883000D01*
X159859500Y-68883000D01*
X159882779Y-68884144D01*
X159882779Y-68884144D01*
G37*
D15*
G04 #@! TD*
G04 #@! TO.P,C2,1*
G04 #@! TO.N,GND*
X159572000Y-69358000D03*
D14*
G04 #@! TO.N,GND*
G04 #@! TO.C,C3*
G36*
X139732779Y-74084144D02*
X139755834Y-74087563D01*
X139778443Y-74093227D01*
X139800387Y-74101079D01*
X139821457Y-74111044D01*
X139841448Y-74123026D01*
X139860168Y-74136910D01*
X139877438Y-74152562D01*
X139893090Y-74169832D01*
X139906974Y-74188552D01*
X139918956Y-74208543D01*
X139928921Y-74229613D01*
X139936773Y-74251557D01*
X139942437Y-74274166D01*
X139945856Y-74297221D01*
X139947000Y-74320500D01*
X139947000Y-74795500D01*
X139945856Y-74818779D01*
X139942437Y-74841834D01*
X139936773Y-74864443D01*
X139928921Y-74886387D01*
X139918956Y-74907457D01*
X139906974Y-74927448D01*
X139893090Y-74946168D01*
X139877438Y-74963438D01*
X139860168Y-74979090D01*
X139841448Y-74992974D01*
X139821457Y-75004956D01*
X139800387Y-75014921D01*
X139778443Y-75022773D01*
X139755834Y-75028437D01*
X139732779Y-75031856D01*
X139709500Y-75033000D01*
X139134500Y-75033000D01*
X139111221Y-75031856D01*
X139088166Y-75028437D01*
X139065557Y-75022773D01*
X139043613Y-75014921D01*
X139022543Y-75004956D01*
X139002552Y-74992974D01*
X138983832Y-74979090D01*
X138966562Y-74963438D01*
X138950910Y-74946168D01*
X138937026Y-74927448D01*
X138925044Y-74907457D01*
X138915079Y-74886387D01*
X138907227Y-74864443D01*
X138901563Y-74841834D01*
X138898144Y-74818779D01*
X138897000Y-74795500D01*
X138897000Y-74320500D01*
X138898144Y-74297221D01*
X138901563Y-74274166D01*
X138907227Y-74251557D01*
X138915079Y-74229613D01*
X138925044Y-74208543D01*
X138937026Y-74188552D01*
X138950910Y-74169832D01*
X138966562Y-74152562D01*
X138983832Y-74136910D01*
X139002552Y-74123026D01*
X139022543Y-74111044D01*
X139043613Y-74101079D01*
X139065557Y-74093227D01*
X139088166Y-74087563D01*
X139111221Y-74084144D01*
X139134500Y-74083000D01*
X139709500Y-74083000D01*
X139732779Y-74084144D01*
X139732779Y-74084144D01*
G37*
D15*
G04 #@! TD*
G04 #@! TO.P,C3,2*
G04 #@! TO.N,GND*
X139422000Y-74558000D03*
D14*
G04 #@! TO.N,Vdd*
G04 #@! TO.C,C3*
G36*
X141482779Y-74084144D02*
X141505834Y-74087563D01*
X141528443Y-74093227D01*
X141550387Y-74101079D01*
X141571457Y-74111044D01*
X141591448Y-74123026D01*
X141610168Y-74136910D01*
X141627438Y-74152562D01*
X141643090Y-74169832D01*
X141656974Y-74188552D01*
X141668956Y-74208543D01*
X141678921Y-74229613D01*
X141686773Y-74251557D01*
X141692437Y-74274166D01*
X141695856Y-74297221D01*
X141697000Y-74320500D01*
X141697000Y-74795500D01*
X141695856Y-74818779D01*
X141692437Y-74841834D01*
X141686773Y-74864443D01*
X141678921Y-74886387D01*
X141668956Y-74907457D01*
X141656974Y-74927448D01*
X141643090Y-74946168D01*
X141627438Y-74963438D01*
X141610168Y-74979090D01*
X141591448Y-74992974D01*
X141571457Y-75004956D01*
X141550387Y-75014921D01*
X141528443Y-75022773D01*
X141505834Y-75028437D01*
X141482779Y-75031856D01*
X141459500Y-75033000D01*
X140884500Y-75033000D01*
X140861221Y-75031856D01*
X140838166Y-75028437D01*
X140815557Y-75022773D01*
X140793613Y-75014921D01*
X140772543Y-75004956D01*
X140752552Y-74992974D01*
X140733832Y-74979090D01*
X140716562Y-74963438D01*
X140700910Y-74946168D01*
X140687026Y-74927448D01*
X140675044Y-74907457D01*
X140665079Y-74886387D01*
X140657227Y-74864443D01*
X140651563Y-74841834D01*
X140648144Y-74818779D01*
X140647000Y-74795500D01*
X140647000Y-74320500D01*
X140648144Y-74297221D01*
X140651563Y-74274166D01*
X140657227Y-74251557D01*
X140665079Y-74229613D01*
X140675044Y-74208543D01*
X140687026Y-74188552D01*
X140700910Y-74169832D01*
X140716562Y-74152562D01*
X140733832Y-74136910D01*
X140752552Y-74123026D01*
X140772543Y-74111044D01*
X140793613Y-74101079D01*
X140815557Y-74093227D01*
X140838166Y-74087563D01*
X140861221Y-74084144D01*
X140884500Y-74083000D01*
X141459500Y-74083000D01*
X141482779Y-74084144D01*
X141482779Y-74084144D01*
G37*
D15*
G04 #@! TD*
G04 #@! TO.P,C3,1*
G04 #@! TO.N,Vdd*
X141172000Y-74558000D03*
D14*
G04 #@! TO.N,Vdd*
G04 #@! TO.C,C4*
G36*
X161632779Y-67184144D02*
X161655834Y-67187563D01*
X161678443Y-67193227D01*
X161700387Y-67201079D01*
X161721457Y-67211044D01*
X161741448Y-67223026D01*
X161760168Y-67236910D01*
X161777438Y-67252562D01*
X161793090Y-67269832D01*
X161806974Y-67288552D01*
X161818956Y-67308543D01*
X161828921Y-67329613D01*
X161836773Y-67351557D01*
X161842437Y-67374166D01*
X161845856Y-67397221D01*
X161847000Y-67420500D01*
X161847000Y-67895500D01*
X161845856Y-67918779D01*
X161842437Y-67941834D01*
X161836773Y-67964443D01*
X161828921Y-67986387D01*
X161818956Y-68007457D01*
X161806974Y-68027448D01*
X161793090Y-68046168D01*
X161777438Y-68063438D01*
X161760168Y-68079090D01*
X161741448Y-68092974D01*
X161721457Y-68104956D01*
X161700387Y-68114921D01*
X161678443Y-68122773D01*
X161655834Y-68128437D01*
X161632779Y-68131856D01*
X161609500Y-68133000D01*
X161034500Y-68133000D01*
X161011221Y-68131856D01*
X160988166Y-68128437D01*
X160965557Y-68122773D01*
X160943613Y-68114921D01*
X160922543Y-68104956D01*
X160902552Y-68092974D01*
X160883832Y-68079090D01*
X160866562Y-68063438D01*
X160850910Y-68046168D01*
X160837026Y-68027448D01*
X160825044Y-68007457D01*
X160815079Y-67986387D01*
X160807227Y-67964443D01*
X160801563Y-67941834D01*
X160798144Y-67918779D01*
X160797000Y-67895500D01*
X160797000Y-67420500D01*
X160798144Y-67397221D01*
X160801563Y-67374166D01*
X160807227Y-67351557D01*
X160815079Y-67329613D01*
X160825044Y-67308543D01*
X160837026Y-67288552D01*
X160850910Y-67269832D01*
X160866562Y-67252562D01*
X160883832Y-67236910D01*
X160902552Y-67223026D01*
X160922543Y-67211044D01*
X160943613Y-67201079D01*
X160965557Y-67193227D01*
X160988166Y-67187563D01*
X161011221Y-67184144D01*
X161034500Y-67183000D01*
X161609500Y-67183000D01*
X161632779Y-67184144D01*
X161632779Y-67184144D01*
G37*
D15*
G04 #@! TD*
G04 #@! TO.P,C4,1*
G04 #@! TO.N,Vdd*
X161322000Y-67658000D03*
D14*
G04 #@! TO.N,GND*
G04 #@! TO.C,C4*
G36*
X159882779Y-67184144D02*
X159905834Y-67187563D01*
X159928443Y-67193227D01*
X159950387Y-67201079D01*
X159971457Y-67211044D01*
X159991448Y-67223026D01*
X160010168Y-67236910D01*
X160027438Y-67252562D01*
X160043090Y-67269832D01*
X160056974Y-67288552D01*
X160068956Y-67308543D01*
X160078921Y-67329613D01*
X160086773Y-67351557D01*
X160092437Y-67374166D01*
X160095856Y-67397221D01*
X160097000Y-67420500D01*
X160097000Y-67895500D01*
X160095856Y-67918779D01*
X160092437Y-67941834D01*
X160086773Y-67964443D01*
X160078921Y-67986387D01*
X160068956Y-68007457D01*
X160056974Y-68027448D01*
X160043090Y-68046168D01*
X160027438Y-68063438D01*
X160010168Y-68079090D01*
X159991448Y-68092974D01*
X159971457Y-68104956D01*
X159950387Y-68114921D01*
X159928443Y-68122773D01*
X159905834Y-68128437D01*
X159882779Y-68131856D01*
X159859500Y-68133000D01*
X159284500Y-68133000D01*
X159261221Y-68131856D01*
X159238166Y-68128437D01*
X159215557Y-68122773D01*
X159193613Y-68114921D01*
X159172543Y-68104956D01*
X159152552Y-68092974D01*
X159133832Y-68079090D01*
X159116562Y-68063438D01*
X159100910Y-68046168D01*
X159087026Y-68027448D01*
X159075044Y-68007457D01*
X159065079Y-67986387D01*
X159057227Y-67964443D01*
X159051563Y-67941834D01*
X159048144Y-67918779D01*
X159047000Y-67895500D01*
X159047000Y-67420500D01*
X159048144Y-67397221D01*
X159051563Y-67374166D01*
X159057227Y-67351557D01*
X159065079Y-67329613D01*
X159075044Y-67308543D01*
X159087026Y-67288552D01*
X159100910Y-67269832D01*
X159116562Y-67252562D01*
X159133832Y-67236910D01*
X159152552Y-67223026D01*
X159172543Y-67211044D01*
X159193613Y-67201079D01*
X159215557Y-67193227D01*
X159238166Y-67187563D01*
X159261221Y-67184144D01*
X159284500Y-67183000D01*
X159859500Y-67183000D01*
X159882779Y-67184144D01*
X159882779Y-67184144D01*
G37*
D15*
G04 #@! TD*
G04 #@! TO.P,C4,2*
G04 #@! TO.N,GND*
X159572000Y-67658000D03*
D14*
G04 #@! TO.N,Net-(C5-Pad1)*
G04 #@! TO.C,C5*
G36*
X139582779Y-87034144D02*
X139605834Y-87037563D01*
X139628443Y-87043227D01*
X139650387Y-87051079D01*
X139671457Y-87061044D01*
X139691448Y-87073026D01*
X139710168Y-87086910D01*
X139727438Y-87102562D01*
X139743090Y-87119832D01*
X139756974Y-87138552D01*
X139768956Y-87158543D01*
X139778921Y-87179613D01*
X139786773Y-87201557D01*
X139792437Y-87224166D01*
X139795856Y-87247221D01*
X139797000Y-87270500D01*
X139797000Y-87845500D01*
X139795856Y-87868779D01*
X139792437Y-87891834D01*
X139786773Y-87914443D01*
X139778921Y-87936387D01*
X139768956Y-87957457D01*
X139756974Y-87977448D01*
X139743090Y-87996168D01*
X139727438Y-88013438D01*
X139710168Y-88029090D01*
X139691448Y-88042974D01*
X139671457Y-88054956D01*
X139650387Y-88064921D01*
X139628443Y-88072773D01*
X139605834Y-88078437D01*
X139582779Y-88081856D01*
X139559500Y-88083000D01*
X139084500Y-88083000D01*
X139061221Y-88081856D01*
X139038166Y-88078437D01*
X139015557Y-88072773D01*
X138993613Y-88064921D01*
X138972543Y-88054956D01*
X138952552Y-88042974D01*
X138933832Y-88029090D01*
X138916562Y-88013438D01*
X138900910Y-87996168D01*
X138887026Y-87977448D01*
X138875044Y-87957457D01*
X138865079Y-87936387D01*
X138857227Y-87914443D01*
X138851563Y-87891834D01*
X138848144Y-87868779D01*
X138847000Y-87845500D01*
X138847000Y-87270500D01*
X138848144Y-87247221D01*
X138851563Y-87224166D01*
X138857227Y-87201557D01*
X138865079Y-87179613D01*
X138875044Y-87158543D01*
X138887026Y-87138552D01*
X138900910Y-87119832D01*
X138916562Y-87102562D01*
X138933832Y-87086910D01*
X138952552Y-87073026D01*
X138972543Y-87061044D01*
X138993613Y-87051079D01*
X139015557Y-87043227D01*
X139038166Y-87037563D01*
X139061221Y-87034144D01*
X139084500Y-87033000D01*
X139559500Y-87033000D01*
X139582779Y-87034144D01*
X139582779Y-87034144D01*
G37*
D15*
G04 #@! TD*
G04 #@! TO.P,C5,1*
G04 #@! TO.N,Net-(C5-Pad1)*
X139322000Y-87558000D03*
D14*
G04 #@! TO.N,GND*
G04 #@! TO.C,C5*
G36*
X139582779Y-88784144D02*
X139605834Y-88787563D01*
X139628443Y-88793227D01*
X139650387Y-88801079D01*
X139671457Y-88811044D01*
X139691448Y-88823026D01*
X139710168Y-88836910D01*
X139727438Y-88852562D01*
X139743090Y-88869832D01*
X139756974Y-88888552D01*
X139768956Y-88908543D01*
X139778921Y-88929613D01*
X139786773Y-88951557D01*
X139792437Y-88974166D01*
X139795856Y-88997221D01*
X139797000Y-89020500D01*
X139797000Y-89595500D01*
X139795856Y-89618779D01*
X139792437Y-89641834D01*
X139786773Y-89664443D01*
X139778921Y-89686387D01*
X139768956Y-89707457D01*
X139756974Y-89727448D01*
X139743090Y-89746168D01*
X139727438Y-89763438D01*
X139710168Y-89779090D01*
X139691448Y-89792974D01*
X139671457Y-89804956D01*
X139650387Y-89814921D01*
X139628443Y-89822773D01*
X139605834Y-89828437D01*
X139582779Y-89831856D01*
X139559500Y-89833000D01*
X139084500Y-89833000D01*
X139061221Y-89831856D01*
X139038166Y-89828437D01*
X139015557Y-89822773D01*
X138993613Y-89814921D01*
X138972543Y-89804956D01*
X138952552Y-89792974D01*
X138933832Y-89779090D01*
X138916562Y-89763438D01*
X138900910Y-89746168D01*
X138887026Y-89727448D01*
X138875044Y-89707457D01*
X138865079Y-89686387D01*
X138857227Y-89664443D01*
X138851563Y-89641834D01*
X138848144Y-89618779D01*
X138847000Y-89595500D01*
X138847000Y-89020500D01*
X138848144Y-88997221D01*
X138851563Y-88974166D01*
X138857227Y-88951557D01*
X138865079Y-88929613D01*
X138875044Y-88908543D01*
X138887026Y-88888552D01*
X138900910Y-88869832D01*
X138916562Y-88852562D01*
X138933832Y-88836910D01*
X138952552Y-88823026D01*
X138972543Y-88811044D01*
X138993613Y-88801079D01*
X139015557Y-88793227D01*
X139038166Y-88787563D01*
X139061221Y-88784144D01*
X139084500Y-88783000D01*
X139559500Y-88783000D01*
X139582779Y-88784144D01*
X139582779Y-88784144D01*
G37*
D15*
G04 #@! TD*
G04 #@! TO.P,C5,2*
G04 #@! TO.N,GND*
X139322000Y-89308000D03*
D14*
G04 #@! TO.N,VOUT_BQ*
G04 #@! TO.C,C6*
G36*
X153882779Y-80684144D02*
X153905834Y-80687563D01*
X153928443Y-80693227D01*
X153950387Y-80701079D01*
X153971457Y-80711044D01*
X153991448Y-80723026D01*
X154010168Y-80736910D01*
X154027438Y-80752562D01*
X154043090Y-80769832D01*
X154056974Y-80788552D01*
X154068956Y-80808543D01*
X154078921Y-80829613D01*
X154086773Y-80851557D01*
X154092437Y-80874166D01*
X154095856Y-80897221D01*
X154097000Y-80920500D01*
X154097000Y-81395500D01*
X154095856Y-81418779D01*
X154092437Y-81441834D01*
X154086773Y-81464443D01*
X154078921Y-81486387D01*
X154068956Y-81507457D01*
X154056974Y-81527448D01*
X154043090Y-81546168D01*
X154027438Y-81563438D01*
X154010168Y-81579090D01*
X153991448Y-81592974D01*
X153971457Y-81604956D01*
X153950387Y-81614921D01*
X153928443Y-81622773D01*
X153905834Y-81628437D01*
X153882779Y-81631856D01*
X153859500Y-81633000D01*
X153284500Y-81633000D01*
X153261221Y-81631856D01*
X153238166Y-81628437D01*
X153215557Y-81622773D01*
X153193613Y-81614921D01*
X153172543Y-81604956D01*
X153152552Y-81592974D01*
X153133832Y-81579090D01*
X153116562Y-81563438D01*
X153100910Y-81546168D01*
X153087026Y-81527448D01*
X153075044Y-81507457D01*
X153065079Y-81486387D01*
X153057227Y-81464443D01*
X153051563Y-81441834D01*
X153048144Y-81418779D01*
X153047000Y-81395500D01*
X153047000Y-80920500D01*
X153048144Y-80897221D01*
X153051563Y-80874166D01*
X153057227Y-80851557D01*
X153065079Y-80829613D01*
X153075044Y-80808543D01*
X153087026Y-80788552D01*
X153100910Y-80769832D01*
X153116562Y-80752562D01*
X153133832Y-80736910D01*
X153152552Y-80723026D01*
X153172543Y-80711044D01*
X153193613Y-80701079D01*
X153215557Y-80693227D01*
X153238166Y-80687563D01*
X153261221Y-80684144D01*
X153284500Y-80683000D01*
X153859500Y-80683000D01*
X153882779Y-80684144D01*
X153882779Y-80684144D01*
G37*
D15*
G04 #@! TD*
G04 #@! TO.P,C6,2*
G04 #@! TO.N,VOUT_BQ*
X153572000Y-81158000D03*
D14*
G04 #@! TO.N,GND*
G04 #@! TO.C,C6*
G36*
X155632779Y-80684144D02*
X155655834Y-80687563D01*
X155678443Y-80693227D01*
X155700387Y-80701079D01*
X155721457Y-80711044D01*
X155741448Y-80723026D01*
X155760168Y-80736910D01*
X155777438Y-80752562D01*
X155793090Y-80769832D01*
X155806974Y-80788552D01*
X155818956Y-80808543D01*
X155828921Y-80829613D01*
X155836773Y-80851557D01*
X155842437Y-80874166D01*
X155845856Y-80897221D01*
X155847000Y-80920500D01*
X155847000Y-81395500D01*
X155845856Y-81418779D01*
X155842437Y-81441834D01*
X155836773Y-81464443D01*
X155828921Y-81486387D01*
X155818956Y-81507457D01*
X155806974Y-81527448D01*
X155793090Y-81546168D01*
X155777438Y-81563438D01*
X155760168Y-81579090D01*
X155741448Y-81592974D01*
X155721457Y-81604956D01*
X155700387Y-81614921D01*
X155678443Y-81622773D01*
X155655834Y-81628437D01*
X155632779Y-81631856D01*
X155609500Y-81633000D01*
X155034500Y-81633000D01*
X155011221Y-81631856D01*
X154988166Y-81628437D01*
X154965557Y-81622773D01*
X154943613Y-81614921D01*
X154922543Y-81604956D01*
X154902552Y-81592974D01*
X154883832Y-81579090D01*
X154866562Y-81563438D01*
X154850910Y-81546168D01*
X154837026Y-81527448D01*
X154825044Y-81507457D01*
X154815079Y-81486387D01*
X154807227Y-81464443D01*
X154801563Y-81441834D01*
X154798144Y-81418779D01*
X154797000Y-81395500D01*
X154797000Y-80920500D01*
X154798144Y-80897221D01*
X154801563Y-80874166D01*
X154807227Y-80851557D01*
X154815079Y-80829613D01*
X154825044Y-80808543D01*
X154837026Y-80788552D01*
X154850910Y-80769832D01*
X154866562Y-80752562D01*
X154883832Y-80736910D01*
X154902552Y-80723026D01*
X154922543Y-80711044D01*
X154943613Y-80701079D01*
X154965557Y-80693227D01*
X154988166Y-80687563D01*
X155011221Y-80684144D01*
X155034500Y-80683000D01*
X155609500Y-80683000D01*
X155632779Y-80684144D01*
X155632779Y-80684144D01*
G37*
D15*
G04 #@! TD*
G04 #@! TO.P,C6,1*
G04 #@! TO.N,GND*
X155322000Y-81158000D03*
D14*
G04 #@! TO.N,GND*
G04 #@! TO.C,C7*
G36*
X153482779Y-78784144D02*
X153505834Y-78787563D01*
X153528443Y-78793227D01*
X153550387Y-78801079D01*
X153571457Y-78811044D01*
X153591448Y-78823026D01*
X153610168Y-78836910D01*
X153627438Y-78852562D01*
X153643090Y-78869832D01*
X153656974Y-78888552D01*
X153668956Y-78908543D01*
X153678921Y-78929613D01*
X153686773Y-78951557D01*
X153692437Y-78974166D01*
X153695856Y-78997221D01*
X153697000Y-79020500D01*
X153697000Y-79495500D01*
X153695856Y-79518779D01*
X153692437Y-79541834D01*
X153686773Y-79564443D01*
X153678921Y-79586387D01*
X153668956Y-79607457D01*
X153656974Y-79627448D01*
X153643090Y-79646168D01*
X153627438Y-79663438D01*
X153610168Y-79679090D01*
X153591448Y-79692974D01*
X153571457Y-79704956D01*
X153550387Y-79714921D01*
X153528443Y-79722773D01*
X153505834Y-79728437D01*
X153482779Y-79731856D01*
X153459500Y-79733000D01*
X152884500Y-79733000D01*
X152861221Y-79731856D01*
X152838166Y-79728437D01*
X152815557Y-79722773D01*
X152793613Y-79714921D01*
X152772543Y-79704956D01*
X152752552Y-79692974D01*
X152733832Y-79679090D01*
X152716562Y-79663438D01*
X152700910Y-79646168D01*
X152687026Y-79627448D01*
X152675044Y-79607457D01*
X152665079Y-79586387D01*
X152657227Y-79564443D01*
X152651563Y-79541834D01*
X152648144Y-79518779D01*
X152647000Y-79495500D01*
X152647000Y-79020500D01*
X152648144Y-78997221D01*
X152651563Y-78974166D01*
X152657227Y-78951557D01*
X152665079Y-78929613D01*
X152675044Y-78908543D01*
X152687026Y-78888552D01*
X152700910Y-78869832D01*
X152716562Y-78852562D01*
X152733832Y-78836910D01*
X152752552Y-78823026D01*
X152772543Y-78811044D01*
X152793613Y-78801079D01*
X152815557Y-78793227D01*
X152838166Y-78787563D01*
X152861221Y-78784144D01*
X152884500Y-78783000D01*
X153459500Y-78783000D01*
X153482779Y-78784144D01*
X153482779Y-78784144D01*
G37*
D15*
G04 #@! TD*
G04 #@! TO.P,C7,2*
G04 #@! TO.N,GND*
X153172000Y-79258000D03*
D14*
G04 #@! TO.N,Vdd*
G04 #@! TO.C,C7*
G36*
X151732779Y-78784144D02*
X151755834Y-78787563D01*
X151778443Y-78793227D01*
X151800387Y-78801079D01*
X151821457Y-78811044D01*
X151841448Y-78823026D01*
X151860168Y-78836910D01*
X151877438Y-78852562D01*
X151893090Y-78869832D01*
X151906974Y-78888552D01*
X151918956Y-78908543D01*
X151928921Y-78929613D01*
X151936773Y-78951557D01*
X151942437Y-78974166D01*
X151945856Y-78997221D01*
X151947000Y-79020500D01*
X151947000Y-79495500D01*
X151945856Y-79518779D01*
X151942437Y-79541834D01*
X151936773Y-79564443D01*
X151928921Y-79586387D01*
X151918956Y-79607457D01*
X151906974Y-79627448D01*
X151893090Y-79646168D01*
X151877438Y-79663438D01*
X151860168Y-79679090D01*
X151841448Y-79692974D01*
X151821457Y-79704956D01*
X151800387Y-79714921D01*
X151778443Y-79722773D01*
X151755834Y-79728437D01*
X151732779Y-79731856D01*
X151709500Y-79733000D01*
X151134500Y-79733000D01*
X151111221Y-79731856D01*
X151088166Y-79728437D01*
X151065557Y-79722773D01*
X151043613Y-79714921D01*
X151022543Y-79704956D01*
X151002552Y-79692974D01*
X150983832Y-79679090D01*
X150966562Y-79663438D01*
X150950910Y-79646168D01*
X150937026Y-79627448D01*
X150925044Y-79607457D01*
X150915079Y-79586387D01*
X150907227Y-79564443D01*
X150901563Y-79541834D01*
X150898144Y-79518779D01*
X150897000Y-79495500D01*
X150897000Y-79020500D01*
X150898144Y-78997221D01*
X150901563Y-78974166D01*
X150907227Y-78951557D01*
X150915079Y-78929613D01*
X150925044Y-78908543D01*
X150937026Y-78888552D01*
X150950910Y-78869832D01*
X150966562Y-78852562D01*
X150983832Y-78836910D01*
X151002552Y-78823026D01*
X151022543Y-78811044D01*
X151043613Y-78801079D01*
X151065557Y-78793227D01*
X151088166Y-78787563D01*
X151111221Y-78784144D01*
X151134500Y-78783000D01*
X151709500Y-78783000D01*
X151732779Y-78784144D01*
X151732779Y-78784144D01*
G37*
D15*
G04 #@! TD*
G04 #@! TO.P,C7,1*
G04 #@! TO.N,Vdd*
X151422000Y-79258000D03*
D14*
G04 #@! TO.N,Net-(C8-Pad1)*
G04 #@! TO.C,C8*
G36*
X155582779Y-76984144D02*
X155605834Y-76987563D01*
X155628443Y-76993227D01*
X155650387Y-77001079D01*
X155671457Y-77011044D01*
X155691448Y-77023026D01*
X155710168Y-77036910D01*
X155727438Y-77052562D01*
X155743090Y-77069832D01*
X155756974Y-77088552D01*
X155768956Y-77108543D01*
X155778921Y-77129613D01*
X155786773Y-77151557D01*
X155792437Y-77174166D01*
X155795856Y-77197221D01*
X155797000Y-77220500D01*
X155797000Y-77795500D01*
X155795856Y-77818779D01*
X155792437Y-77841834D01*
X155786773Y-77864443D01*
X155778921Y-77886387D01*
X155768956Y-77907457D01*
X155756974Y-77927448D01*
X155743090Y-77946168D01*
X155727438Y-77963438D01*
X155710168Y-77979090D01*
X155691448Y-77992974D01*
X155671457Y-78004956D01*
X155650387Y-78014921D01*
X155628443Y-78022773D01*
X155605834Y-78028437D01*
X155582779Y-78031856D01*
X155559500Y-78033000D01*
X155084500Y-78033000D01*
X155061221Y-78031856D01*
X155038166Y-78028437D01*
X155015557Y-78022773D01*
X154993613Y-78014921D01*
X154972543Y-78004956D01*
X154952552Y-77992974D01*
X154933832Y-77979090D01*
X154916562Y-77963438D01*
X154900910Y-77946168D01*
X154887026Y-77927448D01*
X154875044Y-77907457D01*
X154865079Y-77886387D01*
X154857227Y-77864443D01*
X154851563Y-77841834D01*
X154848144Y-77818779D01*
X154847000Y-77795500D01*
X154847000Y-77220500D01*
X154848144Y-77197221D01*
X154851563Y-77174166D01*
X154857227Y-77151557D01*
X154865079Y-77129613D01*
X154875044Y-77108543D01*
X154887026Y-77088552D01*
X154900910Y-77069832D01*
X154916562Y-77052562D01*
X154933832Y-77036910D01*
X154952552Y-77023026D01*
X154972543Y-77011044D01*
X154993613Y-77001079D01*
X155015557Y-76993227D01*
X155038166Y-76987563D01*
X155061221Y-76984144D01*
X155084500Y-76983000D01*
X155559500Y-76983000D01*
X155582779Y-76984144D01*
X155582779Y-76984144D01*
G37*
D15*
G04 #@! TD*
G04 #@! TO.P,C8,1*
G04 #@! TO.N,Net-(C8-Pad1)*
X155322000Y-77508000D03*
D14*
G04 #@! TO.N,GND*
G04 #@! TO.C,C8*
G36*
X155582779Y-78734144D02*
X155605834Y-78737563D01*
X155628443Y-78743227D01*
X155650387Y-78751079D01*
X155671457Y-78761044D01*
X155691448Y-78773026D01*
X155710168Y-78786910D01*
X155727438Y-78802562D01*
X155743090Y-78819832D01*
X155756974Y-78838552D01*
X155768956Y-78858543D01*
X155778921Y-78879613D01*
X155786773Y-78901557D01*
X155792437Y-78924166D01*
X155795856Y-78947221D01*
X155797000Y-78970500D01*
X155797000Y-79545500D01*
X155795856Y-79568779D01*
X155792437Y-79591834D01*
X155786773Y-79614443D01*
X155778921Y-79636387D01*
X155768956Y-79657457D01*
X155756974Y-79677448D01*
X155743090Y-79696168D01*
X155727438Y-79713438D01*
X155710168Y-79729090D01*
X155691448Y-79742974D01*
X155671457Y-79754956D01*
X155650387Y-79764921D01*
X155628443Y-79772773D01*
X155605834Y-79778437D01*
X155582779Y-79781856D01*
X155559500Y-79783000D01*
X155084500Y-79783000D01*
X155061221Y-79781856D01*
X155038166Y-79778437D01*
X155015557Y-79772773D01*
X154993613Y-79764921D01*
X154972543Y-79754956D01*
X154952552Y-79742974D01*
X154933832Y-79729090D01*
X154916562Y-79713438D01*
X154900910Y-79696168D01*
X154887026Y-79677448D01*
X154875044Y-79657457D01*
X154865079Y-79636387D01*
X154857227Y-79614443D01*
X154851563Y-79591834D01*
X154848144Y-79568779D01*
X154847000Y-79545500D01*
X154847000Y-78970500D01*
X154848144Y-78947221D01*
X154851563Y-78924166D01*
X154857227Y-78901557D01*
X154865079Y-78879613D01*
X154875044Y-78858543D01*
X154887026Y-78838552D01*
X154900910Y-78819832D01*
X154916562Y-78802562D01*
X154933832Y-78786910D01*
X154952552Y-78773026D01*
X154972543Y-78761044D01*
X154993613Y-78751079D01*
X155015557Y-78743227D01*
X155038166Y-78737563D01*
X155061221Y-78734144D01*
X155084500Y-78733000D01*
X155559500Y-78733000D01*
X155582779Y-78734144D01*
X155582779Y-78734144D01*
G37*
D15*
G04 #@! TD*
G04 #@! TO.P,C8,2*
G04 #@! TO.N,GND*
X155322000Y-79258000D03*
D14*
G04 #@! TO.N,GND*
G04 #@! TO.C,C9*
G36*
X158232779Y-95484144D02*
X158255834Y-95487563D01*
X158278443Y-95493227D01*
X158300387Y-95501079D01*
X158321457Y-95511044D01*
X158341448Y-95523026D01*
X158360168Y-95536910D01*
X158377438Y-95552562D01*
X158393090Y-95569832D01*
X158406974Y-95588552D01*
X158418956Y-95608543D01*
X158428921Y-95629613D01*
X158436773Y-95651557D01*
X158442437Y-95674166D01*
X158445856Y-95697221D01*
X158447000Y-95720500D01*
X158447000Y-96195500D01*
X158445856Y-96218779D01*
X158442437Y-96241834D01*
X158436773Y-96264443D01*
X158428921Y-96286387D01*
X158418956Y-96307457D01*
X158406974Y-96327448D01*
X158393090Y-96346168D01*
X158377438Y-96363438D01*
X158360168Y-96379090D01*
X158341448Y-96392974D01*
X158321457Y-96404956D01*
X158300387Y-96414921D01*
X158278443Y-96422773D01*
X158255834Y-96428437D01*
X158232779Y-96431856D01*
X158209500Y-96433000D01*
X157634500Y-96433000D01*
X157611221Y-96431856D01*
X157588166Y-96428437D01*
X157565557Y-96422773D01*
X157543613Y-96414921D01*
X157522543Y-96404956D01*
X157502552Y-96392974D01*
X157483832Y-96379090D01*
X157466562Y-96363438D01*
X157450910Y-96346168D01*
X157437026Y-96327448D01*
X157425044Y-96307457D01*
X157415079Y-96286387D01*
X157407227Y-96264443D01*
X157401563Y-96241834D01*
X157398144Y-96218779D01*
X157397000Y-96195500D01*
X157397000Y-95720500D01*
X157398144Y-95697221D01*
X157401563Y-95674166D01*
X157407227Y-95651557D01*
X157415079Y-95629613D01*
X157425044Y-95608543D01*
X157437026Y-95588552D01*
X157450910Y-95569832D01*
X157466562Y-95552562D01*
X157483832Y-95536910D01*
X157502552Y-95523026D01*
X157522543Y-95511044D01*
X157543613Y-95501079D01*
X157565557Y-95493227D01*
X157588166Y-95487563D01*
X157611221Y-95484144D01*
X157634500Y-95483000D01*
X158209500Y-95483000D01*
X158232779Y-95484144D01*
X158232779Y-95484144D01*
G37*
D15*
G04 #@! TD*
G04 #@! TO.P,C9,1*
G04 #@! TO.N,GND*
X157922000Y-95958000D03*
D14*
G04 #@! TO.N,VOUT_BQ*
G04 #@! TO.C,C9*
G36*
X159982779Y-95484144D02*
X160005834Y-95487563D01*
X160028443Y-95493227D01*
X160050387Y-95501079D01*
X160071457Y-95511044D01*
X160091448Y-95523026D01*
X160110168Y-95536910D01*
X160127438Y-95552562D01*
X160143090Y-95569832D01*
X160156974Y-95588552D01*
X160168956Y-95608543D01*
X160178921Y-95629613D01*
X160186773Y-95651557D01*
X160192437Y-95674166D01*
X160195856Y-95697221D01*
X160197000Y-95720500D01*
X160197000Y-96195500D01*
X160195856Y-96218779D01*
X160192437Y-96241834D01*
X160186773Y-96264443D01*
X160178921Y-96286387D01*
X160168956Y-96307457D01*
X160156974Y-96327448D01*
X160143090Y-96346168D01*
X160127438Y-96363438D01*
X160110168Y-96379090D01*
X160091448Y-96392974D01*
X160071457Y-96404956D01*
X160050387Y-96414921D01*
X160028443Y-96422773D01*
X160005834Y-96428437D01*
X159982779Y-96431856D01*
X159959500Y-96433000D01*
X159384500Y-96433000D01*
X159361221Y-96431856D01*
X159338166Y-96428437D01*
X159315557Y-96422773D01*
X159293613Y-96414921D01*
X159272543Y-96404956D01*
X159252552Y-96392974D01*
X159233832Y-96379090D01*
X159216562Y-96363438D01*
X159200910Y-96346168D01*
X159187026Y-96327448D01*
X159175044Y-96307457D01*
X159165079Y-96286387D01*
X159157227Y-96264443D01*
X159151563Y-96241834D01*
X159148144Y-96218779D01*
X159147000Y-96195500D01*
X159147000Y-95720500D01*
X159148144Y-95697221D01*
X159151563Y-95674166D01*
X159157227Y-95651557D01*
X159165079Y-95629613D01*
X159175044Y-95608543D01*
X159187026Y-95588552D01*
X159200910Y-95569832D01*
X159216562Y-95552562D01*
X159233832Y-95536910D01*
X159252552Y-95523026D01*
X159272543Y-95511044D01*
X159293613Y-95501079D01*
X159315557Y-95493227D01*
X159338166Y-95487563D01*
X159361221Y-95484144D01*
X159384500Y-95483000D01*
X159959500Y-95483000D01*
X159982779Y-95484144D01*
X159982779Y-95484144D01*
G37*
D15*
G04 #@! TD*
G04 #@! TO.P,C9,2*
G04 #@! TO.N,VOUT_BQ*
X159672000Y-95958000D03*
D14*
G04 #@! TO.N,GND*
G04 #@! TO.C,D1*
G36*
X148696505Y-76784204D02*
X148720773Y-76787804D01*
X148744572Y-76793765D01*
X148767671Y-76802030D01*
X148789850Y-76812520D01*
X148810893Y-76825132D01*
X148830599Y-76839747D01*
X148848777Y-76856223D01*
X148865253Y-76874401D01*
X148879868Y-76894107D01*
X148892480Y-76915150D01*
X148902970Y-76937329D01*
X148911235Y-76960428D01*
X148917196Y-76984227D01*
X148920796Y-77008495D01*
X148922000Y-77032999D01*
X148922000Y-77683001D01*
X148920796Y-77707505D01*
X148917196Y-77731773D01*
X148911235Y-77755572D01*
X148902970Y-77778671D01*
X148892480Y-77800850D01*
X148879868Y-77821893D01*
X148865253Y-77841599D01*
X148848777Y-77859777D01*
X148830599Y-77876253D01*
X148810893Y-77890868D01*
X148789850Y-77903480D01*
X148767671Y-77913970D01*
X148744572Y-77922235D01*
X148720773Y-77928196D01*
X148696505Y-77931796D01*
X148672001Y-77933000D01*
X147771999Y-77933000D01*
X147747495Y-77931796D01*
X147723227Y-77928196D01*
X147699428Y-77922235D01*
X147676329Y-77913970D01*
X147654150Y-77903480D01*
X147633107Y-77890868D01*
X147613401Y-77876253D01*
X147595223Y-77859777D01*
X147578747Y-77841599D01*
X147564132Y-77821893D01*
X147551520Y-77800850D01*
X147541030Y-77778671D01*
X147532765Y-77755572D01*
X147526804Y-77731773D01*
X147523204Y-77707505D01*
X147522000Y-77683001D01*
X147522000Y-77032999D01*
X147523204Y-77008495D01*
X147526804Y-76984227D01*
X147532765Y-76960428D01*
X147541030Y-76937329D01*
X147551520Y-76915150D01*
X147564132Y-76894107D01*
X147578747Y-76874401D01*
X147595223Y-76856223D01*
X147613401Y-76839747D01*
X147633107Y-76825132D01*
X147654150Y-76812520D01*
X147676329Y-76802030D01*
X147699428Y-76793765D01*
X147723227Y-76787804D01*
X147747495Y-76784204D01*
X147771999Y-76783000D01*
X148672001Y-76783000D01*
X148696505Y-76784204D01*
X148696505Y-76784204D01*
G37*
D16*
G04 #@! TD*
G04 #@! TO.P,D1,1*
G04 #@! TO.N,GND*
X148222000Y-77358000D03*
D14*
G04 #@! TO.N,Net-(D1-Pad2)*
G04 #@! TO.C,D1*
G36*
X148696505Y-78834204D02*
X148720773Y-78837804D01*
X148744572Y-78843765D01*
X148767671Y-78852030D01*
X148789850Y-78862520D01*
X148810893Y-78875132D01*
X148830599Y-78889747D01*
X148848777Y-78906223D01*
X148865253Y-78924401D01*
X148879868Y-78944107D01*
X148892480Y-78965150D01*
X148902970Y-78987329D01*
X148911235Y-79010428D01*
X148917196Y-79034227D01*
X148920796Y-79058495D01*
X148922000Y-79082999D01*
X148922000Y-79733001D01*
X148920796Y-79757505D01*
X148917196Y-79781773D01*
X148911235Y-79805572D01*
X148902970Y-79828671D01*
X148892480Y-79850850D01*
X148879868Y-79871893D01*
X148865253Y-79891599D01*
X148848777Y-79909777D01*
X148830599Y-79926253D01*
X148810893Y-79940868D01*
X148789850Y-79953480D01*
X148767671Y-79963970D01*
X148744572Y-79972235D01*
X148720773Y-79978196D01*
X148696505Y-79981796D01*
X148672001Y-79983000D01*
X147771999Y-79983000D01*
X147747495Y-79981796D01*
X147723227Y-79978196D01*
X147699428Y-79972235D01*
X147676329Y-79963970D01*
X147654150Y-79953480D01*
X147633107Y-79940868D01*
X147613401Y-79926253D01*
X147595223Y-79909777D01*
X147578747Y-79891599D01*
X147564132Y-79871893D01*
X147551520Y-79850850D01*
X147541030Y-79828671D01*
X147532765Y-79805572D01*
X147526804Y-79781773D01*
X147523204Y-79757505D01*
X147522000Y-79733001D01*
X147522000Y-79082999D01*
X147523204Y-79058495D01*
X147526804Y-79034227D01*
X147532765Y-79010428D01*
X147541030Y-78987329D01*
X147551520Y-78965150D01*
X147564132Y-78944107D01*
X147578747Y-78924401D01*
X147595223Y-78906223D01*
X147613401Y-78889747D01*
X147633107Y-78875132D01*
X147654150Y-78862520D01*
X147676329Y-78852030D01*
X147699428Y-78843765D01*
X147723227Y-78837804D01*
X147747495Y-78834204D01*
X147771999Y-78833000D01*
X148672001Y-78833000D01*
X148696505Y-78834204D01*
X148696505Y-78834204D01*
G37*
D16*
G04 #@! TD*
G04 #@! TO.P,D1,2*
G04 #@! TO.N,Net-(D1-Pad2)*
X148222000Y-79408000D03*
D14*
G04 #@! TO.N,Net-(D2-Pad1)*
G04 #@! TO.C,D2*
G36*
X162196505Y-94734204D02*
X162220773Y-94737804D01*
X162244572Y-94743765D01*
X162267671Y-94752030D01*
X162289850Y-94762520D01*
X162310893Y-94775132D01*
X162330599Y-94789747D01*
X162348777Y-94806223D01*
X162365253Y-94824401D01*
X162379868Y-94844107D01*
X162392480Y-94865150D01*
X162402970Y-94887329D01*
X162411235Y-94910428D01*
X162417196Y-94934227D01*
X162420796Y-94958495D01*
X162422000Y-94982999D01*
X162422000Y-95633001D01*
X162420796Y-95657505D01*
X162417196Y-95681773D01*
X162411235Y-95705572D01*
X162402970Y-95728671D01*
X162392480Y-95750850D01*
X162379868Y-95771893D01*
X162365253Y-95791599D01*
X162348777Y-95809777D01*
X162330599Y-95826253D01*
X162310893Y-95840868D01*
X162289850Y-95853480D01*
X162267671Y-95863970D01*
X162244572Y-95872235D01*
X162220773Y-95878196D01*
X162196505Y-95881796D01*
X162172001Y-95883000D01*
X161271999Y-95883000D01*
X161247495Y-95881796D01*
X161223227Y-95878196D01*
X161199428Y-95872235D01*
X161176329Y-95863970D01*
X161154150Y-95853480D01*
X161133107Y-95840868D01*
X161113401Y-95826253D01*
X161095223Y-95809777D01*
X161078747Y-95791599D01*
X161064132Y-95771893D01*
X161051520Y-95750850D01*
X161041030Y-95728671D01*
X161032765Y-95705572D01*
X161026804Y-95681773D01*
X161023204Y-95657505D01*
X161022000Y-95633001D01*
X161022000Y-94982999D01*
X161023204Y-94958495D01*
X161026804Y-94934227D01*
X161032765Y-94910428D01*
X161041030Y-94887329D01*
X161051520Y-94865150D01*
X161064132Y-94844107D01*
X161078747Y-94824401D01*
X161095223Y-94806223D01*
X161113401Y-94789747D01*
X161133107Y-94775132D01*
X161154150Y-94762520D01*
X161176329Y-94752030D01*
X161199428Y-94743765D01*
X161223227Y-94737804D01*
X161247495Y-94734204D01*
X161271999Y-94733000D01*
X162172001Y-94733000D01*
X162196505Y-94734204D01*
X162196505Y-94734204D01*
G37*
D16*
G04 #@! TD*
G04 #@! TO.P,D2,1*
G04 #@! TO.N,Net-(D2-Pad1)*
X161722000Y-95308000D03*
D14*
G04 #@! TO.N,Net-(D2-Pad2)*
G04 #@! TO.C,D2*
G36*
X162196505Y-92684204D02*
X162220773Y-92687804D01*
X162244572Y-92693765D01*
X162267671Y-92702030D01*
X162289850Y-92712520D01*
X162310893Y-92725132D01*
X162330599Y-92739747D01*
X162348777Y-92756223D01*
X162365253Y-92774401D01*
X162379868Y-92794107D01*
X162392480Y-92815150D01*
X162402970Y-92837329D01*
X162411235Y-92860428D01*
X162417196Y-92884227D01*
X162420796Y-92908495D01*
X162422000Y-92932999D01*
X162422000Y-93583001D01*
X162420796Y-93607505D01*
X162417196Y-93631773D01*
X162411235Y-93655572D01*
X162402970Y-93678671D01*
X162392480Y-93700850D01*
X162379868Y-93721893D01*
X162365253Y-93741599D01*
X162348777Y-93759777D01*
X162330599Y-93776253D01*
X162310893Y-93790868D01*
X162289850Y-93803480D01*
X162267671Y-93813970D01*
X162244572Y-93822235D01*
X162220773Y-93828196D01*
X162196505Y-93831796D01*
X162172001Y-93833000D01*
X161271999Y-93833000D01*
X161247495Y-93831796D01*
X161223227Y-93828196D01*
X161199428Y-93822235D01*
X161176329Y-93813970D01*
X161154150Y-93803480D01*
X161133107Y-93790868D01*
X161113401Y-93776253D01*
X161095223Y-93759777D01*
X161078747Y-93741599D01*
X161064132Y-93721893D01*
X161051520Y-93700850D01*
X161041030Y-93678671D01*
X161032765Y-93655572D01*
X161026804Y-93631773D01*
X161023204Y-93607505D01*
X161022000Y-93583001D01*
X161022000Y-92932999D01*
X161023204Y-92908495D01*
X161026804Y-92884227D01*
X161032765Y-92860428D01*
X161041030Y-92837329D01*
X161051520Y-92815150D01*
X161064132Y-92794107D01*
X161078747Y-92774401D01*
X161095223Y-92756223D01*
X161113401Y-92739747D01*
X161133107Y-92725132D01*
X161154150Y-92712520D01*
X161176329Y-92702030D01*
X161199428Y-92693765D01*
X161223227Y-92687804D01*
X161247495Y-92684204D01*
X161271999Y-92683000D01*
X162172001Y-92683000D01*
X162196505Y-92684204D01*
X162196505Y-92684204D01*
G37*
D16*
G04 #@! TD*
G04 #@! TO.P,D2,2*
G04 #@! TO.N,Net-(D2-Pad2)*
X161722000Y-93258000D03*
D14*
G04 #@! TO.N,Net-(D3-Pad2)*
G04 #@! TO.C,D3*
G36*
X162196505Y-88484204D02*
X162220773Y-88487804D01*
X162244572Y-88493765D01*
X162267671Y-88502030D01*
X162289850Y-88512520D01*
X162310893Y-88525132D01*
X162330599Y-88539747D01*
X162348777Y-88556223D01*
X162365253Y-88574401D01*
X162379868Y-88594107D01*
X162392480Y-88615150D01*
X162402970Y-88637329D01*
X162411235Y-88660428D01*
X162417196Y-88684227D01*
X162420796Y-88708495D01*
X162422000Y-88732999D01*
X162422000Y-89383001D01*
X162420796Y-89407505D01*
X162417196Y-89431773D01*
X162411235Y-89455572D01*
X162402970Y-89478671D01*
X162392480Y-89500850D01*
X162379868Y-89521893D01*
X162365253Y-89541599D01*
X162348777Y-89559777D01*
X162330599Y-89576253D01*
X162310893Y-89590868D01*
X162289850Y-89603480D01*
X162267671Y-89613970D01*
X162244572Y-89622235D01*
X162220773Y-89628196D01*
X162196505Y-89631796D01*
X162172001Y-89633000D01*
X161271999Y-89633000D01*
X161247495Y-89631796D01*
X161223227Y-89628196D01*
X161199428Y-89622235D01*
X161176329Y-89613970D01*
X161154150Y-89603480D01*
X161133107Y-89590868D01*
X161113401Y-89576253D01*
X161095223Y-89559777D01*
X161078747Y-89541599D01*
X161064132Y-89521893D01*
X161051520Y-89500850D01*
X161041030Y-89478671D01*
X161032765Y-89455572D01*
X161026804Y-89431773D01*
X161023204Y-89407505D01*
X161022000Y-89383001D01*
X161022000Y-88732999D01*
X161023204Y-88708495D01*
X161026804Y-88684227D01*
X161032765Y-88660428D01*
X161041030Y-88637329D01*
X161051520Y-88615150D01*
X161064132Y-88594107D01*
X161078747Y-88574401D01*
X161095223Y-88556223D01*
X161113401Y-88539747D01*
X161133107Y-88525132D01*
X161154150Y-88512520D01*
X161176329Y-88502030D01*
X161199428Y-88493765D01*
X161223227Y-88487804D01*
X161247495Y-88484204D01*
X161271999Y-88483000D01*
X162172001Y-88483000D01*
X162196505Y-88484204D01*
X162196505Y-88484204D01*
G37*
D16*
G04 #@! TD*
G04 #@! TO.P,D3,2*
G04 #@! TO.N,Net-(D3-Pad2)*
X161722000Y-89058000D03*
D14*
G04 #@! TO.N,Net-(D3-Pad1)*
G04 #@! TO.C,D3*
G36*
X162196505Y-90534204D02*
X162220773Y-90537804D01*
X162244572Y-90543765D01*
X162267671Y-90552030D01*
X162289850Y-90562520D01*
X162310893Y-90575132D01*
X162330599Y-90589747D01*
X162348777Y-90606223D01*
X162365253Y-90624401D01*
X162379868Y-90644107D01*
X162392480Y-90665150D01*
X162402970Y-90687329D01*
X162411235Y-90710428D01*
X162417196Y-90734227D01*
X162420796Y-90758495D01*
X162422000Y-90782999D01*
X162422000Y-91433001D01*
X162420796Y-91457505D01*
X162417196Y-91481773D01*
X162411235Y-91505572D01*
X162402970Y-91528671D01*
X162392480Y-91550850D01*
X162379868Y-91571893D01*
X162365253Y-91591599D01*
X162348777Y-91609777D01*
X162330599Y-91626253D01*
X162310893Y-91640868D01*
X162289850Y-91653480D01*
X162267671Y-91663970D01*
X162244572Y-91672235D01*
X162220773Y-91678196D01*
X162196505Y-91681796D01*
X162172001Y-91683000D01*
X161271999Y-91683000D01*
X161247495Y-91681796D01*
X161223227Y-91678196D01*
X161199428Y-91672235D01*
X161176329Y-91663970D01*
X161154150Y-91653480D01*
X161133107Y-91640868D01*
X161113401Y-91626253D01*
X161095223Y-91609777D01*
X161078747Y-91591599D01*
X161064132Y-91571893D01*
X161051520Y-91550850D01*
X161041030Y-91528671D01*
X161032765Y-91505572D01*
X161026804Y-91481773D01*
X161023204Y-91457505D01*
X161022000Y-91433001D01*
X161022000Y-90782999D01*
X161023204Y-90758495D01*
X161026804Y-90734227D01*
X161032765Y-90710428D01*
X161041030Y-90687329D01*
X161051520Y-90665150D01*
X161064132Y-90644107D01*
X161078747Y-90624401D01*
X161095223Y-90606223D01*
X161113401Y-90589747D01*
X161133107Y-90575132D01*
X161154150Y-90562520D01*
X161176329Y-90552030D01*
X161199428Y-90543765D01*
X161223227Y-90537804D01*
X161247495Y-90534204D01*
X161271999Y-90533000D01*
X162172001Y-90533000D01*
X162196505Y-90534204D01*
X162196505Y-90534204D01*
G37*
D16*
G04 #@! TD*
G04 #@! TO.P,D3,1*
G04 #@! TO.N,Net-(D3-Pad1)*
X161722000Y-91108000D03*
D17*
G04 #@! TO.P,J2,6*
G04 #@! TO.N,GND*
X160422000Y-80958000D03*
D18*
X157722000Y-84458000D03*
D19*
G04 #@! TO.P,J2,2*
G04 #@! TO.N,Net-(J2-Pad2)*
X157722000Y-82608000D03*
G04 #@! TO.P,J2,1*
G04 #@! TO.N,Net-(C8-Pad1)*
X157722000Y-83258000D03*
G04 #@! TO.P,J2,5*
G04 #@! TO.N,GND*
X157722000Y-80658000D03*
G04 #@! TO.P,J2,4*
G04 #@! TO.N,Net-(J2-Pad4)*
X157722000Y-81308000D03*
G04 #@! TO.P,J2,3*
G04 #@! TO.N,Net-(J2-Pad3)*
X157722000Y-81958000D03*
D18*
G04 #@! TO.P,J2,6*
G04 #@! TO.N,GND*
X157722000Y-79458000D03*
D17*
X160422000Y-82958000D03*
D20*
X160422000Y-85458000D03*
X160422000Y-78458000D03*
D21*
X160422000Y-79058000D03*
X160422000Y-84858000D03*
G04 #@! TD*
D22*
G04 #@! TO.P,TL3305A1,1*
G04 #@! TO.N,Net-(R3-Pad1)*
X143522000Y-89158000D03*
X150722000Y-89158000D03*
G04 #@! TO.P,TL3305A1,2*
G04 #@! TO.N,Net-(C5-Pad1)*
X143522000Y-86158000D03*
X150722000Y-86158000D03*
G04 #@! TD*
D23*
G04 #@! TO.P,U1,6*
G04 #@! TO.N,GND*
X160497000Y-71333000D03*
G04 #@! TO.P,U1,13*
G04 #@! TO.N,SPI_CLK*
X160497000Y-73083000D03*
G04 #@! TO.P,U1,12*
G04 #@! TO.N,SPI_CS*
X159997000Y-73083000D03*
G04 #@! TO.P,U1,14*
G04 #@! TO.N,SPI_OUT*
X160997000Y-73083000D03*
G04 #@! TO.P,U1,5*
G04 #@! TO.N,Vdd*
X160997000Y-71333000D03*
G04 #@! TO.P,U1,7*
G04 #@! TO.N,GND*
X159997000Y-71333000D03*
D24*
G04 #@! TO.P,U1,2*
X161622000Y-72458000D03*
G04 #@! TO.P,U1,1*
G04 #@! TO.N,SPI_IN*
X161622000Y-72958000D03*
G04 #@! TO.P,U1,3*
G04 #@! TO.N,GND*
X161622000Y-71958000D03*
G04 #@! TO.P,U1,4*
G04 #@! TO.N,DIO12-INT*
X161622000Y-71458000D03*
G04 #@! TO.P,U1,10*
G04 #@! TO.N,Net-(U1-Pad10)*
X159372000Y-72458000D03*
G04 #@! TO.P,U1,11*
G04 #@! TO.N,N/C*
X159372000Y-72958000D03*
G04 #@! TO.P,U1,9*
G04 #@! TO.N,Net-(U1-Pad9)*
X159372000Y-71958000D03*
G04 #@! TO.P,U1,8*
G04 #@! TO.N,Vdd*
X159372000Y-71458000D03*
G04 #@! TD*
D25*
G04 #@! TO.P,U3,1*
G04 #@! TO.N,VOUT_BQ*
X151322000Y-83258000D03*
G04 #@! TO.P,U3,2*
G04 #@! TO.N,GND*
X151322000Y-82308000D03*
G04 #@! TO.P,U3,3*
G04 #@! TO.N,VOUT_BQ*
X151322000Y-81358000D03*
G04 #@! TO.P,U3,4*
G04 #@! TO.N,Net-(U3-Pad4)*
X149122000Y-81358000D03*
G04 #@! TO.P,U3,5*
G04 #@! TO.N,Vdd*
X149122000Y-83258000D03*
G04 #@! TD*
D14*
G04 #@! TO.N,GND*
G04 #@! TO.C,U4*
G36*
X156036504Y-92019204D02*
X156060773Y-92022804D01*
X156084571Y-92028765D01*
X156107671Y-92037030D01*
X156129849Y-92047520D01*
X156150893Y-92060133D01*
X156170598Y-92074747D01*
X156188777Y-92091223D01*
X156205253Y-92109402D01*
X156219867Y-92129107D01*
X156232480Y-92150151D01*
X156242970Y-92172329D01*
X156251235Y-92195429D01*
X156257196Y-92219227D01*
X156260796Y-92243496D01*
X156262000Y-92268000D01*
X156262000Y-93448000D01*
X156260796Y-93472504D01*
X156257196Y-93496773D01*
X156251235Y-93520571D01*
X156242970Y-93543671D01*
X156232480Y-93565849D01*
X156219867Y-93586893D01*
X156205253Y-93606598D01*
X156188777Y-93624777D01*
X156170598Y-93641253D01*
X156150893Y-93655867D01*
X156129849Y-93668480D01*
X156107671Y-93678970D01*
X156084571Y-93687235D01*
X156060773Y-93693196D01*
X156036504Y-93696796D01*
X156012000Y-93698000D01*
X154832000Y-93698000D01*
X154807496Y-93696796D01*
X154783227Y-93693196D01*
X154759429Y-93687235D01*
X154736329Y-93678970D01*
X154714151Y-93668480D01*
X154693107Y-93655867D01*
X154673402Y-93641253D01*
X154655223Y-93624777D01*
X154638747Y-93606598D01*
X154624133Y-93586893D01*
X154611520Y-93565849D01*
X154601030Y-93543671D01*
X154592765Y-93520571D01*
X154586804Y-93496773D01*
X154583204Y-93472504D01*
X154582000Y-93448000D01*
X154582000Y-92268000D01*
X154583204Y-92243496D01*
X154586804Y-92219227D01*
X154592765Y-92195429D01*
X154601030Y-92172329D01*
X154611520Y-92150151D01*
X154624133Y-92129107D01*
X154638747Y-92109402D01*
X154655223Y-92091223D01*
X154673402Y-92074747D01*
X154693107Y-92060133D01*
X154714151Y-92047520D01*
X154736329Y-92037030D01*
X154759429Y-92028765D01*
X154783227Y-92022804D01*
X154807496Y-92019204D01*
X154832000Y-92018000D01*
X156012000Y-92018000D01*
X156036504Y-92019204D01*
X156036504Y-92019204D01*
G37*
D26*
G04 #@! TD*
G04 #@! TO.P,U4,17*
G04 #@! TO.N,GND*
X155422000Y-92858000D03*
D27*
G04 #@! TO.N,GND*
G04 #@! TO.C,U4*
X154832000Y-93448000D03*
X154832000Y-92268000D03*
X156012000Y-93448000D03*
X156012000Y-92268000D03*
D14*
G04 #@! TO.N,Net-(R7-Pad1)*
G36*
X154740626Y-93908301D02*
X154746693Y-93909201D01*
X154752643Y-93910691D01*
X154758418Y-93912758D01*
X154763962Y-93915380D01*
X154769223Y-93918533D01*
X154774150Y-93922187D01*
X154778694Y-93926306D01*
X154782813Y-93930850D01*
X154786467Y-93935777D01*
X154789620Y-93941038D01*
X154792242Y-93946582D01*
X154794309Y-93952357D01*
X154795799Y-93958307D01*
X154796699Y-93964374D01*
X154797000Y-93970500D01*
X154797000Y-94670500D01*
X154796699Y-94676626D01*
X154795799Y-94682693D01*
X154794309Y-94688643D01*
X154792242Y-94694418D01*
X154789620Y-94699962D01*
X154786467Y-94705223D01*
X154782813Y-94710150D01*
X154778694Y-94714694D01*
X154774150Y-94718813D01*
X154769223Y-94722467D01*
X154763962Y-94725620D01*
X154758418Y-94728242D01*
X154752643Y-94730309D01*
X154746693Y-94731799D01*
X154740626Y-94732699D01*
X154734500Y-94733000D01*
X154609500Y-94733000D01*
X154603374Y-94732699D01*
X154597307Y-94731799D01*
X154591357Y-94730309D01*
X154585582Y-94728242D01*
X154580038Y-94725620D01*
X154574777Y-94722467D01*
X154569850Y-94718813D01*
X154565306Y-94714694D01*
X154561187Y-94710150D01*
X154557533Y-94705223D01*
X154554380Y-94699962D01*
X154551758Y-94694418D01*
X154549691Y-94688643D01*
X154548201Y-94682693D01*
X154547301Y-94676626D01*
X154547000Y-94670500D01*
X154547000Y-93970500D01*
X154547301Y-93964374D01*
X154548201Y-93958307D01*
X154549691Y-93952357D01*
X154551758Y-93946582D01*
X154554380Y-93941038D01*
X154557533Y-93935777D01*
X154561187Y-93930850D01*
X154565306Y-93926306D01*
X154569850Y-93922187D01*
X154574777Y-93918533D01*
X154580038Y-93915380D01*
X154585582Y-93912758D01*
X154591357Y-93910691D01*
X154597307Y-93909201D01*
X154603374Y-93908301D01*
X154609500Y-93908000D01*
X154734500Y-93908000D01*
X154740626Y-93908301D01*
X154740626Y-93908301D01*
G37*
D28*
G04 #@! TD*
G04 #@! TO.P,U4,1*
G04 #@! TO.N,Net-(R7-Pad1)*
X154672000Y-94320500D03*
D14*
G04 #@! TO.N,Net-(J3-Pad1)*
G04 #@! TO.C,U4*
G36*
X155240626Y-93908301D02*
X155246693Y-93909201D01*
X155252643Y-93910691D01*
X155258418Y-93912758D01*
X155263962Y-93915380D01*
X155269223Y-93918533D01*
X155274150Y-93922187D01*
X155278694Y-93926306D01*
X155282813Y-93930850D01*
X155286467Y-93935777D01*
X155289620Y-93941038D01*
X155292242Y-93946582D01*
X155294309Y-93952357D01*
X155295799Y-93958307D01*
X155296699Y-93964374D01*
X155297000Y-93970500D01*
X155297000Y-94670500D01*
X155296699Y-94676626D01*
X155295799Y-94682693D01*
X155294309Y-94688643D01*
X155292242Y-94694418D01*
X155289620Y-94699962D01*
X155286467Y-94705223D01*
X155282813Y-94710150D01*
X155278694Y-94714694D01*
X155274150Y-94718813D01*
X155269223Y-94722467D01*
X155263962Y-94725620D01*
X155258418Y-94728242D01*
X155252643Y-94730309D01*
X155246693Y-94731799D01*
X155240626Y-94732699D01*
X155234500Y-94733000D01*
X155109500Y-94733000D01*
X155103374Y-94732699D01*
X155097307Y-94731799D01*
X155091357Y-94730309D01*
X155085582Y-94728242D01*
X155080038Y-94725620D01*
X155074777Y-94722467D01*
X155069850Y-94718813D01*
X155065306Y-94714694D01*
X155061187Y-94710150D01*
X155057533Y-94705223D01*
X155054380Y-94699962D01*
X155051758Y-94694418D01*
X155049691Y-94688643D01*
X155048201Y-94682693D01*
X155047301Y-94676626D01*
X155047000Y-94670500D01*
X155047000Y-93970500D01*
X155047301Y-93964374D01*
X155048201Y-93958307D01*
X155049691Y-93952357D01*
X155051758Y-93946582D01*
X155054380Y-93941038D01*
X155057533Y-93935777D01*
X155061187Y-93930850D01*
X155065306Y-93926306D01*
X155069850Y-93922187D01*
X155074777Y-93918533D01*
X155080038Y-93915380D01*
X155085582Y-93912758D01*
X155091357Y-93910691D01*
X155097307Y-93909201D01*
X155103374Y-93908301D01*
X155109500Y-93908000D01*
X155234500Y-93908000D01*
X155240626Y-93908301D01*
X155240626Y-93908301D01*
G37*
D28*
G04 #@! TD*
G04 #@! TO.P,U4,2*
G04 #@! TO.N,Net-(J3-Pad1)*
X155172000Y-94320500D03*
D14*
G04 #@! TO.N,Net-(J3-Pad1)*
G04 #@! TO.C,U4*
G36*
X155740626Y-93908301D02*
X155746693Y-93909201D01*
X155752643Y-93910691D01*
X155758418Y-93912758D01*
X155763962Y-93915380D01*
X155769223Y-93918533D01*
X155774150Y-93922187D01*
X155778694Y-93926306D01*
X155782813Y-93930850D01*
X155786467Y-93935777D01*
X155789620Y-93941038D01*
X155792242Y-93946582D01*
X155794309Y-93952357D01*
X155795799Y-93958307D01*
X155796699Y-93964374D01*
X155797000Y-93970500D01*
X155797000Y-94670500D01*
X155796699Y-94676626D01*
X155795799Y-94682693D01*
X155794309Y-94688643D01*
X155792242Y-94694418D01*
X155789620Y-94699962D01*
X155786467Y-94705223D01*
X155782813Y-94710150D01*
X155778694Y-94714694D01*
X155774150Y-94718813D01*
X155769223Y-94722467D01*
X155763962Y-94725620D01*
X155758418Y-94728242D01*
X155752643Y-94730309D01*
X155746693Y-94731799D01*
X155740626Y-94732699D01*
X155734500Y-94733000D01*
X155609500Y-94733000D01*
X155603374Y-94732699D01*
X155597307Y-94731799D01*
X155591357Y-94730309D01*
X155585582Y-94728242D01*
X155580038Y-94725620D01*
X155574777Y-94722467D01*
X155569850Y-94718813D01*
X155565306Y-94714694D01*
X155561187Y-94710150D01*
X155557533Y-94705223D01*
X155554380Y-94699962D01*
X155551758Y-94694418D01*
X155549691Y-94688643D01*
X155548201Y-94682693D01*
X155547301Y-94676626D01*
X155547000Y-94670500D01*
X155547000Y-93970500D01*
X155547301Y-93964374D01*
X155548201Y-93958307D01*
X155549691Y-93952357D01*
X155551758Y-93946582D01*
X155554380Y-93941038D01*
X155557533Y-93935777D01*
X155561187Y-93930850D01*
X155565306Y-93926306D01*
X155569850Y-93922187D01*
X155574777Y-93918533D01*
X155580038Y-93915380D01*
X155585582Y-93912758D01*
X155591357Y-93910691D01*
X155597307Y-93909201D01*
X155603374Y-93908301D01*
X155609500Y-93908000D01*
X155734500Y-93908000D01*
X155740626Y-93908301D01*
X155740626Y-93908301D01*
G37*
D28*
G04 #@! TD*
G04 #@! TO.P,U4,3*
G04 #@! TO.N,Net-(J3-Pad1)*
X155672000Y-94320500D03*
D14*
G04 #@! TO.N,GND*
G04 #@! TO.C,U4*
G36*
X156240626Y-93908301D02*
X156246693Y-93909201D01*
X156252643Y-93910691D01*
X156258418Y-93912758D01*
X156263962Y-93915380D01*
X156269223Y-93918533D01*
X156274150Y-93922187D01*
X156278694Y-93926306D01*
X156282813Y-93930850D01*
X156286467Y-93935777D01*
X156289620Y-93941038D01*
X156292242Y-93946582D01*
X156294309Y-93952357D01*
X156295799Y-93958307D01*
X156296699Y-93964374D01*
X156297000Y-93970500D01*
X156297000Y-94670500D01*
X156296699Y-94676626D01*
X156295799Y-94682693D01*
X156294309Y-94688643D01*
X156292242Y-94694418D01*
X156289620Y-94699962D01*
X156286467Y-94705223D01*
X156282813Y-94710150D01*
X156278694Y-94714694D01*
X156274150Y-94718813D01*
X156269223Y-94722467D01*
X156263962Y-94725620D01*
X156258418Y-94728242D01*
X156252643Y-94730309D01*
X156246693Y-94731799D01*
X156240626Y-94732699D01*
X156234500Y-94733000D01*
X156109500Y-94733000D01*
X156103374Y-94732699D01*
X156097307Y-94731799D01*
X156091357Y-94730309D01*
X156085582Y-94728242D01*
X156080038Y-94725620D01*
X156074777Y-94722467D01*
X156069850Y-94718813D01*
X156065306Y-94714694D01*
X156061187Y-94710150D01*
X156057533Y-94705223D01*
X156054380Y-94699962D01*
X156051758Y-94694418D01*
X156049691Y-94688643D01*
X156048201Y-94682693D01*
X156047301Y-94676626D01*
X156047000Y-94670500D01*
X156047000Y-93970500D01*
X156047301Y-93964374D01*
X156048201Y-93958307D01*
X156049691Y-93952357D01*
X156051758Y-93946582D01*
X156054380Y-93941038D01*
X156057533Y-93935777D01*
X156061187Y-93930850D01*
X156065306Y-93926306D01*
X156069850Y-93922187D01*
X156074777Y-93918533D01*
X156080038Y-93915380D01*
X156085582Y-93912758D01*
X156091357Y-93910691D01*
X156097307Y-93909201D01*
X156103374Y-93908301D01*
X156109500Y-93908000D01*
X156234500Y-93908000D01*
X156240626Y-93908301D01*
X156240626Y-93908301D01*
G37*
D28*
G04 #@! TD*
G04 #@! TO.P,U4,4*
G04 #@! TO.N,GND*
X156172000Y-94320500D03*
D14*
G04 #@! TO.N,VOUT_BQ*
G04 #@! TO.C,U4*
G36*
X157240626Y-93483301D02*
X157246693Y-93484201D01*
X157252643Y-93485691D01*
X157258418Y-93487758D01*
X157263962Y-93490380D01*
X157269223Y-93493533D01*
X157274150Y-93497187D01*
X157278694Y-93501306D01*
X157282813Y-93505850D01*
X157286467Y-93510777D01*
X157289620Y-93516038D01*
X157292242Y-93521582D01*
X157294309Y-93527357D01*
X157295799Y-93533307D01*
X157296699Y-93539374D01*
X157297000Y-93545500D01*
X157297000Y-93670500D01*
X157296699Y-93676626D01*
X157295799Y-93682693D01*
X157294309Y-93688643D01*
X157292242Y-93694418D01*
X157289620Y-93699962D01*
X157286467Y-93705223D01*
X157282813Y-93710150D01*
X157278694Y-93714694D01*
X157274150Y-93718813D01*
X157269223Y-93722467D01*
X157263962Y-93725620D01*
X157258418Y-93728242D01*
X157252643Y-93730309D01*
X157246693Y-93731799D01*
X157240626Y-93732699D01*
X157234500Y-93733000D01*
X156534500Y-93733000D01*
X156528374Y-93732699D01*
X156522307Y-93731799D01*
X156516357Y-93730309D01*
X156510582Y-93728242D01*
X156505038Y-93725620D01*
X156499777Y-93722467D01*
X156494850Y-93718813D01*
X156490306Y-93714694D01*
X156486187Y-93710150D01*
X156482533Y-93705223D01*
X156479380Y-93699962D01*
X156476758Y-93694418D01*
X156474691Y-93688643D01*
X156473201Y-93682693D01*
X156472301Y-93676626D01*
X156472000Y-93670500D01*
X156472000Y-93545500D01*
X156472301Y-93539374D01*
X156473201Y-93533307D01*
X156474691Y-93527357D01*
X156476758Y-93521582D01*
X156479380Y-93516038D01*
X156482533Y-93510777D01*
X156486187Y-93505850D01*
X156490306Y-93501306D01*
X156494850Y-93497187D01*
X156499777Y-93493533D01*
X156505038Y-93490380D01*
X156510582Y-93487758D01*
X156516357Y-93485691D01*
X156522307Y-93484201D01*
X156528374Y-93483301D01*
X156534500Y-93483000D01*
X157234500Y-93483000D01*
X157240626Y-93483301D01*
X157240626Y-93483301D01*
G37*
D28*
G04 #@! TD*
G04 #@! TO.P,U4,5*
G04 #@! TO.N,VOUT_BQ*
X156884500Y-93608000D03*
D14*
G04 #@! TO.N,GND*
G04 #@! TO.C,U4*
G36*
X157240626Y-92983301D02*
X157246693Y-92984201D01*
X157252643Y-92985691D01*
X157258418Y-92987758D01*
X157263962Y-92990380D01*
X157269223Y-92993533D01*
X157274150Y-92997187D01*
X157278694Y-93001306D01*
X157282813Y-93005850D01*
X157286467Y-93010777D01*
X157289620Y-93016038D01*
X157292242Y-93021582D01*
X157294309Y-93027357D01*
X157295799Y-93033307D01*
X157296699Y-93039374D01*
X157297000Y-93045500D01*
X157297000Y-93170500D01*
X157296699Y-93176626D01*
X157295799Y-93182693D01*
X157294309Y-93188643D01*
X157292242Y-93194418D01*
X157289620Y-93199962D01*
X157286467Y-93205223D01*
X157282813Y-93210150D01*
X157278694Y-93214694D01*
X157274150Y-93218813D01*
X157269223Y-93222467D01*
X157263962Y-93225620D01*
X157258418Y-93228242D01*
X157252643Y-93230309D01*
X157246693Y-93231799D01*
X157240626Y-93232699D01*
X157234500Y-93233000D01*
X156534500Y-93233000D01*
X156528374Y-93232699D01*
X156522307Y-93231799D01*
X156516357Y-93230309D01*
X156510582Y-93228242D01*
X156505038Y-93225620D01*
X156499777Y-93222467D01*
X156494850Y-93218813D01*
X156490306Y-93214694D01*
X156486187Y-93210150D01*
X156482533Y-93205223D01*
X156479380Y-93199962D01*
X156476758Y-93194418D01*
X156474691Y-93188643D01*
X156473201Y-93182693D01*
X156472301Y-93176626D01*
X156472000Y-93170500D01*
X156472000Y-93045500D01*
X156472301Y-93039374D01*
X156473201Y-93033307D01*
X156474691Y-93027357D01*
X156476758Y-93021582D01*
X156479380Y-93016038D01*
X156482533Y-93010777D01*
X156486187Y-93005850D01*
X156490306Y-93001306D01*
X156494850Y-92997187D01*
X156499777Y-92993533D01*
X156505038Y-92990380D01*
X156510582Y-92987758D01*
X156516357Y-92985691D01*
X156522307Y-92984201D01*
X156528374Y-92983301D01*
X156534500Y-92983000D01*
X157234500Y-92983000D01*
X157240626Y-92983301D01*
X157240626Y-92983301D01*
G37*
D28*
G04 #@! TD*
G04 #@! TO.P,U4,6*
G04 #@! TO.N,GND*
X156884500Y-93108000D03*
D14*
G04 #@! TO.N,Net-(D2-Pad1)*
G04 #@! TO.C,U4*
G36*
X157240626Y-92483301D02*
X157246693Y-92484201D01*
X157252643Y-92485691D01*
X157258418Y-92487758D01*
X157263962Y-92490380D01*
X157269223Y-92493533D01*
X157274150Y-92497187D01*
X157278694Y-92501306D01*
X157282813Y-92505850D01*
X157286467Y-92510777D01*
X157289620Y-92516038D01*
X157292242Y-92521582D01*
X157294309Y-92527357D01*
X157295799Y-92533307D01*
X157296699Y-92539374D01*
X157297000Y-92545500D01*
X157297000Y-92670500D01*
X157296699Y-92676626D01*
X157295799Y-92682693D01*
X157294309Y-92688643D01*
X157292242Y-92694418D01*
X157289620Y-92699962D01*
X157286467Y-92705223D01*
X157282813Y-92710150D01*
X157278694Y-92714694D01*
X157274150Y-92718813D01*
X157269223Y-92722467D01*
X157263962Y-92725620D01*
X157258418Y-92728242D01*
X157252643Y-92730309D01*
X157246693Y-92731799D01*
X157240626Y-92732699D01*
X157234500Y-92733000D01*
X156534500Y-92733000D01*
X156528374Y-92732699D01*
X156522307Y-92731799D01*
X156516357Y-92730309D01*
X156510582Y-92728242D01*
X156505038Y-92725620D01*
X156499777Y-92722467D01*
X156494850Y-92718813D01*
X156490306Y-92714694D01*
X156486187Y-92710150D01*
X156482533Y-92705223D01*
X156479380Y-92699962D01*
X156476758Y-92694418D01*
X156474691Y-92688643D01*
X156473201Y-92682693D01*
X156472301Y-92676626D01*
X156472000Y-92670500D01*
X156472000Y-92545500D01*
X156472301Y-92539374D01*
X156473201Y-92533307D01*
X156474691Y-92527357D01*
X156476758Y-92521582D01*
X156479380Y-92516038D01*
X156482533Y-92510777D01*
X156486187Y-92505850D01*
X156490306Y-92501306D01*
X156494850Y-92497187D01*
X156499777Y-92493533D01*
X156505038Y-92490380D01*
X156510582Y-92487758D01*
X156516357Y-92485691D01*
X156522307Y-92484201D01*
X156528374Y-92483301D01*
X156534500Y-92483000D01*
X157234500Y-92483000D01*
X157240626Y-92483301D01*
X157240626Y-92483301D01*
G37*
D28*
G04 #@! TD*
G04 #@! TO.P,U4,7*
G04 #@! TO.N,Net-(D2-Pad1)*
X156884500Y-92608000D03*
D14*
G04 #@! TO.N,GND*
G04 #@! TO.C,U4*
G36*
X157240626Y-91983301D02*
X157246693Y-91984201D01*
X157252643Y-91985691D01*
X157258418Y-91987758D01*
X157263962Y-91990380D01*
X157269223Y-91993533D01*
X157274150Y-91997187D01*
X157278694Y-92001306D01*
X157282813Y-92005850D01*
X157286467Y-92010777D01*
X157289620Y-92016038D01*
X157292242Y-92021582D01*
X157294309Y-92027357D01*
X157295799Y-92033307D01*
X157296699Y-92039374D01*
X157297000Y-92045500D01*
X157297000Y-92170500D01*
X157296699Y-92176626D01*
X157295799Y-92182693D01*
X157294309Y-92188643D01*
X157292242Y-92194418D01*
X157289620Y-92199962D01*
X157286467Y-92205223D01*
X157282813Y-92210150D01*
X157278694Y-92214694D01*
X157274150Y-92218813D01*
X157269223Y-92222467D01*
X157263962Y-92225620D01*
X157258418Y-92228242D01*
X157252643Y-92230309D01*
X157246693Y-92231799D01*
X157240626Y-92232699D01*
X157234500Y-92233000D01*
X156534500Y-92233000D01*
X156528374Y-92232699D01*
X156522307Y-92231799D01*
X156516357Y-92230309D01*
X156510582Y-92228242D01*
X156505038Y-92225620D01*
X156499777Y-92222467D01*
X156494850Y-92218813D01*
X156490306Y-92214694D01*
X156486187Y-92210150D01*
X156482533Y-92205223D01*
X156479380Y-92199962D01*
X156476758Y-92194418D01*
X156474691Y-92188643D01*
X156473201Y-92182693D01*
X156472301Y-92176626D01*
X156472000Y-92170500D01*
X156472000Y-92045500D01*
X156472301Y-92039374D01*
X156473201Y-92033307D01*
X156474691Y-92027357D01*
X156476758Y-92021582D01*
X156479380Y-92016038D01*
X156482533Y-92010777D01*
X156486187Y-92005850D01*
X156490306Y-92001306D01*
X156494850Y-91997187D01*
X156499777Y-91993533D01*
X156505038Y-91990380D01*
X156510582Y-91987758D01*
X156516357Y-91985691D01*
X156522307Y-91984201D01*
X156528374Y-91983301D01*
X156534500Y-91983000D01*
X157234500Y-91983000D01*
X157240626Y-91983301D01*
X157240626Y-91983301D01*
G37*
D28*
G04 #@! TD*
G04 #@! TO.P,U4,8*
G04 #@! TO.N,GND*
X156884500Y-92108000D03*
D14*
G04 #@! TO.N,Net-(D3-Pad1)*
G04 #@! TO.C,U4*
G36*
X156240626Y-90983301D02*
X156246693Y-90984201D01*
X156252643Y-90985691D01*
X156258418Y-90987758D01*
X156263962Y-90990380D01*
X156269223Y-90993533D01*
X156274150Y-90997187D01*
X156278694Y-91001306D01*
X156282813Y-91005850D01*
X156286467Y-91010777D01*
X156289620Y-91016038D01*
X156292242Y-91021582D01*
X156294309Y-91027357D01*
X156295799Y-91033307D01*
X156296699Y-91039374D01*
X156297000Y-91045500D01*
X156297000Y-91745500D01*
X156296699Y-91751626D01*
X156295799Y-91757693D01*
X156294309Y-91763643D01*
X156292242Y-91769418D01*
X156289620Y-91774962D01*
X156286467Y-91780223D01*
X156282813Y-91785150D01*
X156278694Y-91789694D01*
X156274150Y-91793813D01*
X156269223Y-91797467D01*
X156263962Y-91800620D01*
X156258418Y-91803242D01*
X156252643Y-91805309D01*
X156246693Y-91806799D01*
X156240626Y-91807699D01*
X156234500Y-91808000D01*
X156109500Y-91808000D01*
X156103374Y-91807699D01*
X156097307Y-91806799D01*
X156091357Y-91805309D01*
X156085582Y-91803242D01*
X156080038Y-91800620D01*
X156074777Y-91797467D01*
X156069850Y-91793813D01*
X156065306Y-91789694D01*
X156061187Y-91785150D01*
X156057533Y-91780223D01*
X156054380Y-91774962D01*
X156051758Y-91769418D01*
X156049691Y-91763643D01*
X156048201Y-91757693D01*
X156047301Y-91751626D01*
X156047000Y-91745500D01*
X156047000Y-91045500D01*
X156047301Y-91039374D01*
X156048201Y-91033307D01*
X156049691Y-91027357D01*
X156051758Y-91021582D01*
X156054380Y-91016038D01*
X156057533Y-91010777D01*
X156061187Y-91005850D01*
X156065306Y-91001306D01*
X156069850Y-90997187D01*
X156074777Y-90993533D01*
X156080038Y-90990380D01*
X156085582Y-90987758D01*
X156091357Y-90985691D01*
X156097307Y-90984201D01*
X156103374Y-90983301D01*
X156109500Y-90983000D01*
X156234500Y-90983000D01*
X156240626Y-90983301D01*
X156240626Y-90983301D01*
G37*
D28*
G04 #@! TD*
G04 #@! TO.P,U4,9*
G04 #@! TO.N,Net-(D3-Pad1)*
X156172000Y-91395500D03*
D14*
G04 #@! TO.N,VOUT_BQ*
G04 #@! TO.C,U4*
G36*
X155740626Y-90983301D02*
X155746693Y-90984201D01*
X155752643Y-90985691D01*
X155758418Y-90987758D01*
X155763962Y-90990380D01*
X155769223Y-90993533D01*
X155774150Y-90997187D01*
X155778694Y-91001306D01*
X155782813Y-91005850D01*
X155786467Y-91010777D01*
X155789620Y-91016038D01*
X155792242Y-91021582D01*
X155794309Y-91027357D01*
X155795799Y-91033307D01*
X155796699Y-91039374D01*
X155797000Y-91045500D01*
X155797000Y-91745500D01*
X155796699Y-91751626D01*
X155795799Y-91757693D01*
X155794309Y-91763643D01*
X155792242Y-91769418D01*
X155789620Y-91774962D01*
X155786467Y-91780223D01*
X155782813Y-91785150D01*
X155778694Y-91789694D01*
X155774150Y-91793813D01*
X155769223Y-91797467D01*
X155763962Y-91800620D01*
X155758418Y-91803242D01*
X155752643Y-91805309D01*
X155746693Y-91806799D01*
X155740626Y-91807699D01*
X155734500Y-91808000D01*
X155609500Y-91808000D01*
X155603374Y-91807699D01*
X155597307Y-91806799D01*
X155591357Y-91805309D01*
X155585582Y-91803242D01*
X155580038Y-91800620D01*
X155574777Y-91797467D01*
X155569850Y-91793813D01*
X155565306Y-91789694D01*
X155561187Y-91785150D01*
X155557533Y-91780223D01*
X155554380Y-91774962D01*
X155551758Y-91769418D01*
X155549691Y-91763643D01*
X155548201Y-91757693D01*
X155547301Y-91751626D01*
X155547000Y-91745500D01*
X155547000Y-91045500D01*
X155547301Y-91039374D01*
X155548201Y-91033307D01*
X155549691Y-91027357D01*
X155551758Y-91021582D01*
X155554380Y-91016038D01*
X155557533Y-91010777D01*
X155561187Y-91005850D01*
X155565306Y-91001306D01*
X155569850Y-90997187D01*
X155574777Y-90993533D01*
X155580038Y-90990380D01*
X155585582Y-90987758D01*
X155591357Y-90985691D01*
X155597307Y-90984201D01*
X155603374Y-90983301D01*
X155609500Y-90983000D01*
X155734500Y-90983000D01*
X155740626Y-90983301D01*
X155740626Y-90983301D01*
G37*
D28*
G04 #@! TD*
G04 #@! TO.P,U4,10*
G04 #@! TO.N,VOUT_BQ*
X155672000Y-91395500D03*
D14*
G04 #@! TO.N,VOUT_BQ*
G04 #@! TO.C,U4*
G36*
X155240626Y-90983301D02*
X155246693Y-90984201D01*
X155252643Y-90985691D01*
X155258418Y-90987758D01*
X155263962Y-90990380D01*
X155269223Y-90993533D01*
X155274150Y-90997187D01*
X155278694Y-91001306D01*
X155282813Y-91005850D01*
X155286467Y-91010777D01*
X155289620Y-91016038D01*
X155292242Y-91021582D01*
X155294309Y-91027357D01*
X155295799Y-91033307D01*
X155296699Y-91039374D01*
X155297000Y-91045500D01*
X155297000Y-91745500D01*
X155296699Y-91751626D01*
X155295799Y-91757693D01*
X155294309Y-91763643D01*
X155292242Y-91769418D01*
X155289620Y-91774962D01*
X155286467Y-91780223D01*
X155282813Y-91785150D01*
X155278694Y-91789694D01*
X155274150Y-91793813D01*
X155269223Y-91797467D01*
X155263962Y-91800620D01*
X155258418Y-91803242D01*
X155252643Y-91805309D01*
X155246693Y-91806799D01*
X155240626Y-91807699D01*
X155234500Y-91808000D01*
X155109500Y-91808000D01*
X155103374Y-91807699D01*
X155097307Y-91806799D01*
X155091357Y-91805309D01*
X155085582Y-91803242D01*
X155080038Y-91800620D01*
X155074777Y-91797467D01*
X155069850Y-91793813D01*
X155065306Y-91789694D01*
X155061187Y-91785150D01*
X155057533Y-91780223D01*
X155054380Y-91774962D01*
X155051758Y-91769418D01*
X155049691Y-91763643D01*
X155048201Y-91757693D01*
X155047301Y-91751626D01*
X155047000Y-91745500D01*
X155047000Y-91045500D01*
X155047301Y-91039374D01*
X155048201Y-91033307D01*
X155049691Y-91027357D01*
X155051758Y-91021582D01*
X155054380Y-91016038D01*
X155057533Y-91010777D01*
X155061187Y-91005850D01*
X155065306Y-91001306D01*
X155069850Y-90997187D01*
X155074777Y-90993533D01*
X155080038Y-90990380D01*
X155085582Y-90987758D01*
X155091357Y-90985691D01*
X155097307Y-90984201D01*
X155103374Y-90983301D01*
X155109500Y-90983000D01*
X155234500Y-90983000D01*
X155240626Y-90983301D01*
X155240626Y-90983301D01*
G37*
D28*
G04 #@! TD*
G04 #@! TO.P,U4,11*
G04 #@! TO.N,VOUT_BQ*
X155172000Y-91395500D03*
D14*
G04 #@! TO.N,Net-(R5-Pad2)*
G04 #@! TO.C,U4*
G36*
X154740626Y-90983301D02*
X154746693Y-90984201D01*
X154752643Y-90985691D01*
X154758418Y-90987758D01*
X154763962Y-90990380D01*
X154769223Y-90993533D01*
X154774150Y-90997187D01*
X154778694Y-91001306D01*
X154782813Y-91005850D01*
X154786467Y-91010777D01*
X154789620Y-91016038D01*
X154792242Y-91021582D01*
X154794309Y-91027357D01*
X154795799Y-91033307D01*
X154796699Y-91039374D01*
X154797000Y-91045500D01*
X154797000Y-91745500D01*
X154796699Y-91751626D01*
X154795799Y-91757693D01*
X154794309Y-91763643D01*
X154792242Y-91769418D01*
X154789620Y-91774962D01*
X154786467Y-91780223D01*
X154782813Y-91785150D01*
X154778694Y-91789694D01*
X154774150Y-91793813D01*
X154769223Y-91797467D01*
X154763962Y-91800620D01*
X154758418Y-91803242D01*
X154752643Y-91805309D01*
X154746693Y-91806799D01*
X154740626Y-91807699D01*
X154734500Y-91808000D01*
X154609500Y-91808000D01*
X154603374Y-91807699D01*
X154597307Y-91806799D01*
X154591357Y-91805309D01*
X154585582Y-91803242D01*
X154580038Y-91800620D01*
X154574777Y-91797467D01*
X154569850Y-91793813D01*
X154565306Y-91789694D01*
X154561187Y-91785150D01*
X154557533Y-91780223D01*
X154554380Y-91774962D01*
X154551758Y-91769418D01*
X154549691Y-91763643D01*
X154548201Y-91757693D01*
X154547301Y-91751626D01*
X154547000Y-91745500D01*
X154547000Y-91045500D01*
X154547301Y-91039374D01*
X154548201Y-91033307D01*
X154549691Y-91027357D01*
X154551758Y-91021582D01*
X154554380Y-91016038D01*
X154557533Y-91010777D01*
X154561187Y-91005850D01*
X154565306Y-91001306D01*
X154569850Y-90997187D01*
X154574777Y-90993533D01*
X154580038Y-90990380D01*
X154585582Y-90987758D01*
X154591357Y-90985691D01*
X154597307Y-90984201D01*
X154603374Y-90983301D01*
X154609500Y-90983000D01*
X154734500Y-90983000D01*
X154740626Y-90983301D01*
X154740626Y-90983301D01*
G37*
D28*
G04 #@! TD*
G04 #@! TO.P,U4,12*
G04 #@! TO.N,Net-(R5-Pad2)*
X154672000Y-91395500D03*
D14*
G04 #@! TO.N,Net-(C8-Pad1)*
G04 #@! TO.C,U4*
G36*
X154315626Y-91983301D02*
X154321693Y-91984201D01*
X154327643Y-91985691D01*
X154333418Y-91987758D01*
X154338962Y-91990380D01*
X154344223Y-91993533D01*
X154349150Y-91997187D01*
X154353694Y-92001306D01*
X154357813Y-92005850D01*
X154361467Y-92010777D01*
X154364620Y-92016038D01*
X154367242Y-92021582D01*
X154369309Y-92027357D01*
X154370799Y-92033307D01*
X154371699Y-92039374D01*
X154372000Y-92045500D01*
X154372000Y-92170500D01*
X154371699Y-92176626D01*
X154370799Y-92182693D01*
X154369309Y-92188643D01*
X154367242Y-92194418D01*
X154364620Y-92199962D01*
X154361467Y-92205223D01*
X154357813Y-92210150D01*
X154353694Y-92214694D01*
X154349150Y-92218813D01*
X154344223Y-92222467D01*
X154338962Y-92225620D01*
X154333418Y-92228242D01*
X154327643Y-92230309D01*
X154321693Y-92231799D01*
X154315626Y-92232699D01*
X154309500Y-92233000D01*
X153609500Y-92233000D01*
X153603374Y-92232699D01*
X153597307Y-92231799D01*
X153591357Y-92230309D01*
X153585582Y-92228242D01*
X153580038Y-92225620D01*
X153574777Y-92222467D01*
X153569850Y-92218813D01*
X153565306Y-92214694D01*
X153561187Y-92210150D01*
X153557533Y-92205223D01*
X153554380Y-92199962D01*
X153551758Y-92194418D01*
X153549691Y-92188643D01*
X153548201Y-92182693D01*
X153547301Y-92176626D01*
X153547000Y-92170500D01*
X153547000Y-92045500D01*
X153547301Y-92039374D01*
X153548201Y-92033307D01*
X153549691Y-92027357D01*
X153551758Y-92021582D01*
X153554380Y-92016038D01*
X153557533Y-92010777D01*
X153561187Y-92005850D01*
X153565306Y-92001306D01*
X153569850Y-91997187D01*
X153574777Y-91993533D01*
X153580038Y-91990380D01*
X153585582Y-91987758D01*
X153591357Y-91985691D01*
X153597307Y-91984201D01*
X153603374Y-91983301D01*
X153609500Y-91983000D01*
X154309500Y-91983000D01*
X154315626Y-91983301D01*
X154315626Y-91983301D01*
G37*
D28*
G04 #@! TD*
G04 #@! TO.P,U4,13*
G04 #@! TO.N,Net-(C8-Pad1)*
X153959500Y-92108000D03*
D14*
G04 #@! TO.N,Net-(U4-Pad14)*
G04 #@! TO.C,U4*
G36*
X154315626Y-92483301D02*
X154321693Y-92484201D01*
X154327643Y-92485691D01*
X154333418Y-92487758D01*
X154338962Y-92490380D01*
X154344223Y-92493533D01*
X154349150Y-92497187D01*
X154353694Y-92501306D01*
X154357813Y-92505850D01*
X154361467Y-92510777D01*
X154364620Y-92516038D01*
X154367242Y-92521582D01*
X154369309Y-92527357D01*
X154370799Y-92533307D01*
X154371699Y-92539374D01*
X154372000Y-92545500D01*
X154372000Y-92670500D01*
X154371699Y-92676626D01*
X154370799Y-92682693D01*
X154369309Y-92688643D01*
X154367242Y-92694418D01*
X154364620Y-92699962D01*
X154361467Y-92705223D01*
X154357813Y-92710150D01*
X154353694Y-92714694D01*
X154349150Y-92718813D01*
X154344223Y-92722467D01*
X154338962Y-92725620D01*
X154333418Y-92728242D01*
X154327643Y-92730309D01*
X154321693Y-92731799D01*
X154315626Y-92732699D01*
X154309500Y-92733000D01*
X153609500Y-92733000D01*
X153603374Y-92732699D01*
X153597307Y-92731799D01*
X153591357Y-92730309D01*
X153585582Y-92728242D01*
X153580038Y-92725620D01*
X153574777Y-92722467D01*
X153569850Y-92718813D01*
X153565306Y-92714694D01*
X153561187Y-92710150D01*
X153557533Y-92705223D01*
X153554380Y-92699962D01*
X153551758Y-92694418D01*
X153549691Y-92688643D01*
X153548201Y-92682693D01*
X153547301Y-92676626D01*
X153547000Y-92670500D01*
X153547000Y-92545500D01*
X153547301Y-92539374D01*
X153548201Y-92533307D01*
X153549691Y-92527357D01*
X153551758Y-92521582D01*
X153554380Y-92516038D01*
X153557533Y-92510777D01*
X153561187Y-92505850D01*
X153565306Y-92501306D01*
X153569850Y-92497187D01*
X153574777Y-92493533D01*
X153580038Y-92490380D01*
X153585582Y-92487758D01*
X153591357Y-92485691D01*
X153597307Y-92484201D01*
X153603374Y-92483301D01*
X153609500Y-92483000D01*
X154309500Y-92483000D01*
X154315626Y-92483301D01*
X154315626Y-92483301D01*
G37*
D28*
G04 #@! TD*
G04 #@! TO.P,U4,14*
G04 #@! TO.N,Net-(U4-Pad14)*
X153959500Y-92608000D03*
D14*
G04 #@! TO.N,Net-(R10-Pad1)*
G04 #@! TO.C,U4*
G36*
X154315626Y-92983301D02*
X154321693Y-92984201D01*
X154327643Y-92985691D01*
X154333418Y-92987758D01*
X154338962Y-92990380D01*
X154344223Y-92993533D01*
X154349150Y-92997187D01*
X154353694Y-93001306D01*
X154357813Y-93005850D01*
X154361467Y-93010777D01*
X154364620Y-93016038D01*
X154367242Y-93021582D01*
X154369309Y-93027357D01*
X154370799Y-93033307D01*
X154371699Y-93039374D01*
X154372000Y-93045500D01*
X154372000Y-93170500D01*
X154371699Y-93176626D01*
X154370799Y-93182693D01*
X154369309Y-93188643D01*
X154367242Y-93194418D01*
X154364620Y-93199962D01*
X154361467Y-93205223D01*
X154357813Y-93210150D01*
X154353694Y-93214694D01*
X154349150Y-93218813D01*
X154344223Y-93222467D01*
X154338962Y-93225620D01*
X154333418Y-93228242D01*
X154327643Y-93230309D01*
X154321693Y-93231799D01*
X154315626Y-93232699D01*
X154309500Y-93233000D01*
X153609500Y-93233000D01*
X153603374Y-93232699D01*
X153597307Y-93231799D01*
X153591357Y-93230309D01*
X153585582Y-93228242D01*
X153580038Y-93225620D01*
X153574777Y-93222467D01*
X153569850Y-93218813D01*
X153565306Y-93214694D01*
X153561187Y-93210150D01*
X153557533Y-93205223D01*
X153554380Y-93199962D01*
X153551758Y-93194418D01*
X153549691Y-93188643D01*
X153548201Y-93182693D01*
X153547301Y-93176626D01*
X153547000Y-93170500D01*
X153547000Y-93045500D01*
X153547301Y-93039374D01*
X153548201Y-93033307D01*
X153549691Y-93027357D01*
X153551758Y-93021582D01*
X153554380Y-93016038D01*
X153557533Y-93010777D01*
X153561187Y-93005850D01*
X153565306Y-93001306D01*
X153569850Y-92997187D01*
X153574777Y-92993533D01*
X153580038Y-92990380D01*
X153585582Y-92987758D01*
X153591357Y-92985691D01*
X153597307Y-92984201D01*
X153603374Y-92983301D01*
X153609500Y-92983000D01*
X154309500Y-92983000D01*
X154315626Y-92983301D01*
X154315626Y-92983301D01*
G37*
D28*
G04 #@! TD*
G04 #@! TO.P,U4,15*
G04 #@! TO.N,Net-(R10-Pad1)*
X153959500Y-93108000D03*
D14*
G04 #@! TO.N,Net-(R6-Pad2)*
G04 #@! TO.C,U4*
G36*
X154315626Y-93483301D02*
X154321693Y-93484201D01*
X154327643Y-93485691D01*
X154333418Y-93487758D01*
X154338962Y-93490380D01*
X154344223Y-93493533D01*
X154349150Y-93497187D01*
X154353694Y-93501306D01*
X154357813Y-93505850D01*
X154361467Y-93510777D01*
X154364620Y-93516038D01*
X154367242Y-93521582D01*
X154369309Y-93527357D01*
X154370799Y-93533307D01*
X154371699Y-93539374D01*
X154372000Y-93545500D01*
X154372000Y-93670500D01*
X154371699Y-93676626D01*
X154370799Y-93682693D01*
X154369309Y-93688643D01*
X154367242Y-93694418D01*
X154364620Y-93699962D01*
X154361467Y-93705223D01*
X154357813Y-93710150D01*
X154353694Y-93714694D01*
X154349150Y-93718813D01*
X154344223Y-93722467D01*
X154338962Y-93725620D01*
X154333418Y-93728242D01*
X154327643Y-93730309D01*
X154321693Y-93731799D01*
X154315626Y-93732699D01*
X154309500Y-93733000D01*
X153609500Y-93733000D01*
X153603374Y-93732699D01*
X153597307Y-93731799D01*
X153591357Y-93730309D01*
X153585582Y-93728242D01*
X153580038Y-93725620D01*
X153574777Y-93722467D01*
X153569850Y-93718813D01*
X153565306Y-93714694D01*
X153561187Y-93710150D01*
X153557533Y-93705223D01*
X153554380Y-93699962D01*
X153551758Y-93694418D01*
X153549691Y-93688643D01*
X153548201Y-93682693D01*
X153547301Y-93676626D01*
X153547000Y-93670500D01*
X153547000Y-93545500D01*
X153547301Y-93539374D01*
X153548201Y-93533307D01*
X153549691Y-93527357D01*
X153551758Y-93521582D01*
X153554380Y-93516038D01*
X153557533Y-93510777D01*
X153561187Y-93505850D01*
X153565306Y-93501306D01*
X153569850Y-93497187D01*
X153574777Y-93493533D01*
X153580038Y-93490380D01*
X153585582Y-93487758D01*
X153591357Y-93485691D01*
X153597307Y-93484201D01*
X153603374Y-93483301D01*
X153609500Y-93483000D01*
X154309500Y-93483000D01*
X154315626Y-93483301D01*
X154315626Y-93483301D01*
G37*
D28*
G04 #@! TD*
G04 #@! TO.P,U4,16*
G04 #@! TO.N,Net-(R6-Pad2)*
X153959500Y-93608000D03*
D14*
G04 #@! TO.N,Net-(R1-Pad1)*
G04 #@! TO.C,R1*
G36*
X146282779Y-76834144D02*
X146305834Y-76837563D01*
X146328443Y-76843227D01*
X146350387Y-76851079D01*
X146371457Y-76861044D01*
X146391448Y-76873026D01*
X146410168Y-76886910D01*
X146427438Y-76902562D01*
X146443090Y-76919832D01*
X146456974Y-76938552D01*
X146468956Y-76958543D01*
X146478921Y-76979613D01*
X146486773Y-77001557D01*
X146492437Y-77024166D01*
X146495856Y-77047221D01*
X146497000Y-77070500D01*
X146497000Y-77645500D01*
X146495856Y-77668779D01*
X146492437Y-77691834D01*
X146486773Y-77714443D01*
X146478921Y-77736387D01*
X146468956Y-77757457D01*
X146456974Y-77777448D01*
X146443090Y-77796168D01*
X146427438Y-77813438D01*
X146410168Y-77829090D01*
X146391448Y-77842974D01*
X146371457Y-77854956D01*
X146350387Y-77864921D01*
X146328443Y-77872773D01*
X146305834Y-77878437D01*
X146282779Y-77881856D01*
X146259500Y-77883000D01*
X145784500Y-77883000D01*
X145761221Y-77881856D01*
X145738166Y-77878437D01*
X145715557Y-77872773D01*
X145693613Y-77864921D01*
X145672543Y-77854956D01*
X145652552Y-77842974D01*
X145633832Y-77829090D01*
X145616562Y-77813438D01*
X145600910Y-77796168D01*
X145587026Y-77777448D01*
X145575044Y-77757457D01*
X145565079Y-77736387D01*
X145557227Y-77714443D01*
X145551563Y-77691834D01*
X145548144Y-77668779D01*
X145547000Y-77645500D01*
X145547000Y-77070500D01*
X145548144Y-77047221D01*
X145551563Y-77024166D01*
X145557227Y-77001557D01*
X145565079Y-76979613D01*
X145575044Y-76958543D01*
X145587026Y-76938552D01*
X145600910Y-76919832D01*
X145616562Y-76902562D01*
X145633832Y-76886910D01*
X145652552Y-76873026D01*
X145672543Y-76861044D01*
X145693613Y-76851079D01*
X145715557Y-76843227D01*
X145738166Y-76837563D01*
X145761221Y-76834144D01*
X145784500Y-76833000D01*
X146259500Y-76833000D01*
X146282779Y-76834144D01*
X146282779Y-76834144D01*
G37*
D15*
G04 #@! TD*
G04 #@! TO.P,R1,1*
G04 #@! TO.N,Net-(R1-Pad1)*
X146022000Y-77358000D03*
D14*
G04 #@! TO.N,Net-(D1-Pad2)*
G04 #@! TO.C,R1*
G36*
X146282779Y-78584144D02*
X146305834Y-78587563D01*
X146328443Y-78593227D01*
X146350387Y-78601079D01*
X146371457Y-78611044D01*
X146391448Y-78623026D01*
X146410168Y-78636910D01*
X146427438Y-78652562D01*
X146443090Y-78669832D01*
X146456974Y-78688552D01*
X146468956Y-78708543D01*
X146478921Y-78729613D01*
X146486773Y-78751557D01*
X146492437Y-78774166D01*
X146495856Y-78797221D01*
X146497000Y-78820500D01*
X146497000Y-79395500D01*
X146495856Y-79418779D01*
X146492437Y-79441834D01*
X146486773Y-79464443D01*
X146478921Y-79486387D01*
X146468956Y-79507457D01*
X146456974Y-79527448D01*
X146443090Y-79546168D01*
X146427438Y-79563438D01*
X146410168Y-79579090D01*
X146391448Y-79592974D01*
X146371457Y-79604956D01*
X146350387Y-79614921D01*
X146328443Y-79622773D01*
X146305834Y-79628437D01*
X146282779Y-79631856D01*
X146259500Y-79633000D01*
X145784500Y-79633000D01*
X145761221Y-79631856D01*
X145738166Y-79628437D01*
X145715557Y-79622773D01*
X145693613Y-79614921D01*
X145672543Y-79604956D01*
X145652552Y-79592974D01*
X145633832Y-79579090D01*
X145616562Y-79563438D01*
X145600910Y-79546168D01*
X145587026Y-79527448D01*
X145575044Y-79507457D01*
X145565079Y-79486387D01*
X145557227Y-79464443D01*
X145551563Y-79441834D01*
X145548144Y-79418779D01*
X145547000Y-79395500D01*
X145547000Y-78820500D01*
X145548144Y-78797221D01*
X145551563Y-78774166D01*
X145557227Y-78751557D01*
X145565079Y-78729613D01*
X145575044Y-78708543D01*
X145587026Y-78688552D01*
X145600910Y-78669832D01*
X145616562Y-78652562D01*
X145633832Y-78636910D01*
X145652552Y-78623026D01*
X145672543Y-78611044D01*
X145693613Y-78601079D01*
X145715557Y-78593227D01*
X145738166Y-78587563D01*
X145761221Y-78584144D01*
X145784500Y-78583000D01*
X146259500Y-78583000D01*
X146282779Y-78584144D01*
X146282779Y-78584144D01*
G37*
D15*
G04 #@! TD*
G04 #@! TO.P,R1,2*
G04 #@! TO.N,Net-(D1-Pad2)*
X146022000Y-79108000D03*
D14*
G04 #@! TO.N,Vdd*
G04 #@! TO.C,R2*
G36*
X146882779Y-80934144D02*
X146905834Y-80937563D01*
X146928443Y-80943227D01*
X146950387Y-80951079D01*
X146971457Y-80961044D01*
X146991448Y-80973026D01*
X147010168Y-80986910D01*
X147027438Y-81002562D01*
X147043090Y-81019832D01*
X147056974Y-81038552D01*
X147068956Y-81058543D01*
X147078921Y-81079613D01*
X147086773Y-81101557D01*
X147092437Y-81124166D01*
X147095856Y-81147221D01*
X147097000Y-81170500D01*
X147097000Y-81745500D01*
X147095856Y-81768779D01*
X147092437Y-81791834D01*
X147086773Y-81814443D01*
X147078921Y-81836387D01*
X147068956Y-81857457D01*
X147056974Y-81877448D01*
X147043090Y-81896168D01*
X147027438Y-81913438D01*
X147010168Y-81929090D01*
X146991448Y-81942974D01*
X146971457Y-81954956D01*
X146950387Y-81964921D01*
X146928443Y-81972773D01*
X146905834Y-81978437D01*
X146882779Y-81981856D01*
X146859500Y-81983000D01*
X146384500Y-81983000D01*
X146361221Y-81981856D01*
X146338166Y-81978437D01*
X146315557Y-81972773D01*
X146293613Y-81964921D01*
X146272543Y-81954956D01*
X146252552Y-81942974D01*
X146233832Y-81929090D01*
X146216562Y-81913438D01*
X146200910Y-81896168D01*
X146187026Y-81877448D01*
X146175044Y-81857457D01*
X146165079Y-81836387D01*
X146157227Y-81814443D01*
X146151563Y-81791834D01*
X146148144Y-81768779D01*
X146147000Y-81745500D01*
X146147000Y-81170500D01*
X146148144Y-81147221D01*
X146151563Y-81124166D01*
X146157227Y-81101557D01*
X146165079Y-81079613D01*
X146175044Y-81058543D01*
X146187026Y-81038552D01*
X146200910Y-81019832D01*
X146216562Y-81002562D01*
X146233832Y-80986910D01*
X146252552Y-80973026D01*
X146272543Y-80961044D01*
X146293613Y-80951079D01*
X146315557Y-80943227D01*
X146338166Y-80937563D01*
X146361221Y-80934144D01*
X146384500Y-80933000D01*
X146859500Y-80933000D01*
X146882779Y-80934144D01*
X146882779Y-80934144D01*
G37*
D15*
G04 #@! TD*
G04 #@! TO.P,R2,1*
G04 #@! TO.N,Vdd*
X146622000Y-81458000D03*
D14*
G04 #@! TO.N,Net-(C5-Pad1)*
G04 #@! TO.C,R2*
G36*
X146882779Y-82684144D02*
X146905834Y-82687563D01*
X146928443Y-82693227D01*
X146950387Y-82701079D01*
X146971457Y-82711044D01*
X146991448Y-82723026D01*
X147010168Y-82736910D01*
X147027438Y-82752562D01*
X147043090Y-82769832D01*
X147056974Y-82788552D01*
X147068956Y-82808543D01*
X147078921Y-82829613D01*
X147086773Y-82851557D01*
X147092437Y-82874166D01*
X147095856Y-82897221D01*
X147097000Y-82920500D01*
X147097000Y-83495500D01*
X147095856Y-83518779D01*
X147092437Y-83541834D01*
X147086773Y-83564443D01*
X147078921Y-83586387D01*
X147068956Y-83607457D01*
X147056974Y-83627448D01*
X147043090Y-83646168D01*
X147027438Y-83663438D01*
X147010168Y-83679090D01*
X146991448Y-83692974D01*
X146971457Y-83704956D01*
X146950387Y-83714921D01*
X146928443Y-83722773D01*
X146905834Y-83728437D01*
X146882779Y-83731856D01*
X146859500Y-83733000D01*
X146384500Y-83733000D01*
X146361221Y-83731856D01*
X146338166Y-83728437D01*
X146315557Y-83722773D01*
X146293613Y-83714921D01*
X146272543Y-83704956D01*
X146252552Y-83692974D01*
X146233832Y-83679090D01*
X146216562Y-83663438D01*
X146200910Y-83646168D01*
X146187026Y-83627448D01*
X146175044Y-83607457D01*
X146165079Y-83586387D01*
X146157227Y-83564443D01*
X146151563Y-83541834D01*
X146148144Y-83518779D01*
X146147000Y-83495500D01*
X146147000Y-82920500D01*
X146148144Y-82897221D01*
X146151563Y-82874166D01*
X146157227Y-82851557D01*
X146165079Y-82829613D01*
X146175044Y-82808543D01*
X146187026Y-82788552D01*
X146200910Y-82769832D01*
X146216562Y-82752562D01*
X146233832Y-82736910D01*
X146252552Y-82723026D01*
X146272543Y-82711044D01*
X146293613Y-82701079D01*
X146315557Y-82693227D01*
X146338166Y-82687563D01*
X146361221Y-82684144D01*
X146384500Y-82683000D01*
X146859500Y-82683000D01*
X146882779Y-82684144D01*
X146882779Y-82684144D01*
G37*
D15*
G04 #@! TD*
G04 #@! TO.P,R2,2*
G04 #@! TO.N,Net-(C5-Pad1)*
X146622000Y-83208000D03*
D14*
G04 #@! TO.N,Net-(R3-Pad1)*
G04 #@! TO.C,R3*
G36*
X141482779Y-87759144D02*
X141505834Y-87762563D01*
X141528443Y-87768227D01*
X141550387Y-87776079D01*
X141571457Y-87786044D01*
X141591448Y-87798026D01*
X141610168Y-87811910D01*
X141627438Y-87827562D01*
X141643090Y-87844832D01*
X141656974Y-87863552D01*
X141668956Y-87883543D01*
X141678921Y-87904613D01*
X141686773Y-87926557D01*
X141692437Y-87949166D01*
X141695856Y-87972221D01*
X141697000Y-87995500D01*
X141697000Y-88570500D01*
X141695856Y-88593779D01*
X141692437Y-88616834D01*
X141686773Y-88639443D01*
X141678921Y-88661387D01*
X141668956Y-88682457D01*
X141656974Y-88702448D01*
X141643090Y-88721168D01*
X141627438Y-88738438D01*
X141610168Y-88754090D01*
X141591448Y-88767974D01*
X141571457Y-88779956D01*
X141550387Y-88789921D01*
X141528443Y-88797773D01*
X141505834Y-88803437D01*
X141482779Y-88806856D01*
X141459500Y-88808000D01*
X140984500Y-88808000D01*
X140961221Y-88806856D01*
X140938166Y-88803437D01*
X140915557Y-88797773D01*
X140893613Y-88789921D01*
X140872543Y-88779956D01*
X140852552Y-88767974D01*
X140833832Y-88754090D01*
X140816562Y-88738438D01*
X140800910Y-88721168D01*
X140787026Y-88702448D01*
X140775044Y-88682457D01*
X140765079Y-88661387D01*
X140757227Y-88639443D01*
X140751563Y-88616834D01*
X140748144Y-88593779D01*
X140747000Y-88570500D01*
X140747000Y-87995500D01*
X140748144Y-87972221D01*
X140751563Y-87949166D01*
X140757227Y-87926557D01*
X140765079Y-87904613D01*
X140775044Y-87883543D01*
X140787026Y-87863552D01*
X140800910Y-87844832D01*
X140816562Y-87827562D01*
X140833832Y-87811910D01*
X140852552Y-87798026D01*
X140872543Y-87786044D01*
X140893613Y-87776079D01*
X140915557Y-87768227D01*
X140938166Y-87762563D01*
X140961221Y-87759144D01*
X140984500Y-87758000D01*
X141459500Y-87758000D01*
X141482779Y-87759144D01*
X141482779Y-87759144D01*
G37*
D15*
G04 #@! TD*
G04 #@! TO.P,R3,1*
G04 #@! TO.N,Net-(R3-Pad1)*
X141222000Y-88283000D03*
D14*
G04 #@! TO.N,GND*
G04 #@! TO.C,R3*
G36*
X141482779Y-89509144D02*
X141505834Y-89512563D01*
X141528443Y-89518227D01*
X141550387Y-89526079D01*
X141571457Y-89536044D01*
X141591448Y-89548026D01*
X141610168Y-89561910D01*
X141627438Y-89577562D01*
X141643090Y-89594832D01*
X141656974Y-89613552D01*
X141668956Y-89633543D01*
X141678921Y-89654613D01*
X141686773Y-89676557D01*
X141692437Y-89699166D01*
X141695856Y-89722221D01*
X141697000Y-89745500D01*
X141697000Y-90320500D01*
X141695856Y-90343779D01*
X141692437Y-90366834D01*
X141686773Y-90389443D01*
X141678921Y-90411387D01*
X141668956Y-90432457D01*
X141656974Y-90452448D01*
X141643090Y-90471168D01*
X141627438Y-90488438D01*
X141610168Y-90504090D01*
X141591448Y-90517974D01*
X141571457Y-90529956D01*
X141550387Y-90539921D01*
X141528443Y-90547773D01*
X141505834Y-90553437D01*
X141482779Y-90556856D01*
X141459500Y-90558000D01*
X140984500Y-90558000D01*
X140961221Y-90556856D01*
X140938166Y-90553437D01*
X140915557Y-90547773D01*
X140893613Y-90539921D01*
X140872543Y-90529956D01*
X140852552Y-90517974D01*
X140833832Y-90504090D01*
X140816562Y-90488438D01*
X140800910Y-90471168D01*
X140787026Y-90452448D01*
X140775044Y-90432457D01*
X140765079Y-90411387D01*
X140757227Y-90389443D01*
X140751563Y-90366834D01*
X140748144Y-90343779D01*
X140747000Y-90320500D01*
X140747000Y-89745500D01*
X140748144Y-89722221D01*
X140751563Y-89699166D01*
X140757227Y-89676557D01*
X140765079Y-89654613D01*
X140775044Y-89633543D01*
X140787026Y-89613552D01*
X140800910Y-89594832D01*
X140816562Y-89577562D01*
X140833832Y-89561910D01*
X140852552Y-89548026D01*
X140872543Y-89536044D01*
X140893613Y-89526079D01*
X140915557Y-89518227D01*
X140938166Y-89512563D01*
X140961221Y-89509144D01*
X140984500Y-89508000D01*
X141459500Y-89508000D01*
X141482779Y-89509144D01*
X141482779Y-89509144D01*
G37*
D15*
G04 #@! TD*
G04 #@! TO.P,R3,2*
G04 #@! TO.N,GND*
X141222000Y-90033000D03*
D14*
G04 #@! TO.N,GND*
G04 #@! TO.C,R5*
G36*
X154982779Y-86984144D02*
X155005834Y-86987563D01*
X155028443Y-86993227D01*
X155050387Y-87001079D01*
X155071457Y-87011044D01*
X155091448Y-87023026D01*
X155110168Y-87036910D01*
X155127438Y-87052562D01*
X155143090Y-87069832D01*
X155156974Y-87088552D01*
X155168956Y-87108543D01*
X155178921Y-87129613D01*
X155186773Y-87151557D01*
X155192437Y-87174166D01*
X155195856Y-87197221D01*
X155197000Y-87220500D01*
X155197000Y-87795500D01*
X155195856Y-87818779D01*
X155192437Y-87841834D01*
X155186773Y-87864443D01*
X155178921Y-87886387D01*
X155168956Y-87907457D01*
X155156974Y-87927448D01*
X155143090Y-87946168D01*
X155127438Y-87963438D01*
X155110168Y-87979090D01*
X155091448Y-87992974D01*
X155071457Y-88004956D01*
X155050387Y-88014921D01*
X155028443Y-88022773D01*
X155005834Y-88028437D01*
X154982779Y-88031856D01*
X154959500Y-88033000D01*
X154484500Y-88033000D01*
X154461221Y-88031856D01*
X154438166Y-88028437D01*
X154415557Y-88022773D01*
X154393613Y-88014921D01*
X154372543Y-88004956D01*
X154352552Y-87992974D01*
X154333832Y-87979090D01*
X154316562Y-87963438D01*
X154300910Y-87946168D01*
X154287026Y-87927448D01*
X154275044Y-87907457D01*
X154265079Y-87886387D01*
X154257227Y-87864443D01*
X154251563Y-87841834D01*
X154248144Y-87818779D01*
X154247000Y-87795500D01*
X154247000Y-87220500D01*
X154248144Y-87197221D01*
X154251563Y-87174166D01*
X154257227Y-87151557D01*
X154265079Y-87129613D01*
X154275044Y-87108543D01*
X154287026Y-87088552D01*
X154300910Y-87069832D01*
X154316562Y-87052562D01*
X154333832Y-87036910D01*
X154352552Y-87023026D01*
X154372543Y-87011044D01*
X154393613Y-87001079D01*
X154415557Y-86993227D01*
X154438166Y-86987563D01*
X154461221Y-86984144D01*
X154484500Y-86983000D01*
X154959500Y-86983000D01*
X154982779Y-86984144D01*
X154982779Y-86984144D01*
G37*
D15*
G04 #@! TD*
G04 #@! TO.P,R5,1*
G04 #@! TO.N,GND*
X154722000Y-87508000D03*
D14*
G04 #@! TO.N,Net-(R5-Pad2)*
G04 #@! TO.C,R5*
G36*
X154982779Y-88734144D02*
X155005834Y-88737563D01*
X155028443Y-88743227D01*
X155050387Y-88751079D01*
X155071457Y-88761044D01*
X155091448Y-88773026D01*
X155110168Y-88786910D01*
X155127438Y-88802562D01*
X155143090Y-88819832D01*
X155156974Y-88838552D01*
X155168956Y-88858543D01*
X155178921Y-88879613D01*
X155186773Y-88901557D01*
X155192437Y-88924166D01*
X155195856Y-88947221D01*
X155197000Y-88970500D01*
X155197000Y-89545500D01*
X155195856Y-89568779D01*
X155192437Y-89591834D01*
X155186773Y-89614443D01*
X155178921Y-89636387D01*
X155168956Y-89657457D01*
X155156974Y-89677448D01*
X155143090Y-89696168D01*
X155127438Y-89713438D01*
X155110168Y-89729090D01*
X155091448Y-89742974D01*
X155071457Y-89754956D01*
X155050387Y-89764921D01*
X155028443Y-89772773D01*
X155005834Y-89778437D01*
X154982779Y-89781856D01*
X154959500Y-89783000D01*
X154484500Y-89783000D01*
X154461221Y-89781856D01*
X154438166Y-89778437D01*
X154415557Y-89772773D01*
X154393613Y-89764921D01*
X154372543Y-89754956D01*
X154352552Y-89742974D01*
X154333832Y-89729090D01*
X154316562Y-89713438D01*
X154300910Y-89696168D01*
X154287026Y-89677448D01*
X154275044Y-89657457D01*
X154265079Y-89636387D01*
X154257227Y-89614443D01*
X154251563Y-89591834D01*
X154248144Y-89568779D01*
X154247000Y-89545500D01*
X154247000Y-88970500D01*
X154248144Y-88947221D01*
X154251563Y-88924166D01*
X154257227Y-88901557D01*
X154265079Y-88879613D01*
X154275044Y-88858543D01*
X154287026Y-88838552D01*
X154300910Y-88819832D01*
X154316562Y-88802562D01*
X154333832Y-88786910D01*
X154352552Y-88773026D01*
X154372543Y-88761044D01*
X154393613Y-88751079D01*
X154415557Y-88743227D01*
X154438166Y-88737563D01*
X154461221Y-88734144D01*
X154484500Y-88733000D01*
X154959500Y-88733000D01*
X154982779Y-88734144D01*
X154982779Y-88734144D01*
G37*
D15*
G04 #@! TD*
G04 #@! TO.P,R5,2*
G04 #@! TO.N,Net-(R5-Pad2)*
X154722000Y-89258000D03*
D14*
G04 #@! TO.N,Net-(R6-Pad2)*
G04 #@! TO.C,R6*
G36*
X151932779Y-94084144D02*
X151955834Y-94087563D01*
X151978443Y-94093227D01*
X152000387Y-94101079D01*
X152021457Y-94111044D01*
X152041448Y-94123026D01*
X152060168Y-94136910D01*
X152077438Y-94152562D01*
X152093090Y-94169832D01*
X152106974Y-94188552D01*
X152118956Y-94208543D01*
X152128921Y-94229613D01*
X152136773Y-94251557D01*
X152142437Y-94274166D01*
X152145856Y-94297221D01*
X152147000Y-94320500D01*
X152147000Y-94795500D01*
X152145856Y-94818779D01*
X152142437Y-94841834D01*
X152136773Y-94864443D01*
X152128921Y-94886387D01*
X152118956Y-94907457D01*
X152106974Y-94927448D01*
X152093090Y-94946168D01*
X152077438Y-94963438D01*
X152060168Y-94979090D01*
X152041448Y-94992974D01*
X152021457Y-95004956D01*
X152000387Y-95014921D01*
X151978443Y-95022773D01*
X151955834Y-95028437D01*
X151932779Y-95031856D01*
X151909500Y-95033000D01*
X151334500Y-95033000D01*
X151311221Y-95031856D01*
X151288166Y-95028437D01*
X151265557Y-95022773D01*
X151243613Y-95014921D01*
X151222543Y-95004956D01*
X151202552Y-94992974D01*
X151183832Y-94979090D01*
X151166562Y-94963438D01*
X151150910Y-94946168D01*
X151137026Y-94927448D01*
X151125044Y-94907457D01*
X151115079Y-94886387D01*
X151107227Y-94864443D01*
X151101563Y-94841834D01*
X151098144Y-94818779D01*
X151097000Y-94795500D01*
X151097000Y-94320500D01*
X151098144Y-94297221D01*
X151101563Y-94274166D01*
X151107227Y-94251557D01*
X151115079Y-94229613D01*
X151125044Y-94208543D01*
X151137026Y-94188552D01*
X151150910Y-94169832D01*
X151166562Y-94152562D01*
X151183832Y-94136910D01*
X151202552Y-94123026D01*
X151222543Y-94111044D01*
X151243613Y-94101079D01*
X151265557Y-94093227D01*
X151288166Y-94087563D01*
X151311221Y-94084144D01*
X151334500Y-94083000D01*
X151909500Y-94083000D01*
X151932779Y-94084144D01*
X151932779Y-94084144D01*
G37*
D15*
G04 #@! TD*
G04 #@! TO.P,R6,2*
G04 #@! TO.N,Net-(R6-Pad2)*
X151622000Y-94558000D03*
D14*
G04 #@! TO.N,GND*
G04 #@! TO.C,R6*
G36*
X150182779Y-94084144D02*
X150205834Y-94087563D01*
X150228443Y-94093227D01*
X150250387Y-94101079D01*
X150271457Y-94111044D01*
X150291448Y-94123026D01*
X150310168Y-94136910D01*
X150327438Y-94152562D01*
X150343090Y-94169832D01*
X150356974Y-94188552D01*
X150368956Y-94208543D01*
X150378921Y-94229613D01*
X150386773Y-94251557D01*
X150392437Y-94274166D01*
X150395856Y-94297221D01*
X150397000Y-94320500D01*
X150397000Y-94795500D01*
X150395856Y-94818779D01*
X150392437Y-94841834D01*
X150386773Y-94864443D01*
X150378921Y-94886387D01*
X150368956Y-94907457D01*
X150356974Y-94927448D01*
X150343090Y-94946168D01*
X150327438Y-94963438D01*
X150310168Y-94979090D01*
X150291448Y-94992974D01*
X150271457Y-95004956D01*
X150250387Y-95014921D01*
X150228443Y-95022773D01*
X150205834Y-95028437D01*
X150182779Y-95031856D01*
X150159500Y-95033000D01*
X149584500Y-95033000D01*
X149561221Y-95031856D01*
X149538166Y-95028437D01*
X149515557Y-95022773D01*
X149493613Y-95014921D01*
X149472543Y-95004956D01*
X149452552Y-94992974D01*
X149433832Y-94979090D01*
X149416562Y-94963438D01*
X149400910Y-94946168D01*
X149387026Y-94927448D01*
X149375044Y-94907457D01*
X149365079Y-94886387D01*
X149357227Y-94864443D01*
X149351563Y-94841834D01*
X149348144Y-94818779D01*
X149347000Y-94795500D01*
X149347000Y-94320500D01*
X149348144Y-94297221D01*
X149351563Y-94274166D01*
X149357227Y-94251557D01*
X149365079Y-94229613D01*
X149375044Y-94208543D01*
X149387026Y-94188552D01*
X149400910Y-94169832D01*
X149416562Y-94152562D01*
X149433832Y-94136910D01*
X149452552Y-94123026D01*
X149472543Y-94111044D01*
X149493613Y-94101079D01*
X149515557Y-94093227D01*
X149538166Y-94087563D01*
X149561221Y-94084144D01*
X149584500Y-94083000D01*
X150159500Y-94083000D01*
X150182779Y-94084144D01*
X150182779Y-94084144D01*
G37*
D15*
G04 #@! TD*
G04 #@! TO.P,R6,1*
G04 #@! TO.N,GND*
X149872000Y-94558000D03*
D14*
G04 #@! TO.N,GND*
G04 #@! TO.C,R7*
G36*
X156282779Y-95484144D02*
X156305834Y-95487563D01*
X156328443Y-95493227D01*
X156350387Y-95501079D01*
X156371457Y-95511044D01*
X156391448Y-95523026D01*
X156410168Y-95536910D01*
X156427438Y-95552562D01*
X156443090Y-95569832D01*
X156456974Y-95588552D01*
X156468956Y-95608543D01*
X156478921Y-95629613D01*
X156486773Y-95651557D01*
X156492437Y-95674166D01*
X156495856Y-95697221D01*
X156497000Y-95720500D01*
X156497000Y-96195500D01*
X156495856Y-96218779D01*
X156492437Y-96241834D01*
X156486773Y-96264443D01*
X156478921Y-96286387D01*
X156468956Y-96307457D01*
X156456974Y-96327448D01*
X156443090Y-96346168D01*
X156427438Y-96363438D01*
X156410168Y-96379090D01*
X156391448Y-96392974D01*
X156371457Y-96404956D01*
X156350387Y-96414921D01*
X156328443Y-96422773D01*
X156305834Y-96428437D01*
X156282779Y-96431856D01*
X156259500Y-96433000D01*
X155684500Y-96433000D01*
X155661221Y-96431856D01*
X155638166Y-96428437D01*
X155615557Y-96422773D01*
X155593613Y-96414921D01*
X155572543Y-96404956D01*
X155552552Y-96392974D01*
X155533832Y-96379090D01*
X155516562Y-96363438D01*
X155500910Y-96346168D01*
X155487026Y-96327448D01*
X155475044Y-96307457D01*
X155465079Y-96286387D01*
X155457227Y-96264443D01*
X155451563Y-96241834D01*
X155448144Y-96218779D01*
X155447000Y-96195500D01*
X155447000Y-95720500D01*
X155448144Y-95697221D01*
X155451563Y-95674166D01*
X155457227Y-95651557D01*
X155465079Y-95629613D01*
X155475044Y-95608543D01*
X155487026Y-95588552D01*
X155500910Y-95569832D01*
X155516562Y-95552562D01*
X155533832Y-95536910D01*
X155552552Y-95523026D01*
X155572543Y-95511044D01*
X155593613Y-95501079D01*
X155615557Y-95493227D01*
X155638166Y-95487563D01*
X155661221Y-95484144D01*
X155684500Y-95483000D01*
X156259500Y-95483000D01*
X156282779Y-95484144D01*
X156282779Y-95484144D01*
G37*
D15*
G04 #@! TD*
G04 #@! TO.P,R7,2*
G04 #@! TO.N,GND*
X155972000Y-95958000D03*
D14*
G04 #@! TO.N,Net-(R7-Pad1)*
G04 #@! TO.C,R7*
G36*
X154532779Y-95484144D02*
X154555834Y-95487563D01*
X154578443Y-95493227D01*
X154600387Y-95501079D01*
X154621457Y-95511044D01*
X154641448Y-95523026D01*
X154660168Y-95536910D01*
X154677438Y-95552562D01*
X154693090Y-95569832D01*
X154706974Y-95588552D01*
X154718956Y-95608543D01*
X154728921Y-95629613D01*
X154736773Y-95651557D01*
X154742437Y-95674166D01*
X154745856Y-95697221D01*
X154747000Y-95720500D01*
X154747000Y-96195500D01*
X154745856Y-96218779D01*
X154742437Y-96241834D01*
X154736773Y-96264443D01*
X154728921Y-96286387D01*
X154718956Y-96307457D01*
X154706974Y-96327448D01*
X154693090Y-96346168D01*
X154677438Y-96363438D01*
X154660168Y-96379090D01*
X154641448Y-96392974D01*
X154621457Y-96404956D01*
X154600387Y-96414921D01*
X154578443Y-96422773D01*
X154555834Y-96428437D01*
X154532779Y-96431856D01*
X154509500Y-96433000D01*
X153934500Y-96433000D01*
X153911221Y-96431856D01*
X153888166Y-96428437D01*
X153865557Y-96422773D01*
X153843613Y-96414921D01*
X153822543Y-96404956D01*
X153802552Y-96392974D01*
X153783832Y-96379090D01*
X153766562Y-96363438D01*
X153750910Y-96346168D01*
X153737026Y-96327448D01*
X153725044Y-96307457D01*
X153715079Y-96286387D01*
X153707227Y-96264443D01*
X153701563Y-96241834D01*
X153698144Y-96218779D01*
X153697000Y-96195500D01*
X153697000Y-95720500D01*
X153698144Y-95697221D01*
X153701563Y-95674166D01*
X153707227Y-95651557D01*
X153715079Y-95629613D01*
X153725044Y-95608543D01*
X153737026Y-95588552D01*
X153750910Y-95569832D01*
X153766562Y-95552562D01*
X153783832Y-95536910D01*
X153802552Y-95523026D01*
X153822543Y-95511044D01*
X153843613Y-95501079D01*
X153865557Y-95493227D01*
X153888166Y-95487563D01*
X153911221Y-95484144D01*
X153934500Y-95483000D01*
X154509500Y-95483000D01*
X154532779Y-95484144D01*
X154532779Y-95484144D01*
G37*
D15*
G04 #@! TD*
G04 #@! TO.P,R7,1*
G04 #@! TO.N,Net-(R7-Pad1)*
X154222000Y-95958000D03*
D14*
G04 #@! TO.N,Net-(D2-Pad2)*
G04 #@! TO.C,R8*
G36*
X159682779Y-91634144D02*
X159705834Y-91637563D01*
X159728443Y-91643227D01*
X159750387Y-91651079D01*
X159771457Y-91661044D01*
X159791448Y-91673026D01*
X159810168Y-91686910D01*
X159827438Y-91702562D01*
X159843090Y-91719832D01*
X159856974Y-91738552D01*
X159868956Y-91758543D01*
X159878921Y-91779613D01*
X159886773Y-91801557D01*
X159892437Y-91824166D01*
X159895856Y-91847221D01*
X159897000Y-91870500D01*
X159897000Y-92445500D01*
X159895856Y-92468779D01*
X159892437Y-92491834D01*
X159886773Y-92514443D01*
X159878921Y-92536387D01*
X159868956Y-92557457D01*
X159856974Y-92577448D01*
X159843090Y-92596168D01*
X159827438Y-92613438D01*
X159810168Y-92629090D01*
X159791448Y-92642974D01*
X159771457Y-92654956D01*
X159750387Y-92664921D01*
X159728443Y-92672773D01*
X159705834Y-92678437D01*
X159682779Y-92681856D01*
X159659500Y-92683000D01*
X159184500Y-92683000D01*
X159161221Y-92681856D01*
X159138166Y-92678437D01*
X159115557Y-92672773D01*
X159093613Y-92664921D01*
X159072543Y-92654956D01*
X159052552Y-92642974D01*
X159033832Y-92629090D01*
X159016562Y-92613438D01*
X159000910Y-92596168D01*
X158987026Y-92577448D01*
X158975044Y-92557457D01*
X158965079Y-92536387D01*
X158957227Y-92514443D01*
X158951563Y-92491834D01*
X158948144Y-92468779D01*
X158947000Y-92445500D01*
X158947000Y-91870500D01*
X158948144Y-91847221D01*
X158951563Y-91824166D01*
X158957227Y-91801557D01*
X158965079Y-91779613D01*
X158975044Y-91758543D01*
X158987026Y-91738552D01*
X159000910Y-91719832D01*
X159016562Y-91702562D01*
X159033832Y-91686910D01*
X159052552Y-91673026D01*
X159072543Y-91661044D01*
X159093613Y-91651079D01*
X159115557Y-91643227D01*
X159138166Y-91637563D01*
X159161221Y-91634144D01*
X159184500Y-91633000D01*
X159659500Y-91633000D01*
X159682779Y-91634144D01*
X159682779Y-91634144D01*
G37*
D15*
G04 #@! TD*
G04 #@! TO.P,R8,1*
G04 #@! TO.N,Net-(D2-Pad2)*
X159422000Y-92158000D03*
D14*
G04 #@! TO.N,VOUT_BQ*
G04 #@! TO.C,R8*
G36*
X159682779Y-93384144D02*
X159705834Y-93387563D01*
X159728443Y-93393227D01*
X159750387Y-93401079D01*
X159771457Y-93411044D01*
X159791448Y-93423026D01*
X159810168Y-93436910D01*
X159827438Y-93452562D01*
X159843090Y-93469832D01*
X159856974Y-93488552D01*
X159868956Y-93508543D01*
X159878921Y-93529613D01*
X159886773Y-93551557D01*
X159892437Y-93574166D01*
X159895856Y-93597221D01*
X159897000Y-93620500D01*
X159897000Y-94195500D01*
X159895856Y-94218779D01*
X159892437Y-94241834D01*
X159886773Y-94264443D01*
X159878921Y-94286387D01*
X159868956Y-94307457D01*
X159856974Y-94327448D01*
X159843090Y-94346168D01*
X159827438Y-94363438D01*
X159810168Y-94379090D01*
X159791448Y-94392974D01*
X159771457Y-94404956D01*
X159750387Y-94414921D01*
X159728443Y-94422773D01*
X159705834Y-94428437D01*
X159682779Y-94431856D01*
X159659500Y-94433000D01*
X159184500Y-94433000D01*
X159161221Y-94431856D01*
X159138166Y-94428437D01*
X159115557Y-94422773D01*
X159093613Y-94414921D01*
X159072543Y-94404956D01*
X159052552Y-94392974D01*
X159033832Y-94379090D01*
X159016562Y-94363438D01*
X159000910Y-94346168D01*
X158987026Y-94327448D01*
X158975044Y-94307457D01*
X158965079Y-94286387D01*
X158957227Y-94264443D01*
X158951563Y-94241834D01*
X158948144Y-94218779D01*
X158947000Y-94195500D01*
X158947000Y-93620500D01*
X158948144Y-93597221D01*
X158951563Y-93574166D01*
X158957227Y-93551557D01*
X158965079Y-93529613D01*
X158975044Y-93508543D01*
X158987026Y-93488552D01*
X159000910Y-93469832D01*
X159016562Y-93452562D01*
X159033832Y-93436910D01*
X159052552Y-93423026D01*
X159072543Y-93411044D01*
X159093613Y-93401079D01*
X159115557Y-93393227D01*
X159138166Y-93387563D01*
X159161221Y-93384144D01*
X159184500Y-93383000D01*
X159659500Y-93383000D01*
X159682779Y-93384144D01*
X159682779Y-93384144D01*
G37*
D15*
G04 #@! TD*
G04 #@! TO.P,R8,2*
G04 #@! TO.N,VOUT_BQ*
X159422000Y-93908000D03*
D14*
G04 #@! TO.N,VOUT_BQ*
G04 #@! TO.C,R9*
G36*
X158132779Y-88484144D02*
X158155834Y-88487563D01*
X158178443Y-88493227D01*
X158200387Y-88501079D01*
X158221457Y-88511044D01*
X158241448Y-88523026D01*
X158260168Y-88536910D01*
X158277438Y-88552562D01*
X158293090Y-88569832D01*
X158306974Y-88588552D01*
X158318956Y-88608543D01*
X158328921Y-88629613D01*
X158336773Y-88651557D01*
X158342437Y-88674166D01*
X158345856Y-88697221D01*
X158347000Y-88720500D01*
X158347000Y-89195500D01*
X158345856Y-89218779D01*
X158342437Y-89241834D01*
X158336773Y-89264443D01*
X158328921Y-89286387D01*
X158318956Y-89307457D01*
X158306974Y-89327448D01*
X158293090Y-89346168D01*
X158277438Y-89363438D01*
X158260168Y-89379090D01*
X158241448Y-89392974D01*
X158221457Y-89404956D01*
X158200387Y-89414921D01*
X158178443Y-89422773D01*
X158155834Y-89428437D01*
X158132779Y-89431856D01*
X158109500Y-89433000D01*
X157534500Y-89433000D01*
X157511221Y-89431856D01*
X157488166Y-89428437D01*
X157465557Y-89422773D01*
X157443613Y-89414921D01*
X157422543Y-89404956D01*
X157402552Y-89392974D01*
X157383832Y-89379090D01*
X157366562Y-89363438D01*
X157350910Y-89346168D01*
X157337026Y-89327448D01*
X157325044Y-89307457D01*
X157315079Y-89286387D01*
X157307227Y-89264443D01*
X157301563Y-89241834D01*
X157298144Y-89218779D01*
X157297000Y-89195500D01*
X157297000Y-88720500D01*
X157298144Y-88697221D01*
X157301563Y-88674166D01*
X157307227Y-88651557D01*
X157315079Y-88629613D01*
X157325044Y-88608543D01*
X157337026Y-88588552D01*
X157350910Y-88569832D01*
X157366562Y-88552562D01*
X157383832Y-88536910D01*
X157402552Y-88523026D01*
X157422543Y-88511044D01*
X157443613Y-88501079D01*
X157465557Y-88493227D01*
X157488166Y-88487563D01*
X157511221Y-88484144D01*
X157534500Y-88483000D01*
X158109500Y-88483000D01*
X158132779Y-88484144D01*
X158132779Y-88484144D01*
G37*
D15*
G04 #@! TD*
G04 #@! TO.P,R9,2*
G04 #@! TO.N,VOUT_BQ*
X157822000Y-88958000D03*
D14*
G04 #@! TO.N,Net-(D3-Pad2)*
G04 #@! TO.C,R9*
G36*
X159882779Y-88484144D02*
X159905834Y-88487563D01*
X159928443Y-88493227D01*
X159950387Y-88501079D01*
X159971457Y-88511044D01*
X159991448Y-88523026D01*
X160010168Y-88536910D01*
X160027438Y-88552562D01*
X160043090Y-88569832D01*
X160056974Y-88588552D01*
X160068956Y-88608543D01*
X160078921Y-88629613D01*
X160086773Y-88651557D01*
X160092437Y-88674166D01*
X160095856Y-88697221D01*
X160097000Y-88720500D01*
X160097000Y-89195500D01*
X160095856Y-89218779D01*
X160092437Y-89241834D01*
X160086773Y-89264443D01*
X160078921Y-89286387D01*
X160068956Y-89307457D01*
X160056974Y-89327448D01*
X160043090Y-89346168D01*
X160027438Y-89363438D01*
X160010168Y-89379090D01*
X159991448Y-89392974D01*
X159971457Y-89404956D01*
X159950387Y-89414921D01*
X159928443Y-89422773D01*
X159905834Y-89428437D01*
X159882779Y-89431856D01*
X159859500Y-89433000D01*
X159284500Y-89433000D01*
X159261221Y-89431856D01*
X159238166Y-89428437D01*
X159215557Y-89422773D01*
X159193613Y-89414921D01*
X159172543Y-89404956D01*
X159152552Y-89392974D01*
X159133832Y-89379090D01*
X159116562Y-89363438D01*
X159100910Y-89346168D01*
X159087026Y-89327448D01*
X159075044Y-89307457D01*
X159065079Y-89286387D01*
X159057227Y-89264443D01*
X159051563Y-89241834D01*
X159048144Y-89218779D01*
X159047000Y-89195500D01*
X159047000Y-88720500D01*
X159048144Y-88697221D01*
X159051563Y-88674166D01*
X159057227Y-88651557D01*
X159065079Y-88629613D01*
X159075044Y-88608543D01*
X159087026Y-88588552D01*
X159100910Y-88569832D01*
X159116562Y-88552562D01*
X159133832Y-88536910D01*
X159152552Y-88523026D01*
X159172543Y-88511044D01*
X159193613Y-88501079D01*
X159215557Y-88493227D01*
X159238166Y-88487563D01*
X159261221Y-88484144D01*
X159284500Y-88483000D01*
X159859500Y-88483000D01*
X159882779Y-88484144D01*
X159882779Y-88484144D01*
G37*
D15*
G04 #@! TD*
G04 #@! TO.P,R9,1*
G04 #@! TO.N,Net-(D3-Pad2)*
X159572000Y-88958000D03*
D14*
G04 #@! TO.N,GND*
G04 #@! TO.C,R10*
G36*
X150182779Y-92384144D02*
X150205834Y-92387563D01*
X150228443Y-92393227D01*
X150250387Y-92401079D01*
X150271457Y-92411044D01*
X150291448Y-92423026D01*
X150310168Y-92436910D01*
X150327438Y-92452562D01*
X150343090Y-92469832D01*
X150356974Y-92488552D01*
X150368956Y-92508543D01*
X150378921Y-92529613D01*
X150386773Y-92551557D01*
X150392437Y-92574166D01*
X150395856Y-92597221D01*
X150397000Y-92620500D01*
X150397000Y-93095500D01*
X150395856Y-93118779D01*
X150392437Y-93141834D01*
X150386773Y-93164443D01*
X150378921Y-93186387D01*
X150368956Y-93207457D01*
X150356974Y-93227448D01*
X150343090Y-93246168D01*
X150327438Y-93263438D01*
X150310168Y-93279090D01*
X150291448Y-93292974D01*
X150271457Y-93304956D01*
X150250387Y-93314921D01*
X150228443Y-93322773D01*
X150205834Y-93328437D01*
X150182779Y-93331856D01*
X150159500Y-93333000D01*
X149584500Y-93333000D01*
X149561221Y-93331856D01*
X149538166Y-93328437D01*
X149515557Y-93322773D01*
X149493613Y-93314921D01*
X149472543Y-93304956D01*
X149452552Y-93292974D01*
X149433832Y-93279090D01*
X149416562Y-93263438D01*
X149400910Y-93246168D01*
X149387026Y-93227448D01*
X149375044Y-93207457D01*
X149365079Y-93186387D01*
X149357227Y-93164443D01*
X149351563Y-93141834D01*
X149348144Y-93118779D01*
X149347000Y-93095500D01*
X149347000Y-92620500D01*
X149348144Y-92597221D01*
X149351563Y-92574166D01*
X149357227Y-92551557D01*
X149365079Y-92529613D01*
X149375044Y-92508543D01*
X149387026Y-92488552D01*
X149400910Y-92469832D01*
X149416562Y-92452562D01*
X149433832Y-92436910D01*
X149452552Y-92423026D01*
X149472543Y-92411044D01*
X149493613Y-92401079D01*
X149515557Y-92393227D01*
X149538166Y-92387563D01*
X149561221Y-92384144D01*
X149584500Y-92383000D01*
X150159500Y-92383000D01*
X150182779Y-92384144D01*
X150182779Y-92384144D01*
G37*
D15*
G04 #@! TD*
G04 #@! TO.P,R10,2*
G04 #@! TO.N,GND*
X149872000Y-92858000D03*
D14*
G04 #@! TO.N,Net-(R10-Pad1)*
G04 #@! TO.C,R10*
G36*
X151932779Y-92384144D02*
X151955834Y-92387563D01*
X151978443Y-92393227D01*
X152000387Y-92401079D01*
X152021457Y-92411044D01*
X152041448Y-92423026D01*
X152060168Y-92436910D01*
X152077438Y-92452562D01*
X152093090Y-92469832D01*
X152106974Y-92488552D01*
X152118956Y-92508543D01*
X152128921Y-92529613D01*
X152136773Y-92551557D01*
X152142437Y-92574166D01*
X152145856Y-92597221D01*
X152147000Y-92620500D01*
X152147000Y-93095500D01*
X152145856Y-93118779D01*
X152142437Y-93141834D01*
X152136773Y-93164443D01*
X152128921Y-93186387D01*
X152118956Y-93207457D01*
X152106974Y-93227448D01*
X152093090Y-93246168D01*
X152077438Y-93263438D01*
X152060168Y-93279090D01*
X152041448Y-93292974D01*
X152021457Y-93304956D01*
X152000387Y-93314921D01*
X151978443Y-93322773D01*
X151955834Y-93328437D01*
X151932779Y-93331856D01*
X151909500Y-93333000D01*
X151334500Y-93333000D01*
X151311221Y-93331856D01*
X151288166Y-93328437D01*
X151265557Y-93322773D01*
X151243613Y-93314921D01*
X151222543Y-93304956D01*
X151202552Y-93292974D01*
X151183832Y-93279090D01*
X151166562Y-93263438D01*
X151150910Y-93246168D01*
X151137026Y-93227448D01*
X151125044Y-93207457D01*
X151115079Y-93186387D01*
X151107227Y-93164443D01*
X151101563Y-93141834D01*
X151098144Y-93118779D01*
X151097000Y-93095500D01*
X151097000Y-92620500D01*
X151098144Y-92597221D01*
X151101563Y-92574166D01*
X151107227Y-92551557D01*
X151115079Y-92529613D01*
X151125044Y-92508543D01*
X151137026Y-92488552D01*
X151150910Y-92469832D01*
X151166562Y-92452562D01*
X151183832Y-92436910D01*
X151202552Y-92423026D01*
X151222543Y-92411044D01*
X151243613Y-92401079D01*
X151265557Y-92393227D01*
X151288166Y-92387563D01*
X151311221Y-92384144D01*
X151334500Y-92383000D01*
X151909500Y-92383000D01*
X151932779Y-92384144D01*
X151932779Y-92384144D01*
G37*
D15*
G04 #@! TD*
G04 #@! TO.P,R10,1*
G04 #@! TO.N,Net-(R10-Pad1)*
X151622000Y-92858000D03*
D29*
G04 #@! TO.N,GND*
X155922000Y-88058000D03*
X156822000Y-86658000D03*
X140922000Y-95558000D03*
X146222000Y-92558000D03*
X158222000Y-92158000D03*
X158422000Y-69058000D03*
G04 #@! TO.N,Vdd*
X158477114Y-70202886D03*
X158072724Y-67053700D03*
X152922000Y-76958000D03*
G04 #@! TO.N,Net-(C5-Pad1)*
X151022000Y-84358000D03*
X155222000Y-73358000D03*
X153922000Y-71558000D03*
G04 #@! TO.N,JTCK-SWCTK*
X143622000Y-81258000D03*
X151622000Y-77258000D03*
G04 #@! TO.N,JTMS-SWTDIO*
X153838363Y-76856182D03*
G04 #@! TO.N,SPI_OUT*
X158822000Y-74858000D03*
X158285999Y-72958000D03*
G04 #@! TO.N,SPI_IN*
X161622000Y-74358000D03*
X158222000Y-71758000D03*
G04 #@! TO.N,DIO12-INT*
X162446300Y-70158000D03*
X158322000Y-67958000D03*
G04 #@! TO.N,VOUT_BQ*
X158022000Y-94558000D03*
X158322000Y-90487000D03*
G04 #@! TO.N,Net-(C8-Pad1)*
X153622000Y-85958000D03*
X154722000Y-84858000D03*
G04 #@! TO.N,Net-(J3-Pad1)*
X146322000Y-95858000D03*
G04 #@! TO.N,Net-(R7-Pad1)*
X153022000Y-96158000D03*
X153014939Y-94353530D03*
G04 #@! TD*
D30*
G04 #@! TO.N,GND*
X159997000Y-71208000D02*
X159997000Y-71333000D01*
X159737000Y-70948000D02*
X159997000Y-71208000D01*
X159612000Y-70948000D02*
X159737000Y-70948000D01*
X159572000Y-70908000D02*
X159612000Y-70948000D01*
X159572000Y-69358000D02*
X159572000Y-70908000D01*
X159997000Y-71333000D02*
X160497000Y-71333000D01*
X161237000Y-71958000D02*
X161622000Y-71958000D01*
X160737000Y-71958000D02*
X161237000Y-71958000D01*
X160497000Y-71718000D02*
X160737000Y-71958000D01*
X160497000Y-71333000D02*
X160497000Y-71718000D01*
X161622000Y-71958000D02*
X161622000Y-72458000D01*
X156352000Y-93108000D02*
X156012000Y-93448000D01*
X156884500Y-93108000D02*
X156352000Y-93108000D01*
X156172000Y-93608000D02*
X156012000Y-93448000D01*
X156172000Y-94320500D02*
X156172000Y-93608000D01*
X156172000Y-92108000D02*
X155422000Y-92858000D01*
X156884500Y-92108000D02*
X156172000Y-92108000D01*
D31*
X139422000Y-75133000D02*
X138822000Y-75733000D01*
X139422000Y-74558000D02*
X139422000Y-75133000D01*
X147510000Y-76646000D02*
X148222000Y-77358000D01*
X147510000Y-75184000D02*
X147510000Y-76646000D01*
X152672928Y-79757072D02*
X153172000Y-79258000D01*
X151288388Y-80020010D02*
X152409990Y-80020010D01*
X150504999Y-80803399D02*
X151288388Y-80020010D01*
X152409990Y-80020010D02*
X152672928Y-79757072D01*
X150504999Y-82274999D02*
X150504999Y-80803399D01*
X150538000Y-82308000D02*
X150504999Y-82274999D01*
X151322000Y-82308000D02*
X150538000Y-82308000D01*
X155985294Y-76695990D02*
X157722000Y-78432696D01*
X154559990Y-77003238D02*
X154867238Y-76695990D01*
X157722000Y-78432696D02*
X157722000Y-79458000D01*
X155805228Y-79258000D02*
X154559990Y-78012762D01*
X154867238Y-76695990D02*
X155985294Y-76695990D01*
X154559990Y-78012762D02*
X154559990Y-77003238D01*
X155322000Y-79258000D02*
X155805228Y-79258000D01*
X154722000Y-87508000D02*
X155372000Y-87508000D01*
X155372000Y-87508000D02*
X155922000Y-88058000D01*
X157722000Y-85758000D02*
X157722000Y-84458000D01*
X156822000Y-86658000D02*
X157722000Y-85758000D01*
D30*
X156172000Y-95758000D02*
X155972000Y-95958000D01*
X156172000Y-94320500D02*
X156172000Y-95758000D01*
X154832000Y-92268000D02*
X155422000Y-92858000D01*
X155422000Y-92858000D02*
X156012000Y-92268000D01*
X157722000Y-79458000D02*
X157722000Y-80658000D01*
D31*
X155172000Y-92608000D02*
X155422000Y-92858000D01*
D30*
G04 #@! TO.N,Vdd*
X143461000Y-74233000D02*
X143510000Y-74184000D01*
D31*
X139722000Y-76008000D02*
X141172000Y-74558000D01*
X139722000Y-78858000D02*
X139722000Y-76008000D01*
X143136000Y-74558000D02*
X143510000Y-74184000D01*
X141172000Y-74558000D02*
X143136000Y-74558000D01*
X141172000Y-72758000D02*
X141172000Y-74558000D01*
X161322000Y-67658000D02*
X161322000Y-69358000D01*
X161322000Y-71008000D02*
X160997000Y-71333000D01*
X161322000Y-69358000D02*
X161322000Y-71008000D01*
D30*
X158477114Y-70303114D02*
X158477114Y-70202886D01*
X159372000Y-71458000D02*
X159372000Y-71198000D01*
X159372000Y-71198000D02*
X158477114Y-70303114D01*
X160822928Y-67158928D02*
X161322000Y-67658000D01*
X160606990Y-66942990D02*
X160822928Y-67158928D01*
X158722249Y-66942990D02*
X160606990Y-66942990D01*
X158611539Y-67053700D02*
X158722249Y-66942990D01*
X158072724Y-67053700D02*
X158611539Y-67053700D01*
D31*
X144022000Y-78858000D02*
X146622000Y-81458000D01*
X139722000Y-78858000D02*
X144022000Y-78858000D01*
X149122000Y-82679000D02*
X149122000Y-83258000D01*
X147901000Y-81458000D02*
X149122000Y-82679000D01*
X146622000Y-81458000D02*
X147901000Y-81458000D01*
D30*
X150922928Y-79757072D02*
X151422000Y-79258000D01*
X149892001Y-80787999D02*
X150922928Y-79757072D01*
X149892001Y-81908999D02*
X149892001Y-80787999D01*
X149122000Y-82679000D02*
X149892001Y-81908999D01*
X151422000Y-79258000D02*
X151422000Y-78458000D01*
X151422000Y-78458000D02*
X152922000Y-76958000D01*
G04 #@! TO.N,Net-(C5-Pad1)*
X140722000Y-86158000D02*
X143522000Y-86158000D01*
X139322000Y-87558000D02*
X140722000Y-86158000D01*
X146122928Y-83707072D02*
X146622000Y-83208000D01*
X143672000Y-86158000D02*
X146122928Y-83707072D01*
X143522000Y-86158000D02*
X143672000Y-86158000D01*
X150622000Y-86158000D02*
X150722000Y-86158000D01*
X149762000Y-85298000D02*
X150622000Y-86158000D01*
X149762000Y-85198000D02*
X149762000Y-85298000D01*
X146622000Y-83208000D02*
X147772000Y-83208000D01*
X148922000Y-84358000D02*
X151022000Y-84358000D01*
X148922000Y-84358000D02*
X149762000Y-85198000D01*
X147772000Y-83208000D02*
X148922000Y-84358000D01*
X155222000Y-73358000D02*
X153922000Y-72058000D01*
X153922000Y-72058000D02*
X153922000Y-71558000D01*
X156250000Y-69104000D02*
X157010000Y-69104000D01*
X154302999Y-71051001D02*
X156250000Y-69104000D01*
X154302999Y-71177001D02*
X154302999Y-71051001D01*
X153922000Y-71558000D02*
X154302999Y-71177001D01*
G04 #@! TO.N,Net-(D1-Pad2)*
X147922000Y-79108000D02*
X148222000Y-79408000D01*
X146022000Y-79108000D02*
X147922000Y-79108000D01*
G04 #@! TO.N,JTCK-SWCTK*
X152590000Y-75944000D02*
X152590000Y-75184000D01*
X139722000Y-84858000D02*
X143322000Y-81258000D01*
X143322000Y-81258000D02*
X143622000Y-81258000D01*
X152590000Y-76290000D02*
X152590000Y-75184000D01*
X151622000Y-77258000D02*
X152590000Y-76290000D01*
G04 #@! TO.N,JTMS-SWTDIO*
X153838363Y-75205637D02*
X153860000Y-75184000D01*
X153838363Y-76856182D02*
X153838363Y-75205637D01*
G04 #@! TO.N,Net-(R1-Pad1)*
X146240000Y-77140000D02*
X146022000Y-77358000D01*
X146240000Y-75184000D02*
X146240000Y-77140000D01*
G04 #@! TO.N,SPI_CLK*
X157622000Y-74796000D02*
X157010000Y-74184000D01*
X160497000Y-73468000D02*
X160497000Y-73083000D01*
X159781000Y-74184000D02*
X160497000Y-73468000D01*
X157010000Y-74184000D02*
X159781000Y-74184000D01*
G04 #@! TO.N,SPI_CS*
X158906999Y-73250001D02*
X159314998Y-73658000D01*
X158906999Y-71510999D02*
X158906999Y-73250001D01*
X157010000Y-70374000D02*
X157770000Y-70374000D01*
X157770000Y-70374000D02*
X158906999Y-71510999D01*
X159997000Y-73208000D02*
X159997000Y-73083000D01*
X159547000Y-73658000D02*
X159997000Y-73208000D01*
X159314998Y-73658000D02*
X159547000Y-73658000D01*
G04 #@! TO.N,SPI_OUT*
X157254000Y-73158000D02*
X157010000Y-72914000D01*
X159607000Y-74858000D02*
X158822000Y-74858000D01*
X160997000Y-73083000D02*
X160997000Y-73468000D01*
X160997000Y-73468000D02*
X159607000Y-74858000D01*
X157054000Y-72958000D02*
X157010000Y-72914000D01*
X158285999Y-72958000D02*
X157054000Y-72958000D01*
G04 #@! TO.N,SPI_IN*
X161622000Y-72958000D02*
X161622000Y-74358000D01*
X157124000Y-71758000D02*
X157010000Y-71644000D01*
X158222000Y-71758000D02*
X157124000Y-71758000D01*
G04 #@! TO.N,DIO12-INT*
X162446300Y-70758700D02*
X162446300Y-70158000D01*
X161622000Y-71458000D02*
X161747000Y-71458000D01*
X161747000Y-71458000D02*
X162446300Y-70758700D01*
X157134000Y-67958000D02*
X157010000Y-67834000D01*
X158322000Y-67958000D02*
X157134000Y-67958000D01*
G04 #@! TO.N,Net-(R3-Pad1)*
X143522000Y-88298000D02*
X143522000Y-89158000D01*
X143507000Y-88283000D02*
X143522000Y-88298000D01*
X141222000Y-88283000D02*
X143507000Y-88283000D01*
X150722000Y-89158000D02*
X143522000Y-89158000D01*
D31*
G04 #@! TO.N,VOUT_BQ*
X155172000Y-91395500D02*
X155672000Y-91395500D01*
X157197000Y-88958000D02*
X157822000Y-88958000D01*
X155476290Y-91199790D02*
X155476290Y-90678710D01*
X155672000Y-91395500D02*
X155476290Y-91199790D01*
X156884500Y-93608000D02*
X157184500Y-93908000D01*
X159422000Y-95708000D02*
X159672000Y-95958000D01*
X159422000Y-93908000D02*
X159422000Y-95708000D01*
X159422000Y-93908000D02*
X158847000Y-93908000D01*
X155476290Y-90678710D02*
X156197000Y-89958000D01*
X156197000Y-89958000D02*
X157197000Y-88958000D01*
X152122000Y-83258000D02*
X151322000Y-83258000D01*
X157822000Y-88958000D02*
X152122000Y-83258000D01*
X153372000Y-81358000D02*
X153572000Y-81158000D01*
D30*
X158222000Y-94358000D02*
X158022000Y-94558000D01*
X158222000Y-93908000D02*
X158222000Y-94358000D01*
D31*
X158222000Y-93908000D02*
X159422000Y-93908000D01*
X157184500Y-93908000D02*
X158222000Y-93908000D01*
D30*
X158322000Y-89458000D02*
X157822000Y-88958000D01*
X158322000Y-90487000D02*
X158322000Y-89458000D01*
X152622000Y-82648000D02*
X152622000Y-81358000D01*
X152012000Y-83258000D02*
X152622000Y-82648000D01*
X151322000Y-83258000D02*
X152012000Y-83258000D01*
D31*
X151322000Y-81358000D02*
X152622000Y-81358000D01*
X152622000Y-81358000D02*
X153372000Y-81358000D01*
D30*
G04 #@! TO.N,Net-(C8-Pad1)*
X153959500Y-92108000D02*
X153959500Y-86295500D01*
X153959500Y-86295500D02*
X153622000Y-85958000D01*
X154722000Y-84858000D02*
X156322000Y-83258000D01*
X156622000Y-78808000D02*
X156622000Y-83258000D01*
X155322000Y-77508000D02*
X156622000Y-78808000D01*
X156322000Y-83258000D02*
X156622000Y-83258000D01*
X156622000Y-83258000D02*
X157722000Y-83258000D01*
G04 #@! TO.N,Net-(D2-Pad2)*
X160622000Y-92158000D02*
X159422000Y-92158000D01*
X161722000Y-93258000D02*
X160622000Y-92158000D01*
G04 #@! TO.N,Net-(D2-Pad1)*
X157397000Y-92608000D02*
X156884500Y-92608000D01*
X157712010Y-92923010D02*
X157397000Y-92608000D01*
X159637314Y-92923010D02*
X157712010Y-92923010D01*
X160137010Y-93422706D02*
X159637314Y-92923010D01*
X160137010Y-93723010D02*
X160137010Y-93422706D01*
X161722000Y-95308000D02*
X160137010Y-93723010D01*
G04 #@! TO.N,Net-(D3-Pad1)*
X156459500Y-91108000D02*
X156172000Y-91395500D01*
X161722000Y-91108000D02*
X156459500Y-91108000D01*
G04 #@! TO.N,Net-(D3-Pad2)*
X161622000Y-88958000D02*
X161722000Y-89058000D01*
X159572000Y-88958000D02*
X161622000Y-88958000D01*
D31*
G04 #@! TO.N,Net-(J3-Pad1)*
X146702999Y-96238999D02*
X151841001Y-96238999D01*
X146322000Y-95858000D02*
X146702999Y-96238999D01*
X155172000Y-94833000D02*
X155172000Y-94320500D01*
X154984990Y-95020010D02*
X155172000Y-94833000D01*
X153059990Y-95020010D02*
X154984990Y-95020010D01*
X151841001Y-96238999D02*
X153059990Y-95020010D01*
D30*
X155172000Y-94320500D02*
X155672000Y-94320500D01*
G04 #@! TO.N,Net-(R5-Pad2)*
X154722000Y-91345500D02*
X154672000Y-91395500D01*
X154722000Y-89258000D02*
X154722000Y-91345500D01*
G04 #@! TO.N,Net-(R6-Pad2)*
X152572000Y-93608000D02*
X153959500Y-93608000D01*
X151622000Y-94558000D02*
X152572000Y-93608000D01*
G04 #@! TO.N,Net-(R7-Pad1)*
X154222000Y-95958000D02*
X153222000Y-95958000D01*
X153222000Y-95958000D02*
X153022000Y-96158000D01*
X154638970Y-94353530D02*
X154672000Y-94320500D01*
X153014939Y-94353530D02*
X154638970Y-94353530D01*
G04 #@! TO.N,Net-(R10-Pad1)*
X153447000Y-93108000D02*
X153959500Y-93108000D01*
X152497000Y-93108000D02*
X153447000Y-93108000D01*
X152247000Y-92858000D02*
X152497000Y-93108000D01*
X151622000Y-92858000D02*
X152247000Y-92858000D01*
G04 #@! TD*
D31*
G04 #@! TO.N,GND*
G36*
X148563919Y-84651871D02*
X148589638Y-84690362D01*
X148628128Y-84716080D01*
X149312310Y-85400263D01*
X149327748Y-85477873D01*
X149429638Y-85630362D01*
X149468128Y-85656080D01*
X149533536Y-85721488D01*
X149533536Y-86858000D01*
X149563106Y-87006659D01*
X149647314Y-87132686D01*
X149773341Y-87216894D01*
X149922000Y-87246464D01*
X151522000Y-87246464D01*
X151670659Y-87216894D01*
X151796686Y-87132686D01*
X151880894Y-87006659D01*
X151910464Y-86858000D01*
X151910464Y-85458000D01*
X151880894Y-85309341D01*
X151796686Y-85183314D01*
X151670659Y-85099106D01*
X151522000Y-85069536D01*
X151295401Y-85069536D01*
X151453638Y-85003992D01*
X151667992Y-84789638D01*
X151784000Y-84509571D01*
X151784000Y-84206429D01*
X151686674Y-83971464D01*
X151852000Y-83971464D01*
X152000659Y-83941894D01*
X152052701Y-83907121D01*
X153379319Y-85233739D01*
X153190362Y-85312008D01*
X152976008Y-85526362D01*
X152860000Y-85806429D01*
X152860000Y-86109571D01*
X152976008Y-86389638D01*
X153190362Y-86603992D01*
X153470429Y-86720000D01*
X153498501Y-86720000D01*
X153498500Y-91616616D01*
X153436924Y-91628864D01*
X153290620Y-91726620D01*
X153192864Y-91872924D01*
X153158536Y-92045500D01*
X153158536Y-92170500D01*
X153192864Y-92343076D01*
X153202836Y-92358000D01*
X153192864Y-92372924D01*
X153158536Y-92545500D01*
X153158536Y-92647000D01*
X152687952Y-92647000D01*
X152605081Y-92564129D01*
X152579362Y-92525638D01*
X152506973Y-92477269D01*
X152487815Y-92380954D01*
X152352123Y-92177877D01*
X152149046Y-92042185D01*
X151909500Y-91994536D01*
X151334500Y-91994536D01*
X151094954Y-92042185D01*
X150976056Y-92121630D01*
X150935327Y-92023301D01*
X150756698Y-91844673D01*
X150523309Y-91748000D01*
X150157750Y-91748000D01*
X149999000Y-91906750D01*
X149999000Y-92731000D01*
X150019000Y-92731000D01*
X150019000Y-92985000D01*
X149999000Y-92985000D01*
X149999000Y-94431000D01*
X150019000Y-94431000D01*
X150019000Y-94685000D01*
X149999000Y-94685000D01*
X149999000Y-95509250D01*
X150157750Y-95668000D01*
X150523309Y-95668000D01*
X150756698Y-95571327D01*
X150935327Y-95392699D01*
X150976056Y-95294370D01*
X151094954Y-95373815D01*
X151334500Y-95421464D01*
X151909500Y-95421464D01*
X151947718Y-95413862D01*
X151630581Y-95730999D01*
X147084000Y-95730999D01*
X147084000Y-95706429D01*
X146967992Y-95426362D01*
X146753638Y-95212008D01*
X146473571Y-95096000D01*
X146170429Y-95096000D01*
X145890362Y-95212008D01*
X145676008Y-95426362D01*
X145560000Y-95706429D01*
X145560000Y-96009571D01*
X145676008Y-96289638D01*
X145890362Y-96503992D01*
X146137354Y-96606300D01*
X138393700Y-96606300D01*
X138393700Y-94843750D01*
X148712000Y-94843750D01*
X148712000Y-95159310D01*
X148808673Y-95392699D01*
X148987302Y-95571327D01*
X149220691Y-95668000D01*
X149586250Y-95668000D01*
X149745000Y-95509250D01*
X149745000Y-94685000D01*
X148870750Y-94685000D01*
X148712000Y-94843750D01*
X138393700Y-94843750D01*
X138393700Y-93143750D01*
X148712000Y-93143750D01*
X148712000Y-93459310D01*
X148808673Y-93692699D01*
X148823974Y-93708000D01*
X148808673Y-93723301D01*
X148712000Y-93956690D01*
X148712000Y-94272250D01*
X148870750Y-94431000D01*
X149745000Y-94431000D01*
X149745000Y-92985000D01*
X148870750Y-92985000D01*
X148712000Y-93143750D01*
X138393700Y-93143750D01*
X138393700Y-92256690D01*
X148712000Y-92256690D01*
X148712000Y-92572250D01*
X148870750Y-92731000D01*
X149745000Y-92731000D01*
X149745000Y-91906750D01*
X149586250Y-91748000D01*
X149220691Y-91748000D01*
X148987302Y-91844673D01*
X148808673Y-92023301D01*
X148712000Y-92256690D01*
X138393700Y-92256690D01*
X138393700Y-90277725D01*
X138487301Y-90371327D01*
X138720690Y-90468000D01*
X139036250Y-90468000D01*
X139195000Y-90309250D01*
X139195000Y-89435000D01*
X139175000Y-89435000D01*
X139175000Y-89181000D01*
X139195000Y-89181000D01*
X139195000Y-89161000D01*
X139449000Y-89161000D01*
X139449000Y-89181000D01*
X139469000Y-89181000D01*
X139469000Y-89435000D01*
X139449000Y-89435000D01*
X139449000Y-90309250D01*
X139607750Y-90468000D01*
X139923310Y-90468000D01*
X140112000Y-90389842D01*
X140112000Y-90684309D01*
X140208673Y-90917698D01*
X140387301Y-91096327D01*
X140620690Y-91193000D01*
X140936250Y-91193000D01*
X141095000Y-91034250D01*
X141095000Y-90160000D01*
X141349000Y-90160000D01*
X141349000Y-91034250D01*
X141507750Y-91193000D01*
X141823310Y-91193000D01*
X142056699Y-91096327D01*
X142235327Y-90917698D01*
X142332000Y-90684309D01*
X142332000Y-90318750D01*
X142173250Y-90160000D01*
X141349000Y-90160000D01*
X141095000Y-90160000D01*
X141075000Y-90160000D01*
X141075000Y-89906000D01*
X141095000Y-89906000D01*
X141095000Y-89886000D01*
X141349000Y-89886000D01*
X141349000Y-89906000D01*
X142173250Y-89906000D01*
X142332000Y-89747250D01*
X142332000Y-89381691D01*
X142235327Y-89148302D01*
X142056699Y-88969673D01*
X141958370Y-88928944D01*
X142037815Y-88810046D01*
X142050952Y-88744000D01*
X142333536Y-88744000D01*
X142333536Y-89858000D01*
X142363106Y-90006659D01*
X142447314Y-90132686D01*
X142573341Y-90216894D01*
X142722000Y-90246464D01*
X144322000Y-90246464D01*
X144470659Y-90216894D01*
X144596686Y-90132686D01*
X144680894Y-90006659D01*
X144710464Y-89858000D01*
X144710464Y-89619000D01*
X149533536Y-89619000D01*
X149533536Y-89858000D01*
X149563106Y-90006659D01*
X149647314Y-90132686D01*
X149773341Y-90216894D01*
X149922000Y-90246464D01*
X151522000Y-90246464D01*
X151670659Y-90216894D01*
X151796686Y-90132686D01*
X151880894Y-90006659D01*
X151910464Y-89858000D01*
X151910464Y-88458000D01*
X151880894Y-88309341D01*
X151796686Y-88183314D01*
X151670659Y-88099106D01*
X151522000Y-88069536D01*
X149922000Y-88069536D01*
X149773341Y-88099106D01*
X149647314Y-88183314D01*
X149563106Y-88309341D01*
X149533536Y-88458000D01*
X149533536Y-88697000D01*
X144710464Y-88697000D01*
X144710464Y-88458000D01*
X144680894Y-88309341D01*
X144596686Y-88183314D01*
X144470659Y-88099106D01*
X144322000Y-88069536D01*
X143923784Y-88069536D01*
X143854362Y-87965638D01*
X143845370Y-87959630D01*
X143839362Y-87950638D01*
X143686873Y-87848748D01*
X143552402Y-87822000D01*
X143552397Y-87822000D01*
X143507000Y-87812970D01*
X143461603Y-87822000D01*
X142050952Y-87822000D01*
X142037815Y-87755954D01*
X141902123Y-87552877D01*
X141699046Y-87417185D01*
X141459500Y-87369536D01*
X140984500Y-87369536D01*
X140744954Y-87417185D01*
X140541877Y-87552877D01*
X140406185Y-87755954D01*
X140358536Y-87995500D01*
X140358536Y-88479333D01*
X140335327Y-88423302D01*
X140156699Y-88244673D01*
X140058370Y-88203944D01*
X140137815Y-88085046D01*
X140185464Y-87845500D01*
X140185464Y-87346488D01*
X140912953Y-86619000D01*
X142333536Y-86619000D01*
X142333536Y-86858000D01*
X142363106Y-87006659D01*
X142447314Y-87132686D01*
X142573341Y-87216894D01*
X142722000Y-87246464D01*
X144322000Y-87246464D01*
X144470659Y-87216894D01*
X144596686Y-87132686D01*
X144680894Y-87006659D01*
X144710464Y-86858000D01*
X144710464Y-85771488D01*
X146364472Y-84117480D01*
X146384500Y-84121464D01*
X146859500Y-84121464D01*
X147099046Y-84073815D01*
X147302123Y-83938123D01*
X147437815Y-83735046D01*
X147450952Y-83669000D01*
X147581048Y-83669000D01*
X148563919Y-84651871D01*
X148563919Y-84651871D01*
G37*
X148563919Y-84651871D02*
X148589638Y-84690362D01*
X148628128Y-84716080D01*
X149312310Y-85400263D01*
X149327748Y-85477873D01*
X149429638Y-85630362D01*
X149468128Y-85656080D01*
X149533536Y-85721488D01*
X149533536Y-86858000D01*
X149563106Y-87006659D01*
X149647314Y-87132686D01*
X149773341Y-87216894D01*
X149922000Y-87246464D01*
X151522000Y-87246464D01*
X151670659Y-87216894D01*
X151796686Y-87132686D01*
X151880894Y-87006659D01*
X151910464Y-86858000D01*
X151910464Y-85458000D01*
X151880894Y-85309341D01*
X151796686Y-85183314D01*
X151670659Y-85099106D01*
X151522000Y-85069536D01*
X151295401Y-85069536D01*
X151453638Y-85003992D01*
X151667992Y-84789638D01*
X151784000Y-84509571D01*
X151784000Y-84206429D01*
X151686674Y-83971464D01*
X151852000Y-83971464D01*
X152000659Y-83941894D01*
X152052701Y-83907121D01*
X153379319Y-85233739D01*
X153190362Y-85312008D01*
X152976008Y-85526362D01*
X152860000Y-85806429D01*
X152860000Y-86109571D01*
X152976008Y-86389638D01*
X153190362Y-86603992D01*
X153470429Y-86720000D01*
X153498501Y-86720000D01*
X153498500Y-91616616D01*
X153436924Y-91628864D01*
X153290620Y-91726620D01*
X153192864Y-91872924D01*
X153158536Y-92045500D01*
X153158536Y-92170500D01*
X153192864Y-92343076D01*
X153202836Y-92358000D01*
X153192864Y-92372924D01*
X153158536Y-92545500D01*
X153158536Y-92647000D01*
X152687952Y-92647000D01*
X152605081Y-92564129D01*
X152579362Y-92525638D01*
X152506973Y-92477269D01*
X152487815Y-92380954D01*
X152352123Y-92177877D01*
X152149046Y-92042185D01*
X151909500Y-91994536D01*
X151334500Y-91994536D01*
X151094954Y-92042185D01*
X150976056Y-92121630D01*
X150935327Y-92023301D01*
X150756698Y-91844673D01*
X150523309Y-91748000D01*
X150157750Y-91748000D01*
X149999000Y-91906750D01*
X149999000Y-92731000D01*
X150019000Y-92731000D01*
X150019000Y-92985000D01*
X149999000Y-92985000D01*
X149999000Y-94431000D01*
X150019000Y-94431000D01*
X150019000Y-94685000D01*
X149999000Y-94685000D01*
X149999000Y-95509250D01*
X150157750Y-95668000D01*
X150523309Y-95668000D01*
X150756698Y-95571327D01*
X150935327Y-95392699D01*
X150976056Y-95294370D01*
X151094954Y-95373815D01*
X151334500Y-95421464D01*
X151909500Y-95421464D01*
X151947718Y-95413862D01*
X151630581Y-95730999D01*
X147084000Y-95730999D01*
X147084000Y-95706429D01*
X146967992Y-95426362D01*
X146753638Y-95212008D01*
X146473571Y-95096000D01*
X146170429Y-95096000D01*
X145890362Y-95212008D01*
X145676008Y-95426362D01*
X145560000Y-95706429D01*
X145560000Y-96009571D01*
X145676008Y-96289638D01*
X145890362Y-96503992D01*
X146137354Y-96606300D01*
X138393700Y-96606300D01*
X138393700Y-94843750D01*
X148712000Y-94843750D01*
X148712000Y-95159310D01*
X148808673Y-95392699D01*
X148987302Y-95571327D01*
X149220691Y-95668000D01*
X149586250Y-95668000D01*
X149745000Y-95509250D01*
X149745000Y-94685000D01*
X148870750Y-94685000D01*
X148712000Y-94843750D01*
X138393700Y-94843750D01*
X138393700Y-93143750D01*
X148712000Y-93143750D01*
X148712000Y-93459310D01*
X148808673Y-93692699D01*
X148823974Y-93708000D01*
X148808673Y-93723301D01*
X148712000Y-93956690D01*
X148712000Y-94272250D01*
X148870750Y-94431000D01*
X149745000Y-94431000D01*
X149745000Y-92985000D01*
X148870750Y-92985000D01*
X148712000Y-93143750D01*
X138393700Y-93143750D01*
X138393700Y-92256690D01*
X148712000Y-92256690D01*
X148712000Y-92572250D01*
X148870750Y-92731000D01*
X149745000Y-92731000D01*
X149745000Y-91906750D01*
X149586250Y-91748000D01*
X149220691Y-91748000D01*
X148987302Y-91844673D01*
X148808673Y-92023301D01*
X148712000Y-92256690D01*
X138393700Y-92256690D01*
X138393700Y-90277725D01*
X138487301Y-90371327D01*
X138720690Y-90468000D01*
X139036250Y-90468000D01*
X139195000Y-90309250D01*
X139195000Y-89435000D01*
X139175000Y-89435000D01*
X139175000Y-89181000D01*
X139195000Y-89181000D01*
X139195000Y-89161000D01*
X139449000Y-89161000D01*
X139449000Y-89181000D01*
X139469000Y-89181000D01*
X139469000Y-89435000D01*
X139449000Y-89435000D01*
X139449000Y-90309250D01*
X139607750Y-90468000D01*
X139923310Y-90468000D01*
X140112000Y-90389842D01*
X140112000Y-90684309D01*
X140208673Y-90917698D01*
X140387301Y-91096327D01*
X140620690Y-91193000D01*
X140936250Y-91193000D01*
X141095000Y-91034250D01*
X141095000Y-90160000D01*
X141349000Y-90160000D01*
X141349000Y-91034250D01*
X141507750Y-91193000D01*
X141823310Y-91193000D01*
X142056699Y-91096327D01*
X142235327Y-90917698D01*
X142332000Y-90684309D01*
X142332000Y-90318750D01*
X142173250Y-90160000D01*
X141349000Y-90160000D01*
X141095000Y-90160000D01*
X141075000Y-90160000D01*
X141075000Y-89906000D01*
X141095000Y-89906000D01*
X141095000Y-89886000D01*
X141349000Y-89886000D01*
X141349000Y-89906000D01*
X142173250Y-89906000D01*
X142332000Y-89747250D01*
X142332000Y-89381691D01*
X142235327Y-89148302D01*
X142056699Y-88969673D01*
X141958370Y-88928944D01*
X142037815Y-88810046D01*
X142050952Y-88744000D01*
X142333536Y-88744000D01*
X142333536Y-89858000D01*
X142363106Y-90006659D01*
X142447314Y-90132686D01*
X142573341Y-90216894D01*
X142722000Y-90246464D01*
X144322000Y-90246464D01*
X144470659Y-90216894D01*
X144596686Y-90132686D01*
X144680894Y-90006659D01*
X144710464Y-89858000D01*
X144710464Y-89619000D01*
X149533536Y-89619000D01*
X149533536Y-89858000D01*
X149563106Y-90006659D01*
X149647314Y-90132686D01*
X149773341Y-90216894D01*
X149922000Y-90246464D01*
X151522000Y-90246464D01*
X151670659Y-90216894D01*
X151796686Y-90132686D01*
X151880894Y-90006659D01*
X151910464Y-89858000D01*
X151910464Y-88458000D01*
X151880894Y-88309341D01*
X151796686Y-88183314D01*
X151670659Y-88099106D01*
X151522000Y-88069536D01*
X149922000Y-88069536D01*
X149773341Y-88099106D01*
X149647314Y-88183314D01*
X149563106Y-88309341D01*
X149533536Y-88458000D01*
X149533536Y-88697000D01*
X144710464Y-88697000D01*
X144710464Y-88458000D01*
X144680894Y-88309341D01*
X144596686Y-88183314D01*
X144470659Y-88099106D01*
X144322000Y-88069536D01*
X143923784Y-88069536D01*
X143854362Y-87965638D01*
X143845370Y-87959630D01*
X143839362Y-87950638D01*
X143686873Y-87848748D01*
X143552402Y-87822000D01*
X143552397Y-87822000D01*
X143507000Y-87812970D01*
X143461603Y-87822000D01*
X142050952Y-87822000D01*
X142037815Y-87755954D01*
X141902123Y-87552877D01*
X141699046Y-87417185D01*
X141459500Y-87369536D01*
X140984500Y-87369536D01*
X140744954Y-87417185D01*
X140541877Y-87552877D01*
X140406185Y-87755954D01*
X140358536Y-87995500D01*
X140358536Y-88479333D01*
X140335327Y-88423302D01*
X140156699Y-88244673D01*
X140058370Y-88203944D01*
X140137815Y-88085046D01*
X140185464Y-87845500D01*
X140185464Y-87346488D01*
X140912953Y-86619000D01*
X142333536Y-86619000D01*
X142333536Y-86858000D01*
X142363106Y-87006659D01*
X142447314Y-87132686D01*
X142573341Y-87216894D01*
X142722000Y-87246464D01*
X144322000Y-87246464D01*
X144470659Y-87216894D01*
X144596686Y-87132686D01*
X144680894Y-87006659D01*
X144710464Y-86858000D01*
X144710464Y-85771488D01*
X146364472Y-84117480D01*
X146384500Y-84121464D01*
X146859500Y-84121464D01*
X147099046Y-84073815D01*
X147302123Y-83938123D01*
X147437815Y-83735046D01*
X147450952Y-83669000D01*
X147581048Y-83669000D01*
X148563919Y-84651871D01*
G36*
X156099000Y-95831000D02*
X157795000Y-95831000D01*
X157795000Y-95811000D01*
X158049000Y-95811000D01*
X158049000Y-95831000D01*
X158069000Y-95831000D01*
X158069000Y-96085000D01*
X158049000Y-96085000D01*
X158049000Y-96105000D01*
X157795000Y-96105000D01*
X157795000Y-96085000D01*
X156099000Y-96085000D01*
X156099000Y-96105000D01*
X155845000Y-96105000D01*
X155845000Y-96085000D01*
X155825000Y-96085000D01*
X155825000Y-95831000D01*
X155845000Y-95831000D01*
X155845000Y-95811000D01*
X156099000Y-95811000D01*
X156099000Y-95831000D01*
X156099000Y-95831000D01*
G37*
X156099000Y-95831000D02*
X157795000Y-95831000D01*
X157795000Y-95811000D01*
X158049000Y-95811000D01*
X158049000Y-95831000D01*
X158069000Y-95831000D01*
X158069000Y-96085000D01*
X158049000Y-96085000D01*
X158049000Y-96105000D01*
X157795000Y-96105000D01*
X157795000Y-96085000D01*
X156099000Y-96085000D01*
X156099000Y-96105000D01*
X155845000Y-96105000D01*
X155845000Y-96085000D01*
X155825000Y-96085000D01*
X155825000Y-95831000D01*
X155845000Y-95831000D01*
X155845000Y-95811000D01*
X156099000Y-95811000D01*
X156099000Y-95831000D01*
G36*
X156297000Y-94447500D02*
X156234500Y-94447500D01*
X156234500Y-94467500D01*
X156185464Y-94467500D01*
X156185464Y-94333000D01*
X156297000Y-94333000D01*
X156297000Y-94447500D01*
X156297000Y-94447500D01*
G37*
X156297000Y-94447500D02*
X156234500Y-94447500D01*
X156234500Y-94467500D01*
X156185464Y-94467500D01*
X156185464Y-94333000D01*
X156297000Y-94333000D01*
X156297000Y-94447500D01*
G36*
X155549000Y-92731000D02*
X155569000Y-92731000D01*
X155569000Y-92985000D01*
X155549000Y-92985000D01*
X155549000Y-93005000D01*
X155295000Y-93005000D01*
X155295000Y-92985000D01*
X155275000Y-92985000D01*
X155275000Y-92731000D01*
X155295000Y-92731000D01*
X155295000Y-92711000D01*
X155549000Y-92711000D01*
X155549000Y-92731000D01*
X155549000Y-92731000D01*
G37*
X155549000Y-92731000D02*
X155569000Y-92731000D01*
X155569000Y-92985000D01*
X155549000Y-92985000D01*
X155549000Y-93005000D01*
X155295000Y-93005000D01*
X155295000Y-92985000D01*
X155275000Y-92985000D01*
X155275000Y-92731000D01*
X155295000Y-92731000D01*
X155295000Y-92711000D01*
X155549000Y-92711000D01*
X155549000Y-92731000D01*
G36*
X158606185Y-91630954D02*
X158558536Y-91870500D01*
X158558536Y-92445500D01*
X158561820Y-92462010D01*
X157902962Y-92462010D01*
X157893415Y-92452463D01*
X157932000Y-92359309D01*
X157932000Y-92329250D01*
X157773250Y-92170500D01*
X157560544Y-92170500D01*
X157442402Y-92147000D01*
X157442397Y-92147000D01*
X157430752Y-92144684D01*
X157407076Y-92128864D01*
X157234500Y-92094536D01*
X156897000Y-92094536D01*
X156897000Y-91983000D01*
X157011500Y-91983000D01*
X157011500Y-92045500D01*
X157773250Y-92045500D01*
X157932000Y-91886750D01*
X157932000Y-91856691D01*
X157835327Y-91623302D01*
X157781025Y-91569000D01*
X158647581Y-91569000D01*
X158606185Y-91630954D01*
X158606185Y-91630954D01*
G37*
X158606185Y-91630954D02*
X158558536Y-91870500D01*
X158558536Y-92445500D01*
X158561820Y-92462010D01*
X157902962Y-92462010D01*
X157893415Y-92452463D01*
X157932000Y-92359309D01*
X157932000Y-92329250D01*
X157773250Y-92170500D01*
X157560544Y-92170500D01*
X157442402Y-92147000D01*
X157442397Y-92147000D01*
X157430752Y-92144684D01*
X157407076Y-92128864D01*
X157234500Y-92094536D01*
X156897000Y-92094536D01*
X156897000Y-91983000D01*
X157011500Y-91983000D01*
X157011500Y-92045500D01*
X157773250Y-92045500D01*
X157932000Y-91886750D01*
X157932000Y-91856691D01*
X157835327Y-91623302D01*
X157781025Y-91569000D01*
X158647581Y-91569000D01*
X158606185Y-91630954D01*
G36*
X156791080Y-88645500D02*
X155873170Y-89563410D01*
X155873167Y-89563412D01*
X155183000Y-90253580D01*
X155183000Y-90127007D01*
X155199046Y-90123815D01*
X155402123Y-89988123D01*
X155537815Y-89785046D01*
X155585464Y-89545500D01*
X155585464Y-88970500D01*
X155537815Y-88730954D01*
X155458370Y-88612056D01*
X155556699Y-88571327D01*
X155735327Y-88392698D01*
X155832000Y-88159309D01*
X155832000Y-87793750D01*
X155673252Y-87635002D01*
X155780582Y-87635002D01*
X156791080Y-88645500D01*
X156791080Y-88645500D01*
G37*
X156791080Y-88645500D02*
X155873170Y-89563410D01*
X155873167Y-89563412D01*
X155183000Y-90253580D01*
X155183000Y-90127007D01*
X155199046Y-90123815D01*
X155402123Y-89988123D01*
X155537815Y-89785046D01*
X155585464Y-89545500D01*
X155585464Y-88970500D01*
X155537815Y-88730954D01*
X155458370Y-88612056D01*
X155556699Y-88571327D01*
X155735327Y-88392698D01*
X155832000Y-88159309D01*
X155832000Y-87793750D01*
X155673252Y-87635002D01*
X155780582Y-87635002D01*
X156791080Y-88645500D01*
G36*
X157310724Y-66902129D02*
X157310724Y-66945536D01*
X156410000Y-66945536D01*
X156261341Y-66975106D01*
X156135314Y-67059314D01*
X156051106Y-67185341D01*
X156021536Y-67334000D01*
X156021536Y-68334000D01*
X156048389Y-68469000D01*
X156021536Y-68604000D01*
X156021536Y-68702216D01*
X155956127Y-68745920D01*
X155956126Y-68745921D01*
X155917638Y-68771638D01*
X155891921Y-68810126D01*
X154009127Y-70692921D01*
X153970637Y-70718639D01*
X153918946Y-70796000D01*
X153770429Y-70796000D01*
X153490362Y-70912008D01*
X153276008Y-71126362D01*
X153160000Y-71406429D01*
X153160000Y-71709571D01*
X153276008Y-71989638D01*
X153478686Y-72192316D01*
X153487748Y-72237872D01*
X153589638Y-72390362D01*
X153628129Y-72416081D01*
X154460000Y-73247952D01*
X154460000Y-73509571D01*
X154576008Y-73789638D01*
X154790362Y-74003992D01*
X155070429Y-74120000D01*
X155373571Y-74120000D01*
X155653638Y-74003992D01*
X155867992Y-73789638D01*
X155984000Y-73509571D01*
X155984000Y-73206429D01*
X155867992Y-72926362D01*
X155653638Y-72712008D01*
X155373571Y-72596000D01*
X155111952Y-72596000D01*
X154536791Y-72020839D01*
X154567992Y-71989638D01*
X154684000Y-71709571D01*
X154684000Y-71436570D01*
X154737251Y-71356874D01*
X154759145Y-71246807D01*
X156021536Y-69984417D01*
X156021536Y-70874000D01*
X156048389Y-71009000D01*
X156021536Y-71144000D01*
X156021536Y-72144000D01*
X156048389Y-72279000D01*
X156021536Y-72414000D01*
X156021536Y-73414000D01*
X156048389Y-73549000D01*
X156021536Y-73684000D01*
X156021536Y-74684000D01*
X156051106Y-74832659D01*
X156135314Y-74958686D01*
X156261341Y-75042894D01*
X156410000Y-75072464D01*
X157246512Y-75072464D01*
X157328128Y-75154080D01*
X157442127Y-75230252D01*
X157622000Y-75266031D01*
X157801873Y-75230252D01*
X157954362Y-75128362D01*
X158056252Y-74975873D01*
X158060000Y-74957031D01*
X158060000Y-75009571D01*
X158176008Y-75289638D01*
X158390362Y-75503992D01*
X158670429Y-75620000D01*
X158973571Y-75620000D01*
X159253638Y-75503992D01*
X159438630Y-75319000D01*
X159561603Y-75319000D01*
X159607000Y-75328030D01*
X159652397Y-75319000D01*
X159652402Y-75319000D01*
X159786873Y-75292252D01*
X159939362Y-75190362D01*
X159965081Y-75151871D01*
X160860000Y-74256953D01*
X160860000Y-74509571D01*
X160976008Y-74789638D01*
X161190362Y-75003992D01*
X161470429Y-75120000D01*
X161773571Y-75120000D01*
X162053638Y-75003992D01*
X162267992Y-74789638D01*
X162384000Y-74509571D01*
X162384000Y-74206429D01*
X162267992Y-73926362D01*
X162083000Y-73741370D01*
X162083000Y-73358535D01*
X162121686Y-73332686D01*
X162205894Y-73206659D01*
X162233090Y-73069935D01*
X162385327Y-72917699D01*
X162482000Y-72684310D01*
X162482000Y-72666750D01*
X162323250Y-72508000D01*
X162295025Y-72508000D01*
X162385327Y-72417699D01*
X162436080Y-72295170D01*
X162482000Y-72249250D01*
X162482000Y-72231690D01*
X162472187Y-72208000D01*
X162482000Y-72184310D01*
X162482000Y-72166750D01*
X162436080Y-72120830D01*
X162385327Y-71998301D01*
X162295025Y-71908000D01*
X162323250Y-71908000D01*
X162482000Y-71749250D01*
X162482000Y-71731690D01*
X162385327Y-71498301D01*
X162371989Y-71484963D01*
X162606300Y-71250652D01*
X162606301Y-88270070D01*
X162416330Y-88143136D01*
X162172001Y-88094536D01*
X161271999Y-88094536D01*
X161027670Y-88143136D01*
X160820537Y-88281537D01*
X160682136Y-88488670D01*
X160680479Y-88497000D01*
X160441007Y-88497000D01*
X160437815Y-88480954D01*
X160302123Y-88277877D01*
X160099046Y-88142185D01*
X159859500Y-88094536D01*
X159284500Y-88094536D01*
X159044954Y-88142185D01*
X158841877Y-88277877D01*
X158706185Y-88480954D01*
X158697000Y-88527130D01*
X158687815Y-88480954D01*
X158552123Y-88277877D01*
X158349046Y-88142185D01*
X158109500Y-88094536D01*
X157676956Y-88094536D01*
X155106102Y-85523682D01*
X155153638Y-85503992D01*
X155246232Y-85411398D01*
X156948207Y-85411398D01*
X157013122Y-85649753D01*
X157523146Y-85830312D01*
X158063444Y-85801949D01*
X158430878Y-85649753D01*
X158495793Y-85411398D01*
X157722000Y-84637605D01*
X156948207Y-85411398D01*
X155246232Y-85411398D01*
X155367992Y-85289638D01*
X155484000Y-85009571D01*
X155484000Y-84747952D01*
X156512952Y-83719000D01*
X156576598Y-83719000D01*
X156613730Y-83726386D01*
X156530247Y-83749122D01*
X156349688Y-84259146D01*
X156378051Y-84799444D01*
X156530247Y-85166878D01*
X156768602Y-85231793D01*
X157542395Y-84458000D01*
X157528253Y-84443858D01*
X157707858Y-84264253D01*
X157722000Y-84278395D01*
X157736143Y-84264253D01*
X157915748Y-84443858D01*
X157901605Y-84458000D01*
X158675398Y-85231793D01*
X158837000Y-85187781D01*
X158837000Y-85585002D01*
X158837287Y-85585002D01*
X158901625Y-85740328D01*
X158878538Y-85775609D01*
X158882408Y-85813281D01*
X159108920Y-86241474D01*
X159482053Y-86550390D01*
X159945000Y-86693000D01*
X160295000Y-86693000D01*
X160295000Y-83085000D01*
X160549000Y-83085000D01*
X160549000Y-86693000D01*
X160899000Y-86693000D01*
X161361947Y-86550390D01*
X161735080Y-86241474D01*
X161961592Y-85813281D01*
X161965462Y-85775609D01*
X161942375Y-85740328D01*
X162007000Y-85584309D01*
X162007000Y-85143750D01*
X161956676Y-85093426D01*
X161764954Y-84731000D01*
X161848250Y-84731000D01*
X162007000Y-84572250D01*
X162007000Y-84131691D01*
X161945410Y-83983000D01*
X162007000Y-83834309D01*
X162007000Y-83243750D01*
X161848250Y-83085000D01*
X160549000Y-83085000D01*
X160295000Y-83085000D01*
X158995750Y-83085000D01*
X158837000Y-83243750D01*
X158837000Y-83728219D01*
X158699663Y-83690815D01*
X158755894Y-83606659D01*
X158756625Y-83602983D01*
X158790550Y-83569058D01*
X158767882Y-83546390D01*
X158785464Y-83458000D01*
X158785464Y-83058000D01*
X158760600Y-82933000D01*
X158785464Y-82808000D01*
X158785464Y-82408000D01*
X158760600Y-82283000D01*
X158785464Y-82158000D01*
X158785464Y-81758000D01*
X158760600Y-81633000D01*
X158785464Y-81508000D01*
X158785464Y-81367562D01*
X158837000Y-81316026D01*
X158837000Y-81834309D01*
X158888235Y-81958000D01*
X158837000Y-82081691D01*
X158837000Y-82672250D01*
X158995750Y-82831000D01*
X160295000Y-82831000D01*
X160295000Y-81085000D01*
X160549000Y-81085000D01*
X160549000Y-82831000D01*
X161848250Y-82831000D01*
X162007000Y-82672250D01*
X162007000Y-82081691D01*
X161955765Y-81958000D01*
X162007000Y-81834309D01*
X162007000Y-81243750D01*
X161848250Y-81085000D01*
X160549000Y-81085000D01*
X160295000Y-81085000D01*
X160275000Y-81085000D01*
X160275000Y-80831000D01*
X160295000Y-80831000D01*
X160295000Y-77223000D01*
X160549000Y-77223000D01*
X160549000Y-80831000D01*
X161848250Y-80831000D01*
X162007000Y-80672250D01*
X162007000Y-80081691D01*
X161945410Y-79933000D01*
X162007000Y-79784309D01*
X162007000Y-79343750D01*
X161848250Y-79185000D01*
X161764954Y-79185000D01*
X161956676Y-78822574D01*
X162007000Y-78772250D01*
X162007000Y-78331691D01*
X161942375Y-78175672D01*
X161965462Y-78140391D01*
X161961592Y-78102719D01*
X161735080Y-77674526D01*
X161361947Y-77365610D01*
X160899000Y-77223000D01*
X160549000Y-77223000D01*
X160295000Y-77223000D01*
X159945000Y-77223000D01*
X159482053Y-77365610D01*
X159108920Y-77674526D01*
X158882408Y-78102719D01*
X158878538Y-78140391D01*
X158901625Y-78175672D01*
X158837287Y-78330998D01*
X158837000Y-78330998D01*
X158837000Y-78728219D01*
X158675398Y-78684207D01*
X157901605Y-79458000D01*
X157915748Y-79472143D01*
X157736143Y-79651748D01*
X157722000Y-79637605D01*
X157707858Y-79651748D01*
X157528253Y-79472143D01*
X157542395Y-79458000D01*
X157528253Y-79443858D01*
X157707858Y-79264253D01*
X157722000Y-79278395D01*
X158495793Y-78504602D01*
X158430878Y-78266247D01*
X157920854Y-78085688D01*
X157380556Y-78114051D01*
X157013122Y-78266247D01*
X156955593Y-78477481D01*
X156954362Y-78475638D01*
X156915872Y-78449920D01*
X156185464Y-77719512D01*
X156185464Y-77220500D01*
X156137815Y-76980954D01*
X156002123Y-76777877D01*
X155799046Y-76642185D01*
X155559500Y-76594536D01*
X155084500Y-76594536D01*
X154844954Y-76642185D01*
X154641877Y-76777877D01*
X154600363Y-76840007D01*
X154600363Y-76704611D01*
X154484355Y-76424544D01*
X154299363Y-76239552D01*
X154299363Y-76172464D01*
X154360000Y-76172464D01*
X154495000Y-76145611D01*
X154630000Y-76172464D01*
X155630000Y-76172464D01*
X155778659Y-76142894D01*
X155904686Y-76058686D01*
X155988894Y-75932659D01*
X156018464Y-75784000D01*
X156018464Y-74584000D01*
X155988894Y-74435341D01*
X155904686Y-74309314D01*
X155778659Y-74225106D01*
X155630000Y-74195536D01*
X154630000Y-74195536D01*
X154495000Y-74222389D01*
X154360000Y-74195536D01*
X153360000Y-74195536D01*
X153225000Y-74222389D01*
X153090000Y-74195536D01*
X152090000Y-74195536D01*
X151955000Y-74222389D01*
X151820000Y-74195536D01*
X150820000Y-74195536D01*
X150685000Y-74222389D01*
X150550000Y-74195536D01*
X149550000Y-74195536D01*
X149415000Y-74222389D01*
X149280000Y-74195536D01*
X148519562Y-74195536D01*
X148369698Y-74045673D01*
X148136309Y-73949000D01*
X147795750Y-73949000D01*
X147637000Y-74107750D01*
X147637000Y-75057000D01*
X147657000Y-75057000D01*
X147657000Y-75311000D01*
X147637000Y-75311000D01*
X147637000Y-75331000D01*
X147383000Y-75331000D01*
X147383000Y-75311000D01*
X147363000Y-75311000D01*
X147363000Y-75057000D01*
X147383000Y-75057000D01*
X147383000Y-74107750D01*
X147224250Y-73949000D01*
X146883691Y-73949000D01*
X146650302Y-74045673D01*
X146500438Y-74195536D01*
X145740000Y-74195536D01*
X145605000Y-74222389D01*
X145470000Y-74195536D01*
X144498464Y-74195536D01*
X144498464Y-73684000D01*
X144471611Y-73549000D01*
X144498464Y-73414000D01*
X144498464Y-72414000D01*
X144471611Y-72279000D01*
X144498464Y-72144000D01*
X144498464Y-71144000D01*
X144471611Y-71009000D01*
X144498464Y-70874000D01*
X144498464Y-69874000D01*
X144471611Y-69739000D01*
X144498464Y-69604000D01*
X144498464Y-68604000D01*
X144468894Y-68455341D01*
X144427707Y-68393700D01*
X155461225Y-68393700D01*
X155500000Y-68401413D01*
X155546061Y-68392251D01*
X155653614Y-68370857D01*
X155783842Y-68283842D01*
X155870857Y-68153614D01*
X155901413Y-68000000D01*
X155893700Y-67961224D01*
X155893700Y-66893700D01*
X157314215Y-66893700D01*
X157310724Y-66902129D01*
X157310724Y-66902129D01*
G37*
X157310724Y-66902129D02*
X157310724Y-66945536D01*
X156410000Y-66945536D01*
X156261341Y-66975106D01*
X156135314Y-67059314D01*
X156051106Y-67185341D01*
X156021536Y-67334000D01*
X156021536Y-68334000D01*
X156048389Y-68469000D01*
X156021536Y-68604000D01*
X156021536Y-68702216D01*
X155956127Y-68745920D01*
X155956126Y-68745921D01*
X155917638Y-68771638D01*
X155891921Y-68810126D01*
X154009127Y-70692921D01*
X153970637Y-70718639D01*
X153918946Y-70796000D01*
X153770429Y-70796000D01*
X153490362Y-70912008D01*
X153276008Y-71126362D01*
X153160000Y-71406429D01*
X153160000Y-71709571D01*
X153276008Y-71989638D01*
X153478686Y-72192316D01*
X153487748Y-72237872D01*
X153589638Y-72390362D01*
X153628129Y-72416081D01*
X154460000Y-73247952D01*
X154460000Y-73509571D01*
X154576008Y-73789638D01*
X154790362Y-74003992D01*
X155070429Y-74120000D01*
X155373571Y-74120000D01*
X155653638Y-74003992D01*
X155867992Y-73789638D01*
X155984000Y-73509571D01*
X155984000Y-73206429D01*
X155867992Y-72926362D01*
X155653638Y-72712008D01*
X155373571Y-72596000D01*
X155111952Y-72596000D01*
X154536791Y-72020839D01*
X154567992Y-71989638D01*
X154684000Y-71709571D01*
X154684000Y-71436570D01*
X154737251Y-71356874D01*
X154759145Y-71246807D01*
X156021536Y-69984417D01*
X156021536Y-70874000D01*
X156048389Y-71009000D01*
X156021536Y-71144000D01*
X156021536Y-72144000D01*
X156048389Y-72279000D01*
X156021536Y-72414000D01*
X156021536Y-73414000D01*
X156048389Y-73549000D01*
X156021536Y-73684000D01*
X156021536Y-74684000D01*
X156051106Y-74832659D01*
X156135314Y-74958686D01*
X156261341Y-75042894D01*
X156410000Y-75072464D01*
X157246512Y-75072464D01*
X157328128Y-75154080D01*
X157442127Y-75230252D01*
X157622000Y-75266031D01*
X157801873Y-75230252D01*
X157954362Y-75128362D01*
X158056252Y-74975873D01*
X158060000Y-74957031D01*
X158060000Y-75009571D01*
X158176008Y-75289638D01*
X158390362Y-75503992D01*
X158670429Y-75620000D01*
X158973571Y-75620000D01*
X159253638Y-75503992D01*
X159438630Y-75319000D01*
X159561603Y-75319000D01*
X159607000Y-75328030D01*
X159652397Y-75319000D01*
X159652402Y-75319000D01*
X159786873Y-75292252D01*
X159939362Y-75190362D01*
X159965081Y-75151871D01*
X160860000Y-74256953D01*
X160860000Y-74509571D01*
X160976008Y-74789638D01*
X161190362Y-75003992D01*
X161470429Y-75120000D01*
X161773571Y-75120000D01*
X162053638Y-75003992D01*
X162267992Y-74789638D01*
X162384000Y-74509571D01*
X162384000Y-74206429D01*
X162267992Y-73926362D01*
X162083000Y-73741370D01*
X162083000Y-73358535D01*
X162121686Y-73332686D01*
X162205894Y-73206659D01*
X162233090Y-73069935D01*
X162385327Y-72917699D01*
X162482000Y-72684310D01*
X162482000Y-72666750D01*
X162323250Y-72508000D01*
X162295025Y-72508000D01*
X162385327Y-72417699D01*
X162436080Y-72295170D01*
X162482000Y-72249250D01*
X162482000Y-72231690D01*
X162472187Y-72208000D01*
X162482000Y-72184310D01*
X162482000Y-72166750D01*
X162436080Y-72120830D01*
X162385327Y-71998301D01*
X162295025Y-71908000D01*
X162323250Y-71908000D01*
X162482000Y-71749250D01*
X162482000Y-71731690D01*
X162385327Y-71498301D01*
X162371989Y-71484963D01*
X162606300Y-71250652D01*
X162606301Y-88270070D01*
X162416330Y-88143136D01*
X162172001Y-88094536D01*
X161271999Y-88094536D01*
X161027670Y-88143136D01*
X160820537Y-88281537D01*
X160682136Y-88488670D01*
X160680479Y-88497000D01*
X160441007Y-88497000D01*
X160437815Y-88480954D01*
X160302123Y-88277877D01*
X160099046Y-88142185D01*
X159859500Y-88094536D01*
X159284500Y-88094536D01*
X159044954Y-88142185D01*
X158841877Y-88277877D01*
X158706185Y-88480954D01*
X158697000Y-88527130D01*
X158687815Y-88480954D01*
X158552123Y-88277877D01*
X158349046Y-88142185D01*
X158109500Y-88094536D01*
X157676956Y-88094536D01*
X155106102Y-85523682D01*
X155153638Y-85503992D01*
X155246232Y-85411398D01*
X156948207Y-85411398D01*
X157013122Y-85649753D01*
X157523146Y-85830312D01*
X158063444Y-85801949D01*
X158430878Y-85649753D01*
X158495793Y-85411398D01*
X157722000Y-84637605D01*
X156948207Y-85411398D01*
X155246232Y-85411398D01*
X155367992Y-85289638D01*
X155484000Y-85009571D01*
X155484000Y-84747952D01*
X156512952Y-83719000D01*
X156576598Y-83719000D01*
X156613730Y-83726386D01*
X156530247Y-83749122D01*
X156349688Y-84259146D01*
X156378051Y-84799444D01*
X156530247Y-85166878D01*
X156768602Y-85231793D01*
X157542395Y-84458000D01*
X157528253Y-84443858D01*
X157707858Y-84264253D01*
X157722000Y-84278395D01*
X157736143Y-84264253D01*
X157915748Y-84443858D01*
X157901605Y-84458000D01*
X158675398Y-85231793D01*
X158837000Y-85187781D01*
X158837000Y-85585002D01*
X158837287Y-85585002D01*
X158901625Y-85740328D01*
X158878538Y-85775609D01*
X158882408Y-85813281D01*
X159108920Y-86241474D01*
X159482053Y-86550390D01*
X159945000Y-86693000D01*
X160295000Y-86693000D01*
X160295000Y-83085000D01*
X160549000Y-83085000D01*
X160549000Y-86693000D01*
X160899000Y-86693000D01*
X161361947Y-86550390D01*
X161735080Y-86241474D01*
X161961592Y-85813281D01*
X161965462Y-85775609D01*
X161942375Y-85740328D01*
X162007000Y-85584309D01*
X162007000Y-85143750D01*
X161956676Y-85093426D01*
X161764954Y-84731000D01*
X161848250Y-84731000D01*
X162007000Y-84572250D01*
X162007000Y-84131691D01*
X161945410Y-83983000D01*
X162007000Y-83834309D01*
X162007000Y-83243750D01*
X161848250Y-83085000D01*
X160549000Y-83085000D01*
X160295000Y-83085000D01*
X158995750Y-83085000D01*
X158837000Y-83243750D01*
X158837000Y-83728219D01*
X158699663Y-83690815D01*
X158755894Y-83606659D01*
X158756625Y-83602983D01*
X158790550Y-83569058D01*
X158767882Y-83546390D01*
X158785464Y-83458000D01*
X158785464Y-83058000D01*
X158760600Y-82933000D01*
X158785464Y-82808000D01*
X158785464Y-82408000D01*
X158760600Y-82283000D01*
X158785464Y-82158000D01*
X158785464Y-81758000D01*
X158760600Y-81633000D01*
X158785464Y-81508000D01*
X158785464Y-81367562D01*
X158837000Y-81316026D01*
X158837000Y-81834309D01*
X158888235Y-81958000D01*
X158837000Y-82081691D01*
X158837000Y-82672250D01*
X158995750Y-82831000D01*
X160295000Y-82831000D01*
X160295000Y-81085000D01*
X160549000Y-81085000D01*
X160549000Y-82831000D01*
X161848250Y-82831000D01*
X162007000Y-82672250D01*
X162007000Y-82081691D01*
X161955765Y-81958000D01*
X162007000Y-81834309D01*
X162007000Y-81243750D01*
X161848250Y-81085000D01*
X160549000Y-81085000D01*
X160295000Y-81085000D01*
X160275000Y-81085000D01*
X160275000Y-80831000D01*
X160295000Y-80831000D01*
X160295000Y-77223000D01*
X160549000Y-77223000D01*
X160549000Y-80831000D01*
X161848250Y-80831000D01*
X162007000Y-80672250D01*
X162007000Y-80081691D01*
X161945410Y-79933000D01*
X162007000Y-79784309D01*
X162007000Y-79343750D01*
X161848250Y-79185000D01*
X161764954Y-79185000D01*
X161956676Y-78822574D01*
X162007000Y-78772250D01*
X162007000Y-78331691D01*
X161942375Y-78175672D01*
X161965462Y-78140391D01*
X161961592Y-78102719D01*
X161735080Y-77674526D01*
X161361947Y-77365610D01*
X160899000Y-77223000D01*
X160549000Y-77223000D01*
X160295000Y-77223000D01*
X159945000Y-77223000D01*
X159482053Y-77365610D01*
X159108920Y-77674526D01*
X158882408Y-78102719D01*
X158878538Y-78140391D01*
X158901625Y-78175672D01*
X158837287Y-78330998D01*
X158837000Y-78330998D01*
X158837000Y-78728219D01*
X158675398Y-78684207D01*
X157901605Y-79458000D01*
X157915748Y-79472143D01*
X157736143Y-79651748D01*
X157722000Y-79637605D01*
X157707858Y-79651748D01*
X157528253Y-79472143D01*
X157542395Y-79458000D01*
X157528253Y-79443858D01*
X157707858Y-79264253D01*
X157722000Y-79278395D01*
X158495793Y-78504602D01*
X158430878Y-78266247D01*
X157920854Y-78085688D01*
X157380556Y-78114051D01*
X157013122Y-78266247D01*
X156955593Y-78477481D01*
X156954362Y-78475638D01*
X156915872Y-78449920D01*
X156185464Y-77719512D01*
X156185464Y-77220500D01*
X156137815Y-76980954D01*
X156002123Y-76777877D01*
X155799046Y-76642185D01*
X155559500Y-76594536D01*
X155084500Y-76594536D01*
X154844954Y-76642185D01*
X154641877Y-76777877D01*
X154600363Y-76840007D01*
X154600363Y-76704611D01*
X154484355Y-76424544D01*
X154299363Y-76239552D01*
X154299363Y-76172464D01*
X154360000Y-76172464D01*
X154495000Y-76145611D01*
X154630000Y-76172464D01*
X155630000Y-76172464D01*
X155778659Y-76142894D01*
X155904686Y-76058686D01*
X155988894Y-75932659D01*
X156018464Y-75784000D01*
X156018464Y-74584000D01*
X155988894Y-74435341D01*
X155904686Y-74309314D01*
X155778659Y-74225106D01*
X155630000Y-74195536D01*
X154630000Y-74195536D01*
X154495000Y-74222389D01*
X154360000Y-74195536D01*
X153360000Y-74195536D01*
X153225000Y-74222389D01*
X153090000Y-74195536D01*
X152090000Y-74195536D01*
X151955000Y-74222389D01*
X151820000Y-74195536D01*
X150820000Y-74195536D01*
X150685000Y-74222389D01*
X150550000Y-74195536D01*
X149550000Y-74195536D01*
X149415000Y-74222389D01*
X149280000Y-74195536D01*
X148519562Y-74195536D01*
X148369698Y-74045673D01*
X148136309Y-73949000D01*
X147795750Y-73949000D01*
X147637000Y-74107750D01*
X147637000Y-75057000D01*
X147657000Y-75057000D01*
X147657000Y-75311000D01*
X147637000Y-75311000D01*
X147637000Y-75331000D01*
X147383000Y-75331000D01*
X147383000Y-75311000D01*
X147363000Y-75311000D01*
X147363000Y-75057000D01*
X147383000Y-75057000D01*
X147383000Y-74107750D01*
X147224250Y-73949000D01*
X146883691Y-73949000D01*
X146650302Y-74045673D01*
X146500438Y-74195536D01*
X145740000Y-74195536D01*
X145605000Y-74222389D01*
X145470000Y-74195536D01*
X144498464Y-74195536D01*
X144498464Y-73684000D01*
X144471611Y-73549000D01*
X144498464Y-73414000D01*
X144498464Y-72414000D01*
X144471611Y-72279000D01*
X144498464Y-72144000D01*
X144498464Y-71144000D01*
X144471611Y-71009000D01*
X144498464Y-70874000D01*
X144498464Y-69874000D01*
X144471611Y-69739000D01*
X144498464Y-69604000D01*
X144498464Y-68604000D01*
X144468894Y-68455341D01*
X144427707Y-68393700D01*
X155461225Y-68393700D01*
X155500000Y-68401413D01*
X155546061Y-68392251D01*
X155653614Y-68370857D01*
X155783842Y-68283842D01*
X155870857Y-68153614D01*
X155901413Y-68000000D01*
X155893700Y-67961224D01*
X155893700Y-66893700D01*
X157314215Y-66893700D01*
X157310724Y-66902129D01*
G36*
X138537302Y-75571327D02*
X138770691Y-75668000D01*
X139136250Y-75668000D01*
X139294998Y-75509252D01*
X139294998Y-75668000D01*
X139338216Y-75668000D01*
X139327415Y-75684165D01*
X139327412Y-75684168D01*
X139243475Y-75809789D01*
X139204049Y-76008000D01*
X139214001Y-76058033D01*
X139214000Y-77794536D01*
X139047000Y-77794536D01*
X138898341Y-77824106D01*
X138772314Y-77908314D01*
X138688106Y-78034341D01*
X138658536Y-78183000D01*
X138658536Y-79533000D01*
X138688106Y-79681659D01*
X138772314Y-79807686D01*
X138875488Y-79876624D01*
X138592522Y-80194367D01*
X138454090Y-80528600D01*
X138577776Y-80731000D01*
X139595000Y-80731000D01*
X139595000Y-80711000D01*
X139849000Y-80711000D01*
X139849000Y-80731000D01*
X140866224Y-80731000D01*
X140989910Y-80528600D01*
X140851478Y-80194367D01*
X140568512Y-79876624D01*
X140671686Y-79807686D01*
X140755894Y-79681659D01*
X140785464Y-79533000D01*
X140785464Y-79366000D01*
X143811580Y-79366000D01*
X145758536Y-81312957D01*
X145758536Y-81745500D01*
X145806185Y-81985046D01*
X145941877Y-82188123D01*
X146144954Y-82323815D01*
X146191130Y-82333000D01*
X146144954Y-82342185D01*
X145941877Y-82477877D01*
X145806185Y-82680954D01*
X145758536Y-82920500D01*
X145758536Y-83419512D01*
X144108512Y-85069536D01*
X142722000Y-85069536D01*
X142573341Y-85099106D01*
X142447314Y-85183314D01*
X142363106Y-85309341D01*
X142333536Y-85458000D01*
X142333536Y-85697000D01*
X140767397Y-85697000D01*
X140722000Y-85687970D01*
X140676603Y-85697000D01*
X140676598Y-85697000D01*
X140542127Y-85723748D01*
X140542125Y-85723749D01*
X140542126Y-85723749D01*
X140428127Y-85799920D01*
X140428126Y-85799921D01*
X140389638Y-85825638D01*
X140363921Y-85864126D01*
X139579528Y-86648520D01*
X139559500Y-86644536D01*
X139084500Y-86644536D01*
X138844954Y-86692185D01*
X138641877Y-86827877D01*
X138506185Y-87030954D01*
X138458536Y-87270500D01*
X138458536Y-87845500D01*
X138506185Y-88085046D01*
X138585630Y-88203944D01*
X138487301Y-88244673D01*
X138393700Y-88338275D01*
X138393700Y-81187400D01*
X138454090Y-81187400D01*
X138592522Y-81521633D01*
X138932460Y-81903349D01*
X139116650Y-81992442D01*
X138960667Y-82096667D01*
X138727270Y-82445969D01*
X138645312Y-82858000D01*
X138727270Y-83270031D01*
X138960667Y-83619333D01*
X139309969Y-83852730D01*
X139336463Y-83858000D01*
X139309969Y-83863270D01*
X138960667Y-84096667D01*
X138727270Y-84445969D01*
X138645312Y-84858000D01*
X138727270Y-85270031D01*
X138960667Y-85619333D01*
X139309969Y-85852730D01*
X139617994Y-85914000D01*
X139826006Y-85914000D01*
X140134031Y-85852730D01*
X140483333Y-85619333D01*
X140716730Y-85270031D01*
X140798688Y-84858000D01*
X140728220Y-84503732D01*
X143287659Y-81944294D01*
X143470429Y-82020000D01*
X143773571Y-82020000D01*
X144053638Y-81903992D01*
X144267992Y-81689638D01*
X144384000Y-81409571D01*
X144384000Y-81106429D01*
X144267992Y-80826362D01*
X144053638Y-80612008D01*
X143773571Y-80496000D01*
X143470429Y-80496000D01*
X143190362Y-80612008D01*
X142976008Y-80826362D01*
X142887140Y-81040907D01*
X140731309Y-83196739D01*
X140798688Y-82858000D01*
X140716730Y-82445969D01*
X140483333Y-82096667D01*
X140327350Y-81992442D01*
X140511540Y-81903349D01*
X140851478Y-81521633D01*
X140989910Y-81187400D01*
X140866224Y-80985000D01*
X139849000Y-80985000D01*
X139849000Y-81005000D01*
X139595000Y-81005000D01*
X139595000Y-80985000D01*
X138577776Y-80985000D01*
X138454090Y-81187400D01*
X138393700Y-81187400D01*
X138393700Y-75427726D01*
X138537302Y-75571327D01*
X138537302Y-75571327D01*
G37*
X138537302Y-75571327D02*
X138770691Y-75668000D01*
X139136250Y-75668000D01*
X139294998Y-75509252D01*
X139294998Y-75668000D01*
X139338216Y-75668000D01*
X139327415Y-75684165D01*
X139327412Y-75684168D01*
X139243475Y-75809789D01*
X139204049Y-76008000D01*
X139214001Y-76058033D01*
X139214000Y-77794536D01*
X139047000Y-77794536D01*
X138898341Y-77824106D01*
X138772314Y-77908314D01*
X138688106Y-78034341D01*
X138658536Y-78183000D01*
X138658536Y-79533000D01*
X138688106Y-79681659D01*
X138772314Y-79807686D01*
X138875488Y-79876624D01*
X138592522Y-80194367D01*
X138454090Y-80528600D01*
X138577776Y-80731000D01*
X139595000Y-80731000D01*
X139595000Y-80711000D01*
X139849000Y-80711000D01*
X139849000Y-80731000D01*
X140866224Y-80731000D01*
X140989910Y-80528600D01*
X140851478Y-80194367D01*
X140568512Y-79876624D01*
X140671686Y-79807686D01*
X140755894Y-79681659D01*
X140785464Y-79533000D01*
X140785464Y-79366000D01*
X143811580Y-79366000D01*
X145758536Y-81312957D01*
X145758536Y-81745500D01*
X145806185Y-81985046D01*
X145941877Y-82188123D01*
X146144954Y-82323815D01*
X146191130Y-82333000D01*
X146144954Y-82342185D01*
X145941877Y-82477877D01*
X145806185Y-82680954D01*
X145758536Y-82920500D01*
X145758536Y-83419512D01*
X144108512Y-85069536D01*
X142722000Y-85069536D01*
X142573341Y-85099106D01*
X142447314Y-85183314D01*
X142363106Y-85309341D01*
X142333536Y-85458000D01*
X142333536Y-85697000D01*
X140767397Y-85697000D01*
X140722000Y-85687970D01*
X140676603Y-85697000D01*
X140676598Y-85697000D01*
X140542127Y-85723748D01*
X140542125Y-85723749D01*
X140542126Y-85723749D01*
X140428127Y-85799920D01*
X140428126Y-85799921D01*
X140389638Y-85825638D01*
X140363921Y-85864126D01*
X139579528Y-86648520D01*
X139559500Y-86644536D01*
X139084500Y-86644536D01*
X138844954Y-86692185D01*
X138641877Y-86827877D01*
X138506185Y-87030954D01*
X138458536Y-87270500D01*
X138458536Y-87845500D01*
X138506185Y-88085046D01*
X138585630Y-88203944D01*
X138487301Y-88244673D01*
X138393700Y-88338275D01*
X138393700Y-81187400D01*
X138454090Y-81187400D01*
X138592522Y-81521633D01*
X138932460Y-81903349D01*
X139116650Y-81992442D01*
X138960667Y-82096667D01*
X138727270Y-82445969D01*
X138645312Y-82858000D01*
X138727270Y-83270031D01*
X138960667Y-83619333D01*
X139309969Y-83852730D01*
X139336463Y-83858000D01*
X139309969Y-83863270D01*
X138960667Y-84096667D01*
X138727270Y-84445969D01*
X138645312Y-84858000D01*
X138727270Y-85270031D01*
X138960667Y-85619333D01*
X139309969Y-85852730D01*
X139617994Y-85914000D01*
X139826006Y-85914000D01*
X140134031Y-85852730D01*
X140483333Y-85619333D01*
X140716730Y-85270031D01*
X140798688Y-84858000D01*
X140728220Y-84503732D01*
X143287659Y-81944294D01*
X143470429Y-82020000D01*
X143773571Y-82020000D01*
X144053638Y-81903992D01*
X144267992Y-81689638D01*
X144384000Y-81409571D01*
X144384000Y-81106429D01*
X144267992Y-80826362D01*
X144053638Y-80612008D01*
X143773571Y-80496000D01*
X143470429Y-80496000D01*
X143190362Y-80612008D01*
X142976008Y-80826362D01*
X142887140Y-81040907D01*
X140731309Y-83196739D01*
X140798688Y-82858000D01*
X140716730Y-82445969D01*
X140483333Y-82096667D01*
X140327350Y-81992442D01*
X140511540Y-81903349D01*
X140851478Y-81521633D01*
X140989910Y-81187400D01*
X140866224Y-80985000D01*
X139849000Y-80985000D01*
X139849000Y-81005000D01*
X139595000Y-81005000D01*
X139595000Y-80985000D01*
X138577776Y-80985000D01*
X138454090Y-81187400D01*
X138393700Y-81187400D01*
X138393700Y-75427726D01*
X138537302Y-75571327D01*
G36*
X154849000Y-87381000D02*
X154869000Y-87381000D01*
X154869000Y-87635000D01*
X154849000Y-87635000D01*
X154849000Y-87655000D01*
X154595000Y-87655000D01*
X154595000Y-87635000D01*
X154575000Y-87635000D01*
X154575000Y-87381000D01*
X154595000Y-87381000D01*
X154595000Y-87361000D01*
X154849000Y-87361000D01*
X154849000Y-87381000D01*
X154849000Y-87381000D01*
G37*
X154849000Y-87381000D02*
X154869000Y-87381000D01*
X154869000Y-87635000D01*
X154849000Y-87635000D01*
X154849000Y-87655000D01*
X154595000Y-87655000D01*
X154595000Y-87635000D01*
X154575000Y-87635000D01*
X154575000Y-87381000D01*
X154595000Y-87381000D01*
X154595000Y-87361000D01*
X154849000Y-87361000D01*
X154849000Y-87381000D01*
G36*
X154458536Y-77795500D02*
X154506185Y-78035046D01*
X154585630Y-78153944D01*
X154487301Y-78194673D01*
X154308673Y-78373302D01*
X154261645Y-78486838D01*
X154235327Y-78423301D01*
X154056698Y-78244673D01*
X153823309Y-78148000D01*
X153457750Y-78148000D01*
X153299000Y-78306750D01*
X153299000Y-79131000D01*
X154173250Y-79131000D01*
X154272000Y-79032250D01*
X154370750Y-79131000D01*
X155195000Y-79131000D01*
X155195000Y-79111000D01*
X155449000Y-79111000D01*
X155449000Y-79131000D01*
X155469000Y-79131000D01*
X155469000Y-79385000D01*
X155449000Y-79385000D01*
X155449000Y-81031000D01*
X155469000Y-81031000D01*
X155469000Y-81285000D01*
X155449000Y-81285000D01*
X155449000Y-82109250D01*
X155607750Y-82268000D01*
X155973309Y-82268000D01*
X156161001Y-82190255D01*
X156161001Y-82819994D01*
X156142127Y-82823748D01*
X155989638Y-82925638D01*
X155963920Y-82964128D01*
X154832048Y-84096000D01*
X154570429Y-84096000D01*
X154290362Y-84212008D01*
X154076008Y-84426362D01*
X154056318Y-84473898D01*
X152752186Y-83169766D01*
X152915875Y-83006078D01*
X152954362Y-82980362D01*
X152986009Y-82933000D01*
X153024336Y-82875638D01*
X153056252Y-82827873D01*
X153083000Y-82693402D01*
X153083000Y-82693398D01*
X153092030Y-82648001D01*
X153083000Y-82602604D01*
X153083000Y-81981383D01*
X153284500Y-82021464D01*
X153859500Y-82021464D01*
X154099046Y-81973815D01*
X154217944Y-81894370D01*
X154258673Y-81992699D01*
X154437302Y-82171327D01*
X154670691Y-82268000D01*
X155036250Y-82268000D01*
X155195000Y-82109250D01*
X155195000Y-81285000D01*
X155175000Y-81285000D01*
X155175000Y-81031000D01*
X155195000Y-81031000D01*
X155195000Y-79385000D01*
X154370750Y-79385000D01*
X154272000Y-79483750D01*
X154173250Y-79385000D01*
X153299000Y-79385000D01*
X153299000Y-79405000D01*
X153045000Y-79405000D01*
X153045000Y-79385000D01*
X153025000Y-79385000D01*
X153025000Y-79131000D01*
X153045000Y-79131000D01*
X153045000Y-78306750D01*
X152886250Y-78148000D01*
X152520691Y-78148000D01*
X152287302Y-78244673D01*
X152108673Y-78423301D01*
X152067944Y-78521630D01*
X152033402Y-78498550D01*
X152811953Y-77720000D01*
X153073571Y-77720000D01*
X153353638Y-77603992D01*
X153441183Y-77516447D01*
X153686792Y-77618182D01*
X153989934Y-77618182D01*
X154270001Y-77502174D01*
X154458536Y-77313639D01*
X154458536Y-77795500D01*
X154458536Y-77795500D01*
G37*
X154458536Y-77795500D02*
X154506185Y-78035046D01*
X154585630Y-78153944D01*
X154487301Y-78194673D01*
X154308673Y-78373302D01*
X154261645Y-78486838D01*
X154235327Y-78423301D01*
X154056698Y-78244673D01*
X153823309Y-78148000D01*
X153457750Y-78148000D01*
X153299000Y-78306750D01*
X153299000Y-79131000D01*
X154173250Y-79131000D01*
X154272000Y-79032250D01*
X154370750Y-79131000D01*
X155195000Y-79131000D01*
X155195000Y-79111000D01*
X155449000Y-79111000D01*
X155449000Y-79131000D01*
X155469000Y-79131000D01*
X155469000Y-79385000D01*
X155449000Y-79385000D01*
X155449000Y-81031000D01*
X155469000Y-81031000D01*
X155469000Y-81285000D01*
X155449000Y-81285000D01*
X155449000Y-82109250D01*
X155607750Y-82268000D01*
X155973309Y-82268000D01*
X156161001Y-82190255D01*
X156161001Y-82819994D01*
X156142127Y-82823748D01*
X155989638Y-82925638D01*
X155963920Y-82964128D01*
X154832048Y-84096000D01*
X154570429Y-84096000D01*
X154290362Y-84212008D01*
X154076008Y-84426362D01*
X154056318Y-84473898D01*
X152752186Y-83169766D01*
X152915875Y-83006078D01*
X152954362Y-82980362D01*
X152986009Y-82933000D01*
X153024336Y-82875638D01*
X153056252Y-82827873D01*
X153083000Y-82693402D01*
X153083000Y-82693398D01*
X153092030Y-82648001D01*
X153083000Y-82602604D01*
X153083000Y-81981383D01*
X153284500Y-82021464D01*
X153859500Y-82021464D01*
X154099046Y-81973815D01*
X154217944Y-81894370D01*
X154258673Y-81992699D01*
X154437302Y-82171327D01*
X154670691Y-82268000D01*
X155036250Y-82268000D01*
X155195000Y-82109250D01*
X155195000Y-81285000D01*
X155175000Y-81285000D01*
X155175000Y-81031000D01*
X155195000Y-81031000D01*
X155195000Y-79385000D01*
X154370750Y-79385000D01*
X154272000Y-79483750D01*
X154173250Y-79385000D01*
X153299000Y-79385000D01*
X153299000Y-79405000D01*
X153045000Y-79405000D01*
X153045000Y-79385000D01*
X153025000Y-79385000D01*
X153025000Y-79131000D01*
X153045000Y-79131000D01*
X153045000Y-78306750D01*
X152886250Y-78148000D01*
X152520691Y-78148000D01*
X152287302Y-78244673D01*
X152108673Y-78423301D01*
X152067944Y-78521630D01*
X152033402Y-78498550D01*
X152811953Y-77720000D01*
X153073571Y-77720000D01*
X153353638Y-77603992D01*
X153441183Y-77516447D01*
X153686792Y-77618182D01*
X153989934Y-77618182D01*
X154270001Y-77502174D01*
X154458536Y-77313639D01*
X154458536Y-77795500D01*
G36*
X150315750Y-82181000D02*
X151195000Y-82181000D01*
X151195000Y-82161000D01*
X151449000Y-82161000D01*
X151449000Y-82181000D01*
X151469000Y-82181000D01*
X151469000Y-82435000D01*
X151449000Y-82435000D01*
X151449000Y-82455000D01*
X151195000Y-82455000D01*
X151195000Y-82435000D01*
X150315750Y-82435000D01*
X150157000Y-82593750D01*
X150157000Y-82759310D01*
X150253673Y-82992699D01*
X150403536Y-83142561D01*
X150403536Y-83583000D01*
X150433106Y-83731659D01*
X150488223Y-83814147D01*
X150405370Y-83897000D01*
X149867848Y-83897000D01*
X149926686Y-83857686D01*
X150010894Y-83731659D01*
X150040464Y-83583000D01*
X150040464Y-82933000D01*
X150010894Y-82784341D01*
X149926686Y-82658314D01*
X149847529Y-82605423D01*
X150185876Y-82267077D01*
X150224363Y-82241361D01*
X150250081Y-82202872D01*
X150285145Y-82150395D01*
X150315750Y-82181000D01*
X150315750Y-82181000D01*
G37*
X150315750Y-82181000D02*
X151195000Y-82181000D01*
X151195000Y-82161000D01*
X151449000Y-82161000D01*
X151449000Y-82181000D01*
X151469000Y-82181000D01*
X151469000Y-82435000D01*
X151449000Y-82435000D01*
X151449000Y-82455000D01*
X151195000Y-82455000D01*
X151195000Y-82435000D01*
X150315750Y-82435000D01*
X150157000Y-82593750D01*
X150157000Y-82759310D01*
X150253673Y-82992699D01*
X150403536Y-83142561D01*
X150403536Y-83583000D01*
X150433106Y-83731659D01*
X150488223Y-83814147D01*
X150405370Y-83897000D01*
X149867848Y-83897000D01*
X149926686Y-83857686D01*
X150010894Y-83731659D01*
X150040464Y-83583000D01*
X150040464Y-82933000D01*
X150010894Y-82784341D01*
X149926686Y-82658314D01*
X149847529Y-82605423D01*
X150185876Y-82267077D01*
X150224363Y-82241361D01*
X150250081Y-82202872D01*
X150285145Y-82150395D01*
X150315750Y-82181000D01*
G36*
X150403536Y-81033000D02*
X150403536Y-81473439D01*
X150353001Y-81523974D01*
X150353001Y-80978951D01*
X150429504Y-80902448D01*
X150403536Y-81033000D01*
X150403536Y-81033000D01*
G37*
X150403536Y-81033000D02*
X150403536Y-81473439D01*
X150353001Y-81523974D01*
X150353001Y-80978951D01*
X150429504Y-80902448D01*
X150403536Y-81033000D01*
G36*
X152061294Y-76166754D02*
X151732048Y-76496000D01*
X151470429Y-76496000D01*
X151190362Y-76612008D01*
X150976008Y-76826362D01*
X150860000Y-77106429D01*
X150860000Y-77409571D01*
X150976008Y-77689638D01*
X151190362Y-77903992D01*
X151284898Y-77943150D01*
X151128127Y-78099921D01*
X151089639Y-78125638D01*
X151063922Y-78164126D01*
X151063920Y-78164128D01*
X150987749Y-78278127D01*
X150957594Y-78429725D01*
X150894954Y-78442185D01*
X150691877Y-78577877D01*
X150556185Y-78780954D01*
X150508536Y-79020500D01*
X150508536Y-79495500D01*
X150512520Y-79515527D01*
X149598127Y-80429920D01*
X149559640Y-80455637D01*
X149533923Y-80494125D01*
X149533921Y-80494127D01*
X149457750Y-80608126D01*
X149450508Y-80644536D01*
X148592000Y-80644536D01*
X148443341Y-80674106D01*
X148317314Y-80758314D01*
X148233106Y-80884341D01*
X148203536Y-81033000D01*
X148203536Y-81049182D01*
X148099212Y-80979475D01*
X147951032Y-80950000D01*
X147951028Y-80950000D01*
X147901000Y-80940049D01*
X147850972Y-80950000D01*
X147441604Y-80950000D01*
X147437815Y-80930954D01*
X147302123Y-80727877D01*
X147099046Y-80592185D01*
X146859500Y-80544536D01*
X146426957Y-80544536D01*
X145903885Y-80021464D01*
X146259500Y-80021464D01*
X146499046Y-79973815D01*
X146702123Y-79838123D01*
X146837815Y-79635046D01*
X146850952Y-79569000D01*
X147133536Y-79569000D01*
X147133536Y-79733001D01*
X147182136Y-79977330D01*
X147320537Y-80184463D01*
X147527670Y-80322864D01*
X147771999Y-80371464D01*
X148672001Y-80371464D01*
X148916330Y-80322864D01*
X149123463Y-80184463D01*
X149261864Y-79977330D01*
X149310464Y-79733001D01*
X149310464Y-79082999D01*
X149261864Y-78838670D01*
X149123463Y-78631537D01*
X149028373Y-78568000D01*
X149048310Y-78568000D01*
X149281699Y-78471327D01*
X149460327Y-78292698D01*
X149557000Y-78059309D01*
X149557000Y-77643750D01*
X149398250Y-77485000D01*
X148349000Y-77485000D01*
X148349000Y-77505000D01*
X148095000Y-77505000D01*
X148095000Y-77485000D01*
X147045750Y-77485000D01*
X146887000Y-77643750D01*
X146887000Y-78059309D01*
X146983673Y-78292698D01*
X147162301Y-78471327D01*
X147395690Y-78568000D01*
X147415627Y-78568000D01*
X147320537Y-78631537D01*
X147310205Y-78647000D01*
X146850952Y-78647000D01*
X146837815Y-78580954D01*
X146702123Y-78377877D01*
X146499046Y-78242185D01*
X146452870Y-78233000D01*
X146499046Y-78223815D01*
X146702123Y-78088123D01*
X146837815Y-77885046D01*
X146885464Y-77645500D01*
X146885464Y-77070500D01*
X146837815Y-76830954D01*
X146702123Y-76627877D01*
X146701000Y-76627127D01*
X146701000Y-76343327D01*
X146883691Y-76419000D01*
X146987975Y-76419000D01*
X146983673Y-76423302D01*
X146887000Y-76656691D01*
X146887000Y-77072250D01*
X147045750Y-77231000D01*
X148095000Y-77231000D01*
X148095000Y-77211000D01*
X148349000Y-77211000D01*
X148349000Y-77231000D01*
X149398250Y-77231000D01*
X149557000Y-77072250D01*
X149557000Y-76656691D01*
X149460327Y-76423302D01*
X149281699Y-76244673D01*
X149107371Y-76172464D01*
X149280000Y-76172464D01*
X149415000Y-76145611D01*
X149550000Y-76172464D01*
X150550000Y-76172464D01*
X150685000Y-76145611D01*
X150820000Y-76172464D01*
X151820000Y-76172464D01*
X151955000Y-76145611D01*
X152061294Y-76166754D01*
X152061294Y-76166754D01*
G37*
X152061294Y-76166754D02*
X151732048Y-76496000D01*
X151470429Y-76496000D01*
X151190362Y-76612008D01*
X150976008Y-76826362D01*
X150860000Y-77106429D01*
X150860000Y-77409571D01*
X150976008Y-77689638D01*
X151190362Y-77903992D01*
X151284898Y-77943150D01*
X151128127Y-78099921D01*
X151089639Y-78125638D01*
X151063922Y-78164126D01*
X151063920Y-78164128D01*
X150987749Y-78278127D01*
X150957594Y-78429725D01*
X150894954Y-78442185D01*
X150691877Y-78577877D01*
X150556185Y-78780954D01*
X150508536Y-79020500D01*
X150508536Y-79495500D01*
X150512520Y-79515527D01*
X149598127Y-80429920D01*
X149559640Y-80455637D01*
X149533923Y-80494125D01*
X149533921Y-80494127D01*
X149457750Y-80608126D01*
X149450508Y-80644536D01*
X148592000Y-80644536D01*
X148443341Y-80674106D01*
X148317314Y-80758314D01*
X148233106Y-80884341D01*
X148203536Y-81033000D01*
X148203536Y-81049182D01*
X148099212Y-80979475D01*
X147951032Y-80950000D01*
X147951028Y-80950000D01*
X147901000Y-80940049D01*
X147850972Y-80950000D01*
X147441604Y-80950000D01*
X147437815Y-80930954D01*
X147302123Y-80727877D01*
X147099046Y-80592185D01*
X146859500Y-80544536D01*
X146426957Y-80544536D01*
X145903885Y-80021464D01*
X146259500Y-80021464D01*
X146499046Y-79973815D01*
X146702123Y-79838123D01*
X146837815Y-79635046D01*
X146850952Y-79569000D01*
X147133536Y-79569000D01*
X147133536Y-79733001D01*
X147182136Y-79977330D01*
X147320537Y-80184463D01*
X147527670Y-80322864D01*
X147771999Y-80371464D01*
X148672001Y-80371464D01*
X148916330Y-80322864D01*
X149123463Y-80184463D01*
X149261864Y-79977330D01*
X149310464Y-79733001D01*
X149310464Y-79082999D01*
X149261864Y-78838670D01*
X149123463Y-78631537D01*
X149028373Y-78568000D01*
X149048310Y-78568000D01*
X149281699Y-78471327D01*
X149460327Y-78292698D01*
X149557000Y-78059309D01*
X149557000Y-77643750D01*
X149398250Y-77485000D01*
X148349000Y-77485000D01*
X148349000Y-77505000D01*
X148095000Y-77505000D01*
X148095000Y-77485000D01*
X147045750Y-77485000D01*
X146887000Y-77643750D01*
X146887000Y-78059309D01*
X146983673Y-78292698D01*
X147162301Y-78471327D01*
X147395690Y-78568000D01*
X147415627Y-78568000D01*
X147320537Y-78631537D01*
X147310205Y-78647000D01*
X146850952Y-78647000D01*
X146837815Y-78580954D01*
X146702123Y-78377877D01*
X146499046Y-78242185D01*
X146452870Y-78233000D01*
X146499046Y-78223815D01*
X146702123Y-78088123D01*
X146837815Y-77885046D01*
X146885464Y-77645500D01*
X146885464Y-77070500D01*
X146837815Y-76830954D01*
X146702123Y-76627877D01*
X146701000Y-76627127D01*
X146701000Y-76343327D01*
X146883691Y-76419000D01*
X146987975Y-76419000D01*
X146983673Y-76423302D01*
X146887000Y-76656691D01*
X146887000Y-77072250D01*
X147045750Y-77231000D01*
X148095000Y-77231000D01*
X148095000Y-77211000D01*
X148349000Y-77211000D01*
X148349000Y-77231000D01*
X149398250Y-77231000D01*
X149557000Y-77072250D01*
X149557000Y-76656691D01*
X149460327Y-76423302D01*
X149281699Y-76244673D01*
X149107371Y-76172464D01*
X149280000Y-76172464D01*
X149415000Y-76145611D01*
X149550000Y-76172464D01*
X150550000Y-76172464D01*
X150685000Y-76145611D01*
X150820000Y-76172464D01*
X151820000Y-76172464D01*
X151955000Y-76145611D01*
X152061294Y-76166754D01*
G36*
X152108673Y-80092699D02*
X152287302Y-80271327D01*
X152520691Y-80368000D01*
X152886250Y-80368000D01*
X153044998Y-80209252D01*
X153044998Y-80342176D01*
X153044954Y-80342185D01*
X152841877Y-80477877D01*
X152706185Y-80680954D01*
X152672559Y-80850000D01*
X152187948Y-80850000D01*
X152126686Y-80758314D01*
X152000659Y-80674106D01*
X151852000Y-80644536D01*
X150792000Y-80644536D01*
X150661448Y-80670504D01*
X151210489Y-80121464D01*
X151709500Y-80121464D01*
X151949046Y-80073815D01*
X152067944Y-79994370D01*
X152108673Y-80092699D01*
X152108673Y-80092699D01*
G37*
X152108673Y-80092699D02*
X152287302Y-80271327D01*
X152520691Y-80368000D01*
X152886250Y-80368000D01*
X153044998Y-80209252D01*
X153044998Y-80342176D01*
X153044954Y-80342185D01*
X152841877Y-80477877D01*
X152706185Y-80680954D01*
X152672559Y-80850000D01*
X152187948Y-80850000D01*
X152126686Y-80758314D01*
X152000659Y-80674106D01*
X151852000Y-80644536D01*
X150792000Y-80644536D01*
X150661448Y-80670504D01*
X151210489Y-80121464D01*
X151709500Y-80121464D01*
X151949046Y-80073815D01*
X152067944Y-79994370D01*
X152108673Y-80092699D01*
G36*
X142551106Y-68455341D02*
X142521536Y-68604000D01*
X142521536Y-69604000D01*
X142548389Y-69739000D01*
X142521536Y-69874000D01*
X142521536Y-70874000D01*
X142548389Y-71009000D01*
X142521536Y-71144000D01*
X142521536Y-72144000D01*
X142548389Y-72279000D01*
X142521536Y-72414000D01*
X142521536Y-73414000D01*
X142548389Y-73549000D01*
X142521536Y-73684000D01*
X142521536Y-74050000D01*
X142017132Y-74050000D01*
X141902123Y-73877877D01*
X141699046Y-73742185D01*
X141680000Y-73738396D01*
X141680000Y-73577604D01*
X141699046Y-73573815D01*
X141902123Y-73438123D01*
X142037815Y-73235046D01*
X142085464Y-72995500D01*
X142085464Y-72520500D01*
X142037815Y-72280954D01*
X141902123Y-72077877D01*
X141699046Y-71942185D01*
X141459500Y-71894536D01*
X140884500Y-71894536D01*
X140644954Y-71942185D01*
X140526056Y-72021630D01*
X140485327Y-71923301D01*
X140306698Y-71744673D01*
X140073309Y-71648000D01*
X139707750Y-71648000D01*
X139549000Y-71806750D01*
X139549000Y-72631000D01*
X139569000Y-72631000D01*
X139569000Y-72885000D01*
X139549000Y-72885000D01*
X139549000Y-74431000D01*
X139569000Y-74431000D01*
X139569000Y-74685000D01*
X139549000Y-74685000D01*
X139549000Y-74705000D01*
X139295000Y-74705000D01*
X139295000Y-74685000D01*
X139275000Y-74685000D01*
X139275000Y-74431000D01*
X139295000Y-74431000D01*
X139295000Y-72885000D01*
X139275000Y-72885000D01*
X139275000Y-72631000D01*
X139295000Y-72631000D01*
X139295000Y-71806750D01*
X139136250Y-71648000D01*
X138770691Y-71648000D01*
X138537302Y-71744673D01*
X138393700Y-71888274D01*
X138393700Y-68393700D01*
X142592293Y-68393700D01*
X142551106Y-68455341D01*
X142551106Y-68455341D01*
G37*
X142551106Y-68455341D02*
X142521536Y-68604000D01*
X142521536Y-69604000D01*
X142548389Y-69739000D01*
X142521536Y-69874000D01*
X142521536Y-70874000D01*
X142548389Y-71009000D01*
X142521536Y-71144000D01*
X142521536Y-72144000D01*
X142548389Y-72279000D01*
X142521536Y-72414000D01*
X142521536Y-73414000D01*
X142548389Y-73549000D01*
X142521536Y-73684000D01*
X142521536Y-74050000D01*
X142017132Y-74050000D01*
X141902123Y-73877877D01*
X141699046Y-73742185D01*
X141680000Y-73738396D01*
X141680000Y-73577604D01*
X141699046Y-73573815D01*
X141902123Y-73438123D01*
X142037815Y-73235046D01*
X142085464Y-72995500D01*
X142085464Y-72520500D01*
X142037815Y-72280954D01*
X141902123Y-72077877D01*
X141699046Y-71942185D01*
X141459500Y-71894536D01*
X140884500Y-71894536D01*
X140644954Y-71942185D01*
X140526056Y-72021630D01*
X140485327Y-71923301D01*
X140306698Y-71744673D01*
X140073309Y-71648000D01*
X139707750Y-71648000D01*
X139549000Y-71806750D01*
X139549000Y-72631000D01*
X139569000Y-72631000D01*
X139569000Y-72885000D01*
X139549000Y-72885000D01*
X139549000Y-74431000D01*
X139569000Y-74431000D01*
X139569000Y-74685000D01*
X139549000Y-74685000D01*
X139549000Y-74705000D01*
X139295000Y-74705000D01*
X139295000Y-74685000D01*
X139275000Y-74685000D01*
X139275000Y-74431000D01*
X139295000Y-74431000D01*
X139295000Y-72885000D01*
X139275000Y-72885000D01*
X139275000Y-72631000D01*
X139295000Y-72631000D01*
X139295000Y-71806750D01*
X139136250Y-71648000D01*
X138770691Y-71648000D01*
X138537302Y-71744673D01*
X138393700Y-71888274D01*
X138393700Y-68393700D01*
X142592293Y-68393700D01*
X142551106Y-68455341D01*
G36*
X160547000Y-72034250D02*
X160705750Y-72193000D01*
X160723309Y-72193000D01*
X160762000Y-72176974D01*
X160762000Y-72184310D01*
X160771813Y-72208000D01*
X160762000Y-72231690D01*
X160762000Y-72249250D01*
X160807920Y-72295170D01*
X160858673Y-72417699D01*
X160910510Y-72469536D01*
X160897000Y-72469536D01*
X160748341Y-72499106D01*
X160747000Y-72500002D01*
X160745659Y-72499106D01*
X160597000Y-72469536D01*
X160397000Y-72469536D01*
X160248341Y-72499106D01*
X160247000Y-72500002D01*
X160245659Y-72499106D01*
X160097000Y-72469536D01*
X159985464Y-72469536D01*
X159985464Y-72358000D01*
X159955894Y-72209341D01*
X159954998Y-72208000D01*
X159955894Y-72206659D01*
X159985464Y-72058000D01*
X159985464Y-72044489D01*
X160037302Y-72096327D01*
X160159830Y-72147080D01*
X160205750Y-72193000D01*
X160223309Y-72193000D01*
X160247000Y-72183187D01*
X160270691Y-72193000D01*
X160288250Y-72193000D01*
X160334170Y-72147080D01*
X160456698Y-72096327D01*
X160547000Y-72006026D01*
X160547000Y-72034250D01*
X160547000Y-72034250D01*
G37*
X160547000Y-72034250D02*
X160705750Y-72193000D01*
X160723309Y-72193000D01*
X160762000Y-72176974D01*
X160762000Y-72184310D01*
X160771813Y-72208000D01*
X160762000Y-72231690D01*
X160762000Y-72249250D01*
X160807920Y-72295170D01*
X160858673Y-72417699D01*
X160910510Y-72469536D01*
X160897000Y-72469536D01*
X160748341Y-72499106D01*
X160747000Y-72500002D01*
X160745659Y-72499106D01*
X160597000Y-72469536D01*
X160397000Y-72469536D01*
X160248341Y-72499106D01*
X160247000Y-72500002D01*
X160245659Y-72499106D01*
X160097000Y-72469536D01*
X159985464Y-72469536D01*
X159985464Y-72358000D01*
X159955894Y-72209341D01*
X159954998Y-72208000D01*
X159955894Y-72206659D01*
X159985464Y-72058000D01*
X159985464Y-72044489D01*
X160037302Y-72096327D01*
X160159830Y-72147080D01*
X160205750Y-72193000D01*
X160223309Y-72193000D01*
X160247000Y-72183187D01*
X160270691Y-72193000D01*
X160288250Y-72193000D01*
X160334170Y-72147080D01*
X160456698Y-72096327D01*
X160547000Y-72006026D01*
X160547000Y-72034250D01*
G36*
X159699000Y-67531000D02*
X159719000Y-67531000D01*
X159719000Y-67785000D01*
X159699000Y-67785000D01*
X159699000Y-69231000D01*
X159719000Y-69231000D01*
X159719000Y-69485000D01*
X159699000Y-69485000D01*
X159699000Y-70309250D01*
X159857750Y-70468000D01*
X160223309Y-70468000D01*
X160456698Y-70371327D01*
X160635327Y-70192699D01*
X160676056Y-70094370D01*
X160794954Y-70173815D01*
X160814000Y-70177604D01*
X160814001Y-70510566D01*
X160723309Y-70473000D01*
X160705750Y-70473000D01*
X160547000Y-70631750D01*
X160547000Y-70659974D01*
X160456698Y-70569673D01*
X160334170Y-70518920D01*
X160288250Y-70473000D01*
X160270691Y-70473000D01*
X160247000Y-70482813D01*
X160223309Y-70473000D01*
X160205750Y-70473000D01*
X160159830Y-70518920D01*
X160037302Y-70569673D01*
X159947000Y-70659974D01*
X159947000Y-70631750D01*
X159788250Y-70473000D01*
X159770691Y-70473000D01*
X159537302Y-70569673D01*
X159466464Y-70640511D01*
X159290101Y-70464149D01*
X159445000Y-70309250D01*
X159445000Y-69485000D01*
X158735185Y-69485000D01*
X158628685Y-69440886D01*
X158325543Y-69440886D01*
X158045476Y-69556894D01*
X157998464Y-69603906D01*
X157998464Y-68648769D01*
X158170429Y-68720000D01*
X158427198Y-68720000D01*
X158412000Y-68756690D01*
X158412000Y-69072250D01*
X158570750Y-69231000D01*
X159445000Y-69231000D01*
X159445000Y-67785000D01*
X159425000Y-67785000D01*
X159425000Y-67531000D01*
X159445000Y-67531000D01*
X159445000Y-67511000D01*
X159699000Y-67511000D01*
X159699000Y-67531000D01*
X159699000Y-67531000D01*
G37*
X159699000Y-67531000D02*
X159719000Y-67531000D01*
X159719000Y-67785000D01*
X159699000Y-67785000D01*
X159699000Y-69231000D01*
X159719000Y-69231000D01*
X159719000Y-69485000D01*
X159699000Y-69485000D01*
X159699000Y-70309250D01*
X159857750Y-70468000D01*
X160223309Y-70468000D01*
X160456698Y-70371327D01*
X160635327Y-70192699D01*
X160676056Y-70094370D01*
X160794954Y-70173815D01*
X160814000Y-70177604D01*
X160814001Y-70510566D01*
X160723309Y-70473000D01*
X160705750Y-70473000D01*
X160547000Y-70631750D01*
X160547000Y-70659974D01*
X160456698Y-70569673D01*
X160334170Y-70518920D01*
X160288250Y-70473000D01*
X160270691Y-70473000D01*
X160247000Y-70482813D01*
X160223309Y-70473000D01*
X160205750Y-70473000D01*
X160159830Y-70518920D01*
X160037302Y-70569673D01*
X159947000Y-70659974D01*
X159947000Y-70631750D01*
X159788250Y-70473000D01*
X159770691Y-70473000D01*
X159537302Y-70569673D01*
X159466464Y-70640511D01*
X159290101Y-70464149D01*
X159445000Y-70309250D01*
X159445000Y-69485000D01*
X158735185Y-69485000D01*
X158628685Y-69440886D01*
X158325543Y-69440886D01*
X158045476Y-69556894D01*
X157998464Y-69603906D01*
X157998464Y-68648769D01*
X158170429Y-68720000D01*
X158427198Y-68720000D01*
X158412000Y-68756690D01*
X158412000Y-69072250D01*
X158570750Y-69231000D01*
X159445000Y-69231000D01*
X159445000Y-67785000D01*
X159425000Y-67785000D01*
X159425000Y-67531000D01*
X159445000Y-67531000D01*
X159445000Y-67511000D01*
X159699000Y-67511000D01*
X159699000Y-67531000D01*
G04 #@! TD*
M02*
