%FSLAX45Y45*%
G04 Gerber Fmt 4.5, Leading zero omitted, Abs format (unit mm)*
G04 Created by KiCad (PCBNEW (5.0.2)-1) date 6/13/2019 12:33:02 PM*
%MOMM*%
%LPD*%
G01*
G04 APERTURE LIST*
%ADD10C,0.025400*%
%ADD11C,0.200000*%
%ADD12C,0.300000*%
G04 APERTURE END LIST*
D10*
X16107200Y-9425800D02*
G75*
G03X16107200Y-9425800I-125000J0D01*
G01*
X14171200Y-7045800D02*
G75*
G03X14171200Y-7045800I-125000J0D01*
G01*
X15550000Y-6650000D02*
X15550000Y-6800000D01*
X13800000Y-6800000D02*
X15550000Y-6800000D01*
X15550000Y-6650000D02*
X16300000Y-6650000D01*
X13800000Y-9700000D02*
X13800000Y-6800000D01*
X16300000Y-9700000D02*
X13800000Y-9700000D01*
X16300000Y-6650000D02*
X16300000Y-9700000D01*
D11*
X13923150Y-8566750D02*
X13961250Y-8604850D01*
X13961250Y-8566750D02*
X13923150Y-8604850D01*
X14193150Y-9436750D02*
X14231250Y-9474850D01*
X14231250Y-9436750D02*
X14193150Y-9474850D01*
X14213150Y-8286750D02*
X14251250Y-8324850D01*
X14251250Y-8286750D02*
X14213150Y-8324850D01*
X14233150Y-7706750D02*
X14271250Y-7744850D01*
X14271250Y-7706750D02*
X14233150Y-7744850D01*
X14233150Y-9096750D02*
X14271250Y-9134850D01*
X14271250Y-9096750D02*
X14233150Y-9134850D01*
X14373150Y-7906750D02*
X14411250Y-7944850D01*
X14411250Y-7906750D02*
X14373150Y-7944850D01*
X14443150Y-7976750D02*
X14481250Y-8014850D01*
X14481250Y-7976750D02*
X14443150Y-8014850D01*
X14603150Y-9416750D02*
X14641250Y-9454850D01*
X14641250Y-9416750D02*
X14603150Y-9454850D01*
X14613150Y-8286750D02*
X14651250Y-8324850D01*
X14651250Y-8286750D02*
X14613150Y-8324850D01*
X14773150Y-9056750D02*
X14811250Y-9094850D01*
X14811250Y-9056750D02*
X14773150Y-9094850D01*
X15143150Y-8676750D02*
X15181250Y-8714850D01*
X15181250Y-8676750D02*
X15143150Y-8714850D01*
X15213150Y-7716750D02*
X15251250Y-7754850D01*
X15251250Y-7716750D02*
X15213150Y-7754850D01*
X15263150Y-8776750D02*
X15301250Y-8814850D01*
X15301250Y-8776750D02*
X15263150Y-8814850D01*
X15323150Y-7686750D02*
X15361250Y-7724850D01*
X15361250Y-7686750D02*
X15323150Y-7724850D01*
X15373150Y-7286750D02*
X15411250Y-7324850D01*
X15411250Y-7286750D02*
X15373150Y-7324850D01*
X15453150Y-7716750D02*
X15491250Y-7754850D01*
X15491250Y-7716750D02*
X15453150Y-7754850D01*
X15463150Y-8196750D02*
X15501250Y-8234850D01*
X15501250Y-8196750D02*
X15463150Y-8234850D01*
X15463150Y-9386750D02*
X15501250Y-9424850D01*
X15501250Y-9386750D02*
X15463150Y-9424850D01*
X15683150Y-7986750D02*
X15721250Y-8024850D01*
X15721250Y-7986750D02*
X15683150Y-8024850D01*
X15743150Y-7666750D02*
X15781250Y-7704850D01*
X15781250Y-7666750D02*
X15743150Y-7704850D01*
X15874461Y-7798061D02*
X15912561Y-7836161D01*
X15912561Y-7798061D02*
X15874461Y-7836161D01*
X15901050Y-7296750D02*
X15939150Y-7334850D01*
X15939150Y-7296750D02*
X15901050Y-7334850D01*
X15953150Y-7566750D02*
X15991250Y-7604850D01*
X15991250Y-7566750D02*
X15953150Y-7604850D01*
X15963150Y-7756750D02*
X16001250Y-7794850D01*
X16001250Y-7756750D02*
X15963150Y-7794850D01*
X16013150Y-8756750D02*
X16051250Y-8794850D01*
X16051250Y-8756750D02*
X16013150Y-8794850D01*
X16025250Y-7236750D02*
X16063350Y-7274850D01*
X16063350Y-7236750D02*
X16025250Y-7274850D01*
X16103150Y-7056750D02*
X16141250Y-7094850D01*
X16141250Y-7056750D02*
X16103150Y-7094850D01*
X14022200Y-8915800D02*
G75*
G03X14022200Y-8915800I-40000J0D01*
G01*
X14022200Y-9115800D02*
G75*
G03X14022200Y-9115800I-40000J0D01*
G01*
X14022200Y-9315800D02*
G75*
G03X14022200Y-9315800I-40000J0D01*
G01*
X14022200Y-9515800D02*
G75*
G03X14022200Y-9515800I-40000J0D01*
G01*
D12*
X14085158Y-10166984D02*
X14085158Y-9866984D01*
X14156587Y-9866984D01*
X14199444Y-9881270D01*
X14228016Y-9909842D01*
X14242301Y-9938413D01*
X14256587Y-9995556D01*
X14256587Y-10038413D01*
X14242301Y-10095556D01*
X14228016Y-10124127D01*
X14199444Y-10152699D01*
X14156587Y-10166984D01*
X14085158Y-10166984D01*
X14385158Y-10166984D02*
X14385158Y-9966984D01*
X14385158Y-10024127D02*
X14399444Y-9995556D01*
X14413730Y-9981270D01*
X14442301Y-9966984D01*
X14470873Y-9966984D01*
X14570873Y-10166984D02*
X14570873Y-9966984D01*
X14570873Y-9866984D02*
X14556587Y-9881270D01*
X14570873Y-9895556D01*
X14585158Y-9881270D01*
X14570873Y-9866984D01*
X14570873Y-9895556D01*
X14756587Y-10166984D02*
X14728016Y-10152699D01*
X14713730Y-10124127D01*
X14713730Y-9866984D01*
X14913730Y-10166984D02*
X14885158Y-10152699D01*
X14870873Y-10124127D01*
X14870873Y-9866984D01*
X15256587Y-10166984D02*
X15256587Y-9866984D01*
X15356587Y-10081270D01*
X15456587Y-9866984D01*
X15456587Y-10166984D01*
X15728016Y-10166984D02*
X15728016Y-10009842D01*
X15713730Y-9981270D01*
X15685158Y-9966984D01*
X15628016Y-9966984D01*
X15599444Y-9981270D01*
X15728016Y-10152699D02*
X15699444Y-10166984D01*
X15628016Y-10166984D01*
X15599444Y-10152699D01*
X15585158Y-10124127D01*
X15585158Y-10095556D01*
X15599444Y-10066984D01*
X15628016Y-10052699D01*
X15699444Y-10052699D01*
X15728016Y-10038413D01*
X15870873Y-9966984D02*
X15870873Y-10266984D01*
X15870873Y-9981270D02*
X15899444Y-9966984D01*
X15956587Y-9966984D01*
X15985158Y-9981270D01*
X15999444Y-9995556D01*
X16013730Y-10024127D01*
X16013730Y-10109842D01*
X15999444Y-10138413D01*
X15985158Y-10152699D01*
X15956587Y-10166984D01*
X15899444Y-10166984D01*
X15870873Y-10152699D01*
X16142301Y-10138413D02*
X16156587Y-10152699D01*
X16142301Y-10166984D01*
X16128016Y-10152699D01*
X16142301Y-10138413D01*
X16142301Y-10166984D01*
X16142301Y-9981270D02*
X16156587Y-9995556D01*
X16142301Y-10009842D01*
X16128016Y-9995556D01*
X16142301Y-9981270D01*
X16142301Y-10009842D01*
X13760630Y-10642220D02*
X13798730Y-10680320D01*
X13798730Y-10642220D02*
X13760630Y-10680320D01*
X14142301Y-10496984D02*
X14170873Y-10496984D01*
X14199444Y-10511270D01*
X14213730Y-10525556D01*
X14228016Y-10554127D01*
X14242301Y-10611270D01*
X14242301Y-10682699D01*
X14228016Y-10739842D01*
X14213730Y-10768413D01*
X14199444Y-10782699D01*
X14170873Y-10796984D01*
X14142301Y-10796984D01*
X14113730Y-10782699D01*
X14099444Y-10768413D01*
X14085158Y-10739842D01*
X14070873Y-10682699D01*
X14070873Y-10611270D01*
X14085158Y-10554127D01*
X14099444Y-10525556D01*
X14113730Y-10511270D01*
X14142301Y-10496984D01*
X14370873Y-10768413D02*
X14385158Y-10782699D01*
X14370873Y-10796984D01*
X14356587Y-10782699D01*
X14370873Y-10768413D01*
X14370873Y-10796984D01*
X14485158Y-10496984D02*
X14670873Y-10496984D01*
X14570873Y-10611270D01*
X14613730Y-10611270D01*
X14642301Y-10625556D01*
X14656587Y-10639842D01*
X14670873Y-10668413D01*
X14670873Y-10739842D01*
X14656587Y-10768413D01*
X14642301Y-10782699D01*
X14613730Y-10796984D01*
X14528016Y-10796984D01*
X14499444Y-10782699D01*
X14485158Y-10768413D01*
X14842301Y-10625556D02*
X14813730Y-10611270D01*
X14799444Y-10596984D01*
X14785158Y-10568413D01*
X14785158Y-10554127D01*
X14799444Y-10525556D01*
X14813730Y-10511270D01*
X14842301Y-10496984D01*
X14899444Y-10496984D01*
X14928016Y-10511270D01*
X14942301Y-10525556D01*
X14956587Y-10554127D01*
X14956587Y-10568413D01*
X14942301Y-10596984D01*
X14928016Y-10611270D01*
X14899444Y-10625556D01*
X14842301Y-10625556D01*
X14813730Y-10639842D01*
X14799444Y-10654127D01*
X14785158Y-10682699D01*
X14785158Y-10739842D01*
X14799444Y-10768413D01*
X14813730Y-10782699D01*
X14842301Y-10796984D01*
X14899444Y-10796984D01*
X14928016Y-10782699D01*
X14942301Y-10768413D01*
X14956587Y-10739842D01*
X14956587Y-10682699D01*
X14942301Y-10654127D01*
X14928016Y-10639842D01*
X14899444Y-10625556D01*
X15085158Y-10796984D02*
X15085158Y-10596984D01*
X15085158Y-10625556D02*
X15099444Y-10611270D01*
X15128016Y-10596984D01*
X15170873Y-10596984D01*
X15199444Y-10611270D01*
X15213730Y-10639842D01*
X15213730Y-10796984D01*
X15213730Y-10639842D02*
X15228016Y-10611270D01*
X15256587Y-10596984D01*
X15299444Y-10596984D01*
X15328016Y-10611270D01*
X15342301Y-10639842D01*
X15342301Y-10796984D01*
X15485158Y-10796984D02*
X15485158Y-10596984D01*
X15485158Y-10625556D02*
X15499444Y-10611270D01*
X15528016Y-10596984D01*
X15570873Y-10596984D01*
X15599444Y-10611270D01*
X15613730Y-10639842D01*
X15613730Y-10796984D01*
X15613730Y-10639842D02*
X15628016Y-10611270D01*
X15656587Y-10596984D01*
X15699444Y-10596984D01*
X15728016Y-10611270D01*
X15742301Y-10639842D01*
X15742301Y-10796984D01*
X16328016Y-10482699D02*
X16070873Y-10868413D01*
X16713730Y-10496984D02*
X16742301Y-10496984D01*
X16770873Y-10511270D01*
X16785158Y-10525556D01*
X16799444Y-10554127D01*
X16813730Y-10611270D01*
X16813730Y-10682699D01*
X16799444Y-10739842D01*
X16785158Y-10768413D01*
X16770873Y-10782699D01*
X16742301Y-10796984D01*
X16713730Y-10796984D01*
X16685158Y-10782699D01*
X16670873Y-10768413D01*
X16656587Y-10739842D01*
X16642301Y-10682699D01*
X16642301Y-10611270D01*
X16656587Y-10554127D01*
X16670873Y-10525556D01*
X16685158Y-10511270D01*
X16713730Y-10496984D01*
X16942301Y-10768413D02*
X16956587Y-10782699D01*
X16942301Y-10796984D01*
X16928016Y-10782699D01*
X16942301Y-10768413D01*
X16942301Y-10796984D01*
X17142301Y-10496984D02*
X17170873Y-10496984D01*
X17199444Y-10511270D01*
X17213730Y-10525556D01*
X17228016Y-10554127D01*
X17242301Y-10611270D01*
X17242301Y-10682699D01*
X17228016Y-10739842D01*
X17213730Y-10768413D01*
X17199444Y-10782699D01*
X17170873Y-10796984D01*
X17142301Y-10796984D01*
X17113730Y-10782699D01*
X17099444Y-10768413D01*
X17085158Y-10739842D01*
X17070873Y-10682699D01*
X17070873Y-10611270D01*
X17085158Y-10554127D01*
X17099444Y-10525556D01*
X17113730Y-10511270D01*
X17142301Y-10496984D01*
X17528016Y-10796984D02*
X17356587Y-10796984D01*
X17442301Y-10796984D02*
X17442301Y-10496984D01*
X17413730Y-10539842D01*
X17385158Y-10568413D01*
X17356587Y-10582699D01*
X17799444Y-10496984D02*
X17656587Y-10496984D01*
X17642301Y-10639842D01*
X17656587Y-10625556D01*
X17685158Y-10611270D01*
X17756587Y-10611270D01*
X17785158Y-10625556D01*
X17799444Y-10639842D01*
X17813730Y-10668413D01*
X17813730Y-10739842D01*
X17799444Y-10768413D01*
X17785158Y-10782699D01*
X17756587Y-10796984D01*
X17685158Y-10796984D01*
X17656587Y-10782699D01*
X17642301Y-10768413D01*
X17928016Y-10496984D02*
X17928016Y-10554127D01*
X18042301Y-10496984D02*
X18042301Y-10554127D01*
X18485158Y-10911270D02*
X18470873Y-10896984D01*
X18442301Y-10854127D01*
X18428016Y-10825556D01*
X18413730Y-10782699D01*
X18399444Y-10711270D01*
X18399444Y-10654127D01*
X18413730Y-10582699D01*
X18428016Y-10539842D01*
X18442301Y-10511270D01*
X18470873Y-10468413D01*
X18485158Y-10454127D01*
X18585158Y-10525556D02*
X18599444Y-10511270D01*
X18628016Y-10496984D01*
X18699444Y-10496984D01*
X18728016Y-10511270D01*
X18742301Y-10525556D01*
X18756587Y-10554127D01*
X18756587Y-10582699D01*
X18742301Y-10625556D01*
X18570873Y-10796984D01*
X18756587Y-10796984D01*
X18856587Y-10496984D02*
X19056587Y-10496984D01*
X18928016Y-10796984D01*
X19399444Y-10796984D02*
X19399444Y-10496984D01*
X19528016Y-10796984D02*
X19528016Y-10639842D01*
X19513730Y-10611270D01*
X19485158Y-10596984D01*
X19442301Y-10596984D01*
X19413730Y-10611270D01*
X19399444Y-10625556D01*
X19713730Y-10796984D02*
X19685158Y-10782699D01*
X19670873Y-10768413D01*
X19656587Y-10739842D01*
X19656587Y-10654127D01*
X19670873Y-10625556D01*
X19685158Y-10611270D01*
X19713730Y-10596984D01*
X19756587Y-10596984D01*
X19785158Y-10611270D01*
X19799444Y-10625556D01*
X19813730Y-10654127D01*
X19813730Y-10739842D01*
X19799444Y-10768413D01*
X19785158Y-10782699D01*
X19756587Y-10796984D01*
X19713730Y-10796984D01*
X19985158Y-10796984D02*
X19956587Y-10782699D01*
X19942301Y-10754127D01*
X19942301Y-10496984D01*
X20213730Y-10782699D02*
X20185158Y-10796984D01*
X20128016Y-10796984D01*
X20099444Y-10782699D01*
X20085158Y-10754127D01*
X20085158Y-10639842D01*
X20099444Y-10611270D01*
X20128016Y-10596984D01*
X20185158Y-10596984D01*
X20213730Y-10611270D01*
X20228016Y-10639842D01*
X20228016Y-10668413D01*
X20085158Y-10696984D01*
X20342301Y-10782699D02*
X20370873Y-10796984D01*
X20428016Y-10796984D01*
X20456587Y-10782699D01*
X20470873Y-10754127D01*
X20470873Y-10739842D01*
X20456587Y-10711270D01*
X20428016Y-10696984D01*
X20385158Y-10696984D01*
X20356587Y-10682699D01*
X20342301Y-10654127D01*
X20342301Y-10639842D01*
X20356587Y-10611270D01*
X20385158Y-10596984D01*
X20428016Y-10596984D01*
X20456587Y-10611270D01*
X20570873Y-10911270D02*
X20585158Y-10896984D01*
X20613730Y-10854127D01*
X20628016Y-10825556D01*
X20642301Y-10782699D01*
X20656587Y-10711270D01*
X20656587Y-10654127D01*
X20642301Y-10582699D01*
X20628016Y-10539842D01*
X20613730Y-10511270D01*
X20585158Y-10468413D01*
X20570873Y-10454127D01*
X13798730Y-11057270D02*
G75*
G03X13798730Y-11057270I-40000J0D01*
G01*
X14142301Y-10892984D02*
X14170873Y-10892984D01*
X14199444Y-10907270D01*
X14213730Y-10921556D01*
X14228016Y-10950127D01*
X14242301Y-11007270D01*
X14242301Y-11078699D01*
X14228016Y-11135842D01*
X14213730Y-11164413D01*
X14199444Y-11178699D01*
X14170873Y-11192984D01*
X14142301Y-11192984D01*
X14113730Y-11178699D01*
X14099444Y-11164413D01*
X14085158Y-11135842D01*
X14070873Y-11078699D01*
X14070873Y-11007270D01*
X14085158Y-10950127D01*
X14099444Y-10921556D01*
X14113730Y-10907270D01*
X14142301Y-10892984D01*
X14370873Y-11164413D02*
X14385158Y-11178699D01*
X14370873Y-11192984D01*
X14356587Y-11178699D01*
X14370873Y-11164413D01*
X14370873Y-11192984D01*
X14556587Y-11021556D02*
X14528016Y-11007270D01*
X14513730Y-10992984D01*
X14499444Y-10964413D01*
X14499444Y-10950127D01*
X14513730Y-10921556D01*
X14528016Y-10907270D01*
X14556587Y-10892984D01*
X14613730Y-10892984D01*
X14642301Y-10907270D01*
X14656587Y-10921556D01*
X14670873Y-10950127D01*
X14670873Y-10964413D01*
X14656587Y-10992984D01*
X14642301Y-11007270D01*
X14613730Y-11021556D01*
X14556587Y-11021556D01*
X14528016Y-11035842D01*
X14513730Y-11050127D01*
X14499444Y-11078699D01*
X14499444Y-11135842D01*
X14513730Y-11164413D01*
X14528016Y-11178699D01*
X14556587Y-11192984D01*
X14613730Y-11192984D01*
X14642301Y-11178699D01*
X14656587Y-11164413D01*
X14670873Y-11135842D01*
X14670873Y-11078699D01*
X14656587Y-11050127D01*
X14642301Y-11035842D01*
X14613730Y-11021556D01*
X14856587Y-10892984D02*
X14885158Y-10892984D01*
X14913730Y-10907270D01*
X14928016Y-10921556D01*
X14942301Y-10950127D01*
X14956587Y-11007270D01*
X14956587Y-11078699D01*
X14942301Y-11135842D01*
X14928016Y-11164413D01*
X14913730Y-11178699D01*
X14885158Y-11192984D01*
X14856587Y-11192984D01*
X14828016Y-11178699D01*
X14813730Y-11164413D01*
X14799444Y-11135842D01*
X14785158Y-11078699D01*
X14785158Y-11007270D01*
X14799444Y-10950127D01*
X14813730Y-10921556D01*
X14828016Y-10907270D01*
X14856587Y-10892984D01*
X15085158Y-11192984D02*
X15085158Y-10992984D01*
X15085158Y-11021556D02*
X15099444Y-11007270D01*
X15128016Y-10992984D01*
X15170873Y-10992984D01*
X15199444Y-11007270D01*
X15213730Y-11035842D01*
X15213730Y-11192984D01*
X15213730Y-11035842D02*
X15228016Y-11007270D01*
X15256587Y-10992984D01*
X15299444Y-10992984D01*
X15328016Y-11007270D01*
X15342301Y-11035842D01*
X15342301Y-11192984D01*
X15485158Y-11192984D02*
X15485158Y-10992984D01*
X15485158Y-11021556D02*
X15499444Y-11007270D01*
X15528016Y-10992984D01*
X15570873Y-10992984D01*
X15599444Y-11007270D01*
X15613730Y-11035842D01*
X15613730Y-11192984D01*
X15613730Y-11035842D02*
X15628016Y-11007270D01*
X15656587Y-10992984D01*
X15699444Y-10992984D01*
X15728016Y-11007270D01*
X15742301Y-11035842D01*
X15742301Y-11192984D01*
X16328016Y-10878699D02*
X16070873Y-11264413D01*
X16713730Y-10892984D02*
X16742301Y-10892984D01*
X16770873Y-10907270D01*
X16785158Y-10921556D01*
X16799444Y-10950127D01*
X16813730Y-11007270D01*
X16813730Y-11078699D01*
X16799444Y-11135842D01*
X16785158Y-11164413D01*
X16770873Y-11178699D01*
X16742301Y-11192984D01*
X16713730Y-11192984D01*
X16685158Y-11178699D01*
X16670873Y-11164413D01*
X16656587Y-11135842D01*
X16642301Y-11078699D01*
X16642301Y-11007270D01*
X16656587Y-10950127D01*
X16670873Y-10921556D01*
X16685158Y-10907270D01*
X16713730Y-10892984D01*
X16942301Y-11164413D02*
X16956587Y-11178699D01*
X16942301Y-11192984D01*
X16928016Y-11178699D01*
X16942301Y-11164413D01*
X16942301Y-11192984D01*
X17142301Y-10892984D02*
X17170873Y-10892984D01*
X17199444Y-10907270D01*
X17213730Y-10921556D01*
X17228016Y-10950127D01*
X17242301Y-11007270D01*
X17242301Y-11078699D01*
X17228016Y-11135842D01*
X17213730Y-11164413D01*
X17199444Y-11178699D01*
X17170873Y-11192984D01*
X17142301Y-11192984D01*
X17113730Y-11178699D01*
X17099444Y-11164413D01*
X17085158Y-11135842D01*
X17070873Y-11078699D01*
X17070873Y-11007270D01*
X17085158Y-10950127D01*
X17099444Y-10921556D01*
X17113730Y-10907270D01*
X17142301Y-10892984D01*
X17342301Y-10892984D02*
X17528016Y-10892984D01*
X17428016Y-11007270D01*
X17470873Y-11007270D01*
X17499444Y-11021556D01*
X17513730Y-11035842D01*
X17528016Y-11064413D01*
X17528016Y-11135842D01*
X17513730Y-11164413D01*
X17499444Y-11178699D01*
X17470873Y-11192984D01*
X17385158Y-11192984D01*
X17356587Y-11178699D01*
X17342301Y-11164413D01*
X17813730Y-11192984D02*
X17642301Y-11192984D01*
X17728016Y-11192984D02*
X17728016Y-10892984D01*
X17699444Y-10935842D01*
X17670873Y-10964413D01*
X17642301Y-10978699D01*
X17928016Y-10892984D02*
X17928016Y-10950127D01*
X18042301Y-10892984D02*
X18042301Y-10950127D01*
X18485158Y-11307270D02*
X18470873Y-11292984D01*
X18442301Y-11250127D01*
X18428016Y-11221556D01*
X18413730Y-11178699D01*
X18399444Y-11107270D01*
X18399444Y-11050127D01*
X18413730Y-10978699D01*
X18428016Y-10935842D01*
X18442301Y-10907270D01*
X18470873Y-10864413D01*
X18485158Y-10850127D01*
X18728016Y-10992984D02*
X18728016Y-11192984D01*
X18656587Y-10878699D02*
X18585158Y-11092984D01*
X18770873Y-11092984D01*
X19113730Y-11192984D02*
X19113730Y-10892984D01*
X19242301Y-11192984D02*
X19242301Y-11035842D01*
X19228016Y-11007270D01*
X19199444Y-10992984D01*
X19156587Y-10992984D01*
X19128016Y-11007270D01*
X19113730Y-11021556D01*
X19428016Y-11192984D02*
X19399444Y-11178699D01*
X19385158Y-11164413D01*
X19370873Y-11135842D01*
X19370873Y-11050127D01*
X19385158Y-11021556D01*
X19399444Y-11007270D01*
X19428016Y-10992984D01*
X19470873Y-10992984D01*
X19499444Y-11007270D01*
X19513730Y-11021556D01*
X19528016Y-11050127D01*
X19528016Y-11135842D01*
X19513730Y-11164413D01*
X19499444Y-11178699D01*
X19470873Y-11192984D01*
X19428016Y-11192984D01*
X19699444Y-11192984D02*
X19670873Y-11178699D01*
X19656587Y-11150127D01*
X19656587Y-10892984D01*
X19928016Y-11178699D02*
X19899444Y-11192984D01*
X19842301Y-11192984D01*
X19813730Y-11178699D01*
X19799444Y-11150127D01*
X19799444Y-11035842D01*
X19813730Y-11007270D01*
X19842301Y-10992984D01*
X19899444Y-10992984D01*
X19928016Y-11007270D01*
X19942301Y-11035842D01*
X19942301Y-11064413D01*
X19799444Y-11092984D01*
X20056587Y-11178699D02*
X20085158Y-11192984D01*
X20142301Y-11192984D01*
X20170873Y-11178699D01*
X20185158Y-11150127D01*
X20185158Y-11135842D01*
X20170873Y-11107270D01*
X20142301Y-11092984D01*
X20099444Y-11092984D01*
X20070873Y-11078699D01*
X20056587Y-11050127D01*
X20056587Y-11035842D01*
X20070873Y-11007270D01*
X20099444Y-10992984D01*
X20142301Y-10992984D01*
X20170873Y-11007270D01*
X20285158Y-11307270D02*
X20299444Y-11292984D01*
X20328016Y-11250127D01*
X20342301Y-11221556D01*
X20356587Y-11178699D01*
X20370873Y-11107270D01*
X20370873Y-11050127D01*
X20356587Y-10978699D01*
X20342301Y-10935842D01*
X20328016Y-10907270D01*
X20299444Y-10864413D01*
X20285158Y-10850127D01*
M02*
