G04 #@! TF.GenerationSoftware,KiCad,Pcbnew,(5.0.2)-1*
G04 #@! TF.CreationDate,2019-06-13T12:32:46-04:00*
G04 #@! TF.ProjectId,BlueNRG-SPBTLE-1S ACM,426c7565-4e52-4472-9d53-5042544c452d,rev?*
G04 #@! TF.SameCoordinates,Original*
G04 #@! TF.FileFunction,Soldermask,Bot*
G04 #@! TF.FilePolarity,Negative*
%FSLAX46Y46*%
G04 Gerber Fmt 4.6, Leading zero omitted, Abs format (unit mm)*
G04 Created by KiCad (PCBNEW (5.0.2)-1) date 6/13/2019 12:32:46 PM*
%MOMM*%
%LPD*%
G01*
G04 APERTURE LIST*
%ADD10C,0.100000*%
G04 APERTURE END LIST*
D10*
G36*
X139964283Y-94442702D02*
X140101095Y-94484204D01*
X140227184Y-94551599D01*
X140337701Y-94642299D01*
X140428401Y-94752816D01*
X140495796Y-94878905D01*
X140537298Y-95015717D01*
X140551311Y-95158000D01*
X140537298Y-95300283D01*
X140495796Y-95437095D01*
X140428401Y-95563184D01*
X140337701Y-95673701D01*
X140227184Y-95764401D01*
X140101095Y-95831796D01*
X139964283Y-95873298D01*
X139857650Y-95883800D01*
X139786350Y-95883800D01*
X139679717Y-95873298D01*
X139542905Y-95831796D01*
X139416816Y-95764401D01*
X139306299Y-95673701D01*
X139215599Y-95563184D01*
X139148204Y-95437095D01*
X139106702Y-95300283D01*
X139092689Y-95158000D01*
X139106702Y-95015717D01*
X139148204Y-94878905D01*
X139215599Y-94752816D01*
X139306299Y-94642299D01*
X139416816Y-94551599D01*
X139542905Y-94484204D01*
X139679717Y-94442702D01*
X139786350Y-94432200D01*
X139857650Y-94432200D01*
X139964283Y-94442702D01*
X139964283Y-94442702D01*
G37*
G36*
X152944800Y-95584800D02*
X147283200Y-95584800D01*
X147283200Y-92883200D01*
X152944800Y-92883200D01*
X152944800Y-95584800D01*
X152944800Y-95584800D01*
G37*
G36*
X139964283Y-92442702D02*
X140101095Y-92484204D01*
X140227184Y-92551599D01*
X140337701Y-92642299D01*
X140428401Y-92752816D01*
X140495796Y-92878905D01*
X140537298Y-93015717D01*
X140551311Y-93158000D01*
X140537298Y-93300283D01*
X140495796Y-93437095D01*
X140428401Y-93563184D01*
X140337701Y-93673701D01*
X140227184Y-93764401D01*
X140101095Y-93831796D01*
X139964283Y-93873298D01*
X139857650Y-93883800D01*
X139786350Y-93883800D01*
X139679717Y-93873298D01*
X139542905Y-93831796D01*
X139416816Y-93764401D01*
X139306299Y-93673701D01*
X139215599Y-93563184D01*
X139148204Y-93437095D01*
X139106702Y-93300283D01*
X139092689Y-93158000D01*
X139106702Y-93015717D01*
X139148204Y-92878905D01*
X139215599Y-92752816D01*
X139306299Y-92642299D01*
X139416816Y-92551599D01*
X139542905Y-92484204D01*
X139679717Y-92442702D01*
X139786350Y-92432200D01*
X139857650Y-92432200D01*
X139964283Y-92442702D01*
X139964283Y-92442702D01*
G37*
G36*
X139964283Y-90442702D02*
X140101095Y-90484204D01*
X140227184Y-90551599D01*
X140337701Y-90642299D01*
X140428401Y-90752816D01*
X140495796Y-90878905D01*
X140537298Y-91015717D01*
X140551311Y-91158000D01*
X140537298Y-91300283D01*
X140495796Y-91437095D01*
X140428401Y-91563184D01*
X140337701Y-91673701D01*
X140227184Y-91764401D01*
X140101095Y-91831796D01*
X139964283Y-91873298D01*
X139857650Y-91883800D01*
X139786350Y-91883800D01*
X139679717Y-91873298D01*
X139542905Y-91831796D01*
X139416816Y-91764401D01*
X139306299Y-91673701D01*
X139215599Y-91563184D01*
X139148204Y-91437095D01*
X139106702Y-91300283D01*
X139092689Y-91158000D01*
X139106702Y-91015717D01*
X139148204Y-90878905D01*
X139215599Y-90752816D01*
X139306299Y-90642299D01*
X139416816Y-90551599D01*
X139542905Y-90484204D01*
X139679717Y-90442702D01*
X139786350Y-90432200D01*
X139857650Y-90432200D01*
X139964283Y-90442702D01*
X139964283Y-90442702D01*
G37*
G36*
X140547800Y-89883800D02*
X139096200Y-89883800D01*
X139096200Y-88432200D01*
X140547800Y-88432200D01*
X140547800Y-89883800D01*
X140547800Y-89883800D01*
G37*
G36*
X152944800Y-86379800D02*
X147283200Y-86379800D01*
X147283200Y-78278200D01*
X152944800Y-78278200D01*
X152944800Y-86379800D01*
X152944800Y-86379800D01*
G37*
G36*
X152944800Y-71774800D02*
X147283200Y-71774800D01*
X147283200Y-69073200D01*
X152944800Y-69073200D01*
X152944800Y-71774800D01*
X152944800Y-71774800D01*
G37*
M02*
