G04 #@! TF.GenerationSoftware,KiCad,Pcbnew,(5.0.2)-1*
G04 #@! TF.CreationDate,2019-06-28T12:16:38-04:00*
G04 #@! TF.ProjectId,BlueNRG-SPBTLE-1S ACM,426c7565-4e52-4472-9d53-5042544c452d,rev?*
G04 #@! TF.SameCoordinates,Original*
G04 #@! TF.FileFunction,Legend,Top*
G04 #@! TF.FilePolarity,Positive*
%FSLAX46Y46*%
G04 Gerber Fmt 4.6, Leading zero omitted, Abs format (unit mm)*
G04 Created by KiCad (PCBNEW (5.0.2)-1) date 6/28/2019 12:16:38 PM*
%MOMM*%
%LPD*%
G01*
G04 APERTURE LIST*
%ADD10C,0.250000*%
%ADD11C,0.120000*%
%ADD12C,0.150000*%
%ADD13C,0.125000*%
G04 APERTURE END LIST*
D10*
G04 #@! TO.C,U2*
X158010000Y-64684000D02*
X158010000Y-62684000D01*
X158010000Y-62684000D02*
X156010000Y-62684000D01*
X142510000Y-62684000D02*
X142510000Y-64684000D01*
X142510000Y-62684000D02*
X144510000Y-62684000D01*
X142510000Y-74184000D02*
X142510000Y-76184000D01*
X142510000Y-76184000D02*
X144510000Y-76184000D01*
X158010000Y-74184000D02*
X158010000Y-76184000D01*
X156010000Y-76184000D02*
X158010000Y-76184000D01*
D11*
G04 #@! TO.C,J1*
X138662000Y-79858000D02*
X138662000Y-85918000D01*
X138662000Y-85918000D02*
X140782000Y-85918000D01*
X140782000Y-85918000D02*
X140782000Y-79858000D01*
X140782000Y-79858000D02*
X138662000Y-79858000D01*
X138662000Y-78858000D02*
X138662000Y-77798000D01*
X138662000Y-77798000D02*
X139722000Y-77798000D01*
G04 #@! TO.C,C1*
X140468267Y-73268000D02*
X140125733Y-73268000D01*
X140468267Y-72248000D02*
X140125733Y-72248000D01*
G04 #@! TO.C,C2*
X160275733Y-69868000D02*
X160618267Y-69868000D01*
X160275733Y-68848000D02*
X160618267Y-68848000D01*
G04 #@! TO.C,C3*
X140468267Y-74048000D02*
X140125733Y-74048000D01*
X140468267Y-75068000D02*
X140125733Y-75068000D01*
G04 #@! TO.C,C4*
X160618267Y-68168000D02*
X160275733Y-68168000D01*
X160618267Y-67148000D02*
X160275733Y-67148000D01*
G04 #@! TO.C,C5*
X139832000Y-88261733D02*
X139832000Y-88604267D01*
X138812000Y-88261733D02*
X138812000Y-88604267D01*
G04 #@! TO.C,C6*
X154618267Y-80648000D02*
X154275733Y-80648000D01*
X154618267Y-81668000D02*
X154275733Y-81668000D01*
G04 #@! TO.C,C7*
X152125733Y-79768000D02*
X152468267Y-79768000D01*
X152125733Y-78748000D02*
X152468267Y-78748000D01*
G04 #@! TO.C,C8*
X155832000Y-78211733D02*
X155832000Y-78554267D01*
X154812000Y-78211733D02*
X154812000Y-78554267D01*
G04 #@! TO.C,C9*
X158625733Y-95448000D02*
X158968267Y-95448000D01*
X158625733Y-96468000D02*
X158968267Y-96468000D01*
G04 #@! TO.C,D1*
X149182000Y-79383000D02*
X149182000Y-76523000D01*
X149182000Y-76523000D02*
X147262000Y-76523000D01*
X147262000Y-76523000D02*
X147262000Y-79383000D01*
G04 #@! TO.C,D2*
X160762000Y-93283000D02*
X160762000Y-96143000D01*
X160762000Y-96143000D02*
X162682000Y-96143000D01*
X162682000Y-96143000D02*
X162682000Y-93283000D01*
G04 #@! TO.C,D3*
X162682000Y-91943000D02*
X162682000Y-89083000D01*
X160762000Y-91943000D02*
X162682000Y-91943000D01*
X160762000Y-89083000D02*
X160762000Y-91943000D01*
G04 #@! TO.C,J2*
X157422000Y-85858000D02*
X157422000Y-85408000D01*
X159272000Y-85858000D02*
X157422000Y-85858000D01*
X161822000Y-78058000D02*
X161572000Y-78058000D01*
X161822000Y-85858000D02*
X161572000Y-85858000D01*
X159272000Y-78058000D02*
X157422000Y-78058000D01*
X157422000Y-78058000D02*
X157422000Y-78508000D01*
X156872000Y-83658000D02*
X156872000Y-83208000D01*
X156872000Y-83658000D02*
X157322000Y-83658000D01*
G04 #@! TO.C,TL3305A1*
X149492000Y-90028000D02*
X144752000Y-90028000D01*
X149492000Y-90028000D02*
X149492000Y-89628000D01*
X144752000Y-90028000D02*
X144752000Y-89628000D01*
X149492000Y-85288000D02*
X149492000Y-85688000D01*
X149492000Y-85288000D02*
X144752000Y-85288000D01*
X144752000Y-85288000D02*
X144752000Y-85688000D01*
X144752000Y-86628000D02*
X144752000Y-88688000D01*
X149492000Y-86628000D02*
X149492000Y-88688000D01*
D10*
G04 #@! TO.C,U1*
X162883000Y-72970000D02*
G75*
G03X162883000Y-72970000I-100000J0D01*
G01*
D12*
X158719000Y-73732000D02*
X162275000Y-73732000D01*
X162275000Y-73732000D02*
X162275000Y-70684000D01*
X162275000Y-70684000D02*
X158719000Y-70684000D01*
X158719000Y-70684000D02*
X158719000Y-73732000D01*
D11*
G04 #@! TO.C,U3*
X151122000Y-80698000D02*
X149322000Y-80698000D01*
X149322000Y-83918000D02*
X151772000Y-83918000D01*
G04 #@! TO.C,U4*
X153812000Y-91723000D02*
X153812000Y-91248000D01*
X153812000Y-91248000D02*
X154287000Y-91248000D01*
X157032000Y-93993000D02*
X157032000Y-94468000D01*
X157032000Y-94468000D02*
X156557000Y-94468000D01*
X157032000Y-91723000D02*
X157032000Y-91248000D01*
X157032000Y-91248000D02*
X156557000Y-91248000D01*
X153812000Y-93993000D02*
X153812000Y-94468000D01*
G04 #@! TO.C,R1*
X146532000Y-78061733D02*
X146532000Y-78404267D01*
X145512000Y-78061733D02*
X145512000Y-78404267D01*
G04 #@! TO.C,R2*
X147132000Y-82161733D02*
X147132000Y-82504267D01*
X146112000Y-82161733D02*
X146112000Y-82504267D01*
G04 #@! TO.C,R3*
X141732000Y-88986733D02*
X141732000Y-89329267D01*
X140712000Y-88986733D02*
X140712000Y-89329267D01*
G04 #@! TO.C,R5*
X155232000Y-88211733D02*
X155232000Y-88554267D01*
X154212000Y-88211733D02*
X154212000Y-88554267D01*
G04 #@! TO.C,R6*
X150575733Y-95068000D02*
X150918267Y-95068000D01*
X150575733Y-94048000D02*
X150918267Y-94048000D01*
G04 #@! TO.C,R7*
X154925733Y-96468000D02*
X155268267Y-96468000D01*
X154925733Y-95448000D02*
X155268267Y-95448000D01*
G04 #@! TO.C,R8*
X159932000Y-92861733D02*
X159932000Y-93204267D01*
X158912000Y-92861733D02*
X158912000Y-93204267D01*
G04 #@! TO.C,R9*
X158868267Y-88448000D02*
X158525733Y-88448000D01*
X158868267Y-89468000D02*
X158525733Y-89468000D01*
G04 #@! TO.C,R10*
X150918267Y-92348000D02*
X150575733Y-92348000D01*
X150918267Y-93368000D02*
X150575733Y-93368000D01*
G04 #@! TO.C,U2*
D12*
X141260095Y-68510380D02*
X141260095Y-69319904D01*
X141307714Y-69415142D01*
X141355333Y-69462761D01*
X141450571Y-69510380D01*
X141641047Y-69510380D01*
X141736285Y-69462761D01*
X141783904Y-69415142D01*
X141831523Y-69319904D01*
X141831523Y-68510380D01*
X142260095Y-68605619D02*
X142307714Y-68558000D01*
X142402952Y-68510380D01*
X142641047Y-68510380D01*
X142736285Y-68558000D01*
X142783904Y-68605619D01*
X142831523Y-68700857D01*
X142831523Y-68796095D01*
X142783904Y-68938952D01*
X142212476Y-69510380D01*
X142831523Y-69510380D01*
G04 #@! TO.C,J1*
X139388666Y-76250380D02*
X139388666Y-76964666D01*
X139341047Y-77107523D01*
X139245809Y-77202761D01*
X139102952Y-77250380D01*
X139007714Y-77250380D01*
X140388666Y-77250380D02*
X139817238Y-77250380D01*
X140102952Y-77250380D02*
X140102952Y-76250380D01*
X140007714Y-76393238D01*
X139912476Y-76488476D01*
X139817238Y-76536095D01*
G04 #@! TO.C,C1*
X141155333Y-71415142D02*
X141107714Y-71462761D01*
X140964857Y-71510380D01*
X140869619Y-71510380D01*
X140726761Y-71462761D01*
X140631523Y-71367523D01*
X140583904Y-71272285D01*
X140536285Y-71081809D01*
X140536285Y-70938952D01*
X140583904Y-70748476D01*
X140631523Y-70653238D01*
X140726761Y-70558000D01*
X140869619Y-70510380D01*
X140964857Y-70510380D01*
X141107714Y-70558000D01*
X141155333Y-70605619D01*
X142107714Y-71510380D02*
X141536285Y-71510380D01*
X141822000Y-71510380D02*
X141822000Y-70510380D01*
X141726761Y-70653238D01*
X141631523Y-70748476D01*
X141536285Y-70796095D01*
G04 #@! TO.C,C2*
D13*
X162600571Y-69141333D02*
X162624380Y-69165142D01*
X162648190Y-69236571D01*
X162648190Y-69284190D01*
X162624380Y-69355619D01*
X162576761Y-69403238D01*
X162529142Y-69427047D01*
X162433904Y-69450857D01*
X162362476Y-69450857D01*
X162267238Y-69427047D01*
X162219619Y-69403238D01*
X162172000Y-69355619D01*
X162148190Y-69284190D01*
X162148190Y-69236571D01*
X162172000Y-69165142D01*
X162195809Y-69141333D01*
X162195809Y-68950857D02*
X162172000Y-68927047D01*
X162148190Y-68879428D01*
X162148190Y-68760380D01*
X162172000Y-68712761D01*
X162195809Y-68688952D01*
X162243428Y-68665142D01*
X162291047Y-68665142D01*
X162362476Y-68688952D01*
X162648190Y-68974666D01*
X162648190Y-68665142D01*
G04 #@! TO.C,C3*
D12*
X141055333Y-76415142D02*
X141007714Y-76462761D01*
X140864857Y-76510380D01*
X140769619Y-76510380D01*
X140626761Y-76462761D01*
X140531523Y-76367523D01*
X140483904Y-76272285D01*
X140436285Y-76081809D01*
X140436285Y-75938952D01*
X140483904Y-75748476D01*
X140531523Y-75653238D01*
X140626761Y-75558000D01*
X140769619Y-75510380D01*
X140864857Y-75510380D01*
X141007714Y-75558000D01*
X141055333Y-75605619D01*
X141388666Y-75510380D02*
X142007714Y-75510380D01*
X141674380Y-75891333D01*
X141817238Y-75891333D01*
X141912476Y-75938952D01*
X141960095Y-75986571D01*
X142007714Y-76081809D01*
X142007714Y-76319904D01*
X141960095Y-76415142D01*
X141912476Y-76462761D01*
X141817238Y-76510380D01*
X141531523Y-76510380D01*
X141436285Y-76462761D01*
X141388666Y-76415142D01*
G04 #@! TO.C,C4*
D13*
X162700571Y-67741333D02*
X162724380Y-67765142D01*
X162748190Y-67836571D01*
X162748190Y-67884190D01*
X162724380Y-67955619D01*
X162676761Y-68003238D01*
X162629142Y-68027047D01*
X162533904Y-68050857D01*
X162462476Y-68050857D01*
X162367238Y-68027047D01*
X162319619Y-68003238D01*
X162272000Y-67955619D01*
X162248190Y-67884190D01*
X162248190Y-67836571D01*
X162272000Y-67765142D01*
X162295809Y-67741333D01*
X162414857Y-67312761D02*
X162748190Y-67312761D01*
X162224380Y-67431809D02*
X162581523Y-67550857D01*
X162581523Y-67241333D01*
G04 #@! TO.C,C5*
D12*
X139779142Y-91424666D02*
X139826761Y-91472285D01*
X139874380Y-91615142D01*
X139874380Y-91710380D01*
X139826761Y-91853238D01*
X139731523Y-91948476D01*
X139636285Y-91996095D01*
X139445809Y-92043714D01*
X139302952Y-92043714D01*
X139112476Y-91996095D01*
X139017238Y-91948476D01*
X138922000Y-91853238D01*
X138874380Y-91710380D01*
X138874380Y-91615142D01*
X138922000Y-91472285D01*
X138969619Y-91424666D01*
X138874380Y-90519904D02*
X138874380Y-90996095D01*
X139350571Y-91043714D01*
X139302952Y-90996095D01*
X139255333Y-90900857D01*
X139255333Y-90662761D01*
X139302952Y-90567523D01*
X139350571Y-90519904D01*
X139445809Y-90472285D01*
X139683904Y-90472285D01*
X139779142Y-90519904D01*
X139826761Y-90567523D01*
X139874380Y-90662761D01*
X139874380Y-90900857D01*
X139826761Y-90996095D01*
X139779142Y-91043714D01*
G04 #@! TO.C,C6*
X154155333Y-82915142D02*
X154107714Y-82962761D01*
X153964857Y-83010380D01*
X153869619Y-83010380D01*
X153726761Y-82962761D01*
X153631523Y-82867523D01*
X153583904Y-82772285D01*
X153536285Y-82581809D01*
X153536285Y-82438952D01*
X153583904Y-82248476D01*
X153631523Y-82153238D01*
X153726761Y-82058000D01*
X153869619Y-82010380D01*
X153964857Y-82010380D01*
X154107714Y-82058000D01*
X154155333Y-82105619D01*
X155012476Y-82010380D02*
X154822000Y-82010380D01*
X154726761Y-82058000D01*
X154679142Y-82105619D01*
X154583904Y-82248476D01*
X154536285Y-82438952D01*
X154536285Y-82819904D01*
X154583904Y-82915142D01*
X154631523Y-82962761D01*
X154726761Y-83010380D01*
X154917238Y-83010380D01*
X155012476Y-82962761D01*
X155060095Y-82915142D01*
X155107714Y-82819904D01*
X155107714Y-82581809D01*
X155060095Y-82486571D01*
X155012476Y-82438952D01*
X154917238Y-82391333D01*
X154726761Y-82391333D01*
X154631523Y-82438952D01*
X154583904Y-82486571D01*
X154536285Y-82581809D01*
G04 #@! TO.C,C7*
X152455333Y-78415142D02*
X152407714Y-78462761D01*
X152264857Y-78510380D01*
X152169619Y-78510380D01*
X152026761Y-78462761D01*
X151931523Y-78367523D01*
X151883904Y-78272285D01*
X151836285Y-78081809D01*
X151836285Y-77938952D01*
X151883904Y-77748476D01*
X151931523Y-77653238D01*
X152026761Y-77558000D01*
X152169619Y-77510380D01*
X152264857Y-77510380D01*
X152407714Y-77558000D01*
X152455333Y-77605619D01*
X152788666Y-77510380D02*
X153455333Y-77510380D01*
X153026761Y-78510380D01*
G04 #@! TO.C,C8*
X157179142Y-77424666D02*
X157226761Y-77472285D01*
X157274380Y-77615142D01*
X157274380Y-77710380D01*
X157226761Y-77853238D01*
X157131523Y-77948476D01*
X157036285Y-77996095D01*
X156845809Y-78043714D01*
X156702952Y-78043714D01*
X156512476Y-77996095D01*
X156417238Y-77948476D01*
X156322000Y-77853238D01*
X156274380Y-77710380D01*
X156274380Y-77615142D01*
X156322000Y-77472285D01*
X156369619Y-77424666D01*
X156702952Y-76853238D02*
X156655333Y-76948476D01*
X156607714Y-76996095D01*
X156512476Y-77043714D01*
X156464857Y-77043714D01*
X156369619Y-76996095D01*
X156322000Y-76948476D01*
X156274380Y-76853238D01*
X156274380Y-76662761D01*
X156322000Y-76567523D01*
X156369619Y-76519904D01*
X156464857Y-76472285D01*
X156512476Y-76472285D01*
X156607714Y-76519904D01*
X156655333Y-76567523D01*
X156702952Y-76662761D01*
X156702952Y-76853238D01*
X156750571Y-76948476D01*
X156798190Y-76996095D01*
X156893428Y-77043714D01*
X157083904Y-77043714D01*
X157179142Y-76996095D01*
X157226761Y-76948476D01*
X157274380Y-76853238D01*
X157274380Y-76662761D01*
X157226761Y-76567523D01*
X157179142Y-76519904D01*
X157083904Y-76472285D01*
X156893428Y-76472285D01*
X156798190Y-76519904D01*
X156750571Y-76567523D01*
X156702952Y-76662761D01*
G04 #@! TO.C,C9*
D13*
X160938666Y-96636571D02*
X160914857Y-96660380D01*
X160843428Y-96684190D01*
X160795809Y-96684190D01*
X160724380Y-96660380D01*
X160676761Y-96612761D01*
X160652952Y-96565142D01*
X160629142Y-96469904D01*
X160629142Y-96398476D01*
X160652952Y-96303238D01*
X160676761Y-96255619D01*
X160724380Y-96208000D01*
X160795809Y-96184190D01*
X160843428Y-96184190D01*
X160914857Y-96208000D01*
X160938666Y-96231809D01*
X161176761Y-96684190D02*
X161272000Y-96684190D01*
X161319619Y-96660380D01*
X161343428Y-96636571D01*
X161391047Y-96565142D01*
X161414857Y-96469904D01*
X161414857Y-96279428D01*
X161391047Y-96231809D01*
X161367238Y-96208000D01*
X161319619Y-96184190D01*
X161224380Y-96184190D01*
X161176761Y-96208000D01*
X161152952Y-96231809D01*
X161129142Y-96279428D01*
X161129142Y-96398476D01*
X161152952Y-96446095D01*
X161176761Y-96469904D01*
X161224380Y-96493714D01*
X161319619Y-96493714D01*
X161367238Y-96469904D01*
X161391047Y-96446095D01*
X161414857Y-96398476D01*
G04 #@! TO.C,D1*
D12*
X150474380Y-77996095D02*
X149474380Y-77996095D01*
X149474380Y-77758000D01*
X149522000Y-77615142D01*
X149617238Y-77519904D01*
X149712476Y-77472285D01*
X149902952Y-77424666D01*
X150045809Y-77424666D01*
X150236285Y-77472285D01*
X150331523Y-77519904D01*
X150426761Y-77615142D01*
X150474380Y-77758000D01*
X150474380Y-77996095D01*
X150474380Y-76472285D02*
X150474380Y-77043714D01*
X150474380Y-76758000D02*
X149474380Y-76758000D01*
X149617238Y-76853238D01*
X149712476Y-76948476D01*
X149760095Y-77043714D01*
G04 #@! TO.C,D2*
D13*
X160648190Y-95127047D02*
X160148190Y-95127047D01*
X160148190Y-95008000D01*
X160172000Y-94936571D01*
X160219619Y-94888952D01*
X160267238Y-94865142D01*
X160362476Y-94841333D01*
X160433904Y-94841333D01*
X160529142Y-94865142D01*
X160576761Y-94888952D01*
X160624380Y-94936571D01*
X160648190Y-95008000D01*
X160648190Y-95127047D01*
X160195809Y-94650857D02*
X160172000Y-94627047D01*
X160148190Y-94579428D01*
X160148190Y-94460380D01*
X160172000Y-94412761D01*
X160195809Y-94388952D01*
X160243428Y-94365142D01*
X160291047Y-94365142D01*
X160362476Y-94388952D01*
X160648190Y-94674666D01*
X160648190Y-94365142D01*
G04 #@! TO.C,D3*
D12*
X160574380Y-91396095D02*
X159574380Y-91396095D01*
X159574380Y-91158000D01*
X159622000Y-91015142D01*
X159717238Y-90919904D01*
X159812476Y-90872285D01*
X160002952Y-90824666D01*
X160145809Y-90824666D01*
X160336285Y-90872285D01*
X160431523Y-90919904D01*
X160526761Y-91015142D01*
X160574380Y-91158000D01*
X160574380Y-91396095D01*
X159574380Y-90491333D02*
X159574380Y-89872285D01*
X159955333Y-90205619D01*
X159955333Y-90062761D01*
X160002952Y-89967523D01*
X160050571Y-89919904D01*
X160145809Y-89872285D01*
X160383904Y-89872285D01*
X160479142Y-89919904D01*
X160526761Y-89967523D01*
X160574380Y-90062761D01*
X160574380Y-90348476D01*
X160526761Y-90443714D01*
X160479142Y-90491333D01*
G04 #@! TO.C,J2*
X158188666Y-76710380D02*
X158188666Y-77424666D01*
X158141047Y-77567523D01*
X158045809Y-77662761D01*
X157902952Y-77710380D01*
X157807714Y-77710380D01*
X158617238Y-76805619D02*
X158664857Y-76758000D01*
X158760095Y-76710380D01*
X158998190Y-76710380D01*
X159093428Y-76758000D01*
X159141047Y-76805619D01*
X159188666Y-76900857D01*
X159188666Y-76996095D01*
X159141047Y-77138952D01*
X158569619Y-77710380D01*
X159188666Y-77710380D01*
G04 #@! TO.C,TL3305A1*
X143822000Y-87210380D02*
X144393428Y-87210380D01*
X144107714Y-88210380D02*
X144107714Y-87210380D01*
X145202952Y-88210380D02*
X144726761Y-88210380D01*
X144726761Y-87210380D01*
X145441047Y-87210380D02*
X146060095Y-87210380D01*
X145726761Y-87591333D01*
X145869619Y-87591333D01*
X145964857Y-87638952D01*
X146012476Y-87686571D01*
X146060095Y-87781809D01*
X146060095Y-88019904D01*
X146012476Y-88115142D01*
X145964857Y-88162761D01*
X145869619Y-88210380D01*
X145583904Y-88210380D01*
X145488666Y-88162761D01*
X145441047Y-88115142D01*
X146393428Y-87210380D02*
X147012476Y-87210380D01*
X146679142Y-87591333D01*
X146822000Y-87591333D01*
X146917238Y-87638952D01*
X146964857Y-87686571D01*
X147012476Y-87781809D01*
X147012476Y-88019904D01*
X146964857Y-88115142D01*
X146917238Y-88162761D01*
X146822000Y-88210380D01*
X146536285Y-88210380D01*
X146441047Y-88162761D01*
X146393428Y-88115142D01*
X147631523Y-87210380D02*
X147726761Y-87210380D01*
X147822000Y-87258000D01*
X147869619Y-87305619D01*
X147917238Y-87400857D01*
X147964857Y-87591333D01*
X147964857Y-87829428D01*
X147917238Y-88019904D01*
X147869619Y-88115142D01*
X147822000Y-88162761D01*
X147726761Y-88210380D01*
X147631523Y-88210380D01*
X147536285Y-88162761D01*
X147488666Y-88115142D01*
X147441047Y-88019904D01*
X147393428Y-87829428D01*
X147393428Y-87591333D01*
X147441047Y-87400857D01*
X147488666Y-87305619D01*
X147536285Y-87258000D01*
X147631523Y-87210380D01*
X148869619Y-87210380D02*
X148393428Y-87210380D01*
X148345809Y-87686571D01*
X148393428Y-87638952D01*
X148488666Y-87591333D01*
X148726761Y-87591333D01*
X148822000Y-87638952D01*
X148869619Y-87686571D01*
X148917238Y-87781809D01*
X148917238Y-88019904D01*
X148869619Y-88115142D01*
X148822000Y-88162761D01*
X148726761Y-88210380D01*
X148488666Y-88210380D01*
X148393428Y-88162761D01*
X148345809Y-88115142D01*
X149298190Y-87924666D02*
X149774380Y-87924666D01*
X149202952Y-88210380D02*
X149536285Y-87210380D01*
X149869619Y-88210380D01*
X150726761Y-88210380D02*
X150155333Y-88210380D01*
X150441047Y-88210380D02*
X150441047Y-87210380D01*
X150345809Y-87353238D01*
X150250571Y-87448476D01*
X150155333Y-87496095D01*
G04 #@! TO.C,U1*
X159481095Y-74454380D02*
X159481095Y-75263904D01*
X159528714Y-75359142D01*
X159576333Y-75406761D01*
X159671571Y-75454380D01*
X159862047Y-75454380D01*
X159957285Y-75406761D01*
X160004904Y-75359142D01*
X160052523Y-75263904D01*
X160052523Y-74454380D01*
X161052523Y-75454380D02*
X160481095Y-75454380D01*
X160766809Y-75454380D02*
X160766809Y-74454380D01*
X160671571Y-74597238D01*
X160576333Y-74692476D01*
X160481095Y-74740095D01*
G04 #@! TO.C,U3*
X152560095Y-83410380D02*
X152560095Y-84219904D01*
X152607714Y-84315142D01*
X152655333Y-84362761D01*
X152750571Y-84410380D01*
X152941047Y-84410380D01*
X153036285Y-84362761D01*
X153083904Y-84315142D01*
X153131523Y-84219904D01*
X153131523Y-83410380D01*
X153512476Y-83410380D02*
X154131523Y-83410380D01*
X153798190Y-83791333D01*
X153941047Y-83791333D01*
X154036285Y-83838952D01*
X154083904Y-83886571D01*
X154131523Y-83981809D01*
X154131523Y-84219904D01*
X154083904Y-84315142D01*
X154036285Y-84362761D01*
X153941047Y-84410380D01*
X153655333Y-84410380D01*
X153560095Y-84362761D01*
X153512476Y-84315142D01*
G04 #@! TO.C,U4*
X152160095Y-89310380D02*
X152160095Y-90119904D01*
X152207714Y-90215142D01*
X152255333Y-90262761D01*
X152350571Y-90310380D01*
X152541047Y-90310380D01*
X152636285Y-90262761D01*
X152683904Y-90215142D01*
X152731523Y-90119904D01*
X152731523Y-89310380D01*
X153636285Y-89643714D02*
X153636285Y-90310380D01*
X153398190Y-89262761D02*
X153160095Y-89977047D01*
X153779142Y-89977047D01*
G04 #@! TO.C,R1*
X144974380Y-77124666D02*
X144498190Y-77458000D01*
X144974380Y-77696095D02*
X143974380Y-77696095D01*
X143974380Y-77315142D01*
X144022000Y-77219904D01*
X144069619Y-77172285D01*
X144164857Y-77124666D01*
X144307714Y-77124666D01*
X144402952Y-77172285D01*
X144450571Y-77219904D01*
X144498190Y-77315142D01*
X144498190Y-77696095D01*
X144974380Y-76172285D02*
X144974380Y-76743714D01*
X144974380Y-76458000D02*
X143974380Y-76458000D01*
X144117238Y-76553238D01*
X144212476Y-76648476D01*
X144260095Y-76743714D01*
G04 #@! TO.C,R2*
X145674380Y-82924666D02*
X145198190Y-83258000D01*
X145674380Y-83496095D02*
X144674380Y-83496095D01*
X144674380Y-83115142D01*
X144722000Y-83019904D01*
X144769619Y-82972285D01*
X144864857Y-82924666D01*
X145007714Y-82924666D01*
X145102952Y-82972285D01*
X145150571Y-83019904D01*
X145198190Y-83115142D01*
X145198190Y-83496095D01*
X144769619Y-82543714D02*
X144722000Y-82496095D01*
X144674380Y-82400857D01*
X144674380Y-82162761D01*
X144722000Y-82067523D01*
X144769619Y-82019904D01*
X144864857Y-81972285D01*
X144960095Y-81972285D01*
X145102952Y-82019904D01*
X145674380Y-82591333D01*
X145674380Y-81972285D01*
G04 #@! TO.C,R3*
X141674380Y-92324666D02*
X141198190Y-92658000D01*
X141674380Y-92896095D02*
X140674380Y-92896095D01*
X140674380Y-92515142D01*
X140722000Y-92419904D01*
X140769619Y-92372285D01*
X140864857Y-92324666D01*
X141007714Y-92324666D01*
X141102952Y-92372285D01*
X141150571Y-92419904D01*
X141198190Y-92515142D01*
X141198190Y-92896095D01*
X140674380Y-91991333D02*
X140674380Y-91372285D01*
X141055333Y-91705619D01*
X141055333Y-91562761D01*
X141102952Y-91467523D01*
X141150571Y-91419904D01*
X141245809Y-91372285D01*
X141483904Y-91372285D01*
X141579142Y-91419904D01*
X141626761Y-91467523D01*
X141674380Y-91562761D01*
X141674380Y-91848476D01*
X141626761Y-91943714D01*
X141579142Y-91991333D01*
G04 #@! TO.C,R5*
X153674380Y-88324666D02*
X153198190Y-88658000D01*
X153674380Y-88896095D02*
X152674380Y-88896095D01*
X152674380Y-88515142D01*
X152722000Y-88419904D01*
X152769619Y-88372285D01*
X152864857Y-88324666D01*
X153007714Y-88324666D01*
X153102952Y-88372285D01*
X153150571Y-88419904D01*
X153198190Y-88515142D01*
X153198190Y-88896095D01*
X152674380Y-87419904D02*
X152674380Y-87896095D01*
X153150571Y-87943714D01*
X153102952Y-87896095D01*
X153055333Y-87800857D01*
X153055333Y-87562761D01*
X153102952Y-87467523D01*
X153150571Y-87419904D01*
X153245809Y-87372285D01*
X153483904Y-87372285D01*
X153579142Y-87419904D01*
X153626761Y-87467523D01*
X153674380Y-87562761D01*
X153674380Y-87800857D01*
X153626761Y-87896095D01*
X153579142Y-87943714D01*
G04 #@! TO.C,R6*
X147755333Y-95010380D02*
X147422000Y-94534190D01*
X147183904Y-95010380D02*
X147183904Y-94010380D01*
X147564857Y-94010380D01*
X147660095Y-94058000D01*
X147707714Y-94105619D01*
X147755333Y-94200857D01*
X147755333Y-94343714D01*
X147707714Y-94438952D01*
X147660095Y-94486571D01*
X147564857Y-94534190D01*
X147183904Y-94534190D01*
X148612476Y-94010380D02*
X148422000Y-94010380D01*
X148326761Y-94058000D01*
X148279142Y-94105619D01*
X148183904Y-94248476D01*
X148136285Y-94438952D01*
X148136285Y-94819904D01*
X148183904Y-94915142D01*
X148231523Y-94962761D01*
X148326761Y-95010380D01*
X148517238Y-95010380D01*
X148612476Y-94962761D01*
X148660095Y-94915142D01*
X148707714Y-94819904D01*
X148707714Y-94581809D01*
X148660095Y-94486571D01*
X148612476Y-94438952D01*
X148517238Y-94391333D01*
X148326761Y-94391333D01*
X148231523Y-94438952D01*
X148183904Y-94486571D01*
X148136285Y-94581809D01*
G04 #@! TO.C,R7*
X151455333Y-96610380D02*
X151122000Y-96134190D01*
X150883904Y-96610380D02*
X150883904Y-95610380D01*
X151264857Y-95610380D01*
X151360095Y-95658000D01*
X151407714Y-95705619D01*
X151455333Y-95800857D01*
X151455333Y-95943714D01*
X151407714Y-96038952D01*
X151360095Y-96086571D01*
X151264857Y-96134190D01*
X150883904Y-96134190D01*
X151788666Y-95610380D02*
X152455333Y-95610380D01*
X152026761Y-96610380D01*
G04 #@! TO.C,R8*
D13*
X158138666Y-93584190D02*
X157972000Y-93346095D01*
X157852952Y-93584190D02*
X157852952Y-93084190D01*
X158043428Y-93084190D01*
X158091047Y-93108000D01*
X158114857Y-93131809D01*
X158138666Y-93179428D01*
X158138666Y-93250857D01*
X158114857Y-93298476D01*
X158091047Y-93322285D01*
X158043428Y-93346095D01*
X157852952Y-93346095D01*
X158424380Y-93298476D02*
X158376761Y-93274666D01*
X158352952Y-93250857D01*
X158329142Y-93203238D01*
X158329142Y-93179428D01*
X158352952Y-93131809D01*
X158376761Y-93108000D01*
X158424380Y-93084190D01*
X158519619Y-93084190D01*
X158567238Y-93108000D01*
X158591047Y-93131809D01*
X158614857Y-93179428D01*
X158614857Y-93203238D01*
X158591047Y-93250857D01*
X158567238Y-93274666D01*
X158519619Y-93298476D01*
X158424380Y-93298476D01*
X158376761Y-93322285D01*
X158352952Y-93346095D01*
X158329142Y-93393714D01*
X158329142Y-93488952D01*
X158352952Y-93536571D01*
X158376761Y-93560380D01*
X158424380Y-93584190D01*
X158519619Y-93584190D01*
X158567238Y-93560380D01*
X158591047Y-93536571D01*
X158614857Y-93488952D01*
X158614857Y-93393714D01*
X158591047Y-93346095D01*
X158567238Y-93322285D01*
X158519619Y-93298476D01*
G04 #@! TO.C,R9*
D12*
X158655333Y-88110380D02*
X158322000Y-87634190D01*
X158083904Y-88110380D02*
X158083904Y-87110380D01*
X158464857Y-87110380D01*
X158560095Y-87158000D01*
X158607714Y-87205619D01*
X158655333Y-87300857D01*
X158655333Y-87443714D01*
X158607714Y-87538952D01*
X158560095Y-87586571D01*
X158464857Y-87634190D01*
X158083904Y-87634190D01*
X159131523Y-88110380D02*
X159322000Y-88110380D01*
X159417238Y-88062761D01*
X159464857Y-88015142D01*
X159560095Y-87872285D01*
X159607714Y-87681809D01*
X159607714Y-87300857D01*
X159560095Y-87205619D01*
X159512476Y-87158000D01*
X159417238Y-87110380D01*
X159226761Y-87110380D01*
X159131523Y-87158000D01*
X159083904Y-87205619D01*
X159036285Y-87300857D01*
X159036285Y-87538952D01*
X159083904Y-87634190D01*
X159131523Y-87681809D01*
X159226761Y-87729428D01*
X159417238Y-87729428D01*
X159512476Y-87681809D01*
X159560095Y-87634190D01*
X159607714Y-87538952D01*
G04 #@! TO.C,R10*
X143679142Y-93210380D02*
X143345809Y-92734190D01*
X143107714Y-93210380D02*
X143107714Y-92210380D01*
X143488666Y-92210380D01*
X143583904Y-92258000D01*
X143631523Y-92305619D01*
X143679142Y-92400857D01*
X143679142Y-92543714D01*
X143631523Y-92638952D01*
X143583904Y-92686571D01*
X143488666Y-92734190D01*
X143107714Y-92734190D01*
X144631523Y-93210380D02*
X144060095Y-93210380D01*
X144345809Y-93210380D02*
X144345809Y-92210380D01*
X144250571Y-92353238D01*
X144155333Y-92448476D01*
X144060095Y-92496095D01*
X145250571Y-92210380D02*
X145345809Y-92210380D01*
X145441047Y-92258000D01*
X145488666Y-92305619D01*
X145536285Y-92400857D01*
X145583904Y-92591333D01*
X145583904Y-92829428D01*
X145536285Y-93019904D01*
X145488666Y-93115142D01*
X145441047Y-93162761D01*
X145345809Y-93210380D01*
X145250571Y-93210380D01*
X145155333Y-93162761D01*
X145107714Y-93115142D01*
X145060095Y-93019904D01*
X145012476Y-92829428D01*
X145012476Y-92591333D01*
X145060095Y-92400857D01*
X145107714Y-92305619D01*
X145155333Y-92258000D01*
X145250571Y-92210380D01*
G04 #@! TD*
M02*
