G04 #@! TF.GenerationSoftware,KiCad,Pcbnew,(5.0.2)-1*
G04 #@! TF.CreationDate,2019-06-28T12:16:38-04:00*
G04 #@! TF.ProjectId,BlueNRG-SPBTLE-1S ACM,426c7565-4e52-4472-9d53-5042544c452d,rev?*
G04 #@! TF.SameCoordinates,Original*
G04 #@! TF.FileFunction,Soldermask,Top*
G04 #@! TF.FilePolarity,Negative*
%FSLAX46Y46*%
G04 Gerber Fmt 4.6, Leading zero omitted, Abs format (unit mm)*
G04 Created by KiCad (PCBNEW (5.0.2)-1) date 6/28/2019 12:16:38 PM*
%MOMM*%
%LPD*%
G01*
G04 APERTURE LIST*
%ADD10C,0.100000*%
G04 APERTURE END LIST*
D10*
G36*
X160086377Y-95436643D02*
X160123855Y-95448013D01*
X160158404Y-95466479D01*
X160188677Y-95491323D01*
X160213521Y-95521596D01*
X160231987Y-95556145D01*
X160243357Y-95593623D01*
X160247800Y-95638738D01*
X160247800Y-96277262D01*
X160243357Y-96322377D01*
X160231987Y-96359855D01*
X160213521Y-96394404D01*
X160188677Y-96424677D01*
X160158404Y-96449521D01*
X160123855Y-96467987D01*
X160086377Y-96479357D01*
X160041262Y-96483800D01*
X159302738Y-96483800D01*
X159257623Y-96479357D01*
X159220145Y-96467987D01*
X159185596Y-96449521D01*
X159155323Y-96424677D01*
X159130479Y-96394404D01*
X159112013Y-96359855D01*
X159100643Y-96322377D01*
X159096200Y-96277262D01*
X159096200Y-95638738D01*
X159100643Y-95593623D01*
X159112013Y-95556145D01*
X159130479Y-95521596D01*
X159155323Y-95491323D01*
X159185596Y-95466479D01*
X159220145Y-95448013D01*
X159257623Y-95436643D01*
X159302738Y-95432200D01*
X160041262Y-95432200D01*
X160086377Y-95436643D01*
X160086377Y-95436643D01*
G37*
G36*
X158336377Y-95436643D02*
X158373855Y-95448013D01*
X158408404Y-95466479D01*
X158438677Y-95491323D01*
X158463521Y-95521596D01*
X158481987Y-95556145D01*
X158493357Y-95593623D01*
X158497800Y-95638738D01*
X158497800Y-96277262D01*
X158493357Y-96322377D01*
X158481987Y-96359855D01*
X158463521Y-96394404D01*
X158438677Y-96424677D01*
X158408404Y-96449521D01*
X158373855Y-96467987D01*
X158336377Y-96479357D01*
X158291262Y-96483800D01*
X157552738Y-96483800D01*
X157507623Y-96479357D01*
X157470145Y-96467987D01*
X157435596Y-96449521D01*
X157405323Y-96424677D01*
X157380479Y-96394404D01*
X157362013Y-96359855D01*
X157350643Y-96322377D01*
X157346200Y-96277262D01*
X157346200Y-95638738D01*
X157350643Y-95593623D01*
X157362013Y-95556145D01*
X157380479Y-95521596D01*
X157405323Y-95491323D01*
X157435596Y-95466479D01*
X157470145Y-95448013D01*
X157507623Y-95436643D01*
X157552738Y-95432200D01*
X158291262Y-95432200D01*
X158336377Y-95436643D01*
X158336377Y-95436643D01*
G37*
G36*
X154636377Y-95436643D02*
X154673855Y-95448013D01*
X154708404Y-95466479D01*
X154738677Y-95491323D01*
X154763521Y-95521596D01*
X154781987Y-95556145D01*
X154793357Y-95593623D01*
X154797800Y-95638738D01*
X154797800Y-96277262D01*
X154793357Y-96322377D01*
X154781987Y-96359855D01*
X154763521Y-96394404D01*
X154738677Y-96424677D01*
X154708404Y-96449521D01*
X154673855Y-96467987D01*
X154636377Y-96479357D01*
X154591262Y-96483800D01*
X153852738Y-96483800D01*
X153807623Y-96479357D01*
X153770145Y-96467987D01*
X153735596Y-96449521D01*
X153705323Y-96424677D01*
X153680479Y-96394404D01*
X153662013Y-96359855D01*
X153650643Y-96322377D01*
X153646200Y-96277262D01*
X153646200Y-95638738D01*
X153650643Y-95593623D01*
X153662013Y-95556145D01*
X153680479Y-95521596D01*
X153705323Y-95491323D01*
X153735596Y-95466479D01*
X153770145Y-95448013D01*
X153807623Y-95436643D01*
X153852738Y-95432200D01*
X154591262Y-95432200D01*
X154636377Y-95436643D01*
X154636377Y-95436643D01*
G37*
G36*
X156386377Y-95436643D02*
X156423855Y-95448013D01*
X156458404Y-95466479D01*
X156488677Y-95491323D01*
X156513521Y-95521596D01*
X156531987Y-95556145D01*
X156543357Y-95593623D01*
X156547800Y-95638738D01*
X156547800Y-96277262D01*
X156543357Y-96322377D01*
X156531987Y-96359855D01*
X156513521Y-96394404D01*
X156488677Y-96424677D01*
X156458404Y-96449521D01*
X156423855Y-96467987D01*
X156386377Y-96479357D01*
X156341262Y-96483800D01*
X155602738Y-96483800D01*
X155557623Y-96479357D01*
X155520145Y-96467987D01*
X155485596Y-96449521D01*
X155455323Y-96424677D01*
X155430479Y-96394404D01*
X155412013Y-96359855D01*
X155400643Y-96322377D01*
X155396200Y-96277262D01*
X155396200Y-95638738D01*
X155400643Y-95593623D01*
X155412013Y-95556145D01*
X155430479Y-95521596D01*
X155455323Y-95491323D01*
X155485596Y-95466479D01*
X155520145Y-95448013D01*
X155557623Y-95436643D01*
X155602738Y-95432200D01*
X156341262Y-95432200D01*
X156386377Y-95436643D01*
X156386377Y-95436643D01*
G37*
G36*
X162310543Y-94686663D02*
X162348222Y-94698093D01*
X162382939Y-94716650D01*
X162413374Y-94741626D01*
X162438350Y-94772061D01*
X162456907Y-94806778D01*
X162468337Y-94844457D01*
X162472800Y-94889773D01*
X162472800Y-95726227D01*
X162468337Y-95771543D01*
X162456907Y-95809222D01*
X162438350Y-95843939D01*
X162413374Y-95874374D01*
X162382939Y-95899350D01*
X162348222Y-95917907D01*
X162310543Y-95929337D01*
X162265227Y-95933800D01*
X161178773Y-95933800D01*
X161133457Y-95929337D01*
X161095778Y-95917907D01*
X161061061Y-95899350D01*
X161030626Y-95874374D01*
X161005650Y-95843939D01*
X160987093Y-95809222D01*
X160975663Y-95771543D01*
X160971200Y-95726227D01*
X160971200Y-94889773D01*
X160975663Y-94844457D01*
X160987093Y-94806778D01*
X161005650Y-94772061D01*
X161030626Y-94741626D01*
X161061061Y-94716650D01*
X161095778Y-94698093D01*
X161133457Y-94686663D01*
X161178773Y-94682200D01*
X162265227Y-94682200D01*
X162310543Y-94686663D01*
X162310543Y-94686663D01*
G37*
G36*
X152036377Y-94036643D02*
X152073855Y-94048013D01*
X152108404Y-94066479D01*
X152138677Y-94091323D01*
X152163521Y-94121596D01*
X152181987Y-94156145D01*
X152193357Y-94193623D01*
X152197800Y-94238738D01*
X152197800Y-94877262D01*
X152193357Y-94922377D01*
X152181987Y-94959855D01*
X152163521Y-94994404D01*
X152138677Y-95024677D01*
X152108404Y-95049521D01*
X152073855Y-95067987D01*
X152036377Y-95079357D01*
X151991262Y-95083800D01*
X151252738Y-95083800D01*
X151207623Y-95079357D01*
X151170145Y-95067987D01*
X151135596Y-95049521D01*
X151105323Y-95024677D01*
X151080479Y-94994404D01*
X151062013Y-94959855D01*
X151050643Y-94922377D01*
X151046200Y-94877262D01*
X151046200Y-94238738D01*
X151050643Y-94193623D01*
X151062013Y-94156145D01*
X151080479Y-94121596D01*
X151105323Y-94091323D01*
X151135596Y-94066479D01*
X151170145Y-94048013D01*
X151207623Y-94036643D01*
X151252738Y-94032200D01*
X151991262Y-94032200D01*
X152036377Y-94036643D01*
X152036377Y-94036643D01*
G37*
G36*
X150286377Y-94036643D02*
X150323855Y-94048013D01*
X150358404Y-94066479D01*
X150388677Y-94091323D01*
X150413521Y-94121596D01*
X150431987Y-94156145D01*
X150443357Y-94193623D01*
X150447800Y-94238738D01*
X150447800Y-94877262D01*
X150443357Y-94922377D01*
X150431987Y-94959855D01*
X150413521Y-94994404D01*
X150388677Y-95024677D01*
X150358404Y-95049521D01*
X150323855Y-95067987D01*
X150286377Y-95079357D01*
X150241262Y-95083800D01*
X149502738Y-95083800D01*
X149457623Y-95079357D01*
X149420145Y-95067987D01*
X149385596Y-95049521D01*
X149355323Y-95024677D01*
X149330479Y-94994404D01*
X149312013Y-94959855D01*
X149300643Y-94922377D01*
X149296200Y-94877262D01*
X149296200Y-94238738D01*
X149300643Y-94193623D01*
X149312013Y-94156145D01*
X149330479Y-94121596D01*
X149355323Y-94091323D01*
X149385596Y-94066479D01*
X149420145Y-94048013D01*
X149457623Y-94036643D01*
X149502738Y-94032200D01*
X150241262Y-94032200D01*
X150286377Y-94036643D01*
X150286377Y-94036643D01*
G37*
G36*
X154827237Y-90933281D02*
X154831889Y-90934692D01*
X154836178Y-90936985D01*
X154842702Y-90942339D01*
X154863077Y-90955953D01*
X154885716Y-90965330D01*
X154909749Y-90970110D01*
X154934254Y-90970110D01*
X154958287Y-90965329D01*
X154980926Y-90955951D01*
X155001298Y-90942339D01*
X155007822Y-90936985D01*
X155012111Y-90934692D01*
X155016763Y-90933281D01*
X155027740Y-90932200D01*
X155316260Y-90932200D01*
X155327237Y-90933281D01*
X155331889Y-90934692D01*
X155336178Y-90936985D01*
X155342702Y-90942339D01*
X155363077Y-90955953D01*
X155385716Y-90965330D01*
X155409749Y-90970110D01*
X155434254Y-90970110D01*
X155458287Y-90965329D01*
X155480926Y-90955951D01*
X155501298Y-90942339D01*
X155507822Y-90936985D01*
X155512111Y-90934692D01*
X155516763Y-90933281D01*
X155527740Y-90932200D01*
X155816260Y-90932200D01*
X155827237Y-90933281D01*
X155831889Y-90934692D01*
X155836178Y-90936985D01*
X155842702Y-90942339D01*
X155863077Y-90955953D01*
X155885716Y-90965330D01*
X155909749Y-90970110D01*
X155934254Y-90970110D01*
X155958287Y-90965329D01*
X155980926Y-90955951D01*
X156001298Y-90942339D01*
X156007822Y-90936985D01*
X156012111Y-90934692D01*
X156016763Y-90933281D01*
X156027740Y-90932200D01*
X156316260Y-90932200D01*
X156327237Y-90933281D01*
X156331889Y-90934692D01*
X156336178Y-90936985D01*
X156339933Y-90940067D01*
X156343015Y-90943822D01*
X156345308Y-90948111D01*
X156346719Y-90952763D01*
X156347800Y-90963740D01*
X156347800Y-91807200D01*
X156350202Y-91831586D01*
X156357315Y-91855035D01*
X156368866Y-91876646D01*
X156384412Y-91895588D01*
X156403354Y-91911134D01*
X156424965Y-91922685D01*
X156448414Y-91929798D01*
X156472800Y-91932200D01*
X157316260Y-91932200D01*
X157327237Y-91933281D01*
X157331889Y-91934692D01*
X157336178Y-91936985D01*
X157339933Y-91940067D01*
X157343015Y-91943822D01*
X157345308Y-91948111D01*
X157346719Y-91952763D01*
X157347800Y-91963740D01*
X157347800Y-92252260D01*
X157346719Y-92263237D01*
X157345308Y-92267889D01*
X157343015Y-92272178D01*
X157337661Y-92278702D01*
X157324047Y-92299077D01*
X157314670Y-92321716D01*
X157309890Y-92345749D01*
X157309890Y-92370254D01*
X157314671Y-92394287D01*
X157324049Y-92416926D01*
X157337661Y-92437298D01*
X157343015Y-92443822D01*
X157345308Y-92448111D01*
X157346719Y-92452763D01*
X157347800Y-92463740D01*
X157347800Y-92752260D01*
X157346719Y-92763237D01*
X157345308Y-92767889D01*
X157343015Y-92772178D01*
X157337661Y-92778702D01*
X157324047Y-92799077D01*
X157314670Y-92821716D01*
X157309890Y-92845749D01*
X157309890Y-92870254D01*
X157314671Y-92894287D01*
X157324049Y-92916926D01*
X157337661Y-92937298D01*
X157343015Y-92943822D01*
X157345308Y-92948111D01*
X157346719Y-92952763D01*
X157347800Y-92963740D01*
X157347800Y-93252260D01*
X157346719Y-93263237D01*
X157345308Y-93267889D01*
X157343015Y-93272178D01*
X157337661Y-93278702D01*
X157324047Y-93299077D01*
X157314670Y-93321716D01*
X157309890Y-93345749D01*
X157309890Y-93370254D01*
X157314671Y-93394287D01*
X157324049Y-93416926D01*
X157337661Y-93437298D01*
X157343015Y-93443822D01*
X157345308Y-93448111D01*
X157346719Y-93452763D01*
X157347800Y-93463740D01*
X157347800Y-93752260D01*
X157346719Y-93763237D01*
X157345308Y-93767889D01*
X157343015Y-93772178D01*
X157339933Y-93775933D01*
X157336178Y-93779015D01*
X157331889Y-93781308D01*
X157327237Y-93782719D01*
X157316260Y-93783800D01*
X156472800Y-93783800D01*
X156448414Y-93786202D01*
X156424965Y-93793315D01*
X156403354Y-93804866D01*
X156384412Y-93820412D01*
X156368866Y-93839354D01*
X156357315Y-93860965D01*
X156350202Y-93884414D01*
X156347800Y-93908800D01*
X156347800Y-94752260D01*
X156346719Y-94763237D01*
X156345308Y-94767889D01*
X156343015Y-94772178D01*
X156339933Y-94775933D01*
X156336178Y-94779015D01*
X156331889Y-94781308D01*
X156327237Y-94782719D01*
X156316260Y-94783800D01*
X156027740Y-94783800D01*
X156016763Y-94782719D01*
X156012111Y-94781308D01*
X156007822Y-94779015D01*
X156001298Y-94773661D01*
X155980923Y-94760047D01*
X155958284Y-94750670D01*
X155934251Y-94745890D01*
X155909746Y-94745890D01*
X155885713Y-94750671D01*
X155863074Y-94760049D01*
X155842702Y-94773661D01*
X155836178Y-94779015D01*
X155831889Y-94781308D01*
X155827237Y-94782719D01*
X155816260Y-94783800D01*
X155527740Y-94783800D01*
X155516763Y-94782719D01*
X155512111Y-94781308D01*
X155507822Y-94779015D01*
X155501298Y-94773661D01*
X155480923Y-94760047D01*
X155458284Y-94750670D01*
X155434251Y-94745890D01*
X155409746Y-94745890D01*
X155385713Y-94750671D01*
X155363074Y-94760049D01*
X155342702Y-94773661D01*
X155336178Y-94779015D01*
X155331889Y-94781308D01*
X155327237Y-94782719D01*
X155316260Y-94783800D01*
X155027740Y-94783800D01*
X155016763Y-94782719D01*
X155012111Y-94781308D01*
X155007822Y-94779015D01*
X155001298Y-94773661D01*
X154980923Y-94760047D01*
X154958284Y-94750670D01*
X154934251Y-94745890D01*
X154909746Y-94745890D01*
X154885713Y-94750671D01*
X154863074Y-94760049D01*
X154842702Y-94773661D01*
X154836178Y-94779015D01*
X154831889Y-94781308D01*
X154827237Y-94782719D01*
X154816260Y-94783800D01*
X154527740Y-94783800D01*
X154516763Y-94782719D01*
X154512111Y-94781308D01*
X154507822Y-94779015D01*
X154504067Y-94775933D01*
X154500985Y-94772178D01*
X154498692Y-94767889D01*
X154497281Y-94763237D01*
X154496200Y-94752260D01*
X154496200Y-93908800D01*
X154493798Y-93884414D01*
X154486685Y-93860965D01*
X154475134Y-93839354D01*
X154459588Y-93820412D01*
X154440646Y-93804866D01*
X154419035Y-93793315D01*
X154395586Y-93786202D01*
X154371200Y-93783800D01*
X153527740Y-93783800D01*
X153516763Y-93782719D01*
X153512111Y-93781308D01*
X153507822Y-93779015D01*
X153504067Y-93775933D01*
X153500985Y-93772178D01*
X153498692Y-93767889D01*
X153497281Y-93763237D01*
X153496200Y-93752260D01*
X153496200Y-93463740D01*
X153497281Y-93452763D01*
X153498692Y-93448111D01*
X153500985Y-93443822D01*
X153506339Y-93437298D01*
X153519953Y-93416923D01*
X153529330Y-93394284D01*
X153534110Y-93370251D01*
X153534110Y-93345746D01*
X153529329Y-93321713D01*
X153519951Y-93299074D01*
X153506339Y-93278702D01*
X153500985Y-93272178D01*
X153498692Y-93267889D01*
X153497281Y-93263237D01*
X153496200Y-93252260D01*
X153496200Y-92963740D01*
X153497281Y-92952763D01*
X153498692Y-92948111D01*
X153500985Y-92943822D01*
X153506339Y-92937298D01*
X153519953Y-92916923D01*
X153529330Y-92894284D01*
X153534110Y-92870251D01*
X153534110Y-92845746D01*
X153529329Y-92821713D01*
X153519951Y-92799074D01*
X153506339Y-92778702D01*
X153500985Y-92772178D01*
X153498692Y-92767889D01*
X153497281Y-92763237D01*
X153496200Y-92752260D01*
X153496200Y-92463740D01*
X153497281Y-92452763D01*
X153498692Y-92448111D01*
X153500985Y-92443822D01*
X153506339Y-92437298D01*
X153519953Y-92416923D01*
X153529330Y-92394284D01*
X153534110Y-92370251D01*
X153534110Y-92345746D01*
X153529329Y-92321713D01*
X153519951Y-92299074D01*
X153506339Y-92278702D01*
X153500985Y-92272178D01*
X153498692Y-92267889D01*
X153497281Y-92263237D01*
X153496200Y-92252260D01*
X153496200Y-91963740D01*
X153497281Y-91952763D01*
X153498692Y-91948111D01*
X153500985Y-91943822D01*
X153504067Y-91940067D01*
X153507822Y-91936985D01*
X153512111Y-91934692D01*
X153516763Y-91933281D01*
X153527740Y-91932200D01*
X154371200Y-91932200D01*
X154395586Y-91929798D01*
X154419035Y-91922685D01*
X154440646Y-91911134D01*
X154459588Y-91895588D01*
X154475134Y-91876646D01*
X154486685Y-91855035D01*
X154493798Y-91831586D01*
X154496200Y-91807200D01*
X154496200Y-90963740D01*
X154497281Y-90952763D01*
X154498692Y-90948111D01*
X154500985Y-90943822D01*
X154504067Y-90940067D01*
X154507822Y-90936985D01*
X154512111Y-90934692D01*
X154516763Y-90933281D01*
X154527740Y-90932200D01*
X154816260Y-90932200D01*
X154827237Y-90933281D01*
X154827237Y-90933281D01*
G37*
G36*
X159786377Y-93336643D02*
X159823855Y-93348013D01*
X159858404Y-93366479D01*
X159888677Y-93391323D01*
X159913521Y-93421596D01*
X159931987Y-93456145D01*
X159943357Y-93493623D01*
X159947800Y-93538738D01*
X159947800Y-94277262D01*
X159943357Y-94322377D01*
X159931987Y-94359855D01*
X159913521Y-94394404D01*
X159888677Y-94424677D01*
X159858404Y-94449521D01*
X159823855Y-94467987D01*
X159786377Y-94479357D01*
X159741262Y-94483800D01*
X159102738Y-94483800D01*
X159057623Y-94479357D01*
X159020145Y-94467987D01*
X158985596Y-94449521D01*
X158955323Y-94424677D01*
X158930479Y-94394404D01*
X158912013Y-94359855D01*
X158900643Y-94322377D01*
X158896200Y-94277262D01*
X158896200Y-93538738D01*
X158900643Y-93493623D01*
X158912013Y-93456145D01*
X158930479Y-93421596D01*
X158955323Y-93391323D01*
X158985596Y-93366479D01*
X159020145Y-93348013D01*
X159057623Y-93336643D01*
X159102738Y-93332200D01*
X159741262Y-93332200D01*
X159786377Y-93336643D01*
X159786377Y-93336643D01*
G37*
G36*
X162310543Y-92636663D02*
X162348222Y-92648093D01*
X162382939Y-92666650D01*
X162413374Y-92691626D01*
X162438350Y-92722061D01*
X162456907Y-92756778D01*
X162468337Y-92794457D01*
X162472800Y-92839773D01*
X162472800Y-93676227D01*
X162468337Y-93721543D01*
X162456907Y-93759222D01*
X162438350Y-93793939D01*
X162413374Y-93824374D01*
X162382939Y-93849350D01*
X162348222Y-93867907D01*
X162310543Y-93879337D01*
X162265227Y-93883800D01*
X161178773Y-93883800D01*
X161133457Y-93879337D01*
X161095778Y-93867907D01*
X161061061Y-93849350D01*
X161030626Y-93824374D01*
X161005650Y-93793939D01*
X160987093Y-93759222D01*
X160975663Y-93721543D01*
X160971200Y-93676227D01*
X160971200Y-92839773D01*
X160975663Y-92794457D01*
X160987093Y-92756778D01*
X161005650Y-92722061D01*
X161030626Y-92691626D01*
X161061061Y-92666650D01*
X161095778Y-92648093D01*
X161133457Y-92636663D01*
X161178773Y-92632200D01*
X162265227Y-92632200D01*
X162310543Y-92636663D01*
X162310543Y-92636663D01*
G37*
G36*
X152036377Y-92336643D02*
X152073855Y-92348013D01*
X152108404Y-92366479D01*
X152138677Y-92391323D01*
X152163521Y-92421596D01*
X152181987Y-92456145D01*
X152193357Y-92493623D01*
X152197800Y-92538738D01*
X152197800Y-93177262D01*
X152193357Y-93222377D01*
X152181987Y-93259855D01*
X152163521Y-93294404D01*
X152138677Y-93324677D01*
X152108404Y-93349521D01*
X152073855Y-93367987D01*
X152036377Y-93379357D01*
X151991262Y-93383800D01*
X151252738Y-93383800D01*
X151207623Y-93379357D01*
X151170145Y-93367987D01*
X151135596Y-93349521D01*
X151105323Y-93324677D01*
X151080479Y-93294404D01*
X151062013Y-93259855D01*
X151050643Y-93222377D01*
X151046200Y-93177262D01*
X151046200Y-92538738D01*
X151050643Y-92493623D01*
X151062013Y-92456145D01*
X151080479Y-92421596D01*
X151105323Y-92391323D01*
X151135596Y-92366479D01*
X151170145Y-92348013D01*
X151207623Y-92336643D01*
X151252738Y-92332200D01*
X151991262Y-92332200D01*
X152036377Y-92336643D01*
X152036377Y-92336643D01*
G37*
G36*
X150286377Y-92336643D02*
X150323855Y-92348013D01*
X150358404Y-92366479D01*
X150388677Y-92391323D01*
X150413521Y-92421596D01*
X150431987Y-92456145D01*
X150443357Y-92493623D01*
X150447800Y-92538738D01*
X150447800Y-93177262D01*
X150443357Y-93222377D01*
X150431987Y-93259855D01*
X150413521Y-93294404D01*
X150388677Y-93324677D01*
X150358404Y-93349521D01*
X150323855Y-93367987D01*
X150286377Y-93379357D01*
X150241262Y-93383800D01*
X149502738Y-93383800D01*
X149457623Y-93379357D01*
X149420145Y-93367987D01*
X149385596Y-93349521D01*
X149355323Y-93324677D01*
X149330479Y-93294404D01*
X149312013Y-93259855D01*
X149300643Y-93222377D01*
X149296200Y-93177262D01*
X149296200Y-92538738D01*
X149300643Y-92493623D01*
X149312013Y-92456145D01*
X149330479Y-92421596D01*
X149355323Y-92391323D01*
X149385596Y-92366479D01*
X149420145Y-92348013D01*
X149457623Y-92336643D01*
X149502738Y-92332200D01*
X150241262Y-92332200D01*
X150286377Y-92336643D01*
X150286377Y-92336643D01*
G37*
G36*
X159786377Y-91586643D02*
X159823855Y-91598013D01*
X159858404Y-91616479D01*
X159888677Y-91641323D01*
X159913521Y-91671596D01*
X159931987Y-91706145D01*
X159943357Y-91743623D01*
X159947800Y-91788738D01*
X159947800Y-92527262D01*
X159943357Y-92572377D01*
X159931987Y-92609855D01*
X159913521Y-92644404D01*
X159888677Y-92674677D01*
X159858404Y-92699521D01*
X159823855Y-92717987D01*
X159786377Y-92729357D01*
X159741262Y-92733800D01*
X159102738Y-92733800D01*
X159057623Y-92729357D01*
X159020145Y-92717987D01*
X158985596Y-92699521D01*
X158955323Y-92674677D01*
X158930479Y-92644404D01*
X158912013Y-92609855D01*
X158900643Y-92572377D01*
X158896200Y-92527262D01*
X158896200Y-91788738D01*
X158900643Y-91743623D01*
X158912013Y-91706145D01*
X158930479Y-91671596D01*
X158955323Y-91641323D01*
X158985596Y-91616479D01*
X159020145Y-91598013D01*
X159057623Y-91586643D01*
X159102738Y-91582200D01*
X159741262Y-91582200D01*
X159786377Y-91586643D01*
X159786377Y-91586643D01*
G37*
G36*
X162310543Y-90486663D02*
X162348222Y-90498093D01*
X162382939Y-90516650D01*
X162413374Y-90541626D01*
X162438350Y-90572061D01*
X162456907Y-90606778D01*
X162468337Y-90644457D01*
X162472800Y-90689773D01*
X162472800Y-91526227D01*
X162468337Y-91571543D01*
X162456907Y-91609222D01*
X162438350Y-91643939D01*
X162413374Y-91674374D01*
X162382939Y-91699350D01*
X162348222Y-91717907D01*
X162310543Y-91729337D01*
X162265227Y-91733800D01*
X161178773Y-91733800D01*
X161133457Y-91729337D01*
X161095778Y-91717907D01*
X161061061Y-91699350D01*
X161030626Y-91674374D01*
X161005650Y-91643939D01*
X160987093Y-91609222D01*
X160975663Y-91571543D01*
X160971200Y-91526227D01*
X160971200Y-90689773D01*
X160975663Y-90644457D01*
X160987093Y-90606778D01*
X161005650Y-90572061D01*
X161030626Y-90541626D01*
X161061061Y-90516650D01*
X161095778Y-90498093D01*
X161133457Y-90486663D01*
X161178773Y-90482200D01*
X162265227Y-90482200D01*
X162310543Y-90486663D01*
X162310543Y-90486663D01*
G37*
G36*
X141586377Y-89461643D02*
X141623855Y-89473013D01*
X141658404Y-89491479D01*
X141688677Y-89516323D01*
X141713521Y-89546596D01*
X141731987Y-89581145D01*
X141743357Y-89618623D01*
X141747800Y-89663738D01*
X141747800Y-90402262D01*
X141743357Y-90447377D01*
X141731987Y-90484855D01*
X141713521Y-90519404D01*
X141688677Y-90549677D01*
X141658404Y-90574521D01*
X141623855Y-90592987D01*
X141586377Y-90604357D01*
X141541262Y-90608800D01*
X140902738Y-90608800D01*
X140857623Y-90604357D01*
X140820145Y-90592987D01*
X140785596Y-90574521D01*
X140755323Y-90549677D01*
X140730479Y-90519404D01*
X140712013Y-90484855D01*
X140700643Y-90447377D01*
X140696200Y-90402262D01*
X140696200Y-89663738D01*
X140700643Y-89618623D01*
X140712013Y-89581145D01*
X140730479Y-89546596D01*
X140755323Y-89516323D01*
X140785596Y-89491479D01*
X140820145Y-89473013D01*
X140857623Y-89461643D01*
X140902738Y-89457200D01*
X141541262Y-89457200D01*
X141586377Y-89461643D01*
X141586377Y-89461643D01*
G37*
G36*
X144372800Y-89908800D02*
X142671200Y-89908800D01*
X142671200Y-88407200D01*
X144372800Y-88407200D01*
X144372800Y-89908800D01*
X144372800Y-89908800D01*
G37*
G36*
X151572800Y-89908800D02*
X149871200Y-89908800D01*
X149871200Y-88407200D01*
X151572800Y-88407200D01*
X151572800Y-89908800D01*
X151572800Y-89908800D01*
G37*
G36*
X139686377Y-88736643D02*
X139723855Y-88748013D01*
X139758404Y-88766479D01*
X139788677Y-88791323D01*
X139813521Y-88821596D01*
X139831987Y-88856145D01*
X139843357Y-88893623D01*
X139847800Y-88938738D01*
X139847800Y-89677262D01*
X139843357Y-89722377D01*
X139831987Y-89759855D01*
X139813521Y-89794404D01*
X139788677Y-89824677D01*
X139758404Y-89849521D01*
X139723855Y-89867987D01*
X139686377Y-89879357D01*
X139641262Y-89883800D01*
X139002738Y-89883800D01*
X138957623Y-89879357D01*
X138920145Y-89867987D01*
X138885596Y-89849521D01*
X138855323Y-89824677D01*
X138830479Y-89794404D01*
X138812013Y-89759855D01*
X138800643Y-89722377D01*
X138796200Y-89677262D01*
X138796200Y-88938738D01*
X138800643Y-88893623D01*
X138812013Y-88856145D01*
X138830479Y-88821596D01*
X138855323Y-88791323D01*
X138885596Y-88766479D01*
X138920145Y-88748013D01*
X138957623Y-88736643D01*
X139002738Y-88732200D01*
X139641262Y-88732200D01*
X139686377Y-88736643D01*
X139686377Y-88736643D01*
G37*
G36*
X155086377Y-88686643D02*
X155123855Y-88698013D01*
X155158404Y-88716479D01*
X155188677Y-88741323D01*
X155213521Y-88771596D01*
X155231987Y-88806145D01*
X155243357Y-88843623D01*
X155247800Y-88888738D01*
X155247800Y-89627262D01*
X155243357Y-89672377D01*
X155231987Y-89709855D01*
X155213521Y-89744404D01*
X155188677Y-89774677D01*
X155158404Y-89799521D01*
X155123855Y-89817987D01*
X155086377Y-89829357D01*
X155041262Y-89833800D01*
X154402738Y-89833800D01*
X154357623Y-89829357D01*
X154320145Y-89817987D01*
X154285596Y-89799521D01*
X154255323Y-89774677D01*
X154230479Y-89744404D01*
X154212013Y-89709855D01*
X154200643Y-89672377D01*
X154196200Y-89627262D01*
X154196200Y-88888738D01*
X154200643Y-88843623D01*
X154212013Y-88806145D01*
X154230479Y-88771596D01*
X154255323Y-88741323D01*
X154285596Y-88716479D01*
X154320145Y-88698013D01*
X154357623Y-88686643D01*
X154402738Y-88682200D01*
X155041262Y-88682200D01*
X155086377Y-88686643D01*
X155086377Y-88686643D01*
G37*
G36*
X162310543Y-88436663D02*
X162348222Y-88448093D01*
X162382939Y-88466650D01*
X162413374Y-88491626D01*
X162438350Y-88522061D01*
X162456907Y-88556778D01*
X162468337Y-88594457D01*
X162472800Y-88639773D01*
X162472800Y-89476227D01*
X162468337Y-89521543D01*
X162456907Y-89559222D01*
X162438350Y-89593939D01*
X162413374Y-89624374D01*
X162382939Y-89649350D01*
X162348222Y-89667907D01*
X162310543Y-89679337D01*
X162265227Y-89683800D01*
X161178773Y-89683800D01*
X161133457Y-89679337D01*
X161095778Y-89667907D01*
X161061061Y-89649350D01*
X161030626Y-89624374D01*
X161005650Y-89593939D01*
X160987093Y-89559222D01*
X160975663Y-89521543D01*
X160971200Y-89476227D01*
X160971200Y-88639773D01*
X160975663Y-88594457D01*
X160987093Y-88556778D01*
X161005650Y-88522061D01*
X161030626Y-88491626D01*
X161061061Y-88466650D01*
X161095778Y-88448093D01*
X161133457Y-88436663D01*
X161178773Y-88432200D01*
X162265227Y-88432200D01*
X162310543Y-88436663D01*
X162310543Y-88436663D01*
G37*
G36*
X159986377Y-88436643D02*
X160023855Y-88448013D01*
X160058404Y-88466479D01*
X160088677Y-88491323D01*
X160113521Y-88521596D01*
X160131987Y-88556145D01*
X160143357Y-88593623D01*
X160147800Y-88638738D01*
X160147800Y-89277262D01*
X160143357Y-89322377D01*
X160131987Y-89359855D01*
X160113521Y-89394404D01*
X160088677Y-89424677D01*
X160058404Y-89449521D01*
X160023855Y-89467987D01*
X159986377Y-89479357D01*
X159941262Y-89483800D01*
X159202738Y-89483800D01*
X159157623Y-89479357D01*
X159120145Y-89467987D01*
X159085596Y-89449521D01*
X159055323Y-89424677D01*
X159030479Y-89394404D01*
X159012013Y-89359855D01*
X159000643Y-89322377D01*
X158996200Y-89277262D01*
X158996200Y-88638738D01*
X159000643Y-88593623D01*
X159012013Y-88556145D01*
X159030479Y-88521596D01*
X159055323Y-88491323D01*
X159085596Y-88466479D01*
X159120145Y-88448013D01*
X159157623Y-88436643D01*
X159202738Y-88432200D01*
X159941262Y-88432200D01*
X159986377Y-88436643D01*
X159986377Y-88436643D01*
G37*
G36*
X158236377Y-88436643D02*
X158273855Y-88448013D01*
X158308404Y-88466479D01*
X158338677Y-88491323D01*
X158363521Y-88521596D01*
X158381987Y-88556145D01*
X158393357Y-88593623D01*
X158397800Y-88638738D01*
X158397800Y-89277262D01*
X158393357Y-89322377D01*
X158381987Y-89359855D01*
X158363521Y-89394404D01*
X158338677Y-89424677D01*
X158308404Y-89449521D01*
X158273855Y-89467987D01*
X158236377Y-89479357D01*
X158191262Y-89483800D01*
X157452738Y-89483800D01*
X157407623Y-89479357D01*
X157370145Y-89467987D01*
X157335596Y-89449521D01*
X157305323Y-89424677D01*
X157280479Y-89394404D01*
X157262013Y-89359855D01*
X157250643Y-89322377D01*
X157246200Y-89277262D01*
X157246200Y-88638738D01*
X157250643Y-88593623D01*
X157262013Y-88556145D01*
X157280479Y-88521596D01*
X157305323Y-88491323D01*
X157335596Y-88466479D01*
X157370145Y-88448013D01*
X157407623Y-88436643D01*
X157452738Y-88432200D01*
X158191262Y-88432200D01*
X158236377Y-88436643D01*
X158236377Y-88436643D01*
G37*
G36*
X141586377Y-87711643D02*
X141623855Y-87723013D01*
X141658404Y-87741479D01*
X141688677Y-87766323D01*
X141713521Y-87796596D01*
X141731987Y-87831145D01*
X141743357Y-87868623D01*
X141747800Y-87913738D01*
X141747800Y-88652262D01*
X141743357Y-88697377D01*
X141731987Y-88734855D01*
X141713521Y-88769404D01*
X141688677Y-88799677D01*
X141658404Y-88824521D01*
X141623855Y-88842987D01*
X141586377Y-88854357D01*
X141541262Y-88858800D01*
X140902738Y-88858800D01*
X140857623Y-88854357D01*
X140820145Y-88842987D01*
X140785596Y-88824521D01*
X140755323Y-88799677D01*
X140730479Y-88769404D01*
X140712013Y-88734855D01*
X140700643Y-88697377D01*
X140696200Y-88652262D01*
X140696200Y-87913738D01*
X140700643Y-87868623D01*
X140712013Y-87831145D01*
X140730479Y-87796596D01*
X140755323Y-87766323D01*
X140785596Y-87741479D01*
X140820145Y-87723013D01*
X140857623Y-87711643D01*
X140902738Y-87707200D01*
X141541262Y-87707200D01*
X141586377Y-87711643D01*
X141586377Y-87711643D01*
G37*
G36*
X139686377Y-86986643D02*
X139723855Y-86998013D01*
X139758404Y-87016479D01*
X139788677Y-87041323D01*
X139813521Y-87071596D01*
X139831987Y-87106145D01*
X139843357Y-87143623D01*
X139847800Y-87188738D01*
X139847800Y-87927262D01*
X139843357Y-87972377D01*
X139831987Y-88009855D01*
X139813521Y-88044404D01*
X139788677Y-88074677D01*
X139758404Y-88099521D01*
X139723855Y-88117987D01*
X139686377Y-88129357D01*
X139641262Y-88133800D01*
X139002738Y-88133800D01*
X138957623Y-88129357D01*
X138920145Y-88117987D01*
X138885596Y-88099521D01*
X138855323Y-88074677D01*
X138830479Y-88044404D01*
X138812013Y-88009855D01*
X138800643Y-87972377D01*
X138796200Y-87927262D01*
X138796200Y-87188738D01*
X138800643Y-87143623D01*
X138812013Y-87106145D01*
X138830479Y-87071596D01*
X138855323Y-87041323D01*
X138885596Y-87016479D01*
X138920145Y-86998013D01*
X138957623Y-86986643D01*
X139002738Y-86982200D01*
X139641262Y-86982200D01*
X139686377Y-86986643D01*
X139686377Y-86986643D01*
G37*
G36*
X155086377Y-86936643D02*
X155123855Y-86948013D01*
X155158404Y-86966479D01*
X155188677Y-86991323D01*
X155213521Y-87021596D01*
X155231987Y-87056145D01*
X155243357Y-87093623D01*
X155247800Y-87138738D01*
X155247800Y-87877262D01*
X155243357Y-87922377D01*
X155231987Y-87959855D01*
X155213521Y-87994404D01*
X155188677Y-88024677D01*
X155158404Y-88049521D01*
X155123855Y-88067987D01*
X155086377Y-88079357D01*
X155041262Y-88083800D01*
X154402738Y-88083800D01*
X154357623Y-88079357D01*
X154320145Y-88067987D01*
X154285596Y-88049521D01*
X154255323Y-88024677D01*
X154230479Y-87994404D01*
X154212013Y-87959855D01*
X154200643Y-87922377D01*
X154196200Y-87877262D01*
X154196200Y-87138738D01*
X154200643Y-87093623D01*
X154212013Y-87056145D01*
X154230479Y-87021596D01*
X154255323Y-86991323D01*
X154285596Y-86966479D01*
X154320145Y-86948013D01*
X154357623Y-86936643D01*
X154402738Y-86932200D01*
X155041262Y-86932200D01*
X155086377Y-86936643D01*
X155086377Y-86936643D01*
G37*
G36*
X144372800Y-86908800D02*
X142671200Y-86908800D01*
X142671200Y-85407200D01*
X144372800Y-85407200D01*
X144372800Y-86908800D01*
X144372800Y-86908800D01*
G37*
G36*
X151572800Y-86908800D02*
X149871200Y-86908800D01*
X149871200Y-85407200D01*
X151572800Y-85407200D01*
X151572800Y-86908800D01*
X151572800Y-86908800D01*
G37*
G36*
X161422800Y-85419895D02*
X161423402Y-85432147D01*
X161425948Y-85458000D01*
X161423402Y-85483853D01*
X161422800Y-85496105D01*
X161422800Y-85569949D01*
X161409763Y-85597514D01*
X161376170Y-85708255D01*
X161315739Y-85821314D01*
X161234411Y-85920411D01*
X161135314Y-86001739D01*
X161022258Y-86062168D01*
X161022255Y-86062169D01*
X160899579Y-86099383D01*
X160851771Y-86104091D01*
X160803965Y-86108800D01*
X160040035Y-86108800D01*
X159992229Y-86104091D01*
X159944421Y-86099383D01*
X159821745Y-86062169D01*
X159821742Y-86062168D01*
X159708686Y-86001739D01*
X159609589Y-85920411D01*
X159528261Y-85821314D01*
X159467830Y-85708255D01*
X159434237Y-85597514D01*
X159424860Y-85574875D01*
X159421200Y-85569398D01*
X159421200Y-85496105D01*
X159420598Y-85483853D01*
X159418052Y-85458000D01*
X159420598Y-85432147D01*
X159421200Y-85419895D01*
X159421200Y-84207200D01*
X161422800Y-84207200D01*
X161422800Y-85419895D01*
X161422800Y-85419895D01*
G37*
G36*
X139864283Y-84142702D02*
X140001095Y-84184204D01*
X140127184Y-84251599D01*
X140237701Y-84342299D01*
X140328401Y-84452816D01*
X140395796Y-84578905D01*
X140437298Y-84715717D01*
X140451311Y-84858000D01*
X140437298Y-85000283D01*
X140395796Y-85137095D01*
X140328401Y-85263184D01*
X140237701Y-85373701D01*
X140127184Y-85464401D01*
X140001095Y-85531796D01*
X139864283Y-85573298D01*
X139757650Y-85583800D01*
X139686350Y-85583800D01*
X139579717Y-85573298D01*
X139442905Y-85531796D01*
X139316816Y-85464401D01*
X139206299Y-85373701D01*
X139115599Y-85263184D01*
X139048204Y-85137095D01*
X139006702Y-85000283D01*
X138992689Y-84858000D01*
X139006702Y-84715717D01*
X139048204Y-84578905D01*
X139115599Y-84452816D01*
X139206299Y-84342299D01*
X139316816Y-84251599D01*
X139442905Y-84184204D01*
X139579717Y-84142702D01*
X139686350Y-84132200D01*
X139757650Y-84132200D01*
X139864283Y-84142702D01*
X139864283Y-84142702D01*
G37*
G36*
X157948293Y-78712013D02*
X158089478Y-78770494D01*
X158216547Y-78855399D01*
X158324601Y-78963453D01*
X158409506Y-79090522D01*
X158467987Y-79231707D01*
X158497800Y-79381589D01*
X158497800Y-79534411D01*
X158467987Y-79684293D01*
X158409506Y-79825478D01*
X158324601Y-79952547D01*
X158216547Y-80060601D01*
X158089478Y-80145506D01*
X158038275Y-80166715D01*
X158016664Y-80178266D01*
X157997722Y-80193812D01*
X157982176Y-80212754D01*
X157970625Y-80234364D01*
X157963512Y-80257814D01*
X157961110Y-80282200D01*
X157963512Y-80306586D01*
X157970625Y-80330035D01*
X157982176Y-80351646D01*
X157997722Y-80370588D01*
X158016664Y-80386134D01*
X158038274Y-80397685D01*
X158061724Y-80404798D01*
X158086110Y-80407200D01*
X158447800Y-80407200D01*
X158447800Y-83508800D01*
X158086110Y-83508800D01*
X158061724Y-83511202D01*
X158038275Y-83518315D01*
X158016664Y-83529866D01*
X157997722Y-83545412D01*
X157982176Y-83564354D01*
X157970625Y-83585965D01*
X157963512Y-83609414D01*
X157961110Y-83633800D01*
X157963512Y-83658186D01*
X157970625Y-83681635D01*
X157982176Y-83703246D01*
X157997722Y-83722188D01*
X158016664Y-83737734D01*
X158038275Y-83749285D01*
X158089478Y-83770494D01*
X158216547Y-83855399D01*
X158324601Y-83963453D01*
X158409506Y-84090522D01*
X158467987Y-84231707D01*
X158497800Y-84381589D01*
X158497800Y-84534411D01*
X158467987Y-84684293D01*
X158409506Y-84825478D01*
X158324601Y-84952547D01*
X158216547Y-85060601D01*
X158089478Y-85145506D01*
X157948293Y-85203987D01*
X157798411Y-85233800D01*
X157645589Y-85233800D01*
X157495707Y-85203987D01*
X157354522Y-85145506D01*
X157227453Y-85060601D01*
X157119399Y-84952547D01*
X157034494Y-84825478D01*
X156976013Y-84684293D01*
X156946200Y-84534411D01*
X156946200Y-84381589D01*
X156976013Y-84231707D01*
X157034494Y-84090522D01*
X157119399Y-83963453D01*
X157227453Y-83855399D01*
X157354522Y-83770494D01*
X157405725Y-83749285D01*
X157427336Y-83737734D01*
X157446278Y-83722188D01*
X157461824Y-83703246D01*
X157473375Y-83681636D01*
X157480488Y-83658186D01*
X157482890Y-83633800D01*
X157480488Y-83609414D01*
X157473375Y-83585965D01*
X157461824Y-83564354D01*
X157446278Y-83545412D01*
X157427336Y-83529866D01*
X157405726Y-83518315D01*
X157382276Y-83511202D01*
X157357890Y-83508800D01*
X156996200Y-83508800D01*
X156996200Y-80407200D01*
X157357890Y-80407200D01*
X157382276Y-80404798D01*
X157405725Y-80397685D01*
X157427336Y-80386134D01*
X157446278Y-80370588D01*
X157461824Y-80351646D01*
X157473375Y-80330035D01*
X157480488Y-80306586D01*
X157482890Y-80282200D01*
X157480488Y-80257814D01*
X157473375Y-80234365D01*
X157461824Y-80212754D01*
X157446278Y-80193812D01*
X157427336Y-80178266D01*
X157405725Y-80166715D01*
X157354522Y-80145506D01*
X157227453Y-80060601D01*
X157119399Y-79952547D01*
X157034494Y-79825478D01*
X156976013Y-79684293D01*
X156946200Y-79534411D01*
X156946200Y-79381589D01*
X156976013Y-79231707D01*
X157034494Y-79090522D01*
X157119399Y-78963453D01*
X157227453Y-78855399D01*
X157354522Y-78770494D01*
X157495707Y-78712013D01*
X157645589Y-78682200D01*
X157798411Y-78682200D01*
X157948293Y-78712013D01*
X157948293Y-78712013D01*
G37*
G36*
X146986377Y-82636643D02*
X147023855Y-82648013D01*
X147058404Y-82666479D01*
X147088677Y-82691323D01*
X147113521Y-82721596D01*
X147131987Y-82756145D01*
X147143357Y-82793623D01*
X147147800Y-82838738D01*
X147147800Y-83577262D01*
X147143357Y-83622377D01*
X147131987Y-83659855D01*
X147113521Y-83694404D01*
X147088677Y-83724677D01*
X147058404Y-83749521D01*
X147023855Y-83767987D01*
X146986377Y-83779357D01*
X146941262Y-83783800D01*
X146302738Y-83783800D01*
X146257623Y-83779357D01*
X146220145Y-83767987D01*
X146185596Y-83749521D01*
X146155323Y-83724677D01*
X146130479Y-83694404D01*
X146112013Y-83659855D01*
X146100643Y-83622377D01*
X146096200Y-83577262D01*
X146096200Y-82838738D01*
X146100643Y-82793623D01*
X146112013Y-82756145D01*
X146130479Y-82721596D01*
X146155323Y-82691323D01*
X146185596Y-82666479D01*
X146220145Y-82648013D01*
X146257623Y-82636643D01*
X146302738Y-82632200D01*
X146941262Y-82632200D01*
X146986377Y-82636643D01*
X146986377Y-82636643D01*
G37*
G36*
X161422800Y-83758800D02*
X159421200Y-83758800D01*
X159421200Y-82157200D01*
X161422800Y-82157200D01*
X161422800Y-83758800D01*
X161422800Y-83758800D01*
G37*
G36*
X151902800Y-83633800D02*
X150741200Y-83633800D01*
X150741200Y-80982200D01*
X151902800Y-80982200D01*
X151902800Y-83633800D01*
X151902800Y-83633800D01*
G37*
G36*
X149702800Y-83633800D02*
X148541200Y-83633800D01*
X148541200Y-82882200D01*
X149702800Y-82882200D01*
X149702800Y-83633800D01*
X149702800Y-83633800D01*
G37*
G36*
X139864283Y-82142702D02*
X140001095Y-82184204D01*
X140127184Y-82251599D01*
X140237701Y-82342299D01*
X140328401Y-82452816D01*
X140395796Y-82578905D01*
X140437298Y-82715717D01*
X140451311Y-82858000D01*
X140437298Y-83000283D01*
X140395796Y-83137095D01*
X140328401Y-83263184D01*
X140237701Y-83373701D01*
X140127184Y-83464401D01*
X140001095Y-83531796D01*
X139864283Y-83573298D01*
X139757650Y-83583800D01*
X139686350Y-83583800D01*
X139579717Y-83573298D01*
X139442905Y-83531796D01*
X139316816Y-83464401D01*
X139206299Y-83373701D01*
X139115599Y-83263184D01*
X139048204Y-83137095D01*
X139006702Y-83000283D01*
X138992689Y-82858000D01*
X139006702Y-82715717D01*
X139048204Y-82578905D01*
X139115599Y-82452816D01*
X139206299Y-82342299D01*
X139316816Y-82251599D01*
X139442905Y-82184204D01*
X139579717Y-82142702D01*
X139686350Y-82132200D01*
X139757650Y-82132200D01*
X139864283Y-82142702D01*
X139864283Y-82142702D01*
G37*
G36*
X146986377Y-80886643D02*
X147023855Y-80898013D01*
X147058404Y-80916479D01*
X147088677Y-80941323D01*
X147113521Y-80971596D01*
X147131987Y-81006145D01*
X147143357Y-81043623D01*
X147147800Y-81088738D01*
X147147800Y-81827262D01*
X147143357Y-81872377D01*
X147131987Y-81909855D01*
X147113521Y-81944404D01*
X147088677Y-81974677D01*
X147058404Y-81999521D01*
X147023855Y-82017987D01*
X146986377Y-82029357D01*
X146941262Y-82033800D01*
X146302738Y-82033800D01*
X146257623Y-82029357D01*
X146220145Y-82017987D01*
X146185596Y-81999521D01*
X146155323Y-81974677D01*
X146130479Y-81944404D01*
X146112013Y-81909855D01*
X146100643Y-81872377D01*
X146096200Y-81827262D01*
X146096200Y-81088738D01*
X146100643Y-81043623D01*
X146112013Y-81006145D01*
X146130479Y-80971596D01*
X146155323Y-80941323D01*
X146185596Y-80916479D01*
X146220145Y-80898013D01*
X146257623Y-80886643D01*
X146302738Y-80882200D01*
X146941262Y-80882200D01*
X146986377Y-80886643D01*
X146986377Y-80886643D01*
G37*
G36*
X161422800Y-81758800D02*
X159421200Y-81758800D01*
X159421200Y-80157200D01*
X161422800Y-80157200D01*
X161422800Y-81758800D01*
X161422800Y-81758800D01*
G37*
G36*
X149702800Y-81733800D02*
X148541200Y-81733800D01*
X148541200Y-80982200D01*
X149702800Y-80982200D01*
X149702800Y-81733800D01*
X149702800Y-81733800D01*
G37*
G36*
X155736377Y-80636643D02*
X155773855Y-80648013D01*
X155808404Y-80666479D01*
X155838677Y-80691323D01*
X155863521Y-80721596D01*
X155881987Y-80756145D01*
X155893357Y-80793623D01*
X155897800Y-80838738D01*
X155897800Y-81477262D01*
X155893357Y-81522377D01*
X155881987Y-81559855D01*
X155863521Y-81594404D01*
X155838677Y-81624677D01*
X155808404Y-81649521D01*
X155773855Y-81667987D01*
X155736377Y-81679357D01*
X155691262Y-81683800D01*
X154952738Y-81683800D01*
X154907623Y-81679357D01*
X154870145Y-81667987D01*
X154835596Y-81649521D01*
X154805323Y-81624677D01*
X154780479Y-81594404D01*
X154762013Y-81559855D01*
X154750643Y-81522377D01*
X154746200Y-81477262D01*
X154746200Y-80838738D01*
X154750643Y-80793623D01*
X154762013Y-80756145D01*
X154780479Y-80721596D01*
X154805323Y-80691323D01*
X154835596Y-80666479D01*
X154870145Y-80648013D01*
X154907623Y-80636643D01*
X154952738Y-80632200D01*
X155691262Y-80632200D01*
X155736377Y-80636643D01*
X155736377Y-80636643D01*
G37*
G36*
X153986377Y-80636643D02*
X154023855Y-80648013D01*
X154058404Y-80666479D01*
X154088677Y-80691323D01*
X154113521Y-80721596D01*
X154131987Y-80756145D01*
X154143357Y-80793623D01*
X154147800Y-80838738D01*
X154147800Y-81477262D01*
X154143357Y-81522377D01*
X154131987Y-81559855D01*
X154113521Y-81594404D01*
X154088677Y-81624677D01*
X154058404Y-81649521D01*
X154023855Y-81667987D01*
X153986377Y-81679357D01*
X153941262Y-81683800D01*
X153202738Y-81683800D01*
X153157623Y-81679357D01*
X153120145Y-81667987D01*
X153085596Y-81649521D01*
X153055323Y-81624677D01*
X153030479Y-81594404D01*
X153012013Y-81559855D01*
X153000643Y-81522377D01*
X152996200Y-81477262D01*
X152996200Y-80838738D01*
X153000643Y-80793623D01*
X153012013Y-80756145D01*
X153030479Y-80721596D01*
X153055323Y-80691323D01*
X153085596Y-80666479D01*
X153120145Y-80648013D01*
X153157623Y-80636643D01*
X153202738Y-80632200D01*
X153941262Y-80632200D01*
X153986377Y-80636643D01*
X153986377Y-80636643D01*
G37*
G36*
X139864283Y-80142702D02*
X140001095Y-80184204D01*
X140127184Y-80251599D01*
X140237701Y-80342299D01*
X140328401Y-80452816D01*
X140395796Y-80578905D01*
X140437298Y-80715717D01*
X140451311Y-80858000D01*
X140437298Y-81000283D01*
X140395796Y-81137095D01*
X140328401Y-81263184D01*
X140237701Y-81373701D01*
X140127184Y-81464401D01*
X140001095Y-81531796D01*
X139864283Y-81573298D01*
X139757650Y-81583800D01*
X139686350Y-81583800D01*
X139579717Y-81573298D01*
X139442905Y-81531796D01*
X139316816Y-81464401D01*
X139206299Y-81373701D01*
X139115599Y-81263184D01*
X139048204Y-81137095D01*
X139006702Y-81000283D01*
X138992689Y-80858000D01*
X139006702Y-80715717D01*
X139048204Y-80578905D01*
X139115599Y-80452816D01*
X139206299Y-80342299D01*
X139316816Y-80251599D01*
X139442905Y-80184204D01*
X139579717Y-80142702D01*
X139686350Y-80132200D01*
X139757650Y-80132200D01*
X139864283Y-80142702D01*
X139864283Y-80142702D01*
G37*
G36*
X148810543Y-78786663D02*
X148848222Y-78798093D01*
X148882939Y-78816650D01*
X148913374Y-78841626D01*
X148938350Y-78872061D01*
X148956907Y-78906778D01*
X148968337Y-78944457D01*
X148972800Y-78989773D01*
X148972800Y-79826227D01*
X148968337Y-79871543D01*
X148956907Y-79909222D01*
X148938350Y-79943939D01*
X148913374Y-79974374D01*
X148882939Y-79999350D01*
X148848222Y-80017907D01*
X148810543Y-80029337D01*
X148765227Y-80033800D01*
X147678773Y-80033800D01*
X147633457Y-80029337D01*
X147595778Y-80017907D01*
X147561061Y-79999350D01*
X147530626Y-79974374D01*
X147505650Y-79943939D01*
X147487093Y-79909222D01*
X147475663Y-79871543D01*
X147471200Y-79826227D01*
X147471200Y-78989773D01*
X147475663Y-78944457D01*
X147487093Y-78906778D01*
X147505650Y-78872061D01*
X147530626Y-78841626D01*
X147561061Y-78816650D01*
X147595778Y-78798093D01*
X147633457Y-78786663D01*
X147678773Y-78782200D01*
X148765227Y-78782200D01*
X148810543Y-78786663D01*
X148810543Y-78786663D01*
G37*
G36*
X155686377Y-78686643D02*
X155723855Y-78698013D01*
X155758404Y-78716479D01*
X155788677Y-78741323D01*
X155813521Y-78771596D01*
X155831987Y-78806145D01*
X155843357Y-78843623D01*
X155847800Y-78888738D01*
X155847800Y-79627262D01*
X155843357Y-79672377D01*
X155831987Y-79709855D01*
X155813521Y-79744404D01*
X155788677Y-79774677D01*
X155758404Y-79799521D01*
X155723855Y-79817987D01*
X155686377Y-79829357D01*
X155641262Y-79833800D01*
X155002738Y-79833800D01*
X154957623Y-79829357D01*
X154920145Y-79817987D01*
X154885596Y-79799521D01*
X154855323Y-79774677D01*
X154830479Y-79744404D01*
X154812013Y-79709855D01*
X154800643Y-79672377D01*
X154796200Y-79627262D01*
X154796200Y-78888738D01*
X154800643Y-78843623D01*
X154812013Y-78806145D01*
X154830479Y-78771596D01*
X154855323Y-78741323D01*
X154885596Y-78716479D01*
X154920145Y-78698013D01*
X154957623Y-78686643D01*
X155002738Y-78682200D01*
X155641262Y-78682200D01*
X155686377Y-78686643D01*
X155686377Y-78686643D01*
G37*
G36*
X153586377Y-78736643D02*
X153623855Y-78748013D01*
X153658404Y-78766479D01*
X153688677Y-78791323D01*
X153713521Y-78821596D01*
X153731987Y-78856145D01*
X153743357Y-78893623D01*
X153747800Y-78938738D01*
X153747800Y-79577262D01*
X153743357Y-79622377D01*
X153731987Y-79659855D01*
X153713521Y-79694404D01*
X153688677Y-79724677D01*
X153658404Y-79749521D01*
X153623855Y-79767987D01*
X153586377Y-79779357D01*
X153541262Y-79783800D01*
X152802738Y-79783800D01*
X152757623Y-79779357D01*
X152720145Y-79767987D01*
X152685596Y-79749521D01*
X152655323Y-79724677D01*
X152630479Y-79694404D01*
X152612013Y-79659855D01*
X152600643Y-79622377D01*
X152596200Y-79577262D01*
X152596200Y-78938738D01*
X152600643Y-78893623D01*
X152612013Y-78856145D01*
X152630479Y-78821596D01*
X152655323Y-78791323D01*
X152685596Y-78766479D01*
X152720145Y-78748013D01*
X152757623Y-78736643D01*
X152802738Y-78732200D01*
X153541262Y-78732200D01*
X153586377Y-78736643D01*
X153586377Y-78736643D01*
G37*
G36*
X151836377Y-78736643D02*
X151873855Y-78748013D01*
X151908404Y-78766479D01*
X151938677Y-78791323D01*
X151963521Y-78821596D01*
X151981987Y-78856145D01*
X151993357Y-78893623D01*
X151997800Y-78938738D01*
X151997800Y-79577262D01*
X151993357Y-79622377D01*
X151981987Y-79659855D01*
X151963521Y-79694404D01*
X151938677Y-79724677D01*
X151908404Y-79749521D01*
X151873855Y-79767987D01*
X151836377Y-79779357D01*
X151791262Y-79783800D01*
X151052738Y-79783800D01*
X151007623Y-79779357D01*
X150970145Y-79767987D01*
X150935596Y-79749521D01*
X150905323Y-79724677D01*
X150880479Y-79694404D01*
X150862013Y-79659855D01*
X150850643Y-79622377D01*
X150846200Y-79577262D01*
X150846200Y-78938738D01*
X150850643Y-78893623D01*
X150862013Y-78856145D01*
X150880479Y-78821596D01*
X150905323Y-78791323D01*
X150935596Y-78766479D01*
X150970145Y-78748013D01*
X151007623Y-78736643D01*
X151052738Y-78732200D01*
X151791262Y-78732200D01*
X151836377Y-78736643D01*
X151836377Y-78736643D01*
G37*
G36*
X160851771Y-77811908D02*
X160899579Y-77816617D01*
X161022255Y-77853831D01*
X161022258Y-77853832D01*
X161135314Y-77914261D01*
X161234411Y-77995589D01*
X161315739Y-78094686D01*
X161376170Y-78207745D01*
X161409763Y-78318486D01*
X161419140Y-78341125D01*
X161422800Y-78346602D01*
X161422800Y-78419895D01*
X161423402Y-78432147D01*
X161425948Y-78458000D01*
X161423402Y-78483853D01*
X161422800Y-78496105D01*
X161422800Y-79708800D01*
X159421200Y-79708800D01*
X159421200Y-78496105D01*
X159420598Y-78483853D01*
X159418052Y-78458000D01*
X159420598Y-78432147D01*
X159421200Y-78419895D01*
X159421200Y-78346051D01*
X159434237Y-78318486D01*
X159467830Y-78207745D01*
X159528261Y-78094686D01*
X159609589Y-77995589D01*
X159708686Y-77914261D01*
X159821742Y-77853832D01*
X159821745Y-77853831D01*
X159944421Y-77816617D01*
X159992229Y-77811908D01*
X160040035Y-77807200D01*
X160803965Y-77807200D01*
X160851771Y-77811908D01*
X160851771Y-77811908D01*
G37*
G36*
X146386377Y-78536643D02*
X146423855Y-78548013D01*
X146458404Y-78566479D01*
X146488677Y-78591323D01*
X146513521Y-78621596D01*
X146531987Y-78656145D01*
X146543357Y-78693623D01*
X146547800Y-78738738D01*
X146547800Y-79477262D01*
X146543357Y-79522377D01*
X146531987Y-79559855D01*
X146513521Y-79594404D01*
X146488677Y-79624677D01*
X146458404Y-79649521D01*
X146423855Y-79667987D01*
X146386377Y-79679357D01*
X146341262Y-79683800D01*
X145702738Y-79683800D01*
X145657623Y-79679357D01*
X145620145Y-79667987D01*
X145585596Y-79649521D01*
X145555323Y-79624677D01*
X145530479Y-79594404D01*
X145512013Y-79559855D01*
X145500643Y-79522377D01*
X145496200Y-79477262D01*
X145496200Y-78738738D01*
X145500643Y-78693623D01*
X145512013Y-78656145D01*
X145530479Y-78621596D01*
X145555323Y-78591323D01*
X145585596Y-78566479D01*
X145620145Y-78548013D01*
X145657623Y-78536643D01*
X145702738Y-78532200D01*
X146341262Y-78532200D01*
X146386377Y-78536643D01*
X146386377Y-78536643D01*
G37*
G36*
X140447800Y-79583800D02*
X138996200Y-79583800D01*
X138996200Y-78132200D01*
X140447800Y-78132200D01*
X140447800Y-79583800D01*
X140447800Y-79583800D01*
G37*
G36*
X155686377Y-76936643D02*
X155723855Y-76948013D01*
X155758404Y-76966479D01*
X155788677Y-76991323D01*
X155813521Y-77021596D01*
X155831987Y-77056145D01*
X155843357Y-77093623D01*
X155847800Y-77138738D01*
X155847800Y-77877262D01*
X155843357Y-77922377D01*
X155831987Y-77959855D01*
X155813521Y-77994404D01*
X155788677Y-78024677D01*
X155758404Y-78049521D01*
X155723855Y-78067987D01*
X155686377Y-78079357D01*
X155641262Y-78083800D01*
X155002738Y-78083800D01*
X154957623Y-78079357D01*
X154920145Y-78067987D01*
X154885596Y-78049521D01*
X154855323Y-78024677D01*
X154830479Y-77994404D01*
X154812013Y-77959855D01*
X154800643Y-77922377D01*
X154796200Y-77877262D01*
X154796200Y-77138738D01*
X154800643Y-77093623D01*
X154812013Y-77056145D01*
X154830479Y-77021596D01*
X154855323Y-76991323D01*
X154885596Y-76966479D01*
X154920145Y-76948013D01*
X154957623Y-76936643D01*
X155002738Y-76932200D01*
X155641262Y-76932200D01*
X155686377Y-76936643D01*
X155686377Y-76936643D01*
G37*
G36*
X148810543Y-76736663D02*
X148848222Y-76748093D01*
X148882939Y-76766650D01*
X148913374Y-76791626D01*
X148938350Y-76822061D01*
X148956907Y-76856778D01*
X148968337Y-76894457D01*
X148972800Y-76939773D01*
X148972800Y-77776227D01*
X148968337Y-77821543D01*
X148956907Y-77859222D01*
X148938350Y-77893939D01*
X148913374Y-77924374D01*
X148882939Y-77949350D01*
X148848222Y-77967907D01*
X148810543Y-77979337D01*
X148765227Y-77983800D01*
X147678773Y-77983800D01*
X147633457Y-77979337D01*
X147595778Y-77967907D01*
X147561061Y-77949350D01*
X147530626Y-77924374D01*
X147505650Y-77893939D01*
X147487093Y-77859222D01*
X147475663Y-77821543D01*
X147471200Y-77776227D01*
X147471200Y-76939773D01*
X147475663Y-76894457D01*
X147487093Y-76856778D01*
X147505650Y-76822061D01*
X147530626Y-76791626D01*
X147561061Y-76766650D01*
X147595778Y-76748093D01*
X147633457Y-76736663D01*
X147678773Y-76732200D01*
X148765227Y-76732200D01*
X148810543Y-76736663D01*
X148810543Y-76736663D01*
G37*
G36*
X146386377Y-76786643D02*
X146423855Y-76798013D01*
X146458404Y-76816479D01*
X146488677Y-76841323D01*
X146513521Y-76871596D01*
X146531987Y-76906145D01*
X146543357Y-76943623D01*
X146547800Y-76988738D01*
X146547800Y-77727262D01*
X146543357Y-77772377D01*
X146531987Y-77809855D01*
X146513521Y-77844404D01*
X146488677Y-77874677D01*
X146458404Y-77899521D01*
X146423855Y-77917987D01*
X146386377Y-77929357D01*
X146341262Y-77933800D01*
X145702738Y-77933800D01*
X145657623Y-77929357D01*
X145620145Y-77917987D01*
X145585596Y-77899521D01*
X145555323Y-77874677D01*
X145530479Y-77844404D01*
X145512013Y-77809855D01*
X145500643Y-77772377D01*
X145496200Y-77727262D01*
X145496200Y-76988738D01*
X145500643Y-76943623D01*
X145512013Y-76906145D01*
X145530479Y-76871596D01*
X145555323Y-76841323D01*
X145585596Y-76816479D01*
X145620145Y-76798013D01*
X145657623Y-76786643D01*
X145702738Y-76782200D01*
X146341262Y-76782200D01*
X146386377Y-76786643D01*
X146386377Y-76786643D01*
G37*
G36*
X155680800Y-75834800D02*
X144419200Y-75834800D01*
X144419200Y-74533200D01*
X155680800Y-74533200D01*
X155680800Y-75834800D01*
X155680800Y-75834800D01*
G37*
G36*
X141586377Y-74036643D02*
X141623855Y-74048013D01*
X141658404Y-74066479D01*
X141688677Y-74091323D01*
X141713521Y-74121596D01*
X141731987Y-74156145D01*
X141743357Y-74193623D01*
X141747800Y-74238738D01*
X141747800Y-74877262D01*
X141743357Y-74922377D01*
X141731987Y-74959855D01*
X141713521Y-74994404D01*
X141688677Y-75024677D01*
X141658404Y-75049521D01*
X141623855Y-75067987D01*
X141586377Y-75079357D01*
X141541262Y-75083800D01*
X140802738Y-75083800D01*
X140757623Y-75079357D01*
X140720145Y-75067987D01*
X140685596Y-75049521D01*
X140655323Y-75024677D01*
X140630479Y-74994404D01*
X140612013Y-74959855D01*
X140600643Y-74922377D01*
X140596200Y-74877262D01*
X140596200Y-74238738D01*
X140600643Y-74193623D01*
X140612013Y-74156145D01*
X140630479Y-74121596D01*
X140655323Y-74091323D01*
X140685596Y-74066479D01*
X140720145Y-74048013D01*
X140757623Y-74036643D01*
X140802738Y-74032200D01*
X141541262Y-74032200D01*
X141586377Y-74036643D01*
X141586377Y-74036643D01*
G37*
G36*
X139836377Y-74036643D02*
X139873855Y-74048013D01*
X139908404Y-74066479D01*
X139938677Y-74091323D01*
X139963521Y-74121596D01*
X139981987Y-74156145D01*
X139993357Y-74193623D01*
X139997800Y-74238738D01*
X139997800Y-74877262D01*
X139993357Y-74922377D01*
X139981987Y-74959855D01*
X139963521Y-74994404D01*
X139938677Y-75024677D01*
X139908404Y-75049521D01*
X139873855Y-75067987D01*
X139836377Y-75079357D01*
X139791262Y-75083800D01*
X139052738Y-75083800D01*
X139007623Y-75079357D01*
X138970145Y-75067987D01*
X138935596Y-75049521D01*
X138905323Y-75024677D01*
X138880479Y-74994404D01*
X138862013Y-74959855D01*
X138850643Y-74922377D01*
X138846200Y-74877262D01*
X138846200Y-74238738D01*
X138850643Y-74193623D01*
X138862013Y-74156145D01*
X138880479Y-74121596D01*
X138905323Y-74091323D01*
X138935596Y-74066479D01*
X138970145Y-74048013D01*
X139007623Y-74036643D01*
X139052738Y-74032200D01*
X139791262Y-74032200D01*
X139836377Y-74036643D01*
X139836377Y-74036643D01*
G37*
G36*
X144160800Y-74734800D02*
X142859200Y-74734800D01*
X142859200Y-68553200D01*
X144160800Y-68553200D01*
X144160800Y-74734800D01*
X144160800Y-74734800D01*
G37*
G36*
X157660800Y-74734800D02*
X156359200Y-74734800D01*
X156359200Y-67283200D01*
X157660800Y-67283200D01*
X157660800Y-74734800D01*
X157660800Y-74734800D01*
G37*
G36*
X161147800Y-71182200D02*
X161150202Y-71206586D01*
X161157315Y-71230035D01*
X161168866Y-71251646D01*
X161184412Y-71270588D01*
X161203354Y-71286134D01*
X161224965Y-71297685D01*
X161248414Y-71304798D01*
X161272800Y-71307200D01*
X161897800Y-71307200D01*
X161897800Y-73108800D01*
X161272800Y-73108800D01*
X161248414Y-73111202D01*
X161224965Y-73118315D01*
X161203354Y-73129866D01*
X161184412Y-73145412D01*
X161168866Y-73164354D01*
X161157315Y-73185965D01*
X161150202Y-73209414D01*
X161147800Y-73233800D01*
X161147800Y-73358800D01*
X159846200Y-73358800D01*
X159846200Y-73233800D01*
X159843798Y-73209414D01*
X159836685Y-73185965D01*
X159825134Y-73164354D01*
X159809588Y-73145412D01*
X159790646Y-73129866D01*
X159769035Y-73118315D01*
X159745586Y-73111202D01*
X159721200Y-73108800D01*
X159096200Y-73108800D01*
X159096200Y-71733800D01*
X159647800Y-71733800D01*
X159647800Y-72682200D01*
X159650202Y-72706586D01*
X159657315Y-72730035D01*
X159668866Y-72751646D01*
X159684412Y-72770588D01*
X159703354Y-72786134D01*
X159724965Y-72797685D01*
X159748414Y-72804798D01*
X159772800Y-72807200D01*
X161221200Y-72807200D01*
X161245586Y-72804798D01*
X161269035Y-72797685D01*
X161290646Y-72786134D01*
X161309588Y-72770588D01*
X161325134Y-72751646D01*
X161336685Y-72730035D01*
X161343798Y-72706586D01*
X161346200Y-72682200D01*
X161346200Y-71733800D01*
X161343798Y-71709414D01*
X161336685Y-71685965D01*
X161325134Y-71664354D01*
X161309588Y-71645412D01*
X161290646Y-71629866D01*
X161269035Y-71618315D01*
X161245586Y-71611202D01*
X161221200Y-71608800D01*
X159772800Y-71608800D01*
X159748414Y-71611202D01*
X159724965Y-71618315D01*
X159703354Y-71629866D01*
X159684412Y-71645412D01*
X159668866Y-71664354D01*
X159657315Y-71685965D01*
X159650202Y-71709414D01*
X159647800Y-71733800D01*
X159096200Y-71733800D01*
X159096200Y-71307200D01*
X159721200Y-71307200D01*
X159745586Y-71304798D01*
X159769035Y-71297685D01*
X159790646Y-71286134D01*
X159809588Y-71270588D01*
X159825134Y-71251646D01*
X159836685Y-71230035D01*
X159843798Y-71206586D01*
X159846200Y-71182200D01*
X159846200Y-71057200D01*
X161147800Y-71057200D01*
X161147800Y-71182200D01*
X161147800Y-71182200D01*
G37*
G36*
X139836377Y-72236643D02*
X139873855Y-72248013D01*
X139908404Y-72266479D01*
X139938677Y-72291323D01*
X139963521Y-72321596D01*
X139981987Y-72356145D01*
X139993357Y-72393623D01*
X139997800Y-72438738D01*
X139997800Y-73077262D01*
X139993357Y-73122377D01*
X139981987Y-73159855D01*
X139963521Y-73194404D01*
X139938677Y-73224677D01*
X139908404Y-73249521D01*
X139873855Y-73267987D01*
X139836377Y-73279357D01*
X139791262Y-73283800D01*
X139052738Y-73283800D01*
X139007623Y-73279357D01*
X138970145Y-73267987D01*
X138935596Y-73249521D01*
X138905323Y-73224677D01*
X138880479Y-73194404D01*
X138862013Y-73159855D01*
X138850643Y-73122377D01*
X138846200Y-73077262D01*
X138846200Y-72438738D01*
X138850643Y-72393623D01*
X138862013Y-72356145D01*
X138880479Y-72321596D01*
X138905323Y-72291323D01*
X138935596Y-72266479D01*
X138970145Y-72248013D01*
X139007623Y-72236643D01*
X139052738Y-72232200D01*
X139791262Y-72232200D01*
X139836377Y-72236643D01*
X139836377Y-72236643D01*
G37*
G36*
X141586377Y-72236643D02*
X141623855Y-72248013D01*
X141658404Y-72266479D01*
X141688677Y-72291323D01*
X141713521Y-72321596D01*
X141731987Y-72356145D01*
X141743357Y-72393623D01*
X141747800Y-72438738D01*
X141747800Y-73077262D01*
X141743357Y-73122377D01*
X141731987Y-73159855D01*
X141713521Y-73194404D01*
X141688677Y-73224677D01*
X141658404Y-73249521D01*
X141623855Y-73267987D01*
X141586377Y-73279357D01*
X141541262Y-73283800D01*
X140802738Y-73283800D01*
X140757623Y-73279357D01*
X140720145Y-73267987D01*
X140685596Y-73249521D01*
X140655323Y-73224677D01*
X140630479Y-73194404D01*
X140612013Y-73159855D01*
X140600643Y-73122377D01*
X140596200Y-73077262D01*
X140596200Y-72438738D01*
X140600643Y-72393623D01*
X140612013Y-72356145D01*
X140630479Y-72321596D01*
X140655323Y-72291323D01*
X140685596Y-72266479D01*
X140720145Y-72248013D01*
X140757623Y-72236643D01*
X140802738Y-72232200D01*
X141541262Y-72232200D01*
X141586377Y-72236643D01*
X141586377Y-72236643D01*
G37*
G36*
X161736377Y-68836643D02*
X161773855Y-68848013D01*
X161808404Y-68866479D01*
X161838677Y-68891323D01*
X161863521Y-68921596D01*
X161881987Y-68956145D01*
X161893357Y-68993623D01*
X161897800Y-69038738D01*
X161897800Y-69677262D01*
X161893357Y-69722377D01*
X161881987Y-69759855D01*
X161863521Y-69794404D01*
X161838677Y-69824677D01*
X161808404Y-69849521D01*
X161773855Y-69867987D01*
X161736377Y-69879357D01*
X161691262Y-69883800D01*
X160952738Y-69883800D01*
X160907623Y-69879357D01*
X160870145Y-69867987D01*
X160835596Y-69849521D01*
X160805323Y-69824677D01*
X160780479Y-69794404D01*
X160762013Y-69759855D01*
X160750643Y-69722377D01*
X160746200Y-69677262D01*
X160746200Y-69038738D01*
X160750643Y-68993623D01*
X160762013Y-68956145D01*
X160780479Y-68921596D01*
X160805323Y-68891323D01*
X160835596Y-68866479D01*
X160870145Y-68848013D01*
X160907623Y-68836643D01*
X160952738Y-68832200D01*
X161691262Y-68832200D01*
X161736377Y-68836643D01*
X161736377Y-68836643D01*
G37*
G36*
X159986377Y-68836643D02*
X160023855Y-68848013D01*
X160058404Y-68866479D01*
X160088677Y-68891323D01*
X160113521Y-68921596D01*
X160131987Y-68956145D01*
X160143357Y-68993623D01*
X160147800Y-69038738D01*
X160147800Y-69677262D01*
X160143357Y-69722377D01*
X160131987Y-69759855D01*
X160113521Y-69794404D01*
X160088677Y-69824677D01*
X160058404Y-69849521D01*
X160023855Y-69867987D01*
X159986377Y-69879357D01*
X159941262Y-69883800D01*
X159202738Y-69883800D01*
X159157623Y-69879357D01*
X159120145Y-69867987D01*
X159085596Y-69849521D01*
X159055323Y-69824677D01*
X159030479Y-69794404D01*
X159012013Y-69759855D01*
X159000643Y-69722377D01*
X158996200Y-69677262D01*
X158996200Y-69038738D01*
X159000643Y-68993623D01*
X159012013Y-68956145D01*
X159030479Y-68921596D01*
X159055323Y-68891323D01*
X159085596Y-68866479D01*
X159120145Y-68848013D01*
X159157623Y-68836643D01*
X159202738Y-68832200D01*
X159941262Y-68832200D01*
X159986377Y-68836643D01*
X159986377Y-68836643D01*
G37*
G36*
X159986377Y-67136643D02*
X160023855Y-67148013D01*
X160058404Y-67166479D01*
X160088677Y-67191323D01*
X160113521Y-67221596D01*
X160131987Y-67256145D01*
X160143357Y-67293623D01*
X160147800Y-67338738D01*
X160147800Y-67977262D01*
X160143357Y-68022377D01*
X160131987Y-68059855D01*
X160113521Y-68094404D01*
X160088677Y-68124677D01*
X160058404Y-68149521D01*
X160023855Y-68167987D01*
X159986377Y-68179357D01*
X159941262Y-68183800D01*
X159202738Y-68183800D01*
X159157623Y-68179357D01*
X159120145Y-68167987D01*
X159085596Y-68149521D01*
X159055323Y-68124677D01*
X159030479Y-68094404D01*
X159012013Y-68059855D01*
X159000643Y-68022377D01*
X158996200Y-67977262D01*
X158996200Y-67338738D01*
X159000643Y-67293623D01*
X159012013Y-67256145D01*
X159030479Y-67221596D01*
X159055323Y-67191323D01*
X159085596Y-67166479D01*
X159120145Y-67148013D01*
X159157623Y-67136643D01*
X159202738Y-67132200D01*
X159941262Y-67132200D01*
X159986377Y-67136643D01*
X159986377Y-67136643D01*
G37*
G36*
X161736377Y-67136643D02*
X161773855Y-67148013D01*
X161808404Y-67166479D01*
X161838677Y-67191323D01*
X161863521Y-67221596D01*
X161881987Y-67256145D01*
X161893357Y-67293623D01*
X161897800Y-67338738D01*
X161897800Y-67977262D01*
X161893357Y-68022377D01*
X161881987Y-68059855D01*
X161863521Y-68094404D01*
X161838677Y-68124677D01*
X161808404Y-68149521D01*
X161773855Y-68167987D01*
X161736377Y-68179357D01*
X161691262Y-68183800D01*
X160952738Y-68183800D01*
X160907623Y-68179357D01*
X160870145Y-68167987D01*
X160835596Y-68149521D01*
X160805323Y-68124677D01*
X160780479Y-68094404D01*
X160762013Y-68059855D01*
X160750643Y-68022377D01*
X160746200Y-67977262D01*
X160746200Y-67338738D01*
X160750643Y-67293623D01*
X160762013Y-67256145D01*
X160780479Y-67221596D01*
X160805323Y-67191323D01*
X160835596Y-67166479D01*
X160870145Y-67148013D01*
X160907623Y-67136643D01*
X160952738Y-67132200D01*
X161691262Y-67132200D01*
X161736377Y-67136643D01*
X161736377Y-67136643D01*
G37*
G36*
X155680800Y-64334800D02*
X152039200Y-64334800D01*
X152039200Y-63033200D01*
X155680800Y-63033200D01*
X155680800Y-64334800D01*
X155680800Y-64334800D01*
G37*
M02*
