G04 #@! TF.GenerationSoftware,KiCad,Pcbnew,(5.0.2)-1*
G04 #@! TF.CreationDate,2019-06-28T12:16:38-04:00*
G04 #@! TF.ProjectId,BlueNRG-SPBTLE-1S ACM,426c7565-4e52-4472-9d53-5042544c452d,rev?*
G04 #@! TF.SameCoordinates,Original*
G04 #@! TF.FileFunction,Legend,Bot*
G04 #@! TF.FilePolarity,Positive*
%FSLAX46Y46*%
G04 Gerber Fmt 4.6, Leading zero omitted, Abs format (unit mm)*
G04 Created by KiCad (PCBNEW (5.0.2)-1) date 6/28/2019 12:16:38 PM*
%MOMM*%
%LPD*%
G01*
G04 APERTURE LIST*
%ADD10C,0.150000*%
%ADD11C,0.120000*%
G04 APERTURE END LIST*
D10*
X142744371Y-87049428D02*
X142381514Y-88065428D01*
X142018657Y-87049428D01*
X141583228Y-86541428D02*
X140639800Y-86541428D01*
X141147800Y-87122000D01*
X140930085Y-87122000D01*
X140784942Y-87194571D01*
X140712371Y-87267142D01*
X140639800Y-87412285D01*
X140639800Y-87775142D01*
X140712371Y-87920285D01*
X140784942Y-87992857D01*
X140930085Y-88065428D01*
X141365514Y-88065428D01*
X141510657Y-87992857D01*
X141583228Y-87920285D01*
D11*
G04 #@! TO.C,J3*
X142062000Y-91948000D02*
X139562000Y-91948000D01*
X139562000Y-91948000D02*
X139562000Y-92998000D01*
X139562000Y-92998000D02*
X138572000Y-92998000D01*
X142062000Y-96168000D02*
X139562000Y-96168000D01*
X139562000Y-96168000D02*
X139562000Y-95118000D01*
X144032000Y-93118000D02*
X144032000Y-94998000D01*
D10*
X141655333Y-89710380D02*
X141655333Y-90424666D01*
X141702952Y-90567523D01*
X141798190Y-90662761D01*
X141941047Y-90710380D01*
X142036285Y-90710380D01*
X141274380Y-89710380D02*
X140655333Y-89710380D01*
X140988666Y-90091333D01*
X140845809Y-90091333D01*
X140750571Y-90138952D01*
X140702952Y-90186571D01*
X140655333Y-90281809D01*
X140655333Y-90519904D01*
X140702952Y-90615142D01*
X140750571Y-90662761D01*
X140845809Y-90710380D01*
X141131523Y-90710380D01*
X141226761Y-90662761D01*
X141274380Y-90615142D01*
G04 #@! TD*
M02*
