%FSLAX45Y45*%
G04 Gerber Fmt 4.5, Leading zero omitted, Abs format (unit mm)*
G04 Created by KiCad (PCBNEW (5.0.2)-1) date 6/28/2019 12:16:42 PM*
%MOMM*%
%LPD*%
G01*
G04 APERTURE LIST*
%ADD10C,0.025400*%
%ADD11C,0.200000*%
%ADD12C,0.300000*%
G04 APERTURE END LIST*
D10*
X15550000Y-6650000D02*
X15550000Y-6800000D01*
X13800000Y-6800000D02*
X15550000Y-6800000D01*
X15550000Y-6650000D02*
X16300000Y-6650000D01*
X13800000Y-9700000D02*
X13800000Y-6800000D01*
X16300000Y-9700000D02*
X13800000Y-9700000D01*
X16300000Y-6650000D02*
X16300000Y-9700000D01*
D11*
X15473200Y-9216800D02*
X15493200Y-9236800D01*
X15493200Y-9216800D02*
X15473200Y-9236800D01*
X15473200Y-9334800D02*
X15493200Y-9354800D01*
X15493200Y-9334800D02*
X15473200Y-9354800D01*
X15591200Y-9216800D02*
X15611200Y-9236800D01*
X15611200Y-9216800D02*
X15591200Y-9236800D01*
X15591200Y-9334800D02*
X15611200Y-9354800D01*
X15611200Y-9334800D02*
X15591200Y-9354800D01*
X14111250Y-9555800D02*
G75*
G03X14111250Y-9555800I-19050J0D01*
G01*
X14381250Y-8125800D02*
G75*
G03X14381250Y-8125800I-19050J0D01*
G01*
X14641250Y-9255800D02*
G75*
G03X14641250Y-9255800I-19050J0D01*
G01*
X14651250Y-9585800D02*
G75*
G03X14651250Y-9585800I-19050J0D01*
G01*
X15121250Y-8435800D02*
G75*
G03X15121250Y-8435800I-19050J0D01*
G01*
X15181250Y-7725800D02*
G75*
G03X15181250Y-7725800I-19050J0D01*
G01*
X15311250Y-7695800D02*
G75*
G03X15311250Y-7695800I-19050J0D01*
G01*
X15320544Y-9435353D02*
G75*
G03X15320544Y-9435353I-19050J0D01*
G01*
X15321250Y-9615800D02*
G75*
G03X15321250Y-9615800I-19050J0D01*
G01*
X15381250Y-8595800D02*
G75*
G03X15381250Y-8595800I-19050J0D01*
G01*
X15402886Y-7685618D02*
G75*
G03X15402886Y-7685618I-19050J0D01*
G01*
X15411250Y-7155800D02*
G75*
G03X15411250Y-7155800I-19050J0D01*
G01*
X15491250Y-8485800D02*
G75*
G03X15491250Y-8485800I-19050J0D01*
G01*
X15541250Y-7335800D02*
G75*
G03X15541250Y-7335800I-19050J0D01*
G01*
X15611250Y-8805800D02*
G75*
G03X15611250Y-8805800I-19050J0D01*
G01*
X15701250Y-8665800D02*
G75*
G03X15701250Y-8665800I-19050J0D01*
G01*
X15821250Y-9455800D02*
G75*
G03X15821250Y-9455800I-19050J0D01*
G01*
X15826322Y-6705370D02*
G75*
G03X15826322Y-6705370I-19050J0D01*
G01*
X15841250Y-7175800D02*
G75*
G03X15841250Y-7175800I-19050J0D01*
G01*
X15841250Y-9215800D02*
G75*
G03X15841250Y-9215800I-19050J0D01*
G01*
X15847650Y-7295800D02*
G75*
G03X15847650Y-7295800I-19050J0D01*
G01*
X15851250Y-6795800D02*
G75*
G03X15851250Y-6795800I-19050J0D01*
G01*
X15851250Y-9048700D02*
G75*
G03X15851250Y-9048700I-19050J0D01*
G01*
X15861250Y-6905800D02*
G75*
G03X15861250Y-6905800I-19050J0D01*
G01*
X15866761Y-7020289D02*
G75*
G03X15866761Y-7020289I-19050J0D01*
G01*
X15901250Y-7485800D02*
G75*
G03X15901250Y-7485800I-19050J0D01*
G01*
X16181250Y-7435800D02*
G75*
G03X16181250Y-7435800I-19050J0D01*
G01*
X16263680Y-7015800D02*
G75*
G03X16263680Y-7015800I-19050J0D01*
G01*
X16042200Y-7815800D02*
X16042200Y-7875800D01*
X16012200Y-7845800D02*
X16072200Y-7845800D01*
X16007200Y-7865800D02*
X16077200Y-7865800D01*
X16007200Y-7825800D02*
X16077200Y-7825800D01*
X16077200Y-7865800D02*
G75*
G03X16077200Y-7825800I0J20000D01*
G01*
X16007200Y-7825800D02*
G75*
G03X16007200Y-7865800I0J-20000D01*
G01*
X16042200Y-8515800D02*
X16042200Y-8575800D01*
X16012200Y-8545800D02*
X16072200Y-8545800D01*
X16077200Y-8525800D02*
X16007200Y-8525800D01*
X16077200Y-8565800D02*
X16007200Y-8565800D01*
X16007200Y-8525800D02*
G75*
G03X16007200Y-8565800I0J-20000D01*
G01*
X16077200Y-8565800D02*
G75*
G03X16077200Y-8525800I0J20000D01*
G01*
X14000484Y-7914084D02*
X14000484Y-7857515D01*
X13943915Y-7857515D01*
X13943915Y-7914084D01*
X14000484Y-7914084D01*
X14000484Y-8114084D02*
X14000484Y-8057515D01*
X13943915Y-8057515D01*
X13943915Y-8114084D01*
X14000484Y-8114084D01*
X14000484Y-8314084D02*
X14000484Y-8257515D01*
X13943915Y-8257515D01*
X13943915Y-8314084D01*
X14000484Y-8314084D01*
X14000484Y-8514085D02*
X14000484Y-8457516D01*
X13943915Y-8457516D01*
X13943915Y-8514085D01*
X14000484Y-8514085D01*
X15772200Y-7988300D02*
X15814700Y-7945800D01*
X15772200Y-7903300D01*
X15729700Y-7945800D01*
X15772200Y-7988300D01*
X15772200Y-8488300D02*
X15814700Y-8445800D01*
X15772200Y-8403300D01*
X15729700Y-8445800D01*
X15772200Y-8488300D01*
D12*
X14085158Y-10166984D02*
X14085158Y-9866984D01*
X14156587Y-9866984D01*
X14199444Y-9881270D01*
X14228016Y-9909842D01*
X14242301Y-9938413D01*
X14256587Y-9995556D01*
X14256587Y-10038413D01*
X14242301Y-10095556D01*
X14228016Y-10124127D01*
X14199444Y-10152699D01*
X14156587Y-10166984D01*
X14085158Y-10166984D01*
X14385158Y-10166984D02*
X14385158Y-9966984D01*
X14385158Y-10024127D02*
X14399444Y-9995556D01*
X14413730Y-9981270D01*
X14442301Y-9966984D01*
X14470873Y-9966984D01*
X14570873Y-10166984D02*
X14570873Y-9966984D01*
X14570873Y-9866984D02*
X14556587Y-9881270D01*
X14570873Y-9895556D01*
X14585158Y-9881270D01*
X14570873Y-9866984D01*
X14570873Y-9895556D01*
X14756587Y-10166984D02*
X14728016Y-10152699D01*
X14713730Y-10124127D01*
X14713730Y-9866984D01*
X14913730Y-10166984D02*
X14885158Y-10152699D01*
X14870873Y-10124127D01*
X14870873Y-9866984D01*
X15256587Y-10166984D02*
X15256587Y-9866984D01*
X15356587Y-10081270D01*
X15456587Y-9866984D01*
X15456587Y-10166984D01*
X15728016Y-10166984D02*
X15728016Y-10009842D01*
X15713730Y-9981270D01*
X15685158Y-9966984D01*
X15628016Y-9966984D01*
X15599444Y-9981270D01*
X15728016Y-10152699D02*
X15699444Y-10166984D01*
X15628016Y-10166984D01*
X15599444Y-10152699D01*
X15585158Y-10124127D01*
X15585158Y-10095556D01*
X15599444Y-10066984D01*
X15628016Y-10052699D01*
X15699444Y-10052699D01*
X15728016Y-10038413D01*
X15870873Y-9966984D02*
X15870873Y-10266984D01*
X15870873Y-9981270D02*
X15899444Y-9966984D01*
X15956587Y-9966984D01*
X15985158Y-9981270D01*
X15999444Y-9995556D01*
X16013730Y-10024127D01*
X16013730Y-10109842D01*
X15999444Y-10138413D01*
X15985158Y-10152699D01*
X15956587Y-10166984D01*
X15899444Y-10166984D01*
X15870873Y-10152699D01*
X16142301Y-10138413D02*
X16156587Y-10152699D01*
X16142301Y-10166984D01*
X16128016Y-10152699D01*
X16142301Y-10138413D01*
X16142301Y-10166984D01*
X16142301Y-9981270D02*
X16156587Y-9995556D01*
X16142301Y-10009842D01*
X16128016Y-9995556D01*
X16142301Y-9981270D01*
X16142301Y-10009842D01*
X13778730Y-10651270D02*
X13798730Y-10671270D01*
X13798730Y-10651270D02*
X13778730Y-10671270D01*
X14142301Y-10496984D02*
X14170873Y-10496984D01*
X14199444Y-10511270D01*
X14213730Y-10525556D01*
X14228016Y-10554127D01*
X14242301Y-10611270D01*
X14242301Y-10682699D01*
X14228016Y-10739842D01*
X14213730Y-10768413D01*
X14199444Y-10782699D01*
X14170873Y-10796984D01*
X14142301Y-10796984D01*
X14113730Y-10782699D01*
X14099444Y-10768413D01*
X14085158Y-10739842D01*
X14070873Y-10682699D01*
X14070873Y-10611270D01*
X14085158Y-10554127D01*
X14099444Y-10525556D01*
X14113730Y-10511270D01*
X14142301Y-10496984D01*
X14370873Y-10768413D02*
X14385158Y-10782699D01*
X14370873Y-10796984D01*
X14356587Y-10782699D01*
X14370873Y-10768413D01*
X14370873Y-10796984D01*
X14499444Y-10525556D02*
X14513730Y-10511270D01*
X14542301Y-10496984D01*
X14613730Y-10496984D01*
X14642301Y-10511270D01*
X14656587Y-10525556D01*
X14670873Y-10554127D01*
X14670873Y-10582699D01*
X14656587Y-10625556D01*
X14485158Y-10796984D01*
X14670873Y-10796984D01*
X14856587Y-10496984D02*
X14885158Y-10496984D01*
X14913730Y-10511270D01*
X14928016Y-10525556D01*
X14942301Y-10554127D01*
X14956587Y-10611270D01*
X14956587Y-10682699D01*
X14942301Y-10739842D01*
X14928016Y-10768413D01*
X14913730Y-10782699D01*
X14885158Y-10796984D01*
X14856587Y-10796984D01*
X14828016Y-10782699D01*
X14813730Y-10768413D01*
X14799444Y-10739842D01*
X14785158Y-10682699D01*
X14785158Y-10611270D01*
X14799444Y-10554127D01*
X14813730Y-10525556D01*
X14828016Y-10511270D01*
X14856587Y-10496984D01*
X15085158Y-10796984D02*
X15085158Y-10596984D01*
X15085158Y-10625556D02*
X15099444Y-10611270D01*
X15128016Y-10596984D01*
X15170873Y-10596984D01*
X15199444Y-10611270D01*
X15213730Y-10639842D01*
X15213730Y-10796984D01*
X15213730Y-10639842D02*
X15228016Y-10611270D01*
X15256587Y-10596984D01*
X15299444Y-10596984D01*
X15328016Y-10611270D01*
X15342301Y-10639842D01*
X15342301Y-10796984D01*
X15485158Y-10796984D02*
X15485158Y-10596984D01*
X15485158Y-10625556D02*
X15499444Y-10611270D01*
X15528016Y-10596984D01*
X15570873Y-10596984D01*
X15599444Y-10611270D01*
X15613730Y-10639842D01*
X15613730Y-10796984D01*
X15613730Y-10639842D02*
X15628016Y-10611270D01*
X15656587Y-10596984D01*
X15699444Y-10596984D01*
X15728016Y-10611270D01*
X15742301Y-10639842D01*
X15742301Y-10796984D01*
X16328016Y-10482699D02*
X16070873Y-10868413D01*
X16713730Y-10496984D02*
X16742301Y-10496984D01*
X16770873Y-10511270D01*
X16785158Y-10525556D01*
X16799444Y-10554127D01*
X16813730Y-10611270D01*
X16813730Y-10682699D01*
X16799444Y-10739842D01*
X16785158Y-10768413D01*
X16770873Y-10782699D01*
X16742301Y-10796984D01*
X16713730Y-10796984D01*
X16685158Y-10782699D01*
X16670873Y-10768413D01*
X16656587Y-10739842D01*
X16642301Y-10682699D01*
X16642301Y-10611270D01*
X16656587Y-10554127D01*
X16670873Y-10525556D01*
X16685158Y-10511270D01*
X16713730Y-10496984D01*
X16942301Y-10768413D02*
X16956587Y-10782699D01*
X16942301Y-10796984D01*
X16928016Y-10782699D01*
X16942301Y-10768413D01*
X16942301Y-10796984D01*
X17142301Y-10496984D02*
X17170873Y-10496984D01*
X17199444Y-10511270D01*
X17213730Y-10525556D01*
X17228016Y-10554127D01*
X17242301Y-10611270D01*
X17242301Y-10682699D01*
X17228016Y-10739842D01*
X17213730Y-10768413D01*
X17199444Y-10782699D01*
X17170873Y-10796984D01*
X17142301Y-10796984D01*
X17113730Y-10782699D01*
X17099444Y-10768413D01*
X17085158Y-10739842D01*
X17070873Y-10682699D01*
X17070873Y-10611270D01*
X17085158Y-10554127D01*
X17099444Y-10525556D01*
X17113730Y-10511270D01*
X17142301Y-10496984D01*
X17428016Y-10496984D02*
X17456587Y-10496984D01*
X17485158Y-10511270D01*
X17499444Y-10525556D01*
X17513730Y-10554127D01*
X17528016Y-10611270D01*
X17528016Y-10682699D01*
X17513730Y-10739842D01*
X17499444Y-10768413D01*
X17485158Y-10782699D01*
X17456587Y-10796984D01*
X17428016Y-10796984D01*
X17399444Y-10782699D01*
X17385158Y-10768413D01*
X17370873Y-10739842D01*
X17356587Y-10682699D01*
X17356587Y-10611270D01*
X17370873Y-10554127D01*
X17385158Y-10525556D01*
X17399444Y-10511270D01*
X17428016Y-10496984D01*
X17699444Y-10625556D02*
X17670873Y-10611270D01*
X17656587Y-10596984D01*
X17642301Y-10568413D01*
X17642301Y-10554127D01*
X17656587Y-10525556D01*
X17670873Y-10511270D01*
X17699444Y-10496984D01*
X17756587Y-10496984D01*
X17785158Y-10511270D01*
X17799444Y-10525556D01*
X17813730Y-10554127D01*
X17813730Y-10568413D01*
X17799444Y-10596984D01*
X17785158Y-10611270D01*
X17756587Y-10625556D01*
X17699444Y-10625556D01*
X17670873Y-10639842D01*
X17656587Y-10654127D01*
X17642301Y-10682699D01*
X17642301Y-10739842D01*
X17656587Y-10768413D01*
X17670873Y-10782699D01*
X17699444Y-10796984D01*
X17756587Y-10796984D01*
X17785158Y-10782699D01*
X17799444Y-10768413D01*
X17813730Y-10739842D01*
X17813730Y-10682699D01*
X17799444Y-10654127D01*
X17785158Y-10639842D01*
X17756587Y-10625556D01*
X17928016Y-10496984D02*
X17928016Y-10554127D01*
X18042301Y-10496984D02*
X18042301Y-10554127D01*
X18485158Y-10911270D02*
X18470873Y-10896984D01*
X18442301Y-10854127D01*
X18428016Y-10825556D01*
X18413730Y-10782699D01*
X18399444Y-10711270D01*
X18399444Y-10654127D01*
X18413730Y-10582699D01*
X18428016Y-10539842D01*
X18442301Y-10511270D01*
X18470873Y-10468413D01*
X18485158Y-10454127D01*
X18728016Y-10596984D02*
X18728016Y-10796984D01*
X18656587Y-10482699D02*
X18585158Y-10696984D01*
X18770873Y-10696984D01*
X19113730Y-10796984D02*
X19113730Y-10496984D01*
X19242301Y-10796984D02*
X19242301Y-10639842D01*
X19228016Y-10611270D01*
X19199444Y-10596984D01*
X19156587Y-10596984D01*
X19128016Y-10611270D01*
X19113730Y-10625556D01*
X19428016Y-10796984D02*
X19399444Y-10782699D01*
X19385158Y-10768413D01*
X19370873Y-10739842D01*
X19370873Y-10654127D01*
X19385158Y-10625556D01*
X19399444Y-10611270D01*
X19428016Y-10596984D01*
X19470873Y-10596984D01*
X19499444Y-10611270D01*
X19513730Y-10625556D01*
X19528016Y-10654127D01*
X19528016Y-10739842D01*
X19513730Y-10768413D01*
X19499444Y-10782699D01*
X19470873Y-10796984D01*
X19428016Y-10796984D01*
X19699444Y-10796984D02*
X19670873Y-10782699D01*
X19656587Y-10754127D01*
X19656587Y-10496984D01*
X19928016Y-10782699D02*
X19899444Y-10796984D01*
X19842301Y-10796984D01*
X19813730Y-10782699D01*
X19799444Y-10754127D01*
X19799444Y-10639842D01*
X19813730Y-10611270D01*
X19842301Y-10596984D01*
X19899444Y-10596984D01*
X19928016Y-10611270D01*
X19942301Y-10639842D01*
X19942301Y-10668413D01*
X19799444Y-10696984D01*
X20056587Y-10782699D02*
X20085158Y-10796984D01*
X20142301Y-10796984D01*
X20170873Y-10782699D01*
X20185158Y-10754127D01*
X20185158Y-10739842D01*
X20170873Y-10711270D01*
X20142301Y-10696984D01*
X20099444Y-10696984D01*
X20070873Y-10682699D01*
X20056587Y-10654127D01*
X20056587Y-10639842D01*
X20070873Y-10611270D01*
X20099444Y-10596984D01*
X20142301Y-10596984D01*
X20170873Y-10611270D01*
X20285158Y-10911270D02*
X20299444Y-10896984D01*
X20328016Y-10854127D01*
X20342301Y-10825556D01*
X20356587Y-10782699D01*
X20370873Y-10711270D01*
X20370873Y-10654127D01*
X20356587Y-10582699D01*
X20342301Y-10539842D01*
X20328016Y-10511270D01*
X20299444Y-10468413D01*
X20285158Y-10454127D01*
X13798730Y-11057270D02*
G75*
G03X13798730Y-11057270I-19050J0D01*
G01*
X14142301Y-10892984D02*
X14170873Y-10892984D01*
X14199444Y-10907270D01*
X14213730Y-10921556D01*
X14228016Y-10950127D01*
X14242301Y-11007270D01*
X14242301Y-11078699D01*
X14228016Y-11135842D01*
X14213730Y-11164413D01*
X14199444Y-11178699D01*
X14170873Y-11192984D01*
X14142301Y-11192984D01*
X14113730Y-11178699D01*
X14099444Y-11164413D01*
X14085158Y-11135842D01*
X14070873Y-11078699D01*
X14070873Y-11007270D01*
X14085158Y-10950127D01*
X14099444Y-10921556D01*
X14113730Y-10907270D01*
X14142301Y-10892984D01*
X14370873Y-11164413D02*
X14385158Y-11178699D01*
X14370873Y-11192984D01*
X14356587Y-11178699D01*
X14370873Y-11164413D01*
X14370873Y-11192984D01*
X14485158Y-10892984D02*
X14670873Y-10892984D01*
X14570873Y-11007270D01*
X14613730Y-11007270D01*
X14642301Y-11021556D01*
X14656587Y-11035842D01*
X14670873Y-11064413D01*
X14670873Y-11135842D01*
X14656587Y-11164413D01*
X14642301Y-11178699D01*
X14613730Y-11192984D01*
X14528016Y-11192984D01*
X14499444Y-11178699D01*
X14485158Y-11164413D01*
X14842301Y-11021556D02*
X14813730Y-11007270D01*
X14799444Y-10992984D01*
X14785158Y-10964413D01*
X14785158Y-10950127D01*
X14799444Y-10921556D01*
X14813730Y-10907270D01*
X14842301Y-10892984D01*
X14899444Y-10892984D01*
X14928016Y-10907270D01*
X14942301Y-10921556D01*
X14956587Y-10950127D01*
X14956587Y-10964413D01*
X14942301Y-10992984D01*
X14928016Y-11007270D01*
X14899444Y-11021556D01*
X14842301Y-11021556D01*
X14813730Y-11035842D01*
X14799444Y-11050127D01*
X14785158Y-11078699D01*
X14785158Y-11135842D01*
X14799444Y-11164413D01*
X14813730Y-11178699D01*
X14842301Y-11192984D01*
X14899444Y-11192984D01*
X14928016Y-11178699D01*
X14942301Y-11164413D01*
X14956587Y-11135842D01*
X14956587Y-11078699D01*
X14942301Y-11050127D01*
X14928016Y-11035842D01*
X14899444Y-11021556D01*
X15085158Y-11192984D02*
X15085158Y-10992984D01*
X15085158Y-11021556D02*
X15099444Y-11007270D01*
X15128016Y-10992984D01*
X15170873Y-10992984D01*
X15199444Y-11007270D01*
X15213730Y-11035842D01*
X15213730Y-11192984D01*
X15213730Y-11035842D02*
X15228016Y-11007270D01*
X15256587Y-10992984D01*
X15299444Y-10992984D01*
X15328016Y-11007270D01*
X15342301Y-11035842D01*
X15342301Y-11192984D01*
X15485158Y-11192984D02*
X15485158Y-10992984D01*
X15485158Y-11021556D02*
X15499444Y-11007270D01*
X15528016Y-10992984D01*
X15570873Y-10992984D01*
X15599444Y-11007270D01*
X15613730Y-11035842D01*
X15613730Y-11192984D01*
X15613730Y-11035842D02*
X15628016Y-11007270D01*
X15656587Y-10992984D01*
X15699444Y-10992984D01*
X15728016Y-11007270D01*
X15742301Y-11035842D01*
X15742301Y-11192984D01*
X16328016Y-10878699D02*
X16070873Y-11264413D01*
X16713730Y-10892984D02*
X16742301Y-10892984D01*
X16770873Y-10907270D01*
X16785158Y-10921556D01*
X16799444Y-10950127D01*
X16813730Y-11007270D01*
X16813730Y-11078699D01*
X16799444Y-11135842D01*
X16785158Y-11164413D01*
X16770873Y-11178699D01*
X16742301Y-11192984D01*
X16713730Y-11192984D01*
X16685158Y-11178699D01*
X16670873Y-11164413D01*
X16656587Y-11135842D01*
X16642301Y-11078699D01*
X16642301Y-11007270D01*
X16656587Y-10950127D01*
X16670873Y-10921556D01*
X16685158Y-10907270D01*
X16713730Y-10892984D01*
X16942301Y-11164413D02*
X16956587Y-11178699D01*
X16942301Y-11192984D01*
X16928016Y-11178699D01*
X16942301Y-11164413D01*
X16942301Y-11192984D01*
X17142301Y-10892984D02*
X17170873Y-10892984D01*
X17199444Y-10907270D01*
X17213730Y-10921556D01*
X17228016Y-10950127D01*
X17242301Y-11007270D01*
X17242301Y-11078699D01*
X17228016Y-11135842D01*
X17213730Y-11164413D01*
X17199444Y-11178699D01*
X17170873Y-11192984D01*
X17142301Y-11192984D01*
X17113730Y-11178699D01*
X17099444Y-11164413D01*
X17085158Y-11135842D01*
X17070873Y-11078699D01*
X17070873Y-11007270D01*
X17085158Y-10950127D01*
X17099444Y-10921556D01*
X17113730Y-10907270D01*
X17142301Y-10892984D01*
X17528016Y-11192984D02*
X17356587Y-11192984D01*
X17442301Y-11192984D02*
X17442301Y-10892984D01*
X17413730Y-10935842D01*
X17385158Y-10964413D01*
X17356587Y-10978699D01*
X17799444Y-10892984D02*
X17656587Y-10892984D01*
X17642301Y-11035842D01*
X17656587Y-11021556D01*
X17685158Y-11007270D01*
X17756587Y-11007270D01*
X17785158Y-11021556D01*
X17799444Y-11035842D01*
X17813730Y-11064413D01*
X17813730Y-11135842D01*
X17799444Y-11164413D01*
X17785158Y-11178699D01*
X17756587Y-11192984D01*
X17685158Y-11192984D01*
X17656587Y-11178699D01*
X17642301Y-11164413D01*
X17928016Y-10892984D02*
X17928016Y-10950127D01*
X18042301Y-10892984D02*
X18042301Y-10950127D01*
X18485158Y-11307270D02*
X18470873Y-11292984D01*
X18442301Y-11250127D01*
X18428016Y-11221556D01*
X18413730Y-11178699D01*
X18399444Y-11107270D01*
X18399444Y-11050127D01*
X18413730Y-10978699D01*
X18428016Y-10935842D01*
X18442301Y-10907270D01*
X18470873Y-10864413D01*
X18485158Y-10850127D01*
X18585158Y-10921556D02*
X18599444Y-10907270D01*
X18628016Y-10892984D01*
X18699444Y-10892984D01*
X18728016Y-10907270D01*
X18742301Y-10921556D01*
X18756587Y-10950127D01*
X18756587Y-10978699D01*
X18742301Y-11021556D01*
X18570873Y-11192984D01*
X18756587Y-11192984D01*
X18928016Y-11021556D02*
X18899444Y-11007270D01*
X18885158Y-10992984D01*
X18870873Y-10964413D01*
X18870873Y-10950127D01*
X18885158Y-10921556D01*
X18899444Y-10907270D01*
X18928016Y-10892984D01*
X18985158Y-10892984D01*
X19013730Y-10907270D01*
X19028016Y-10921556D01*
X19042301Y-10950127D01*
X19042301Y-10964413D01*
X19028016Y-10992984D01*
X19013730Y-11007270D01*
X18985158Y-11021556D01*
X18928016Y-11021556D01*
X18899444Y-11035842D01*
X18885158Y-11050127D01*
X18870873Y-11078699D01*
X18870873Y-11135842D01*
X18885158Y-11164413D01*
X18899444Y-11178699D01*
X18928016Y-11192984D01*
X18985158Y-11192984D01*
X19013730Y-11178699D01*
X19028016Y-11164413D01*
X19042301Y-11135842D01*
X19042301Y-11078699D01*
X19028016Y-11050127D01*
X19013730Y-11035842D01*
X18985158Y-11021556D01*
X19399444Y-11192984D02*
X19399444Y-10892984D01*
X19528016Y-11192984D02*
X19528016Y-11035842D01*
X19513730Y-11007270D01*
X19485158Y-10992984D01*
X19442301Y-10992984D01*
X19413730Y-11007270D01*
X19399444Y-11021556D01*
X19713730Y-11192984D02*
X19685158Y-11178699D01*
X19670873Y-11164413D01*
X19656587Y-11135842D01*
X19656587Y-11050127D01*
X19670873Y-11021556D01*
X19685158Y-11007270D01*
X19713730Y-10992984D01*
X19756587Y-10992984D01*
X19785158Y-11007270D01*
X19799444Y-11021556D01*
X19813730Y-11050127D01*
X19813730Y-11135842D01*
X19799444Y-11164413D01*
X19785158Y-11178699D01*
X19756587Y-11192984D01*
X19713730Y-11192984D01*
X19985158Y-11192984D02*
X19956587Y-11178699D01*
X19942301Y-11150127D01*
X19942301Y-10892984D01*
X20213730Y-11178699D02*
X20185158Y-11192984D01*
X20128016Y-11192984D01*
X20099444Y-11178699D01*
X20085158Y-11150127D01*
X20085158Y-11035842D01*
X20099444Y-11007270D01*
X20128016Y-10992984D01*
X20185158Y-10992984D01*
X20213730Y-11007270D01*
X20228016Y-11035842D01*
X20228016Y-11064413D01*
X20085158Y-11092984D01*
X20342301Y-11178699D02*
X20370873Y-11192984D01*
X20428016Y-11192984D01*
X20456587Y-11178699D01*
X20470873Y-11150127D01*
X20470873Y-11135842D01*
X20456587Y-11107270D01*
X20428016Y-11092984D01*
X20385158Y-11092984D01*
X20356587Y-11078699D01*
X20342301Y-11050127D01*
X20342301Y-11035842D01*
X20356587Y-11007270D01*
X20385158Y-10992984D01*
X20428016Y-10992984D01*
X20456587Y-11007270D01*
X20570873Y-11307270D02*
X20585158Y-11292984D01*
X20613730Y-11250127D01*
X20628016Y-11221556D01*
X20642301Y-11178699D01*
X20656587Y-11107270D01*
X20656587Y-11050127D01*
X20642301Y-10978699D01*
X20628016Y-10935842D01*
X20613730Y-10907270D01*
X20585158Y-10864413D01*
X20570873Y-10850127D01*
X13768730Y-11423270D02*
X13768730Y-11483270D01*
X13738730Y-11453270D02*
X13798730Y-11453270D01*
X14142301Y-11288984D02*
X14170873Y-11288984D01*
X14199444Y-11303270D01*
X14213730Y-11317556D01*
X14228016Y-11346127D01*
X14242301Y-11403270D01*
X14242301Y-11474699D01*
X14228016Y-11531841D01*
X14213730Y-11560413D01*
X14199444Y-11574699D01*
X14170873Y-11588984D01*
X14142301Y-11588984D01*
X14113730Y-11574699D01*
X14099444Y-11560413D01*
X14085158Y-11531841D01*
X14070873Y-11474699D01*
X14070873Y-11403270D01*
X14085158Y-11346127D01*
X14099444Y-11317556D01*
X14113730Y-11303270D01*
X14142301Y-11288984D01*
X14370873Y-11560413D02*
X14385158Y-11574699D01*
X14370873Y-11588984D01*
X14356587Y-11574699D01*
X14370873Y-11560413D01*
X14370873Y-11588984D01*
X14642301Y-11288984D02*
X14585158Y-11288984D01*
X14556587Y-11303270D01*
X14542301Y-11317556D01*
X14513730Y-11360413D01*
X14499444Y-11417556D01*
X14499444Y-11531841D01*
X14513730Y-11560413D01*
X14528016Y-11574699D01*
X14556587Y-11588984D01*
X14613730Y-11588984D01*
X14642301Y-11574699D01*
X14656587Y-11560413D01*
X14670873Y-11531841D01*
X14670873Y-11460413D01*
X14656587Y-11431841D01*
X14642301Y-11417556D01*
X14613730Y-11403270D01*
X14556587Y-11403270D01*
X14528016Y-11417556D01*
X14513730Y-11431841D01*
X14499444Y-11460413D01*
X14856587Y-11288984D02*
X14885158Y-11288984D01*
X14913730Y-11303270D01*
X14928016Y-11317556D01*
X14942301Y-11346127D01*
X14956587Y-11403270D01*
X14956587Y-11474699D01*
X14942301Y-11531841D01*
X14928016Y-11560413D01*
X14913730Y-11574699D01*
X14885158Y-11588984D01*
X14856587Y-11588984D01*
X14828016Y-11574699D01*
X14813730Y-11560413D01*
X14799444Y-11531841D01*
X14785158Y-11474699D01*
X14785158Y-11403270D01*
X14799444Y-11346127D01*
X14813730Y-11317556D01*
X14828016Y-11303270D01*
X14856587Y-11288984D01*
X15085158Y-11588984D02*
X15085158Y-11388984D01*
X15085158Y-11417556D02*
X15099444Y-11403270D01*
X15128016Y-11388984D01*
X15170873Y-11388984D01*
X15199444Y-11403270D01*
X15213730Y-11431841D01*
X15213730Y-11588984D01*
X15213730Y-11431841D02*
X15228016Y-11403270D01*
X15256587Y-11388984D01*
X15299444Y-11388984D01*
X15328016Y-11403270D01*
X15342301Y-11431841D01*
X15342301Y-11588984D01*
X15485158Y-11588984D02*
X15485158Y-11388984D01*
X15485158Y-11417556D02*
X15499444Y-11403270D01*
X15528016Y-11388984D01*
X15570873Y-11388984D01*
X15599444Y-11403270D01*
X15613730Y-11431841D01*
X15613730Y-11588984D01*
X15613730Y-11431841D02*
X15628016Y-11403270D01*
X15656587Y-11388984D01*
X15699444Y-11388984D01*
X15728016Y-11403270D01*
X15742301Y-11431841D01*
X15742301Y-11588984D01*
X16328016Y-11274699D02*
X16070873Y-11660413D01*
X16713730Y-11288984D02*
X16742301Y-11288984D01*
X16770873Y-11303270D01*
X16785158Y-11317556D01*
X16799444Y-11346127D01*
X16813730Y-11403270D01*
X16813730Y-11474699D01*
X16799444Y-11531841D01*
X16785158Y-11560413D01*
X16770873Y-11574699D01*
X16742301Y-11588984D01*
X16713730Y-11588984D01*
X16685158Y-11574699D01*
X16670873Y-11560413D01*
X16656587Y-11531841D01*
X16642301Y-11474699D01*
X16642301Y-11403270D01*
X16656587Y-11346127D01*
X16670873Y-11317556D01*
X16685158Y-11303270D01*
X16713730Y-11288984D01*
X16942301Y-11560413D02*
X16956587Y-11574699D01*
X16942301Y-11588984D01*
X16928016Y-11574699D01*
X16942301Y-11560413D01*
X16942301Y-11588984D01*
X17142301Y-11288984D02*
X17170873Y-11288984D01*
X17199444Y-11303270D01*
X17213730Y-11317556D01*
X17228016Y-11346127D01*
X17242301Y-11403270D01*
X17242301Y-11474699D01*
X17228016Y-11531841D01*
X17213730Y-11560413D01*
X17199444Y-11574699D01*
X17170873Y-11588984D01*
X17142301Y-11588984D01*
X17113730Y-11574699D01*
X17099444Y-11560413D01*
X17085158Y-11531841D01*
X17070873Y-11474699D01*
X17070873Y-11403270D01*
X17085158Y-11346127D01*
X17099444Y-11317556D01*
X17113730Y-11303270D01*
X17142301Y-11288984D01*
X17356587Y-11317556D02*
X17370873Y-11303270D01*
X17399444Y-11288984D01*
X17470873Y-11288984D01*
X17499444Y-11303270D01*
X17513730Y-11317556D01*
X17528016Y-11346127D01*
X17528016Y-11374699D01*
X17513730Y-11417556D01*
X17342301Y-11588984D01*
X17528016Y-11588984D01*
X17785158Y-11388984D02*
X17785158Y-11588984D01*
X17713730Y-11274699D02*
X17642301Y-11488984D01*
X17828016Y-11488984D01*
X17928016Y-11288984D02*
X17928016Y-11346127D01*
X18042301Y-11288984D02*
X18042301Y-11346127D01*
X18485158Y-11703270D02*
X18470873Y-11688984D01*
X18442301Y-11646127D01*
X18428016Y-11617556D01*
X18413730Y-11574699D01*
X18399444Y-11503270D01*
X18399444Y-11446127D01*
X18413730Y-11374699D01*
X18428016Y-11331841D01*
X18442301Y-11303270D01*
X18470873Y-11260413D01*
X18485158Y-11246127D01*
X18656587Y-11288984D02*
X18685158Y-11288984D01*
X18713730Y-11303270D01*
X18728016Y-11317556D01*
X18742301Y-11346127D01*
X18756587Y-11403270D01*
X18756587Y-11474699D01*
X18742301Y-11531841D01*
X18728016Y-11560413D01*
X18713730Y-11574699D01*
X18685158Y-11588984D01*
X18656587Y-11588984D01*
X18628016Y-11574699D01*
X18613730Y-11560413D01*
X18599444Y-11531841D01*
X18585158Y-11474699D01*
X18585158Y-11403270D01*
X18599444Y-11346127D01*
X18613730Y-11317556D01*
X18628016Y-11303270D01*
X18656587Y-11288984D01*
X19113730Y-11588984D02*
X19113730Y-11288984D01*
X19242301Y-11588984D02*
X19242301Y-11431841D01*
X19228016Y-11403270D01*
X19199444Y-11388984D01*
X19156587Y-11388984D01*
X19128016Y-11403270D01*
X19113730Y-11417556D01*
X19428016Y-11588984D02*
X19399444Y-11574699D01*
X19385158Y-11560413D01*
X19370873Y-11531841D01*
X19370873Y-11446127D01*
X19385158Y-11417556D01*
X19399444Y-11403270D01*
X19428016Y-11388984D01*
X19470873Y-11388984D01*
X19499444Y-11403270D01*
X19513730Y-11417556D01*
X19528016Y-11446127D01*
X19528016Y-11531841D01*
X19513730Y-11560413D01*
X19499444Y-11574699D01*
X19470873Y-11588984D01*
X19428016Y-11588984D01*
X19699444Y-11588984D02*
X19670873Y-11574699D01*
X19656587Y-11546127D01*
X19656587Y-11288984D01*
X19928016Y-11574699D02*
X19899444Y-11588984D01*
X19842301Y-11588984D01*
X19813730Y-11574699D01*
X19799444Y-11546127D01*
X19799444Y-11431841D01*
X19813730Y-11403270D01*
X19842301Y-11388984D01*
X19899444Y-11388984D01*
X19928016Y-11403270D01*
X19942301Y-11431841D01*
X19942301Y-11460413D01*
X19799444Y-11488984D01*
X20056587Y-11574699D02*
X20085158Y-11588984D01*
X20142301Y-11588984D01*
X20170873Y-11574699D01*
X20185158Y-11546127D01*
X20185158Y-11531841D01*
X20170873Y-11503270D01*
X20142301Y-11488984D01*
X20099444Y-11488984D01*
X20070873Y-11474699D01*
X20056587Y-11446127D01*
X20056587Y-11431841D01*
X20070873Y-11403270D01*
X20099444Y-11388984D01*
X20142301Y-11388984D01*
X20170873Y-11403270D01*
X20542301Y-11474699D02*
X20770873Y-11474699D01*
X20656587Y-11588984D02*
X20656587Y-11360413D01*
X21128016Y-11317556D02*
X21142301Y-11303270D01*
X21170873Y-11288984D01*
X21242301Y-11288984D01*
X21270873Y-11303270D01*
X21285158Y-11317556D01*
X21299444Y-11346127D01*
X21299444Y-11374699D01*
X21285158Y-11417556D01*
X21113730Y-11588984D01*
X21299444Y-11588984D01*
X21642301Y-11574699D02*
X21670873Y-11588984D01*
X21728016Y-11588984D01*
X21756587Y-11574699D01*
X21770873Y-11546127D01*
X21770873Y-11531841D01*
X21756587Y-11503270D01*
X21728016Y-11488984D01*
X21685158Y-11488984D01*
X21656587Y-11474699D01*
X21642301Y-11446127D01*
X21642301Y-11431841D01*
X21656587Y-11403270D01*
X21685158Y-11388984D01*
X21728016Y-11388984D01*
X21756587Y-11403270D01*
X21942301Y-11588984D02*
X21913730Y-11574699D01*
X21899444Y-11546127D01*
X21899444Y-11288984D01*
X22099444Y-11588984D02*
X22070873Y-11574699D01*
X22056587Y-11560413D01*
X22042301Y-11531841D01*
X22042301Y-11446127D01*
X22056587Y-11417556D01*
X22070873Y-11403270D01*
X22099444Y-11388984D01*
X22142301Y-11388984D01*
X22170873Y-11403270D01*
X22185158Y-11417556D01*
X22199444Y-11446127D01*
X22199444Y-11531841D01*
X22185158Y-11560413D01*
X22170873Y-11574699D01*
X22142301Y-11588984D01*
X22099444Y-11588984D01*
X22285158Y-11388984D02*
X22399444Y-11388984D01*
X22328016Y-11288984D02*
X22328016Y-11546127D01*
X22342301Y-11574699D01*
X22370873Y-11588984D01*
X22399444Y-11588984D01*
X22485158Y-11574699D02*
X22513730Y-11588984D01*
X22570873Y-11588984D01*
X22599444Y-11574699D01*
X22613730Y-11546127D01*
X22613730Y-11531841D01*
X22599444Y-11503270D01*
X22570873Y-11488984D01*
X22528016Y-11488984D01*
X22499444Y-11474699D01*
X22485158Y-11446127D01*
X22485158Y-11431841D01*
X22499444Y-11403270D01*
X22528016Y-11388984D01*
X22570873Y-11388984D01*
X22599444Y-11403270D01*
X22713730Y-11703270D02*
X22728016Y-11688984D01*
X22756587Y-11646127D01*
X22770873Y-11617556D01*
X22785158Y-11574699D01*
X22799444Y-11503270D01*
X22799444Y-11446127D01*
X22785158Y-11374699D01*
X22770873Y-11331841D01*
X22756587Y-11303270D01*
X22728016Y-11260413D01*
X22713730Y-11246127D01*
X13787014Y-11877555D02*
X13787014Y-11820986D01*
X13730445Y-11820986D01*
X13730445Y-11877555D01*
X13787014Y-11877555D01*
X14142301Y-11684984D02*
X14170873Y-11684984D01*
X14199444Y-11699270D01*
X14213730Y-11713556D01*
X14228016Y-11742127D01*
X14242301Y-11799270D01*
X14242301Y-11870699D01*
X14228016Y-11927841D01*
X14213730Y-11956413D01*
X14199444Y-11970699D01*
X14170873Y-11984984D01*
X14142301Y-11984984D01*
X14113730Y-11970699D01*
X14099444Y-11956413D01*
X14085158Y-11927841D01*
X14070873Y-11870699D01*
X14070873Y-11799270D01*
X14085158Y-11742127D01*
X14099444Y-11713556D01*
X14113730Y-11699270D01*
X14142301Y-11684984D01*
X14370873Y-11956413D02*
X14385158Y-11970699D01*
X14370873Y-11984984D01*
X14356587Y-11970699D01*
X14370873Y-11956413D01*
X14370873Y-11984984D01*
X14556587Y-11813556D02*
X14528016Y-11799270D01*
X14513730Y-11784984D01*
X14499444Y-11756413D01*
X14499444Y-11742127D01*
X14513730Y-11713556D01*
X14528016Y-11699270D01*
X14556587Y-11684984D01*
X14613730Y-11684984D01*
X14642301Y-11699270D01*
X14656587Y-11713556D01*
X14670873Y-11742127D01*
X14670873Y-11756413D01*
X14656587Y-11784984D01*
X14642301Y-11799270D01*
X14613730Y-11813556D01*
X14556587Y-11813556D01*
X14528016Y-11827841D01*
X14513730Y-11842127D01*
X14499444Y-11870699D01*
X14499444Y-11927841D01*
X14513730Y-11956413D01*
X14528016Y-11970699D01*
X14556587Y-11984984D01*
X14613730Y-11984984D01*
X14642301Y-11970699D01*
X14656587Y-11956413D01*
X14670873Y-11927841D01*
X14670873Y-11870699D01*
X14656587Y-11842127D01*
X14642301Y-11827841D01*
X14613730Y-11813556D01*
X14856587Y-11684984D02*
X14885158Y-11684984D01*
X14913730Y-11699270D01*
X14928016Y-11713556D01*
X14942301Y-11742127D01*
X14956587Y-11799270D01*
X14956587Y-11870699D01*
X14942301Y-11927841D01*
X14928016Y-11956413D01*
X14913730Y-11970699D01*
X14885158Y-11984984D01*
X14856587Y-11984984D01*
X14828016Y-11970699D01*
X14813730Y-11956413D01*
X14799444Y-11927841D01*
X14785158Y-11870699D01*
X14785158Y-11799270D01*
X14799444Y-11742127D01*
X14813730Y-11713556D01*
X14828016Y-11699270D01*
X14856587Y-11684984D01*
X15085158Y-11984984D02*
X15085158Y-11784984D01*
X15085158Y-11813556D02*
X15099444Y-11799270D01*
X15128016Y-11784984D01*
X15170873Y-11784984D01*
X15199444Y-11799270D01*
X15213730Y-11827841D01*
X15213730Y-11984984D01*
X15213730Y-11827841D02*
X15228016Y-11799270D01*
X15256587Y-11784984D01*
X15299444Y-11784984D01*
X15328016Y-11799270D01*
X15342301Y-11827841D01*
X15342301Y-11984984D01*
X15485158Y-11984984D02*
X15485158Y-11784984D01*
X15485158Y-11813556D02*
X15499444Y-11799270D01*
X15528016Y-11784984D01*
X15570873Y-11784984D01*
X15599444Y-11799270D01*
X15613730Y-11827841D01*
X15613730Y-11984984D01*
X15613730Y-11827841D02*
X15628016Y-11799270D01*
X15656587Y-11784984D01*
X15699444Y-11784984D01*
X15728016Y-11799270D01*
X15742301Y-11827841D01*
X15742301Y-11984984D01*
X16328016Y-11670699D02*
X16070873Y-12056413D01*
X16713730Y-11684984D02*
X16742301Y-11684984D01*
X16770873Y-11699270D01*
X16785158Y-11713556D01*
X16799444Y-11742127D01*
X16813730Y-11799270D01*
X16813730Y-11870699D01*
X16799444Y-11927841D01*
X16785158Y-11956413D01*
X16770873Y-11970699D01*
X16742301Y-11984984D01*
X16713730Y-11984984D01*
X16685158Y-11970699D01*
X16670873Y-11956413D01*
X16656587Y-11927841D01*
X16642301Y-11870699D01*
X16642301Y-11799270D01*
X16656587Y-11742127D01*
X16670873Y-11713556D01*
X16685158Y-11699270D01*
X16713730Y-11684984D01*
X16942301Y-11956413D02*
X16956587Y-11970699D01*
X16942301Y-11984984D01*
X16928016Y-11970699D01*
X16942301Y-11956413D01*
X16942301Y-11984984D01*
X17142301Y-11684984D02*
X17170873Y-11684984D01*
X17199444Y-11699270D01*
X17213730Y-11713556D01*
X17228016Y-11742127D01*
X17242301Y-11799270D01*
X17242301Y-11870699D01*
X17228016Y-11927841D01*
X17213730Y-11956413D01*
X17199444Y-11970699D01*
X17170873Y-11984984D01*
X17142301Y-11984984D01*
X17113730Y-11970699D01*
X17099444Y-11956413D01*
X17085158Y-11927841D01*
X17070873Y-11870699D01*
X17070873Y-11799270D01*
X17085158Y-11742127D01*
X17099444Y-11713556D01*
X17113730Y-11699270D01*
X17142301Y-11684984D01*
X17342301Y-11684984D02*
X17528016Y-11684984D01*
X17428016Y-11799270D01*
X17470873Y-11799270D01*
X17499444Y-11813556D01*
X17513730Y-11827841D01*
X17528016Y-11856413D01*
X17528016Y-11927841D01*
X17513730Y-11956413D01*
X17499444Y-11970699D01*
X17470873Y-11984984D01*
X17385158Y-11984984D01*
X17356587Y-11970699D01*
X17342301Y-11956413D01*
X17813730Y-11984984D02*
X17642301Y-11984984D01*
X17728016Y-11984984D02*
X17728016Y-11684984D01*
X17699444Y-11727841D01*
X17670873Y-11756413D01*
X17642301Y-11770699D01*
X17928016Y-11684984D02*
X17928016Y-11742127D01*
X18042301Y-11684984D02*
X18042301Y-11742127D01*
X18485158Y-12099270D02*
X18470873Y-12084984D01*
X18442301Y-12042127D01*
X18428016Y-12013556D01*
X18413730Y-11970699D01*
X18399444Y-11899270D01*
X18399444Y-11842127D01*
X18413730Y-11770699D01*
X18428016Y-11727841D01*
X18442301Y-11699270D01*
X18470873Y-11656413D01*
X18485158Y-11642127D01*
X18728016Y-11784984D02*
X18728016Y-11984984D01*
X18656587Y-11670699D02*
X18585158Y-11884984D01*
X18770873Y-11884984D01*
X19113730Y-11984984D02*
X19113730Y-11684984D01*
X19242301Y-11984984D02*
X19242301Y-11827841D01*
X19228016Y-11799270D01*
X19199444Y-11784984D01*
X19156587Y-11784984D01*
X19128016Y-11799270D01*
X19113730Y-11813556D01*
X19428016Y-11984984D02*
X19399444Y-11970699D01*
X19385158Y-11956413D01*
X19370873Y-11927841D01*
X19370873Y-11842127D01*
X19385158Y-11813556D01*
X19399444Y-11799270D01*
X19428016Y-11784984D01*
X19470873Y-11784984D01*
X19499444Y-11799270D01*
X19513730Y-11813556D01*
X19528016Y-11842127D01*
X19528016Y-11927841D01*
X19513730Y-11956413D01*
X19499444Y-11970699D01*
X19470873Y-11984984D01*
X19428016Y-11984984D01*
X19699444Y-11984984D02*
X19670873Y-11970699D01*
X19656587Y-11942127D01*
X19656587Y-11684984D01*
X19928016Y-11970699D02*
X19899444Y-11984984D01*
X19842301Y-11984984D01*
X19813730Y-11970699D01*
X19799444Y-11942127D01*
X19799444Y-11827841D01*
X19813730Y-11799270D01*
X19842301Y-11784984D01*
X19899444Y-11784984D01*
X19928016Y-11799270D01*
X19942301Y-11827841D01*
X19942301Y-11856413D01*
X19799444Y-11884984D01*
X20056587Y-11970699D02*
X20085158Y-11984984D01*
X20142301Y-11984984D01*
X20170873Y-11970699D01*
X20185158Y-11942127D01*
X20185158Y-11927841D01*
X20170873Y-11899270D01*
X20142301Y-11884984D01*
X20099444Y-11884984D01*
X20070873Y-11870699D01*
X20056587Y-11842127D01*
X20056587Y-11827841D01*
X20070873Y-11799270D01*
X20099444Y-11784984D01*
X20142301Y-11784984D01*
X20170873Y-11799270D01*
X20285158Y-12099270D02*
X20299444Y-12084984D01*
X20328016Y-12042127D01*
X20342301Y-12013556D01*
X20356587Y-11970699D01*
X20370873Y-11899270D01*
X20370873Y-11842127D01*
X20356587Y-11770699D01*
X20342301Y-11727841D01*
X20328016Y-11699270D01*
X20299444Y-11656413D01*
X20285158Y-11642127D01*
X13756230Y-12287770D02*
X13798730Y-12245270D01*
X13756230Y-12202770D01*
X13713730Y-12245270D01*
X13756230Y-12287770D01*
X14142301Y-12080984D02*
X14170873Y-12080984D01*
X14199444Y-12095270D01*
X14213730Y-12109556D01*
X14228016Y-12138127D01*
X14242301Y-12195270D01*
X14242301Y-12266699D01*
X14228016Y-12323841D01*
X14213730Y-12352413D01*
X14199444Y-12366699D01*
X14170873Y-12380984D01*
X14142301Y-12380984D01*
X14113730Y-12366699D01*
X14099444Y-12352413D01*
X14085158Y-12323841D01*
X14070873Y-12266699D01*
X14070873Y-12195270D01*
X14085158Y-12138127D01*
X14099444Y-12109556D01*
X14113730Y-12095270D01*
X14142301Y-12080984D01*
X14370873Y-12352413D02*
X14385158Y-12366699D01*
X14370873Y-12380984D01*
X14356587Y-12366699D01*
X14370873Y-12352413D01*
X14370873Y-12380984D01*
X14556587Y-12209556D02*
X14528016Y-12195270D01*
X14513730Y-12180984D01*
X14499444Y-12152413D01*
X14499444Y-12138127D01*
X14513730Y-12109556D01*
X14528016Y-12095270D01*
X14556587Y-12080984D01*
X14613730Y-12080984D01*
X14642301Y-12095270D01*
X14656587Y-12109556D01*
X14670873Y-12138127D01*
X14670873Y-12152413D01*
X14656587Y-12180984D01*
X14642301Y-12195270D01*
X14613730Y-12209556D01*
X14556587Y-12209556D01*
X14528016Y-12223841D01*
X14513730Y-12238127D01*
X14499444Y-12266699D01*
X14499444Y-12323841D01*
X14513730Y-12352413D01*
X14528016Y-12366699D01*
X14556587Y-12380984D01*
X14613730Y-12380984D01*
X14642301Y-12366699D01*
X14656587Y-12352413D01*
X14670873Y-12323841D01*
X14670873Y-12266699D01*
X14656587Y-12238127D01*
X14642301Y-12223841D01*
X14613730Y-12209556D01*
X14942301Y-12080984D02*
X14799444Y-12080984D01*
X14785158Y-12223841D01*
X14799444Y-12209556D01*
X14828016Y-12195270D01*
X14899444Y-12195270D01*
X14928016Y-12209556D01*
X14942301Y-12223841D01*
X14956587Y-12252413D01*
X14956587Y-12323841D01*
X14942301Y-12352413D01*
X14928016Y-12366699D01*
X14899444Y-12380984D01*
X14828016Y-12380984D01*
X14799444Y-12366699D01*
X14785158Y-12352413D01*
X15085158Y-12380984D02*
X15085158Y-12180984D01*
X15085158Y-12209556D02*
X15099444Y-12195270D01*
X15128016Y-12180984D01*
X15170873Y-12180984D01*
X15199444Y-12195270D01*
X15213730Y-12223841D01*
X15213730Y-12380984D01*
X15213730Y-12223841D02*
X15228016Y-12195270D01*
X15256587Y-12180984D01*
X15299444Y-12180984D01*
X15328016Y-12195270D01*
X15342301Y-12223841D01*
X15342301Y-12380984D01*
X15485158Y-12380984D02*
X15485158Y-12180984D01*
X15485158Y-12209556D02*
X15499444Y-12195270D01*
X15528016Y-12180984D01*
X15570873Y-12180984D01*
X15599444Y-12195270D01*
X15613730Y-12223841D01*
X15613730Y-12380984D01*
X15613730Y-12223841D02*
X15628016Y-12195270D01*
X15656587Y-12180984D01*
X15699444Y-12180984D01*
X15728016Y-12195270D01*
X15742301Y-12223841D01*
X15742301Y-12380984D01*
X16328016Y-12066699D02*
X16070873Y-12452413D01*
X16713730Y-12080984D02*
X16742301Y-12080984D01*
X16770873Y-12095270D01*
X16785158Y-12109556D01*
X16799444Y-12138127D01*
X16813730Y-12195270D01*
X16813730Y-12266699D01*
X16799444Y-12323841D01*
X16785158Y-12352413D01*
X16770873Y-12366699D01*
X16742301Y-12380984D01*
X16713730Y-12380984D01*
X16685158Y-12366699D01*
X16670873Y-12352413D01*
X16656587Y-12323841D01*
X16642301Y-12266699D01*
X16642301Y-12195270D01*
X16656587Y-12138127D01*
X16670873Y-12109556D01*
X16685158Y-12095270D01*
X16713730Y-12080984D01*
X16942301Y-12352413D02*
X16956587Y-12366699D01*
X16942301Y-12380984D01*
X16928016Y-12366699D01*
X16942301Y-12352413D01*
X16942301Y-12380984D01*
X17142301Y-12080984D02*
X17170873Y-12080984D01*
X17199444Y-12095270D01*
X17213730Y-12109556D01*
X17228016Y-12138127D01*
X17242301Y-12195270D01*
X17242301Y-12266699D01*
X17228016Y-12323841D01*
X17213730Y-12352413D01*
X17199444Y-12366699D01*
X17170873Y-12380984D01*
X17142301Y-12380984D01*
X17113730Y-12366699D01*
X17099444Y-12352413D01*
X17085158Y-12323841D01*
X17070873Y-12266699D01*
X17070873Y-12195270D01*
X17085158Y-12138127D01*
X17099444Y-12109556D01*
X17113730Y-12095270D01*
X17142301Y-12080984D01*
X17342301Y-12080984D02*
X17528016Y-12080984D01*
X17428016Y-12195270D01*
X17470873Y-12195270D01*
X17499444Y-12209556D01*
X17513730Y-12223841D01*
X17528016Y-12252413D01*
X17528016Y-12323841D01*
X17513730Y-12352413D01*
X17499444Y-12366699D01*
X17470873Y-12380984D01*
X17385158Y-12380984D01*
X17356587Y-12366699D01*
X17342301Y-12352413D01*
X17628016Y-12080984D02*
X17813730Y-12080984D01*
X17713730Y-12195270D01*
X17756587Y-12195270D01*
X17785158Y-12209556D01*
X17799444Y-12223841D01*
X17813730Y-12252413D01*
X17813730Y-12323841D01*
X17799444Y-12352413D01*
X17785158Y-12366699D01*
X17756587Y-12380984D01*
X17670873Y-12380984D01*
X17642301Y-12366699D01*
X17628016Y-12352413D01*
X17928016Y-12080984D02*
X17928016Y-12138127D01*
X18042301Y-12080984D02*
X18042301Y-12138127D01*
X18485158Y-12495270D02*
X18470873Y-12480984D01*
X18442301Y-12438127D01*
X18428016Y-12409556D01*
X18413730Y-12366699D01*
X18399444Y-12295270D01*
X18399444Y-12238127D01*
X18413730Y-12166699D01*
X18428016Y-12123841D01*
X18442301Y-12095270D01*
X18470873Y-12052413D01*
X18485158Y-12038127D01*
X18585158Y-12109556D02*
X18599444Y-12095270D01*
X18628016Y-12080984D01*
X18699444Y-12080984D01*
X18728016Y-12095270D01*
X18742301Y-12109556D01*
X18756587Y-12138127D01*
X18756587Y-12166699D01*
X18742301Y-12209556D01*
X18570873Y-12380984D01*
X18756587Y-12380984D01*
X19113730Y-12380984D02*
X19113730Y-12080984D01*
X19242301Y-12380984D02*
X19242301Y-12223841D01*
X19228016Y-12195270D01*
X19199444Y-12180984D01*
X19156587Y-12180984D01*
X19128016Y-12195270D01*
X19113730Y-12209556D01*
X19428016Y-12380984D02*
X19399444Y-12366699D01*
X19385158Y-12352413D01*
X19370873Y-12323841D01*
X19370873Y-12238127D01*
X19385158Y-12209556D01*
X19399444Y-12195270D01*
X19428016Y-12180984D01*
X19470873Y-12180984D01*
X19499444Y-12195270D01*
X19513730Y-12209556D01*
X19528016Y-12238127D01*
X19528016Y-12323841D01*
X19513730Y-12352413D01*
X19499444Y-12366699D01*
X19470873Y-12380984D01*
X19428016Y-12380984D01*
X19699444Y-12380984D02*
X19670873Y-12366699D01*
X19656587Y-12338127D01*
X19656587Y-12080984D01*
X19928016Y-12366699D02*
X19899444Y-12380984D01*
X19842301Y-12380984D01*
X19813730Y-12366699D01*
X19799444Y-12338127D01*
X19799444Y-12223841D01*
X19813730Y-12195270D01*
X19842301Y-12180984D01*
X19899444Y-12180984D01*
X19928016Y-12195270D01*
X19942301Y-12223841D01*
X19942301Y-12252413D01*
X19799444Y-12280984D01*
X20056587Y-12366699D02*
X20085158Y-12380984D01*
X20142301Y-12380984D01*
X20170873Y-12366699D01*
X20185158Y-12338127D01*
X20185158Y-12323841D01*
X20170873Y-12295270D01*
X20142301Y-12280984D01*
X20099444Y-12280984D01*
X20070873Y-12266699D01*
X20056587Y-12238127D01*
X20056587Y-12223841D01*
X20070873Y-12195270D01*
X20099444Y-12180984D01*
X20142301Y-12180984D01*
X20170873Y-12195270D01*
X20285158Y-12495270D02*
X20299444Y-12480984D01*
X20328016Y-12438127D01*
X20342301Y-12409556D01*
X20356587Y-12366699D01*
X20370873Y-12295270D01*
X20370873Y-12238127D01*
X20356587Y-12166699D01*
X20342301Y-12123841D01*
X20328016Y-12095270D01*
X20299444Y-12052413D01*
X20285158Y-12038127D01*
M02*
