M48
;DRILL file {KiCad (5.0.2)-1} date 3/5/2019 3:10:45 PM
;FORMAT={-:-/ absolute / metric / decimal}
FMAT,2
METRIC,TZ
T1C0.381
T2C0.800
%
G90
G05
T1
X139.422Y-85.858
X142.122Y-94.558
X142.322Y-83.058
X142.522Y-77.258
X142.522Y-91.158
X144.122Y-83.058
X144.622Y-79.958
X146.222Y-94.358
X147.922Y-90.758
X151.622Y-86.958
X152.322Y-77.358
X153.422Y-77.058
X153.922Y-73.058
X154.722Y-77.358
X154.822Y-94.058
X157.022Y-80.058
X157.622Y-76.858
X158.935Y-78.171
X159.201Y-73.158
X159.722Y-75.858
X159.822Y-77.758
X160.322Y-87.758
X160.443Y-72.558
X161.222Y-70.758
T2
X139.822Y-89.158
X139.822Y-91.158
X139.822Y-93.158
X139.822Y-95.158
T0
M30
