G04 #@! TF.GenerationSoftware,KiCad,Pcbnew,(5.0.2)-1*
G04 #@! TF.CreationDate,2019-06-28T12:16:38-04:00*
G04 #@! TF.ProjectId,BlueNRG-SPBTLE-1S ACM,426c7565-4e52-4472-9d53-5042544c452d,rev?*
G04 #@! TF.SameCoordinates,Original*
G04 #@! TF.FileFunction,Soldermask,Bot*
G04 #@! TF.FilePolarity,Negative*
%FSLAX46Y46*%
G04 Gerber Fmt 4.6, Leading zero omitted, Abs format (unit mm)*
G04 Created by KiCad (PCBNEW (5.0.2)-1) date 6/28/2019 12:16:38 PM*
%MOMM*%
%LPD*%
G01*
G04 APERTURE LIST*
%ADD10C,0.100000*%
G04 APERTURE END LIST*
D10*
G36*
X144013111Y-95211602D02*
X144050182Y-95222848D01*
X144084361Y-95241116D01*
X144114307Y-95265693D01*
X144138884Y-95295639D01*
X144157152Y-95329818D01*
X144168398Y-95366889D01*
X144172800Y-95411589D01*
X144172800Y-96304411D01*
X144168398Y-96349111D01*
X144157152Y-96386182D01*
X144138884Y-96420361D01*
X144114307Y-96450307D01*
X144084361Y-96474884D01*
X144050182Y-96493152D01*
X144013111Y-96504398D01*
X143968411Y-96508800D01*
X142475589Y-96508800D01*
X142430889Y-96504398D01*
X142393818Y-96493152D01*
X142359639Y-96474884D01*
X142329693Y-96450307D01*
X142305116Y-96420361D01*
X142286848Y-96386182D01*
X142275602Y-96349111D01*
X142271200Y-96304411D01*
X142271200Y-95411589D01*
X142275602Y-95366889D01*
X142286848Y-95329818D01*
X142305116Y-95295639D01*
X142329693Y-95265693D01*
X142359639Y-95241116D01*
X142393818Y-95222848D01*
X142430889Y-95211602D01*
X142475589Y-95207200D01*
X143968411Y-95207200D01*
X144013111Y-95211602D01*
X144013111Y-95211602D01*
G37*
G36*
X140081809Y-94209962D02*
X140102869Y-94216351D01*
X140122288Y-94226731D01*
X140139305Y-94240695D01*
X140153269Y-94257712D01*
X140163649Y-94277131D01*
X140170038Y-94298191D01*
X140172800Y-94326240D01*
X140172800Y-94789760D01*
X140170038Y-94817809D01*
X140163649Y-94838869D01*
X140153269Y-94858288D01*
X140139305Y-94875305D01*
X140122288Y-94889269D01*
X140102869Y-94899649D01*
X140081809Y-94906038D01*
X140053760Y-94908800D01*
X138640240Y-94908800D01*
X138612191Y-94906038D01*
X138591131Y-94899649D01*
X138571712Y-94889269D01*
X138554695Y-94875305D01*
X138540731Y-94858288D01*
X138530351Y-94838869D01*
X138523962Y-94817809D01*
X138521200Y-94789760D01*
X138521200Y-94326240D01*
X138523962Y-94298191D01*
X138530351Y-94277131D01*
X138540731Y-94257712D01*
X138554695Y-94240695D01*
X138571712Y-94226731D01*
X138591131Y-94216351D01*
X138612191Y-94209962D01*
X138640240Y-94207200D01*
X140053760Y-94207200D01*
X140081809Y-94209962D01*
X140081809Y-94209962D01*
G37*
G36*
X140081809Y-93209962D02*
X140102869Y-93216351D01*
X140122288Y-93226731D01*
X140139305Y-93240695D01*
X140153269Y-93257712D01*
X140163649Y-93277131D01*
X140170038Y-93298191D01*
X140172800Y-93326240D01*
X140172800Y-93789760D01*
X140170038Y-93817809D01*
X140163649Y-93838869D01*
X140153269Y-93858288D01*
X140139305Y-93875305D01*
X140122288Y-93889269D01*
X140102869Y-93899649D01*
X140081809Y-93906038D01*
X140053760Y-93908800D01*
X138640240Y-93908800D01*
X138612191Y-93906038D01*
X138591131Y-93899649D01*
X138571712Y-93889269D01*
X138554695Y-93875305D01*
X138540731Y-93858288D01*
X138530351Y-93838869D01*
X138523962Y-93817809D01*
X138521200Y-93789760D01*
X138521200Y-93326240D01*
X138523962Y-93298191D01*
X138530351Y-93277131D01*
X138540731Y-93257712D01*
X138554695Y-93240695D01*
X138571712Y-93226731D01*
X138591131Y-93216351D01*
X138612191Y-93209962D01*
X138640240Y-93207200D01*
X140053760Y-93207200D01*
X140081809Y-93209962D01*
X140081809Y-93209962D01*
G37*
G36*
X144013111Y-91611602D02*
X144050182Y-91622848D01*
X144084361Y-91641116D01*
X144114307Y-91665693D01*
X144138884Y-91695639D01*
X144157152Y-91729818D01*
X144168398Y-91766889D01*
X144172800Y-91811589D01*
X144172800Y-92704411D01*
X144168398Y-92749111D01*
X144157152Y-92786182D01*
X144138884Y-92820361D01*
X144114307Y-92850307D01*
X144084361Y-92874884D01*
X144050182Y-92893152D01*
X144013111Y-92904398D01*
X143968411Y-92908800D01*
X142475589Y-92908800D01*
X142430889Y-92904398D01*
X142393818Y-92893152D01*
X142359639Y-92874884D01*
X142329693Y-92850307D01*
X142305116Y-92820361D01*
X142286848Y-92786182D01*
X142275602Y-92749111D01*
X142271200Y-92704411D01*
X142271200Y-91811589D01*
X142275602Y-91766889D01*
X142286848Y-91729818D01*
X142305116Y-91695639D01*
X142329693Y-91665693D01*
X142359639Y-91641116D01*
X142393818Y-91622848D01*
X142430889Y-91611602D01*
X142475589Y-91607200D01*
X143968411Y-91607200D01*
X144013111Y-91611602D01*
X144013111Y-91611602D01*
G37*
G36*
X160851771Y-84811908D02*
X160899579Y-84816617D01*
X161022255Y-84853831D01*
X161022258Y-84853832D01*
X161135314Y-84914261D01*
X161234411Y-84995589D01*
X161315739Y-85094686D01*
X161376168Y-85207742D01*
X161376169Y-85207745D01*
X161413383Y-85330421D01*
X161425948Y-85458000D01*
X161413383Y-85585579D01*
X161376169Y-85708255D01*
X161376168Y-85708258D01*
X161315739Y-85821314D01*
X161234411Y-85920411D01*
X161135314Y-86001739D01*
X161022258Y-86062168D01*
X161022255Y-86062169D01*
X160899579Y-86099383D01*
X160851771Y-86104091D01*
X160803965Y-86108800D01*
X160040035Y-86108800D01*
X159992229Y-86104091D01*
X159944421Y-86099383D01*
X159821745Y-86062169D01*
X159821742Y-86062168D01*
X159708686Y-86001739D01*
X159609589Y-85920411D01*
X159528261Y-85821314D01*
X159467832Y-85708258D01*
X159467831Y-85708255D01*
X159430617Y-85585579D01*
X159418052Y-85458000D01*
X159430617Y-85330421D01*
X159467831Y-85207745D01*
X159467832Y-85207742D01*
X159528261Y-85094686D01*
X159609589Y-84995589D01*
X159708686Y-84914261D01*
X159821742Y-84853832D01*
X159821745Y-84853831D01*
X159944421Y-84816617D01*
X159992229Y-84811908D01*
X160040035Y-84807200D01*
X160803965Y-84807200D01*
X160851771Y-84811908D01*
X160851771Y-84811908D01*
G37*
G36*
X139864283Y-84142702D02*
X140001095Y-84184204D01*
X140127184Y-84251599D01*
X140237701Y-84342299D01*
X140328401Y-84452816D01*
X140395796Y-84578905D01*
X140437298Y-84715717D01*
X140451311Y-84858000D01*
X140437298Y-85000283D01*
X140395796Y-85137095D01*
X140328401Y-85263184D01*
X140237701Y-85373701D01*
X140127184Y-85464401D01*
X140001095Y-85531796D01*
X139864283Y-85573298D01*
X139757650Y-85583800D01*
X139686350Y-85583800D01*
X139579717Y-85573298D01*
X139442905Y-85531796D01*
X139316816Y-85464401D01*
X139206299Y-85373701D01*
X139115599Y-85263184D01*
X139048204Y-85137095D01*
X139006702Y-85000283D01*
X138992689Y-84858000D01*
X139006702Y-84715717D01*
X139048204Y-84578905D01*
X139115599Y-84452816D01*
X139206299Y-84342299D01*
X139316816Y-84251599D01*
X139442905Y-84184204D01*
X139579717Y-84142702D01*
X139686350Y-84132200D01*
X139757650Y-84132200D01*
X139864283Y-84142702D01*
X139864283Y-84142702D01*
G37*
G36*
X157948293Y-83712013D02*
X158089478Y-83770494D01*
X158216547Y-83855399D01*
X158324601Y-83963453D01*
X158409506Y-84090522D01*
X158467987Y-84231707D01*
X158497800Y-84381589D01*
X158497800Y-84534411D01*
X158467987Y-84684293D01*
X158409506Y-84825478D01*
X158324601Y-84952547D01*
X158216547Y-85060601D01*
X158089478Y-85145506D01*
X157948293Y-85203987D01*
X157798411Y-85233800D01*
X157645589Y-85233800D01*
X157495707Y-85203987D01*
X157354522Y-85145506D01*
X157227453Y-85060601D01*
X157119399Y-84952547D01*
X157034494Y-84825478D01*
X156976013Y-84684293D01*
X156946200Y-84534411D01*
X156946200Y-84381589D01*
X156976013Y-84231707D01*
X157034494Y-84090522D01*
X157119399Y-83963453D01*
X157227453Y-83855399D01*
X157354522Y-83770494D01*
X157495707Y-83712013D01*
X157645589Y-83682200D01*
X157798411Y-83682200D01*
X157948293Y-83712013D01*
X157948293Y-83712013D01*
G37*
G36*
X139864283Y-82142702D02*
X140001095Y-82184204D01*
X140127184Y-82251599D01*
X140237701Y-82342299D01*
X140328401Y-82452816D01*
X140395796Y-82578905D01*
X140437298Y-82715717D01*
X140451311Y-82858000D01*
X140437298Y-83000283D01*
X140395796Y-83137095D01*
X140328401Y-83263184D01*
X140237701Y-83373701D01*
X140127184Y-83464401D01*
X140001095Y-83531796D01*
X139864283Y-83573298D01*
X139757650Y-83583800D01*
X139686350Y-83583800D01*
X139579717Y-83573298D01*
X139442905Y-83531796D01*
X139316816Y-83464401D01*
X139206299Y-83373701D01*
X139115599Y-83263184D01*
X139048204Y-83137095D01*
X139006702Y-83000283D01*
X138992689Y-82858000D01*
X139006702Y-82715717D01*
X139048204Y-82578905D01*
X139115599Y-82452816D01*
X139206299Y-82342299D01*
X139316816Y-82251599D01*
X139442905Y-82184204D01*
X139579717Y-82142702D01*
X139686350Y-82132200D01*
X139757650Y-82132200D01*
X139864283Y-82142702D01*
X139864283Y-82142702D01*
G37*
G36*
X139864283Y-80142702D02*
X140001095Y-80184204D01*
X140127184Y-80251599D01*
X140237701Y-80342299D01*
X140328401Y-80452816D01*
X140395796Y-80578905D01*
X140437298Y-80715717D01*
X140451311Y-80858000D01*
X140437298Y-81000283D01*
X140395796Y-81137095D01*
X140328401Y-81263184D01*
X140237701Y-81373701D01*
X140127184Y-81464401D01*
X140001095Y-81531796D01*
X139864283Y-81573298D01*
X139757650Y-81583800D01*
X139686350Y-81583800D01*
X139579717Y-81573298D01*
X139442905Y-81531796D01*
X139316816Y-81464401D01*
X139206299Y-81373701D01*
X139115599Y-81263184D01*
X139048204Y-81137095D01*
X139006702Y-81000283D01*
X138992689Y-80858000D01*
X139006702Y-80715717D01*
X139048204Y-80578905D01*
X139115599Y-80452816D01*
X139206299Y-80342299D01*
X139316816Y-80251599D01*
X139442905Y-80184204D01*
X139579717Y-80142702D01*
X139686350Y-80132200D01*
X139757650Y-80132200D01*
X139864283Y-80142702D01*
X139864283Y-80142702D01*
G37*
G36*
X157948293Y-78712013D02*
X158089478Y-78770494D01*
X158216547Y-78855399D01*
X158324601Y-78963453D01*
X158409506Y-79090522D01*
X158467987Y-79231707D01*
X158497800Y-79381589D01*
X158497800Y-79534411D01*
X158467987Y-79684293D01*
X158409506Y-79825478D01*
X158324601Y-79952547D01*
X158216547Y-80060601D01*
X158089478Y-80145506D01*
X157948293Y-80203987D01*
X157798411Y-80233800D01*
X157645589Y-80233800D01*
X157495707Y-80203987D01*
X157354522Y-80145506D01*
X157227453Y-80060601D01*
X157119399Y-79952547D01*
X157034494Y-79825478D01*
X156976013Y-79684293D01*
X156946200Y-79534411D01*
X156946200Y-79381589D01*
X156976013Y-79231707D01*
X157034494Y-79090522D01*
X157119399Y-78963453D01*
X157227453Y-78855399D01*
X157354522Y-78770494D01*
X157495707Y-78712013D01*
X157645589Y-78682200D01*
X157798411Y-78682200D01*
X157948293Y-78712013D01*
X157948293Y-78712013D01*
G37*
G36*
X140447800Y-79583800D02*
X138996200Y-79583800D01*
X138996200Y-78132200D01*
X140447800Y-78132200D01*
X140447800Y-79583800D01*
X140447800Y-79583800D01*
G37*
G36*
X160851771Y-77811908D02*
X160899579Y-77816617D01*
X161022255Y-77853831D01*
X161022258Y-77853832D01*
X161135314Y-77914261D01*
X161234411Y-77995589D01*
X161315739Y-78094686D01*
X161376168Y-78207742D01*
X161376169Y-78207745D01*
X161413383Y-78330421D01*
X161425948Y-78458000D01*
X161413383Y-78585579D01*
X161384073Y-78682200D01*
X161376168Y-78708258D01*
X161315739Y-78821314D01*
X161234411Y-78920411D01*
X161135314Y-79001739D01*
X161022258Y-79062168D01*
X161022255Y-79062169D01*
X160899579Y-79099383D01*
X160851771Y-79104091D01*
X160803965Y-79108800D01*
X160040035Y-79108800D01*
X159992229Y-79104091D01*
X159944421Y-79099383D01*
X159821745Y-79062169D01*
X159821742Y-79062168D01*
X159708686Y-79001739D01*
X159609589Y-78920411D01*
X159528261Y-78821314D01*
X159467832Y-78708258D01*
X159459927Y-78682200D01*
X159430617Y-78585579D01*
X159418052Y-78458000D01*
X159430617Y-78330421D01*
X159467831Y-78207745D01*
X159467832Y-78207742D01*
X159528261Y-78094686D01*
X159609589Y-77995589D01*
X159708686Y-77914261D01*
X159821742Y-77853832D01*
X159821745Y-77853831D01*
X159944421Y-77816617D01*
X159992229Y-77811908D01*
X160040035Y-77807200D01*
X160803965Y-77807200D01*
X160851771Y-77811908D01*
X160851771Y-77811908D01*
G37*
M02*
